<svg version="1.1" id="Layer_1" xmlns="http://www.w3.org/2000/svg" x="0" y="0" viewBox="0 0 50 44" xml:space="preserve"><style>.st0{fill:#ffed00}</style><text transform="translate(-331.4844 138.8359)" font-family="Montserrat-Medium" font-size="13.7445">Pet friendly</text><text transform="translate(294.5718 138.9785)"><tspan x="0" y="0" font-family="Montserrat-Medium" font-size="13.7445">Café e </tspan><tspan x="-18.29" y="16.49" font-family="Montserrat-Medium" font-size="13.7445">hidratación</tspan></text><text transform="translate(-115.9683 138.9961)" font-family="Montserrat-Medium" font-size="13.7445">Lockers</text><text transform="translate(84.6162 139.4189)" font-family="Montserrat-Medium" font-size="13.7445">Café bar</text><path class="st0" d="M-100.47 82.19h-5.82c-.34 0-.61.27-.61.61s.27.61.61.61h5.82c.34 0 .61-.27.61-.61s-.27-.61-.61-.61zM-100.47 84.63h-5.82c-.34 0-.61.27-.61.61s.27.61.61.61h5.82c.34 0 .61-.27.61-.61s-.27-.61-.61-.61zM-100.47 87.07h-5.82c-.34 0-.61.27-.61.61 0 .34.27.61.61.61h5.82c.34 0 .61-.27.61-.61 0-.34-.27-.61-.61-.61zM-100.47 105.33h-5.82c-.34 0-.61.27-.61.61 0 .34.27.61.61.61h5.82c.34 0 .61-.27.61-.61 0-.33-.27-.61-.61-.61zM-100.47 107.77h-5.82c-.34 0-.61.27-.61.61 0 .34.27.61.61.61h5.82c.34 0 .61-.27.61-.61 0-.34-.27-.61-.61-.61zM-100.47 110.2h-5.82c-.34 0-.61.27-.61.61s.27.61.61.61h5.82c.34 0 .61-.27.61-.61s-.27-.61-.61-.61zM-105.07 98.64c1.01 0 1.83-.82 1.83-1.83s-.82-1.83-1.83-1.83-1.83.82-1.83 1.83.83 1.83 1.83 1.83zm0-2.44c.34 0 .61.27.61.61s-.27.61-.61.61-.61-.27-.61-.61.28-.61.61-.61zM-88.15 82.19h-5.82c-.34 0-.61.27-.61.61s.27.61.61.61h5.82c.34 0 .61-.27.61-.61s-.28-.61-.61-.61zM-88.15 84.63h-5.82c-.34 0-.61.27-.61.61s.27.61.61.61h5.82c.34 0 .61-.27.61-.61s-.28-.61-.61-.61zM-88.15 87.07h-5.82c-.34 0-.61.27-.61.61 0 .34.27.61.61.61h5.82c.34 0 .61-.27.61-.61 0-.34-.28-.61-.61-.61zM-88.15 105.33h-5.82c-.34 0-.61.27-.61.61 0 .34.27.61.61.61h5.82c.34 0 .61-.27.61-.61 0-.33-.28-.61-.61-.61zM-88.15 107.77h-5.82c-.34 0-.61.27-.61.61 0 .34.27.61.61.61h5.82c.34 0 .61-.27.61-.61 0-.34-.28-.61-.61-.61zM-88.15 110.2h-5.82c-.34 0-.61.27-.61.61s.27.61.61.61h5.82c.34 0 .61-.27.61-.61s-.28-.61-.61-.61zM-92.75 98.64c1.01 0 1.83-.82 1.83-1.83s-.82-1.83-1.83-1.83-1.83.82-1.83 1.83.82 1.83 1.83 1.83zm0-2.44c.34 0 .61.27.61.61s-.27.61-.61.61-.61-.27-.61-.61.27-.61.61-.61zM-81.66 83.41h5.82c.34 0 .61-.27.61-.61s-.27-.61-.61-.61h-5.82c-.34 0-.61.27-.61.61s.28.61.61.61zM-75.84 84.63h-5.82c-.34 0-.61.27-.61.61s.27.61.61.61h5.82c.34 0 .61-.27.61-.61s-.27-.61-.61-.61zM-75.84 87.07h-5.82c-.34 0-.61.27-.61.61 0 .34.27.61.61.61h5.82c.34 0 .61-.27.61-.61 0-.34-.27-.61-.61-.61zM-75.84 105.33h-5.82c-.34 0-.61.27-.61.61 0 .34.27.61.61.61h5.82c.34 0 .61-.27.61-.61 0-.33-.27-.61-.61-.61zM-75.84 107.77h-5.82c-.34 0-.61.27-.61.61 0 .34.27.61.61.61h5.82c.34 0 .61-.27.61-.61 0-.34-.27-.61-.61-.61zM-75.84 110.2h-5.82c-.34 0-.61.27-.61.61s.27.61.61.61h5.82c.34 0 .61-.27.61-.61s-.27-.61-.61-.61zM-80.44 98.64c1.01 0 1.83-.82 1.83-1.83s-.82-1.83-1.83-1.83c-1.01 0-1.83.82-1.83 1.83s.82 1.83 1.83 1.83zm0-2.44c.34 0 .61.27.61.61s-.27.61-.61.61-.61-.27-.61-.61.27-.61.61-.61z"/><path class="st0" d="M-72.59 78.95h-36.94c-.34 0-.61.27-.61.61v36.94c0 .34.27.61.61.61s.61-.27.61-.61v-1.83h11.1v1.83c0 .34.27.61.61.61s.61-.27.61-.61v-1.83h11.1v1.83c0 .34.27.61.61.61.34 0 .61-.27.61-.61v-1.83h11.1v1.83c0 .34.27.61.61.61.34 0 .61-.27.61-.61V79.56c-.02-.34-.29-.61-.63-.61zm-11.71 34.5V87.67c0-.34-.27-.61-.61-.61-.34 0-.61.27-.61.61v25.78h-11.1v-7.51c0-.34-.27-.61-.61-.61s-.61.27-.61.61v7.51h-11.1V80.16h11.1v27.6c0 .34.27.61.61.61s.61-.27.61-.61v-27.6h11.1v9.8c0 .34.27.61.61.61.34 0 .61-.27.61-.61v-9.8h11.1v33.29h-11.1z"/><g><path d="M-98.43 83.61h-5.82c-.34 0-.61.27-.61.61s.27.61.61.61h5.82c.34 0 .61-.27.61-.61s-.27-.61-.61-.61zM-98.43 86.04h-5.82c-.34 0-.61.27-.61.61s.27.61.61.61h5.82c.34 0 .61-.27.61-.61s-.27-.61-.61-.61zM-98.43 88.48h-5.82c-.34 0-.61.27-.61.61 0 .34.27.61.61.61h5.82c.34 0 .61-.27.61-.61 0-.34-.27-.61-.61-.61zM-98.43 106.75h-5.82c-.34 0-.61.27-.61.61s.27.61.61.61h5.82c.34 0 .61-.27.61-.61s-.27-.61-.61-.61zM-98.43 109.18h-5.82c-.34 0-.61.27-.61.61 0 .34.27.61.61.61h5.82c.34 0 .61-.27.61-.61 0-.34-.27-.61-.61-.61zM-98.43 111.62h-5.82c-.34 0-.61.27-.61.61s.27.61.61.61h5.82c.34 0 .61-.27.61-.61s-.27-.61-.61-.61zM-103.03 100.05c1.01 0 1.83-.82 1.83-1.83 0-1.01-.82-1.83-1.83-1.83-1.01 0-1.83.82-1.83 1.83.01 1.01.83 1.83 1.83 1.83zm0-2.44c.34 0 .61.27.61.61s-.27.61-.61.61-.61-.27-.61-.61.28-.61.61-.61zM-86.11 83.61h-5.82c-.34 0-.61.27-.61.61s.27.61.61.61h5.82c.34 0 .61-.27.61-.61s-.28-.61-.61-.61zM-86.11 86.04h-5.82c-.34 0-.61.27-.61.61s.27.61.61.61h5.82c.34 0 .61-.27.61-.61s-.28-.61-.61-.61zM-86.11 88.48h-5.82c-.34 0-.61.27-.61.61 0 .34.27.61.61.61h5.82c.34 0 .61-.27.61-.61 0-.34-.28-.61-.61-.61zM-86.11 106.75h-5.82c-.34 0-.61.27-.61.61s.27.61.61.61h5.82c.34 0 .61-.27.61-.61s-.28-.61-.61-.61zM-86.11 109.18h-5.82c-.34 0-.61.27-.61.61 0 .34.27.61.61.61h5.82c.34 0 .61-.27.61-.61 0-.34-.28-.61-.61-.61zM-86.11 111.62h-5.82c-.34 0-.61.27-.61.61s.27.61.61.61h5.82c.34 0 .61-.27.61-.61s-.28-.61-.61-.61zM-90.71 100.05c1.01 0 1.83-.82 1.83-1.83 0-1.01-.82-1.83-1.83-1.83-1.01 0-1.83.82-1.83 1.83 0 1.01.82 1.83 1.83 1.83zm0-2.44c.34 0 .61.27.61.61s-.27.61-.61.61-.61-.27-.61-.61.27-.61.61-.61zM-79.62 84.83h5.82c.34 0 .61-.27.61-.61s-.27-.61-.61-.61h-5.82c-.34 0-.61.27-.61.61s.28.61.61.61zM-73.8 86.04h-5.82c-.34 0-.61.27-.61.61s.27.61.61.61h5.82c.34 0 .61-.27.61-.61s-.27-.61-.61-.61zM-73.8 88.48h-5.82c-.34 0-.61.27-.61.61 0 .34.27.61.61.61h5.82c.34 0 .61-.27.61-.61 0-.34-.27-.61-.61-.61zM-73.8 106.75h-5.82c-.34 0-.61.27-.61.61s.27.61.61.61h5.82c.34 0 .61-.27.61-.61s-.27-.61-.61-.61zM-73.8 109.18h-5.82c-.34 0-.61.27-.61.61 0 .34.27.61.61.61h5.82c.34 0 .61-.27.61-.61 0-.34-.27-.61-.61-.61zM-73.8 111.62h-5.82c-.34 0-.61.27-.61.61s.27.61.61.61h5.82c.34 0 .61-.27.61-.61s-.27-.61-.61-.61zM-78.4 100.05c1.01 0 1.83-.82 1.83-1.83 0-1.01-.82-1.83-1.83-1.83-1.01 0-1.83.82-1.83 1.83 0 1.01.82 1.83 1.83 1.83zm0-2.44c.34 0 .61.27.61.61s-.27.61-.61.61c-.34 0-.61-.27-.61-.61s.27-.61.61-.61z"/><path d="M-70.55 80.36h-36.94c-.34 0-.61.27-.61.61v36.94c0 .34.27.61.61.61s.61-.27.61-.61v-1.83h11.1v1.83c0 .34.27.61.61.61.34 0 .61-.27.61-.61v-1.83h11.1v1.83c0 .34.27.61.61.61.34 0 .61-.27.61-.61v-1.83h11.1v1.83c0 .34.27.61.61.61.34 0 .61-.27.61-.61V80.97c-.02-.34-.3-.61-.63-.61zm-11.71 34.51V89.09c0-.34-.27-.61-.61-.61-.34 0-.61.27-.61.61v25.78h-11.1v-7.51c0-.34-.27-.61-.61-.61-.34 0-.61.27-.61.61v7.51h-11.1V81.58h11.1v27.6c0 .34.27.61.61.61.34 0 .61-.27.61-.61v-27.6h11.1v9.8c0 .34.27.61.61.61.34 0 .61-.27.61-.61v-9.8h11.1v33.29h-11.1z"/></g><g><path class="st0" d="M141.51 108.91h-.25c.64-.88.93-1.89.83-2.93-.24-2.34-2.53-4.68-4.6-6.35.01-.01.01-.03.02-.04.27-.66.12-1.42-.37-1.93l-.1-.1c-2.15-2.71-6.89-4.07-7.23-4.18-.06-.63-.44-1.2-1.03-1.47-1.28-.6-4.07-1.6-8.46-1.61-1.47 0-2.76.12-3.88.29v-2.84c0-2.35-1.91-4.26-4.26-4.26H108v-3.22c0-.5-.4-.9-.9-.9H86.2c-.5 0-.9.4-.9.9v24.5c0 1.15.83 2.1 1.92 2.3v1.84h-1.8c-1.49 0-2.7 1.21-2.7 2.7 0 1.49 1.21 2.7 2.7 2.7h.84v.3c0 1.69 1.37 3.06 3.06 3.06h48.28c1.69 0 3.06-1.37 3.06-3.06v-.3h.84c1.49 0 2.7-1.21 2.7-2.7.01-1.49-1.2-2.7-2.69-2.7zm-1.21-2.74c.1 1-.49 1.99-1.65 2.74h-6.2c1.79-2.37 3.31-5.38 4.29-7.56 2.14 1.8 3.42 3.52 3.56 4.82zm-10.67-10.94c.58.2 1.24.48 1.95.79.8.34 2.96 1.75 3.11 1.87.35.28.68.57.99.88.05.06.09.12.14.18-.07.17-.16.38-.26.62-.82 1.92-2.96 6.59-5.44 9.35h-2.97c.43-1.07.92-2.89 1.46-6.14.46-2.73.81-5.61 1.02-7.55zm-9.32-3.13c4.18.01 6.77 1.01 7.69 1.44l-.04.4c-.19 1.77-.58 5.23-1.12 8.48-.89 5.35-1.58 6.34-1.72 6.49h-9.62c-.14-.15-.83-1.15-1.72-6.49-.54-3.25-.93-6.7-1.12-8.48l-.01-.07v-.01l-.03-.33c.92-.42 3.51-1.42 7.69-1.43zm-12.29-6.81h4.14c1.36 0 2.46 1.1 2.46 2.46v3.2c-.71.18-1.31.37-1.8.55v-3.27c0-.63-.51-1.14-1.14-1.14h-3.66v-1.8zM108 88.9h3.02v3.81c-.06.12-.11.25-.15.39H108v-4.2zm-.48 7.91c.03-.02.06-.03.09-.05 0 0 .01 0 .01-.01 1.19-.69 2.39-1.18 3.37-1.52.22 1.94.57 4.82 1.02 7.55.54 3.25 1.03 5.07 1.46 6.14h-2.97c-2.49-2.76-4.62-7.42-5.44-9.34-.11-.25-.2-.48-.27-.66.82-.86 1.76-1.55 2.73-2.11zm.66 12.1h-6.25c-1.08-.72-1.67-1.68-1.61-2.65 0-.03 0-.06.01-.09.14-1.3 1.42-3.02 3.55-4.81.99 2.17 2.5 5.18 4.3 7.55zm-21.07-4.14v-23.6h19.1V95.5c-.95.6-1.89 1.31-2.7 2.16-.49.52-.64 1.28-.37 1.93.01.01.01.03.02.04-1.88 1.51-3.92 3.57-4.48 5.67H87.65c-.3.01-.54-.23-.54-.53zm12.24 4.14H89.03v-1.8h9.55c.11.63.37 1.24.77 1.8zm42.16 3.6H94.27c-.5 0-.9.4-.9.9s.4.9.9.9h44.6v.3c0 .7-.57 1.26-1.26 1.26H89.33c-.7 0-1.26-.57-1.26-1.26v-.3h17.26c.5 0 .9-.4.9-.9s-.4-.9-.9-.9h-19.9c-.5 0-.9-.4-.9-.9s.4-.9.9-.9h56.08c.5 0 .9.4.9.9s-.41.9-.9.9z"/><path d="M143.55 110.32h-.25c.64-.88.93-1.89.83-2.93-.24-2.34-2.53-4.68-4.6-6.35.01-.01.01-.03.02-.04.27-.66.12-1.42-.37-1.93l-.1-.1c-2.15-2.71-6.89-4.07-7.23-4.18-.06-.63-.44-1.2-1.03-1.47-1.28-.6-4.07-1.6-8.46-1.61-1.47 0-2.76.12-3.88.29v-2.84c0-2.35-1.91-4.26-4.26-4.26h-4.17v-3.22c0-.5-.4-.9-.9-.9H88.24c-.5 0-.9.4-.9.9v24.5c0 1.15.83 2.1 1.92 2.3v1.84h-1.8c-1.49 0-2.7 1.21-2.7 2.7 0 1.49 1.21 2.7 2.7 2.7h.84v.3c0 1.69 1.37 3.06 3.06 3.06h48.28c1.69 0 3.06-1.37 3.06-3.06v-.3h.84c1.49 0 2.7-1.21 2.7-2.7.01-1.48-1.2-2.7-2.69-2.7zm-1.22-2.74c.1 1-.49 1.99-1.65 2.74h-6.2c1.79-2.37 3.31-5.38 4.29-7.56 2.15 1.8 3.43 3.53 3.56 4.82zm-10.66-10.94c.58.2 1.24.48 1.95.79.8.34 2.96 1.75 3.11 1.87.35.28.68.57.99.88.05.06.09.12.14.18-.07.17-.16.38-.26.62-.82 1.92-2.96 6.59-5.44 9.35h-2.97c.43-1.07.92-2.89 1.46-6.14.45-2.73.81-5.61 1.02-7.55zm-9.32-3.13c4.18.01 6.77 1.01 7.69 1.44l-.04.4c-.19 1.77-.58 5.23-1.12 8.48-.89 5.35-1.58 6.34-1.72 6.49h-9.62c-.14-.15-.83-1.15-1.72-6.49-.54-3.25-.93-6.7-1.12-8.48l-.01-.07v-.01l-.03-.33c.92-.42 3.51-1.42 7.69-1.43zm-12.29-6.8h4.14c1.36 0 2.46 1.1 2.46 2.46v3.2c-.71.18-1.31.37-1.8.55v-3.27c0-.63-.51-1.14-1.14-1.14h-3.66v-1.8zm-.02 3.6h3.02v3.81c-.06.12-.11.25-.15.39h-2.87v-4.2zm-.49 7.91c.03-.02.06-.03.09-.05 0 0 .01 0 .01-.01 1.19-.69 2.39-1.18 3.37-1.52.22 1.94.57 4.82 1.02 7.55.54 3.25 1.03 5.07 1.46 6.14h-2.97c-2.49-2.76-4.62-7.42-5.44-9.34-.11-.25-.2-.48-.27-.66.83-.85 1.77-1.54 2.73-2.11zm.67 12.1h-6.25c-1.08-.72-1.67-1.68-1.61-2.65 0-.03 0-.06.01-.09.14-1.3 1.42-3.02 3.55-4.81.98 2.18 2.5 5.18 4.3 7.55zm-21.07-4.14v-23.6h19.1v14.33c-.95.6-1.89 1.31-2.7 2.16-.49.52-.64 1.28-.37 1.93.01.01.01.03.02.04-1.88 1.51-3.92 3.57-4.48 5.67H89.69c-.3.01-.54-.23-.54-.53zm12.24 4.14H91.07v-1.8h9.55c.11.64.37 1.25.77 1.8zm42.16 3.61H96.31c-.5 0-.9.4-.9.9s.4.9.9.9h44.6v.3c0 .7-.57 1.26-1.26 1.26H91.37c-.7 0-1.26-.57-1.26-1.26v-.3h17.26c.5 0 .9-.4.9-.9s-.4-.9-.9-.9h-19.9c-.5 0-.9-.4-.9-.9s.4-.9.9-.9h56.08c.5 0 .9.4.9.9 0 .49-.41.9-.9.9z"/></g><g><path class="st0" d="M327.39 93.46h-25.44c-1.5 0-2.73 1.22-2.73 2.73v1.82c0 6.48 3.58 12.36 9.35 15.35.45.23.99.06 1.22-.39.23-.45.06-.99-.39-1.22-5.16-2.67-8.36-7.93-8.36-13.73V96.2c0-.5.41-.91.91-.91h25.44c.5 0 .91.41.91.91v1.82c0 5.8-3.21 11.06-8.36 13.73-.45.23-.62.78-.39 1.22.16.31.48.49.81.49.14 0 .28-.03.42-.1 5.77-2.98 9.35-8.86 9.35-15.34V96.2c-.02-1.51-1.24-2.74-2.74-2.74z"/><path class="st0" d="M335.5 112.19c-.14-.34-.47-.56-.84-.56h-39.98c-.37 0-.7.22-.84.56-.14.34-.06.73.2.99l2.04 2.04c1.2 1.2 2.8 1.86 4.5 1.86h28.19c1.7 0 3.3-.66 4.5-1.86l2.04-2.04c.25-.25.33-.65.19-.99zm-3.52 1.75c-.86.86-2 1.33-3.21 1.33h-28.19c-1.21 0-2.35-.47-3.21-1.33l-.49-.49h35.59l-.49.49zM335.62 97.75c-2.45-1.57-6.36.13-6.8.33-.46.21-.66.75-.45 1.2.21.46.75.66 1.2.45.88-.4 3.69-1.34 5.06-.46.62.4.92 1.17.92 2.35 0 3.64-7.34 5.84-10.17 6.38l-.64.13c-.49.1-.81.57-.72 1.07.09.43.47.73.89.73.06 0 .12-.01.18-.02l.64-.13c.48-.09 11.64-2.28 11.64-8.16.01-1.81-.58-3.11-1.75-3.87zM321.74 85.85c1.48-1.85 1.48-4.74 0-6.58-.31-.39-.88-.46-1.28-.14-.39.31-.46.88-.14 1.28.94 1.17.94 3.14 0 4.32-1.48 1.85-1.48 4.74 0 6.58.18.23.44.34.71.34.2 0 .4-.07.57-.2.39-.31.46-.89.14-1.28-.94-1.17-.94-3.14 0-4.32zM316.28 85.85c1.48-1.85 1.48-4.74 0-6.58-.31-.39-.88-.46-1.28-.14s-.46.89-.14 1.28c.94 1.17.94 3.14 0 4.32-1.48 1.85-1.48 4.74 0 6.58.18.23.44.34.71.34.2 0 .4-.07.57-.2.39-.31.46-.88.14-1.28-.94-1.17-.94-3.14 0-4.32zM310.84 85.86c1.48-1.85 1.48-4.74 0-6.58-.31-.39-.88-.46-1.28-.14-.39.31-.45.88-.14 1.28.94 1.17.94 3.14 0 4.32-1.48 1.85-1.48 4.74 0 6.58.18.23.44.34.71.34.2 0 .4-.07.57-.2.39-.31.46-.89.14-1.28-.94-1.18-.94-3.15 0-4.32z"/><g><path d="M329.43 94.88h-25.44c-1.5 0-2.73 1.22-2.73 2.73v1.82c0 6.48 3.58 12.36 9.35 15.35.45.23.99.06 1.22-.39.23-.45.06-.99-.39-1.22-5.16-2.67-8.36-7.93-8.36-13.73V97.6c0-.5.41-.91.91-.91h25.44c.5 0 .91.41.91.91v1.82c0 5.8-3.21 11.06-8.36 13.73-.45.23-.62.78-.39 1.22.16.31.48.49.81.49.14 0 .28-.03.42-.1 5.77-2.98 9.35-8.86 9.35-15.34V97.6c-.02-1.5-1.24-2.72-2.74-2.72z"/><path d="M337.54 113.61c-.14-.34-.47-.56-.84-.56h-39.98c-.37 0-.7.22-.84.56-.14.34-.06.73.2.99l2.04 2.04c1.2 1.2 2.8 1.86 4.5 1.86h28.19c1.7 0 3.3-.66 4.5-1.86l2.04-2.04c.25-.26.33-.65.19-.99zm-3.52 1.74c-.86.86-2 1.33-3.21 1.33h-28.19c-1.21 0-2.35-.47-3.21-1.33l-.49-.49h35.59l-.49.49zM337.66 99.17c-2.45-1.57-6.36.13-6.8.33-.46.21-.66.75-.45 1.2.21.46.75.66 1.2.45.88-.4 3.69-1.34 5.06-.46.62.4.92 1.17.92 2.35 0 3.64-7.34 5.84-10.17 6.38l-.64.13c-.49.1-.81.57-.72 1.07.09.43.47.73.89.73.06 0 .12-.01.18-.02l.64-.13c.48-.09 11.64-2.28 11.64-8.16.01-1.81-.58-3.12-1.75-3.87zM323.78 87.27c1.48-1.85 1.48-4.74 0-6.58-.31-.39-.88-.46-1.28-.14-.39.31-.46.88-.14 1.28.94 1.17.94 3.14 0 4.32-1.48 1.85-1.48 4.74 0 6.58.18.23.44.34.71.34.2 0 .4-.07.57-.2.39-.31.46-.89.14-1.28-.94-1.18-.94-3.15 0-4.32zM318.32 87.27c1.48-1.85 1.48-4.74 0-6.58-.31-.39-.88-.46-1.28-.14-.39.31-.46.89-.14 1.28.94 1.17.94 3.14 0 4.32-1.48 1.85-1.48 4.74 0 6.58.18.23.44.34.71.34.2 0 .4-.07.57-.2.39-.31.46-.88.14-1.28-.94-1.18-.94-3.15 0-4.32zM312.88 87.27c1.48-1.85 1.48-4.74 0-6.58-.31-.39-.88-.46-1.28-.14-.39.31-.45.88-.14 1.28.94 1.17.94 3.14 0 4.32-1.48 1.85-1.48 4.74 0 6.58.18.23.44.34.71.34.2 0 .4-.07.57-.2.39-.31.46-.89.14-1.28-.94-1.18-.94-3.15 0-4.32z"/></g></g><g><path class="st0" d="M44.6 6.93C41.15 1.02 33.57-.98 27.65 2.47c-1.43.83-2.68 1.95-3.67 3.27l-.56.76-.57-.76C20.5 2.63 16.84.79 12.94.78h-.3C8.4.78 4.46 2.94 2.19 6.52.78 8.73.03 11.3.03 13.93v2.25C.02 22.89 3.4 29.15 9.02 32.82l1.33.87 5.47 3.58 7.18 4.7c.26.17.6.17.86 0l14.05-9.31c5.57-3.68 8.92-9.91 8.91-16.58v-1c-.01-2.87-.77-5.68-2.22-8.15zM18.82 36.99l.29.57-6.27-4.11-1.64-1.07-.45-.29 3.96-5.93c.09-.13.13-.28.13-.43v-2.44-.15c.04-.96.41-1.89 1.04-2.62l.13-.15.41 1.65c.09.35.4.59.76.59h1.87c.52 0 1.01.26 1.3.7.53.8 1.35 1.36 2.29 1.56v.86c0 .86-.7 1.56-1.56 1.56-.43 0-.78.35-.78.78v2.84c0 .54-.16 1.07-.46 1.51l-.97 1.45c-.09.13-.13.28-.13.43v2.34c0 .13.03.24.08.35zm3.04 2.38l-.78-.51v-.66c0-.12-.03-.24-.08-.35l-.01-.02.87-.87v2.41zm6.24-2.08l-1.56 1.03v-4.41l1.56-1.17v4.55zm1.45-9.76c-.06 1.13-.48 2.22-1.21 3.09l-3.05 2.29c-.2.15-.31.38-.31.62v5.83l-1.56 1.03v-5.3c0-.43-.35-.78-.78-.78-.21 0-.41.08-.55.23l-1.79 1.79v-1.78l.84-1.26c.47-.7.72-1.53.72-2.38v-2.16c1.38-.36 2.34-1.6 2.34-3.02v-1.56c0-.43-.35-.78-.78-.78-.71 0-1.38-.36-1.78-.95-.32-.48-.77-.87-1.3-1.11l1.19-1.19-.03.05 2.71 1.35c1.4.7 2.95 1.06 4.52 1.07h.34l.39 2.95c.1.65.12 1.31.09 1.97zM24.2 14.81v2.53c0 .32-.26.59-.59.59h-.97v-1.39c-.01-1.9.75-3.72 2.1-5.06.36-.36.85-.57 1.37-.57h1.69c.49 0 .96.19 1.3.54l1.57 1.57c.15.15.34.23.55.23h1.56v1.17c0 .65-.52 1.17-1.17 1.17h-1.95c-.43 0-.78.35-.78.78v4.68h-.14c-1.33 0-2.64-.31-3.82-.9l-1.31-.66h.01c1.18 0 2.14-.96 2.15-2.15v-2.53H24.2zm21.05 1.27c.01 6.15-3.08 11.89-8.21 15.28l-7.38 4.89v-4.79c.88-1.1 1.39-2.46 1.46-3.86.04-.75.01-1.5-.09-2.25l-.6-4.35v-3.85h1.17c1.51 0 2.73-1.22 2.73-2.73v-1.95c0-.43-.35-.78-.78-.78h-2.02l-1.34-1.34c-.64-.64-1.5-1-2.41-1H26.1c-.93 0-1.81.37-2.47 1.02-1.64 1.63-2.56 3.85-2.55 6.16v1.85l-2.66 2.66h-.63l-.63-2.53c-.1-.42-.53-.67-.95-.57-.16.04-.3.13-.4.25l-1.11 1.3c-.86 1-1.36 2.26-1.41 3.57V25.46L9.46 31.2c-4.94-3.42-7.88-9.05-7.87-15.05V13.9c0-2.33.66-4.61 1.91-6.57 1.99-3.12 5.43-5.02 9.14-5.02h.3c3.41.01 6.61 1.61 8.66 4.33l1.19 1.59c.26.34.75.41 1.09.16.06-.04.11-.1.16-.16l1.19-1.59C28.82 1.85 35.61.88 40.39 4.47c1.16.87 2.13 1.96 2.86 3.21 1.3 2.24 1.99 4.78 1.99 7.36l.01 1.04z"/><path d="M46.8 8.45C43.35 2.54 35.77.54 29.85 3.99c-1.43.83-2.68 1.95-3.67 3.27l-.57.76-.57-.76c-2.35-3.11-6.01-4.95-9.91-4.96h-.3c-4.24 0-8.18 2.16-10.45 5.74-1.41 2.21-2.16 4.78-2.16 7.41v2.25c-.01 6.71 3.37 12.97 8.99 16.64l1.33.87 5.47 3.58 7.18 4.7c.26.17.6.17.86 0l14.05-9.31c5.57-3.68 8.92-9.91 8.91-16.58v-1c-.01-2.87-.77-5.68-2.21-8.15zM21.02 38.51l.29.57-6.27-4.11-1.64-1.07-.45-.29 3.96-5.93c.09-.13.13-.28.13-.43v-2.44-.15c.04-.96.41-1.89 1.04-2.62l.13-.15.41 1.65c.09.35.4.59.76.59h1.87c.52 0 1.01.26 1.3.7.53.8 1.35 1.36 2.29 1.56v.86c0 .86-.7 1.56-1.56 1.56-.43 0-.78.35-.78.78v2.84c0 .54-.16 1.07-.46 1.51l-.97 1.45c-.09.13-.13.28-.13.43v2.34c-.01.13.02.24.08.35zm3.03 2.38l-.78-.51v-.65c0-.12-.03-.24-.08-.35l-.01-.02.87-.87v2.4zm6.24-2.08l-1.56 1.03v-4.41l1.56-1.17v4.55zm1.46-9.76c-.06 1.13-.48 2.22-1.21 3.09l-3.05 2.29c-.2.15-.31.38-.31.62v5.83l-1.56 1.03v-5.3c0-.43-.35-.78-.78-.78-.21 0-.41.08-.55.23l-1.79 1.79v-1.78l.84-1.26c.47-.7.72-1.53.72-2.38v-2.16c1.38-.36 2.34-1.6 2.34-3.02v-1.56c0-.43-.35-.78-.78-.78-.71 0-1.38-.36-1.78-.95-.32-.48-.77-.87-1.3-1.11l1.19-1.19-.03.05 2.71 1.35c1.4.7 2.95 1.06 4.52 1.07h.34l.39 2.95c.09.65.12 1.31.09 1.97zm-5.36-12.72v2.53c0 .32-.26.59-.59.59h-.97v-1.39c-.01-1.9.75-3.72 2.1-5.06.36-.36.85-.57 1.37-.57h1.69c.49 0 .96.19 1.3.54l1.57 1.57c.15.15.34.23.55.23h1.56v1.17c0 .65-.52 1.17-1.17 1.17h-1.95c-.43 0-.78.35-.78.78v4.68h-.14c-1.33 0-2.64-.31-3.82-.9l-1.31-.66h.01c1.18 0 2.14-.96 2.15-2.15v-2.53h-1.57zm21.05 1.27c.01 6.15-3.08 11.89-8.21 15.28l-7.38 4.89v-4.79c.88-1.1 1.39-2.46 1.46-3.86.04-.75.01-1.5-.09-2.25l-.58-4.36v-3.85h1.17c1.51 0 2.73-1.22 2.73-2.73V14c0-.43-.35-.78-.78-.78h-2.02l-1.34-1.34c-.64-.64-1.5-1-2.41-1H28.3c-.93 0-1.81.37-2.47 1.02-1.64 1.63-2.56 3.85-2.55 6.16v1.85l-2.66 2.66h-.63l-.63-2.53c-.1-.42-.53-.67-.95-.57-.16.04-.3.13-.4.25l-1.11 1.3c-.86 1-1.36 2.26-1.41 3.57V26.99l-3.83 5.74c-4.94-3.42-7.88-9.05-7.87-15.05v-2.25c0-2.33.66-4.61 1.91-6.57 1.99-3.12 5.43-5.02 9.14-5.02h.3c3.41.01 6.61 1.61 8.66 4.33l1.19 1.59c.26.34.75.41 1.09.16.06-.04.11-.1.16-.16l1.19-1.59C31.02 3.38 37.81 2.41 42.59 6c1.16.87 2.13 1.96 2.86 3.21 1.3 2.24 1.99 4.78 1.99 7.36v1.03z"/></g></svg>