<svg version="1.1" id="Layer_1" xmlns="http://www.w3.org/2000/svg" x="0" y="0" viewBox="0 0 50 29" xml:space="preserve">
	<style>
		.st0 {
			fill: #ffed00
		}
	</style><text transform="translate(-331.4844 123.8359)" font-family="Montserrat-Medium" font-size="13.7445">Pet
		friendly</text><text transform="translate(294.5718 123.9785)">
		<tspan x="0" y="0" font-family="Montserrat-Medium" font-size="13.7445">Café e </tspan>
		<tspan x="-18.29" y="16.49" font-family="Montserrat-Medium" font-size="13.7445">hidratación</tspan>
	</text><text transform="translate(-115.9683 123.9961)" font-family="Montserrat-Medium"
		font-size="13.7445">Lockers</text><text transform="translate(84.6162 124.4189)" font-family="Montserrat-Medium"
		font-size="13.7445">Café bar</text>
	<path class="st0"
		d="M38.38 7.01c-1.39 0-2.72.28-3.92.79l-2.89-5.61h4.04c.44 0 .79.36.79.79s-.36.79-.79.79h-.86c-.45 0-.82.37-.82.82s.37.82.82.82h.86c1.34 0 2.44-1.09 2.44-2.44S36.96.53 35.61.53h-5.39c-.29 0-.55.15-.7.39-.15.24-.16.55-.03.8l1.44 2.79H19.08l-1.2-2.34h1.89c.45 0 .82-.37.82-.82s-.37-.82-.82-.82h-5.39c-.45 0-.82.37-.82.82s.37.82.82.82h1.65l1.6 3.13-1.88 2.91C14.31 7.44 12.67 7 10.93 7 5.31 7 .74 11.57.74 17.19s4.57 10.19 10.19 10.19c5.34 0 9.74-4.13 10.16-9.37h2.41l-.94 3.05h-.54c-.45 0-.82.37-.82.82 0 .45.37.82.82.82h2.96c.45 0 .82-.37.82-.82 0-.45-.37-.82-.82-.82h-.7l1.08-3.52 6.83-10.55.81 1.56c-2.89 1.8-4.81 5.01-4.81 8.65 0 5.62 4.57 10.19 10.19 10.19 5.62 0 10.19-4.57 10.19-10.19.01-5.62-4.57-10.19-10.19-10.19zm-19.88 0l4.78 9.37H21.1c-.24-2.95-1.74-5.56-3.96-7.26l1.36-2.11zm.95 9.37h-7l3.79-5.88c1.78 1.41 2.99 3.5 3.21 5.88zm-8.51 9.37c-4.71 0-8.55-3.84-8.55-8.55 0-4.71 3.84-8.55 8.55-8.55 1.41 0 2.75.35 3.92.96l-4.61 7.15c-.16.25-.17.57-.03.84.14.26.42.43.72.43h8.51c-.41 4.32-4.07 7.72-8.51 7.72zm13.77-10.19l-4.79-9.39h10.87l-6.08 9.39zm13.67 10.19c-4.71 0-8.55-3.84-8.55-8.55 0-3.01 1.57-5.66 3.92-7.18l3.9 7.56c.15.28.43.45.73.45.13 0 .26-.03.38-.09.4-.21.56-.7.35-1.11l-3.9-7.56c.98-.39 2.05-.61 3.17-.61 4.71 0 8.55 3.84 8.55 8.55 0 4.71-3.83 8.54-8.55 8.54z" />
	<path
		d="M39.81 8c-1.39 0-2.72.28-3.92.79L33 3.18h4.04c.44 0 .79.36.79.79s-.36.79-.79.79h-.86c-.45 0-.82.37-.82.82s.37.82.82.82h.86c1.34 0 2.44-1.09 2.44-2.44s-1.09-2.44-2.44-2.44h-5.39c-.29 0-.55.15-.7.39-.15.24-.16.55-.03.8l1.44 2.79H20.5l-1.2-2.34h1.89c.45 0 .82-.37.82-.82s-.37-.82-.82-.82H15.8c-.45 0-.82.37-.82.82s.37.82.82.82h1.65l1.6 3.13-1.88 2.91c-1.42-.76-3.06-1.2-4.8-1.2C6.75 8 2.18 12.57 2.18 18.19s4.57 10.19 10.19 10.19c5.34 0 9.74-4.13 10.16-9.37h2.41L24 22.06h-.54c-.45 0-.82.37-.82.82 0 .45.37.82.82.82h2.96c.45 0 .82-.37.82-.82 0-.45-.37-.82-.82-.82h-.7l1.08-3.52 6.83-10.55.8 1.54c-2.89 1.8-4.81 5.01-4.81 8.65 0 5.62 4.57 10.19 10.19 10.19C45.43 28.37 50 23.8 50 18.18 50 12.57 45.43 8 39.81 8zM19.92 8l4.78 9.37h-2.18c-.24-2.95-1.74-5.56-3.96-7.26L19.92 8zm.96 9.37h-7l3.79-5.88c1.77 1.41 2.98 3.5 3.21 5.88zm-8.51 9.37c-4.71 0-8.55-3.84-8.55-8.55 0-4.71 3.84-8.55 8.55-8.55 1.41 0 2.75.35 3.92.96l-4.61 7.15c-.16.25-.17.57-.03.84.14.26.42.43.72.43h8.51c-.42 4.32-4.07 7.72-8.51 7.72zm13.76-10.19l-4.79-9.39h10.87l-6.08 9.39zm13.68 10.19c-4.71 0-8.55-3.84-8.55-8.55 0-3.01 1.57-5.66 3.92-7.18l3.9 7.56c.15.28.43.45.73.45.13 0 .26-.03.38-.09.4-.21.56-.7.35-1.11l-3.9-7.56c.98-.39 2.05-.61 3.17-.61 4.71 0 8.55 3.84 8.55 8.55 0 4.7-3.84 8.54-8.55 8.54z" />
	<path class="st0"
		d="M-100.47 67.19h-5.82c-.34 0-.61.27-.61.61s.27.61.61.61h5.82c.34 0 .61-.27.61-.61s-.27-.61-.61-.61zM-100.47 69.63h-5.82c-.34 0-.61.27-.61.61s.27.61.61.61h5.82c.34 0 .61-.27.61-.61s-.27-.61-.61-.61zM-100.47 72.07h-5.82c-.34 0-.61.27-.61.61 0 .34.27.61.61.61h5.82c.34 0 .61-.27.61-.61 0-.34-.27-.61-.61-.61zM-100.47 90.33h-5.82c-.34 0-.61.27-.61.61 0 .34.27.61.61.61h5.82c.34 0 .61-.27.61-.61 0-.33-.27-.61-.61-.61zM-100.47 92.77h-5.82c-.34 0-.61.27-.61.61 0 .34.27.61.61.61h5.82c.34 0 .61-.27.61-.61 0-.34-.27-.61-.61-.61zM-100.47 95.2h-5.82c-.34 0-.61.27-.61.61s.27.61.61.61h5.82c.34 0 .61-.27.61-.61s-.27-.61-.61-.61zM-105.07 83.64c1.01 0 1.83-.82 1.83-1.83s-.82-1.83-1.83-1.83-1.83.82-1.83 1.83.83 1.83 1.83 1.83zm0-2.44c.34 0 .61.27.61.61s-.27.61-.61.61-.61-.27-.61-.61.28-.61.61-.61zM-88.15 67.19h-5.82c-.34 0-.61.27-.61.61s.27.61.61.61h5.82c.34 0 .61-.27.61-.61s-.28-.61-.61-.61zM-88.15 69.63h-5.82c-.34 0-.61.27-.61.61s.27.61.61.61h5.82c.34 0 .61-.27.61-.61s-.28-.61-.61-.61zM-88.15 72.07h-5.82c-.34 0-.61.27-.61.61 0 .34.27.61.61.61h5.82c.34 0 .61-.27.61-.61 0-.34-.28-.61-.61-.61zM-88.15 90.33h-5.82c-.34 0-.61.27-.61.61 0 .34.27.61.61.61h5.82c.34 0 .61-.27.61-.61 0-.33-.28-.61-.61-.61zM-88.15 92.77h-5.82c-.34 0-.61.27-.61.61 0 .34.27.61.61.61h5.82c.34 0 .61-.27.61-.61 0-.34-.28-.61-.61-.61zM-88.15 95.2h-5.82c-.34 0-.61.27-.61.61s.27.61.61.61h5.82c.34 0 .61-.27.61-.61s-.28-.61-.61-.61zM-92.75 83.64c1.01 0 1.83-.82 1.83-1.83s-.82-1.83-1.83-1.83-1.83.82-1.83 1.83.82 1.83 1.83 1.83zm0-2.44c.34 0 .61.27.61.61s-.27.61-.61.61-.61-.27-.61-.61.27-.61.61-.61zM-81.66 68.41h5.82c.34 0 .61-.27.61-.61s-.27-.61-.61-.61h-5.82c-.34 0-.61.27-.61.61s.28.61.61.61zM-75.84 69.63h-5.82c-.34 0-.61.27-.61.61s.27.61.61.61h5.82c.34 0 .61-.27.61-.61s-.27-.61-.61-.61zM-75.84 72.07h-5.82c-.34 0-.61.27-.61.61 0 .34.27.61.61.61h5.82c.34 0 .61-.27.61-.61 0-.34-.27-.61-.61-.61zM-75.84 90.33h-5.82c-.34 0-.61.27-.61.61 0 .34.27.61.61.61h5.82c.34 0 .61-.27.61-.61 0-.33-.27-.61-.61-.61zM-75.84 92.77h-5.82c-.34 0-.61.27-.61.61 0 .34.27.61.61.61h5.82c.34 0 .61-.27.61-.61 0-.34-.27-.61-.61-.61zM-75.84 95.2h-5.82c-.34 0-.61.27-.61.61s.27.61.61.61h5.82c.34 0 .61-.27.61-.61s-.27-.61-.61-.61zM-80.44 83.64c1.01 0 1.83-.82 1.83-1.83s-.82-1.83-1.83-1.83c-1.01 0-1.83.82-1.83 1.83s.82 1.83 1.83 1.83zm0-2.44c.34 0 .61.27.61.61s-.27.61-.61.61-.61-.27-.61-.61.27-.61.61-.61z" />
	<path class="st0"
		d="M-72.59 63.95h-36.94c-.34 0-.61.27-.61.61v36.94c0 .34.27.61.61.61s.61-.27.61-.61v-1.83h11.1v1.83c0 .34.27.61.61.61s.61-.27.61-.61v-1.83h11.1v1.83c0 .34.27.61.61.61.34 0 .61-.27.61-.61v-1.83h11.1v1.83c0 .34.27.61.61.61.34 0 .61-.27.61-.61V64.56c-.02-.34-.29-.61-.63-.61zm-11.71 34.5V72.67c0-.34-.27-.61-.61-.61-.34 0-.61.27-.61.61v25.78h-11.1v-7.51c0-.34-.27-.61-.61-.61s-.61.27-.61.61v7.51h-11.1V65.16h11.1v27.6c0 .34.27.61.61.61s.61-.27.61-.61v-27.6h11.1v9.8c0 .34.27.61.61.61.34 0 .61-.27.61-.61v-9.8h11.1v33.29h-11.1z" />
	<g>
		<path
			d="M-98.43 68.61h-5.82c-.34 0-.61.27-.61.61s.27.61.61.61h5.82c.34 0 .61-.27.61-.61s-.27-.61-.61-.61zM-98.43 71.04h-5.82c-.34 0-.61.27-.61.61s.27.61.61.61h5.82c.34 0 .61-.27.61-.61s-.27-.61-.61-.61zM-98.43 73.48h-5.82c-.34 0-.61.27-.61.61 0 .34.27.61.61.61h5.82c.34 0 .61-.27.61-.61 0-.34-.27-.61-.61-.61zM-98.43 91.75h-5.82c-.34 0-.61.27-.61.61s.27.61.61.61h5.82c.34 0 .61-.27.61-.61s-.27-.61-.61-.61zM-98.43 94.18h-5.82c-.34 0-.61.27-.61.61 0 .34.27.61.61.61h5.82c.34 0 .61-.27.61-.61 0-.34-.27-.61-.61-.61zM-98.43 96.62h-5.82c-.34 0-.61.27-.61.61s.27.61.61.61h5.82c.34 0 .61-.27.61-.61s-.27-.61-.61-.61zM-103.03 85.05c1.01 0 1.83-.82 1.83-1.83 0-1.01-.82-1.83-1.83-1.83-1.01 0-1.83.82-1.83 1.83.01 1.01.83 1.83 1.83 1.83zm0-2.44c.34 0 .61.27.61.61s-.27.61-.61.61-.61-.27-.61-.61.28-.61.61-.61zM-86.11 68.61h-5.82c-.34 0-.61.27-.61.61s.27.61.61.61h5.82c.34 0 .61-.27.61-.61s-.28-.61-.61-.61zM-86.11 71.04h-5.82c-.34 0-.61.27-.61.61s.27.61.61.61h5.82c.34 0 .61-.27.61-.61s-.28-.61-.61-.61zM-86.11 73.48h-5.82c-.34 0-.61.27-.61.61 0 .34.27.61.61.61h5.82c.34 0 .61-.27.61-.61 0-.34-.28-.61-.61-.61zM-86.11 91.75h-5.82c-.34 0-.61.27-.61.61s.27.61.61.61h5.82c.34 0 .61-.27.61-.61s-.28-.61-.61-.61zM-86.11 94.18h-5.82c-.34 0-.61.27-.61.61 0 .34.27.61.61.61h5.82c.34 0 .61-.27.61-.61 0-.34-.28-.61-.61-.61zM-86.11 96.62h-5.82c-.34 0-.61.27-.61.61s.27.61.61.61h5.82c.34 0 .61-.27.61-.61s-.28-.61-.61-.61zM-90.71 85.05c1.01 0 1.83-.82 1.83-1.83 0-1.01-.82-1.83-1.83-1.83-1.01 0-1.83.82-1.83 1.83 0 1.01.82 1.83 1.83 1.83zm0-2.44c.34 0 .61.27.61.61s-.27.61-.61.61-.61-.27-.61-.61.27-.61.61-.61zM-79.62 69.83h5.82c.34 0 .61-.27.61-.61s-.27-.61-.61-.61h-5.82c-.34 0-.61.27-.61.61s.28.61.61.61zM-73.8 71.04h-5.82c-.34 0-.61.27-.61.61s.27.61.61.61h5.82c.34 0 .61-.27.61-.61s-.27-.61-.61-.61zM-73.8 73.48h-5.82c-.34 0-.61.27-.61.61 0 .34.27.61.61.61h5.82c.34 0 .61-.27.61-.61 0-.34-.27-.61-.61-.61zM-73.8 91.75h-5.82c-.34 0-.61.27-.61.61s.27.61.61.61h5.82c.34 0 .61-.27.61-.61s-.27-.61-.61-.61zM-73.8 94.18h-5.82c-.34 0-.61.27-.61.61 0 .34.27.61.61.61h5.82c.34 0 .61-.27.61-.61 0-.34-.27-.61-.61-.61zM-73.8 96.62h-5.82c-.34 0-.61.27-.61.61s.27.61.61.61h5.82c.34 0 .61-.27.61-.61s-.27-.61-.61-.61zM-78.4 85.05c1.01 0 1.83-.82 1.83-1.83 0-1.01-.82-1.83-1.83-1.83-1.01 0-1.83.82-1.83 1.83 0 1.01.82 1.83 1.83 1.83zm0-2.44c.34 0 .61.27.61.61s-.27.61-.61.61c-.34 0-.61-.27-.61-.61s.27-.61.61-.61z" />
		<path
			d="M-70.55 65.36h-36.94c-.34 0-.61.27-.61.61v36.94c0 .34.27.61.61.61s.61-.27.61-.61v-1.83h11.1v1.83c0 .34.27.61.61.61.34 0 .61-.27.61-.61v-1.83h11.1v1.83c0 .34.27.61.61.61.34 0 .61-.27.61-.61v-1.83h11.1v1.83c0 .34.27.61.61.61.34 0 .61-.27.61-.61V65.97c-.02-.34-.3-.61-.63-.61zm-11.71 34.51V74.09c0-.34-.27-.61-.61-.61-.34 0-.61.27-.61.61v25.78h-11.1v-7.51c0-.34-.27-.61-.61-.61-.34 0-.61.27-.61.61v7.51h-11.1V66.58h11.1v27.6c0 .34.27.61.61.61.34 0 .61-.27.61-.61v-27.6h11.1v9.8c0 .34.27.61.61.61.34 0 .61-.27.61-.61v-9.8h11.1v33.29h-11.1z" />
	</g>
	<g>
		<path class="st0"
			d="M141.51 93.91h-.25c.64-.88.93-1.89.83-2.93-.24-2.34-2.53-4.68-4.6-6.35.01-.01.01-.03.02-.04.27-.66.12-1.42-.37-1.93l-.1-.1c-2.15-2.71-6.89-4.07-7.23-4.18-.06-.63-.44-1.2-1.03-1.47-1.28-.6-4.07-1.6-8.46-1.61-1.47 0-2.76.12-3.88.29v-2.84c0-2.35-1.91-4.26-4.26-4.26H108v-3.22c0-.5-.4-.9-.9-.9H86.2c-.5 0-.9.4-.9.9v24.5c0 1.15.83 2.1 1.92 2.3v1.84h-1.8c-1.49 0-2.7 1.21-2.7 2.7 0 1.49 1.21 2.7 2.7 2.7h.84v.3c0 1.69 1.37 3.06 3.06 3.06h48.28c1.69 0 3.06-1.37 3.06-3.06v-.3h.84c1.49 0 2.7-1.21 2.7-2.7.01-1.49-1.2-2.7-2.69-2.7zm-1.21-2.74c.1 1-.49 1.99-1.65 2.74h-6.2c1.79-2.37 3.31-5.38 4.29-7.56 2.14 1.8 3.42 3.52 3.56 4.82zm-10.67-10.94c.58.2 1.24.48 1.95.79.8.34 2.96 1.75 3.11 1.87.35.28.68.57.99.88.05.06.09.12.14.18-.07.17-.16.38-.26.62-.82 1.92-2.96 6.59-5.44 9.35h-2.97c.43-1.07.92-2.89 1.46-6.14.46-2.73.81-5.61 1.02-7.55zm-9.32-3.13c4.18.01 6.77 1.01 7.69 1.44l-.04.4c-.19 1.77-.58 5.23-1.12 8.48-.89 5.35-1.58 6.34-1.72 6.49h-9.62c-.14-.15-.83-1.15-1.72-6.49-.54-3.25-.93-6.7-1.12-8.48l-.01-.07v-.01l-.03-.33c.92-.42 3.51-1.42 7.69-1.43zm-12.29-6.81h4.14c1.36 0 2.46 1.1 2.46 2.46v3.2c-.71.18-1.31.37-1.8.55v-3.27c0-.63-.51-1.14-1.14-1.14h-3.66v-1.8zM108 73.9h3.02v3.81c-.06.12-.11.25-.15.39H108v-4.2zm-.48 7.91c.03-.02.06-.03.09-.05 0 0 .01 0 .01-.01 1.19-.69 2.39-1.18 3.37-1.52.22 1.94.57 4.82 1.02 7.55.54 3.25 1.03 5.07 1.46 6.14h-2.97c-2.49-2.76-4.62-7.42-5.44-9.34-.11-.25-.2-.48-.27-.66.82-.86 1.76-1.55 2.73-2.11zm.66 12.1h-6.25c-1.08-.72-1.67-1.68-1.61-2.65 0-.03 0-.06.01-.09.14-1.3 1.42-3.02 3.55-4.81.99 2.17 2.5 5.18 4.3 7.55zm-21.07-4.14v-23.6h19.1V80.5c-.95.6-1.89 1.31-2.7 2.16-.49.52-.64 1.28-.37 1.93.01.01.01.03.02.04-1.88 1.51-3.92 3.57-4.48 5.67H87.65c-.3.01-.54-.23-.54-.53zm12.24 4.14H89.03v-1.8h9.55c.11.63.37 1.24.77 1.8zm42.16 3.6H94.27c-.5 0-.9.4-.9.9s.4.9.9.9h44.6v.3c0 .7-.57 1.26-1.26 1.26H89.33c-.7 0-1.26-.57-1.26-1.26v-.3h17.26c.5 0 .9-.4.9-.9s-.4-.9-.9-.9h-19.9c-.5 0-.9-.4-.9-.9s.4-.9.9-.9h56.08c.5 0 .9.4.9.9s-.41.9-.9.9z" />
		<path
			d="M143.55 95.32h-.25c.64-.88.93-1.89.83-2.93-.24-2.34-2.53-4.68-4.6-6.35.01-.01.01-.03.02-.04.27-.66.12-1.42-.37-1.93l-.1-.1c-2.15-2.71-6.89-4.07-7.23-4.18-.06-.63-.44-1.2-1.03-1.47-1.28-.6-4.07-1.6-8.46-1.61-1.47 0-2.76.12-3.88.29v-2.84c0-2.35-1.91-4.26-4.26-4.26h-4.17v-3.22c0-.5-.4-.9-.9-.9H88.24c-.5 0-.9.4-.9.9v24.5c0 1.15.83 2.1 1.92 2.3v1.84h-1.8c-1.49 0-2.7 1.21-2.7 2.7 0 1.49 1.21 2.7 2.7 2.7h.84v.3c0 1.69 1.37 3.06 3.06 3.06h48.28c1.69 0 3.06-1.37 3.06-3.06v-.3h.84c1.49 0 2.7-1.21 2.7-2.7.01-1.48-1.2-2.7-2.69-2.7zm-1.22-2.74c.1 1-.49 1.99-1.65 2.74h-6.2c1.79-2.37 3.31-5.38 4.29-7.56 2.15 1.8 3.43 3.53 3.56 4.82zm-10.66-10.94c.58.2 1.24.48 1.95.79.8.34 2.96 1.75 3.11 1.87.35.28.68.57.99.88.05.06.09.12.14.18-.07.17-.16.38-.26.62-.82 1.92-2.96 6.59-5.44 9.35h-2.97c.43-1.07.92-2.89 1.46-6.14.45-2.73.81-5.61 1.02-7.55zm-9.32-3.13c4.18.01 6.77 1.01 7.69 1.44l-.04.4c-.19 1.77-.58 5.23-1.12 8.48-.89 5.35-1.58 6.34-1.72 6.49h-9.62c-.14-.15-.83-1.15-1.72-6.49-.54-3.25-.93-6.7-1.12-8.48l-.01-.07v-.01l-.03-.33c.92-.42 3.51-1.42 7.69-1.43zm-12.29-6.8h4.14c1.36 0 2.46 1.1 2.46 2.46v3.2c-.71.18-1.31.37-1.8.55v-3.27c0-.63-.51-1.14-1.14-1.14h-3.66v-1.8zm-.02 3.6h3.02v3.81c-.06.12-.11.25-.15.39h-2.87v-4.2zm-.49 7.91c.03-.02.06-.03.09-.05 0 0 .01 0 .01-.01 1.19-.69 2.39-1.18 3.37-1.52.22 1.94.57 4.82 1.02 7.55.54 3.25 1.03 5.07 1.46 6.14h-2.97c-2.49-2.76-4.62-7.42-5.44-9.34-.11-.25-.2-.48-.27-.66.83-.85 1.77-1.54 2.73-2.11zm.67 12.1h-6.25c-1.08-.72-1.67-1.68-1.61-2.65 0-.03 0-.06.01-.09.14-1.3 1.42-3.02 3.55-4.81.98 2.18 2.5 5.18 4.3 7.55zm-21.07-4.14v-23.6h19.1v14.33c-.95.6-1.89 1.31-2.7 2.16-.49.52-.64 1.28-.37 1.93.01.01.01.03.02.04-1.88 1.51-3.92 3.57-4.48 5.67H89.69c-.3.01-.54-.23-.54-.53zm12.24 4.14H91.07v-1.8h9.55c.11.64.37 1.25.77 1.8zm42.16 3.61H96.31c-.5 0-.9.4-.9.9s.4.9.9.9h44.6v.3c0 .7-.57 1.26-1.26 1.26H91.37c-.7 0-1.26-.57-1.26-1.26v-.3h17.26c.5 0 .9-.4.9-.9s-.4-.9-.9-.9h-19.9c-.5 0-.9-.4-.9-.9s.4-.9.9-.9h56.08c.5 0 .9.4.9.9 0 .49-.41.9-.9.9z" />
	</g>
	<g>
		<path class="st0"
			d="M327.39 78.46h-25.44c-1.5 0-2.73 1.22-2.73 2.73v1.82c0 6.48 3.58 12.36 9.35 15.35.45.23.99.06 1.22-.39.23-.45.06-.99-.39-1.22-5.16-2.67-8.36-7.93-8.36-13.73V81.2c0-.5.41-.91.91-.91h25.44c.5 0 .91.41.91.91v1.82c0 5.8-3.21 11.06-8.36 13.73-.45.23-.62.78-.39 1.22.16.31.48.49.81.49.14 0 .28-.03.42-.1 5.77-2.98 9.35-8.86 9.35-15.34V81.2c-.02-1.51-1.24-2.74-2.74-2.74z" />
		<path class="st0"
			d="M335.5 97.19c-.14-.34-.47-.56-.84-.56h-39.98c-.37 0-.7.22-.84.56-.14.34-.06.73.2.99l2.04 2.04c1.2 1.2 2.8 1.86 4.5 1.86h28.19c1.7 0 3.3-.66 4.5-1.86l2.04-2.04c.25-.25.33-.65.19-.99zm-3.52 1.75c-.86.86-2 1.33-3.21 1.33h-28.19c-1.21 0-2.35-.47-3.21-1.33l-.49-.49h35.59l-.49.49zM335.62 82.75c-2.45-1.57-6.36.13-6.8.33-.46.21-.66.75-.45 1.2.21.46.75.66 1.2.45.88-.4 3.69-1.34 5.06-.46.62.4.92 1.17.92 2.35 0 3.64-7.34 5.84-10.17 6.38l-.64.13c-.49.1-.81.57-.72 1.07.09.43.47.73.89.73.06 0 .12-.01.18-.02l.64-.13c.48-.09 11.64-2.28 11.64-8.16.01-1.81-.58-3.11-1.75-3.87zM321.74 70.85c1.48-1.85 1.48-4.74 0-6.58-.31-.39-.88-.46-1.28-.14-.39.31-.46.88-.14 1.28.94 1.17.94 3.14 0 4.32-1.48 1.85-1.48 4.74 0 6.58.18.23.44.34.71.34.2 0 .4-.07.57-.2.39-.31.46-.89.14-1.28-.94-1.17-.94-3.14 0-4.32zM316.28 70.85c1.48-1.85 1.48-4.74 0-6.58-.31-.39-.88-.46-1.28-.14-.39.31-.46.89-.14 1.28.94 1.17.94 3.14 0 4.32-1.48 1.85-1.48 4.74 0 6.58.18.23.44.34.71.34.2 0 .4-.07.57-.2.39-.31.46-.88.14-1.28-.94-1.17-.94-3.14 0-4.32zM310.84 70.86c1.48-1.85 1.48-4.74 0-6.58-.31-.39-.88-.46-1.28-.14-.39.31-.45.88-.14 1.28.94 1.17.94 3.14 0 4.32-1.48 1.85-1.48 4.74 0 6.58.18.23.44.34.71.34.2 0 .4-.07.57-.2.39-.31.46-.89.14-1.28-.94-1.18-.94-3.15 0-4.32z" />
		<g>
			<path
				d="M329.43 79.88h-25.44c-1.5 0-2.73 1.22-2.73 2.73v1.82c0 6.48 3.58 12.36 9.35 15.35.45.23.99.06 1.22-.39.23-.45.06-.99-.39-1.22-5.16-2.67-8.36-7.93-8.36-13.73V82.6c0-.5.41-.91.91-.91h25.44c.5 0 .91.41.91.91v1.82c0 5.8-3.21 11.06-8.36 13.73-.45.23-.62.78-.39 1.22.16.31.48.49.81.49.14 0 .28-.03.42-.1 5.77-2.98 9.35-8.86 9.35-15.34V82.6c-.02-1.5-1.24-2.72-2.74-2.72z" />
			<path
				d="M337.54 98.61c-.14-.34-.47-.56-.84-.56h-39.98c-.37 0-.7.22-.84.56-.14.34-.06.73.2.99l2.04 2.04c1.2 1.2 2.8 1.86 4.5 1.86h28.19c1.7 0 3.3-.66 4.5-1.86l2.04-2.04c.25-.26.33-.65.19-.99zm-3.52 1.74c-.86.86-2 1.33-3.21 1.33h-28.19c-1.21 0-2.35-.47-3.21-1.33l-.49-.49h35.59l-.49.49zM337.66 84.17c-2.45-1.57-6.36.13-6.8.33-.46.21-.66.75-.45 1.2.21.46.75.66 1.2.45.88-.4 3.69-1.34 5.06-.46.62.4.92 1.17.92 2.35 0 3.64-7.34 5.84-10.17 6.38l-.64.13c-.49.1-.81.57-.72 1.07.09.43.47.73.89.73.06 0 .12-.01.18-.02l.64-.13c.48-.09 11.64-2.28 11.64-8.16.01-1.81-.58-3.12-1.75-3.87zM323.78 72.27c1.48-1.85 1.48-4.74 0-6.58-.31-.39-.88-.46-1.28-.14-.39.31-.46.88-.14 1.28.94 1.17.94 3.14 0 4.32-1.48 1.85-1.48 4.74 0 6.58.18.23.44.34.71.34.2 0 .4-.07.57-.2.39-.31.46-.89.14-1.28-.94-1.18-.94-3.15 0-4.32zM318.32 72.27c1.48-1.85 1.48-4.74 0-6.58-.31-.39-.88-.46-1.28-.14-.39.31-.46.89-.14 1.28.94 1.17.94 3.14 0 4.32-1.48 1.85-1.48 4.74 0 6.58.18.23.44.34.71.34.2 0 .4-.07.57-.2.39-.31.46-.88.14-1.28-.94-1.18-.94-3.15 0-4.32zM312.88 72.27c1.48-1.85 1.48-4.74 0-6.58-.31-.39-.88-.46-1.28-.14-.39.31-.45.88-.14 1.28.94 1.17.94 3.14 0 4.32-1.48 1.85-1.48 4.74 0 6.58.18.23.44.34.71.34.2 0 .4-.07.57-.2.39-.31.46-.89.14-1.28-.94-1.18-.94-3.15 0-4.32z" />
		</g>
	</g>
	<g>
		<path class="st0"
			d="M-273.53 69.5c-3.21-5.5-10.26-7.35-15.76-4.15-1.33.78-2.49 1.81-3.41 3.04l-.53.71-.53-.71c-2.18-2.89-5.59-4.6-9.22-4.61h-.27c-3.94 0-7.6 2.01-9.72 5.34-1.31 2.06-2.01 4.45-2.01 6.89v2.1c-.01 6.24 3.13 12.06 8.36 15.47l1.24.81 5.08 3.33 6.67 4.37c.24.16.56.16.8 0l13.06-8.65c5.18-3.42 8.29-9.21 8.28-15.42v-.93c.01-2.67-.69-5.29-2.04-7.59zm-23.97 27.96l.27.53-5.83-3.82-1.53-1-.41-.27 3.68-5.52c.08-.12.12-.26.12-.4v-2.27-.14c.04-.9.38-1.75.97-2.43l.12-.14.38 1.53c.08.32.37.55.7.55h1.74c.48 0 .94.24 1.21.65.49.74 1.26 1.26 2.13 1.45v.8c0 .8-.65 1.45-1.45 1.45-.4 0-.72.32-.72.72v2.64c0 .5-.15.99-.43 1.41l-.9 1.35c-.08.12-.12.26-.12.4v2.17c0 .13.02.24.07.34zm2.83 2.21l-.72-.47v-.61c0-.11-.03-.22-.08-.32l-.01-.02.81-.81v2.23zm5.79-1.94l-1.45.96v-4.1l1.45-1.09v4.23zm1.36-9.07c-.05 1.05-.45 2.06-1.13 2.87l-2.84 2.13c-.18.14-.29.35-.29.58v5.42l-1.45.96v-4.93c0-.4-.32-.72-.72-.72-.19 0-.38.08-.51.21l-1.66 1.66v-1.65l.78-1.17c.44-.65.67-1.42.67-2.21v-2c1.28-.33 2.17-1.49 2.17-2.81v-1.45c0-.4-.32-.72-.72-.72-.66 0-1.28-.33-1.65-.88-.3-.45-.72-.81-1.21-1.03l1.11-1.11-.02.05 2.52 1.26c1.31.65 2.74.99 4.2.99h.31l.37 2.75c.07.58.1 1.19.07 1.8zm-4.98-11.82v2.36c0 .3-.24.54-.54.54h-.91v-1.29c0-1.77.7-3.46 1.95-4.7.34-.34.79-.53 1.27-.53h1.57c.46 0 .89.18 1.21.5l1.46 1.46c.14.14.32.21.51.21h1.45v1.09c0 .6-.49 1.09-1.09 1.09h-1.81c-.4 0-.72.32-.72.72v4.35h-.13c-1.23 0-2.45-.29-3.55-.84l-1.22-.61h.01c1.1 0 1.99-.89 1.99-1.99v-2.36h-1.45zm19.57 1.18c.01 5.72-2.86 11.06-7.63 14.21l-6.87 4.55v-4.45c.81-1.03 1.29-2.28 1.35-3.59.03-.7.01-1.4-.09-2.09l-.54-4.05v-3.58h1.09c1.4 0 2.54-1.14 2.54-2.54v-1.81c0-.4-.32-.72-.72-.72h-1.87l-1.25-1.25c-.59-.6-1.4-.93-2.24-.93h-1.57c-.86 0-1.69.34-2.3.95-1.52 1.52-2.38 3.58-2.37 5.73v1.72l-2.48 2.47h-.58l-.59-2.35c-.1-.39-.49-.62-.88-.53-.15.04-.28.12-.38.23l-1.03 1.21c-.8.93-1.26 2.1-1.31 3.32V86.76l-3.56 5.34c-4.59-3.18-7.32-8.41-7.32-13.99v-2.1c0-2.16.62-4.28 1.78-6.11 1.85-2.91 5.05-4.66 8.5-4.66h.27c3.17.01 6.15 1.5 8.06 4.03l1.11 1.48c.24.32.69.39 1.01.14.05-.04.1-.09.14-.14l1.11-1.48c3.34-4.45 9.65-5.35 14.1-2.01 1.08.81 1.98 1.82 2.66 2.98 1.21 2.08 1.85 4.44 1.85 6.85v.93z" />
		<path
			d="M-271.49 70.92c-3.21-5.5-10.26-7.35-15.76-4.15-1.33.78-2.49 1.81-3.41 3.04l-.53.71-.53-.71c-2.18-2.89-5.59-4.6-9.22-4.61h-.27c-3.94 0-7.6 2.01-9.72 5.34-1.31 2.06-2.01 4.45-2.01 6.89v2.1c-.01 6.24 3.13 12.06 8.36 15.47l1.24.81 5.08 3.33 6.67 4.37c.24.16.56.16.8 0l13.06-8.65c5.18-3.42 8.29-9.21 8.28-15.42v-.94c.01-2.67-.7-5.28-2.04-7.58zm-23.97 27.95l.27.53-5.83-3.82-1.53-1-.42-.27 3.68-5.52c.08-.12.12-.26.12-.4v-2.27-.14c.04-.9.38-1.75.97-2.43l.12-.14.38 1.53c.08.32.37.55.7.55h1.74c.48 0 .94.24 1.21.65.49.74 1.26 1.26 2.13 1.45v.8c0 .8-.65 1.45-1.45 1.45-.4 0-.72.32-.72.72v2.64c0 .5-.15.99-.43 1.41l-.9 1.35c-.08.12-.12.26-.12.4v2.17c.01.13.03.24.08.34zm2.82 2.21l-.72-.47V100c0-.11-.03-.22-.08-.32l-.01-.02.81-.81v2.23zm5.8-1.93l-1.45.96v-4.1l1.45-1.09v4.23zm1.36-9.08c-.05 1.05-.45 2.06-1.13 2.87l-2.84 2.13c-.18.14-.29.35-.29.58v5.42l-1.45.96V97.1c0-.4-.32-.72-.72-.72-.19 0-.38.08-.51.21l-1.66 1.66V96.6l.78-1.17c.44-.65.67-1.42.67-2.21v-2c1.28-.33 2.17-1.49 2.17-2.81v-1.45c0-.4-.32-.72-.72-.72-.66 0-1.28-.33-1.65-.88-.3-.45-.72-.81-1.21-1.03l1.11-1.11-.02.05 2.52 1.26c1.31.65 2.74.99 4.2.99h.31l.37 2.75c.07.58.1 1.19.07 1.8zm-4.98-11.82v2.36c0 .3-.24.54-.54.54h-.91v-1.29c0-1.77.7-3.46 1.95-4.7.34-.34.79-.53 1.27-.53h1.57c.46 0 .89.18 1.21.5l1.46 1.46c.14.14.32.21.51.21h1.45v1.09c0 .6-.49 1.09-1.09 1.09h-1.81c-.4 0-.72.32-.72.72v4.35h-.13c-1.23 0-2.45-.29-3.55-.84l-1.22-.61h.01c1.1 0 1.99-.89 1.99-1.99v-2.36h-1.45zm19.57 1.18c.01 5.72-2.86 11.06-7.63 14.21l-6.87 4.55v-4.45c.81-1.03 1.29-2.28 1.35-3.59.03-.7.01-1.4-.09-2.09l-.54-4.05v-3.58h1.09c1.4 0 2.54-1.14 2.54-2.54v-1.81c0-.4-.32-.72-.72-.72h-1.87l-1.25-1.25c-.59-.6-1.4-.93-2.24-.93h-1.57c-.86 0-1.69.34-2.3.95-1.52 1.52-2.38 3.58-2.37 5.73v1.72l-2.48 2.47h-.58l-.59-2.35c-.1-.39-.49-.62-.88-.53-.15.04-.28.12-.38.23l-1.03 1.21c-.8.93-1.26 2.1-1.31 3.32V88.17l-3.56 5.34c-4.59-3.18-7.32-8.41-7.32-13.99v-2.1c0-2.16.62-4.28 1.78-6.11 1.85-2.91 5.05-4.66 8.5-4.66h.27c3.17.01 6.15 1.5 8.06 4.03l1.11 1.48c.24.32.69.39 1.01.14.05-.04.1-.09.14-.14l1.11-1.48c3.34-4.45 9.65-5.35 14.1-2.01 1.08.81 1.98 1.82 2.66 2.98 1.21 2.08 1.85 4.44 1.85 6.85v.93z" />
	</g>
</svg>