<svg version="1.1" id="Layer_1" xmlns="http://www.w3.org/2000/svg" x="0" y="0" viewBox="0 0 50 32" xml:space="preserve"><style>.st0{fill:#ffed00}</style><text transform="translate(294.5718 126.9785)"><tspan x="0" y="0" font-family="Montserrat-Medium" font-size="13.7445">Café e </tspan><tspan x="-18.29" y="16.49" font-family="Montserrat-Medium" font-size="13.7445">hidratación</tspan></text><text transform="translate(84.6162 127.4189)" font-family="Montserrat-Medium" font-size="13.7445">Café bar</text><path class="st0" d="M46.29 23.12h-.19c.5-.69.73-1.48.65-2.29-.19-1.83-1.98-3.66-3.6-4.97 0-.01.01-.02.01-.03.21-.52.1-1.11-.29-1.51-.02-.03-.05-.05-.08-.08-1.68-2.12-5.39-3.18-5.66-3.27-.04-.49-.35-.94-.81-1.15-1-.47-3.19-1.26-6.62-1.26-1.15 0-2.16.09-3.04.23V6.56c0-1.84-1.5-3.34-3.34-3.34h-3.26V.7c0-.39-.32-.7-.7-.7H3c-.39 0-.7.32-.7.7v19.18c0 .9.65 1.65 1.5 1.8v1.44H2.39c-1.17 0-2.11.95-2.11 2.11 0 1.17.95 2.11 2.11 2.11h.66v.23c0 1.32 1.08 2.4 2.4 2.4h37.79c1.32 0 2.4-1.08 2.4-2.4v-.23h.66c1.17 0 2.11-.95 2.11-2.11-.01-1.16-.95-2.11-2.12-2.11zm-.95-2.14c.08.78-.39 1.56-1.29 2.15H39.2c1.4-1.86 2.59-4.21 3.36-5.91 1.67 1.39 2.67 2.74 2.78 3.76zm-8.35-8.57c.45.16.97.38 1.53.61.62.26 2.32 1.37 2.43 1.46.28.22.53.45.77.69.04.05.07.1.11.14-.06.14-.12.3-.2.49-.64 1.51-2.32 5.16-4.26 7.32h-2.32c.34-.83.72-2.26 1.14-4.8.36-2.14.64-4.39.8-5.91zM29.7 9.96c3.27.01 5.3.79 6.02 1.13l-.03.31c-.15 1.39-.45 4.09-.87 6.64-.7 4.19-1.24 4.96-1.34 5.08h-7.53c-.11-.12-.65-.9-1.34-5.08-.42-2.54-.73-5.25-.88-6.64l-.01-.05-.03-.25c.71-.34 2.74-1.13 6.01-1.14zm-9.62-5.32h3.24c1.06 0 1.93.86 1.93 1.93v2.5c-.55.13-1.02.29-1.41.43V6.94c0-.49-.4-.89-.89-.89h-2.87V4.64zm-.02 2.82h2.37v2.98c-.05.1-.09.2-.12.31h-2.25V7.46zm-.38 6.19c.02-.01.05-.03.07-.04 0 0 .01 0 .01-.01.93-.54 1.87-.92 2.64-1.19.17 1.52.44 3.77.8 5.91.43 2.54.8 3.97 1.14 4.8h-2.32c-1.95-2.16-3.62-5.81-4.26-7.31-.08-.2-.16-.37-.21-.52.64-.66 1.38-1.2 2.13-1.64zm.52 9.47h-4.89c-.85-.57-1.3-1.31-1.26-2.08 0-.02 0-.04.01-.07.11-1.01 1.11-2.36 2.78-3.77.77 1.71 1.95 4.07 3.36 5.92zM3.71 19.88V1.41h14.95v11.22c-.75.47-1.48 1.02-2.12 1.69-.39.4-.5 1-.29 1.51 0 .01.01.02.01.03-1.47 1.18-3.07 2.79-3.51 4.44H4.13c-.23 0-.42-.19-.42-.42zm9.58 3.24H5.21v-1.41h7.47c.09.5.3.98.61 1.41zm33 2.82H9.31c-.39 0-.7.32-.7.7 0 .39.32.7.7.7h34.91v.23c0 .54-.44.99-.99.99H5.45c-.54 0-.99-.44-.99-.99v-.23h13.51c.39 0 .7-.32.7-.7 0-.39-.32-.7-.7-.7H2.39c-.39 0-.7-.32-.7-.7s.32-.7.7-.7h43.9c.39 0 .7.32.7.7s-.31.7-.7.7z"/><path d="M47.89 24.23h-.19c.5-.69.73-1.48.65-2.29-.19-1.83-1.98-3.66-3.6-4.97 0-.01.01-.02.01-.03.21-.52.1-1.11-.29-1.51-.02-.03-.05-.05-.08-.08-1.68-2.12-5.39-3.18-5.66-3.27-.04-.49-.35-.94-.81-1.15-1-.47-3.19-1.26-6.62-1.26-1.15 0-2.16.09-3.04.23V7.67c0-1.84-1.5-3.34-3.34-3.34h-3.26V1.81c0-.39-.32-.7-.7-.7H4.6c-.39 0-.7.32-.7.7v19.18c0 .9.65 1.65 1.5 1.8v1.44H3.99c-1.17 0-2.11.95-2.11 2.11 0 1.17.95 2.11 2.11 2.11h.66v.23c0 1.32 1.08 2.4 2.4 2.4h37.79c1.32 0 2.4-1.08 2.4-2.4v-.23h.66c1.17 0 2.11-.95 2.11-2.11-.01-1.16-.96-2.11-2.12-2.11zm-.95-2.15c.08.78-.39 1.56-1.29 2.15H40.8c1.4-1.86 2.59-4.21 3.36-5.91 1.67 1.4 2.67 2.75 2.78 3.76zm-8.35-8.56c.45.16.97.38 1.53.61.62.26 2.32 1.37 2.43 1.46.28.22.53.45.77.69.04.05.07.1.11.14-.06.14-.12.3-.2.49-.64 1.51-2.32 5.16-4.26 7.32h-2.32c.34-.83.72-2.26 1.14-4.8.36-2.14.63-4.39.8-5.91zm-7.3-2.45c3.27.01 5.3.79 6.02 1.13l-.03.31c-.15 1.39-.45 4.09-.87 6.64-.7 4.19-1.24 4.96-1.34 5.08h-7.53c-.11-.12-.65-.9-1.34-5.08-.42-2.54-.73-5.25-.88-6.64l-.01-.05-.03-.25c.72-.35 2.74-1.13 6.01-1.14zm-9.61-5.33h3.24c1.06 0 1.93.86 1.93 1.93v2.5c-.55.14-1.02.29-1.41.43V8.05c0-.49-.4-.89-.89-.89h-2.87V5.74zm-.02 2.82h2.37v2.98c-.05.1-.09.2-.12.31h-2.25V8.56zm-.38 6.19c.02-.01.05-.03.07-.04 0 0 .01 0 .01-.01.93-.54 1.87-.92 2.64-1.19.17 1.52.44 3.77.8 5.91.43 2.54.8 3.97 1.14 4.8h-2.32c-1.95-2.16-3.62-5.81-4.26-7.31-.08-.2-.16-.37-.21-.52.63-.65 1.38-1.19 2.13-1.64zm.52 9.48h-4.89c-.85-.57-1.3-1.31-1.26-2.08 0-.02 0-.04.01-.07.11-1.01 1.11-2.36 2.78-3.77.76 1.71 1.95 4.06 3.36 5.92zM5.31 20.99V2.52h14.95v11.22c-.75.47-1.48 1.02-2.12 1.69-.39.4-.5 1-.29 1.51 0 .01.01.02.01.03-1.47 1.18-3.07 2.79-3.51 4.44H5.73c-.24 0-.42-.19-.42-.42zm9.58 3.24H6.81v-1.41h7.47c.09.5.3.97.61 1.41zm33 2.82H10.91c-.39 0-.7.32-.7.7 0 .39.32.7.7.7h34.91v.23c0 .54-.44.99-.99.99H7.04c-.54 0-.99-.44-.99-.99v-.23h13.51c.39 0 .7-.32.7-.7 0-.39-.32-.7-.7-.7H3.99c-.39 0-.7-.32-.7-.7 0-.39.32-.7.7-.7h43.9c.39 0 .7.32.7.7 0 .38-.32.7-.7.7z"/><g><path class="st0" d="M327.39 81.46h-25.44c-1.5 0-2.73 1.22-2.73 2.73v1.82c0 6.48 3.58 12.36 9.35 15.35.45.23.99.06 1.22-.39.23-.45.06-.99-.39-1.22-5.16-2.67-8.36-7.93-8.36-13.73V84.2c0-.5.41-.91.91-.91h25.44c.5 0 .91.41.91.91v1.82c0 5.8-3.21 11.06-8.36 13.73-.45.23-.62.78-.39 1.22.16.31.48.49.81.49.14 0 .28-.03.42-.1 5.77-2.98 9.35-8.86 9.35-15.34V84.2c-.02-1.51-1.24-2.74-2.74-2.74z"/><path class="st0" d="M335.5 100.19c-.14-.34-.47-.56-.84-.56h-39.98c-.37 0-.7.22-.84.56-.14.34-.06.73.2.99l2.04 2.04c1.2 1.2 2.8 1.86 4.5 1.86h28.19c1.7 0 3.3-.66 4.5-1.86l2.04-2.04c.25-.25.33-.65.19-.99zm-3.52 1.75c-.86.86-2 1.33-3.21 1.33h-28.19c-1.21 0-2.35-.47-3.21-1.33l-.49-.49h35.59l-.49.49zM335.62 85.75c-2.45-1.57-6.36.13-6.8.33-.46.21-.66.75-.45 1.2.21.46.75.66 1.2.45.88-.4 3.69-1.34 5.06-.46.62.4.92 1.17.92 2.35 0 3.64-7.34 5.84-10.17 6.38l-.64.13c-.49.1-.81.57-.72 1.07.09.43.47.73.89.73.06 0 .12-.01.18-.02l.64-.13c.48-.09 11.64-2.28 11.64-8.16.01-1.81-.58-3.11-1.75-3.87zM321.74 73.85c1.48-1.85 1.48-4.74 0-6.58-.31-.39-.88-.46-1.28-.14-.39.31-.46.88-.14 1.28.94 1.17.94 3.14 0 4.32-1.48 1.85-1.48 4.74 0 6.58.18.23.44.34.71.34.2 0 .4-.07.57-.2.39-.31.46-.89.14-1.28-.94-1.17-.94-3.14 0-4.32zM316.28 73.85c1.48-1.85 1.48-4.74 0-6.58-.31-.39-.88-.46-1.28-.14s-.46.89-.14 1.28c.94 1.17.94 3.14 0 4.32-1.48 1.85-1.48 4.74 0 6.58.18.23.44.34.71.34.2 0 .4-.07.57-.2.39-.31.46-.88.14-1.28-.94-1.17-.94-3.14 0-4.32zM310.84 73.86c1.48-1.85 1.48-4.74 0-6.58-.31-.39-.88-.46-1.28-.14-.39.31-.45.88-.14 1.28.94 1.17.94 3.14 0 4.32-1.48 1.85-1.48 4.74 0 6.58.18.23.44.34.71.34.2 0 .4-.07.57-.2.39-.31.46-.89.14-1.28-.94-1.18-.94-3.15 0-4.32z"/><g><path d="M329.43 82.88h-25.44c-1.5 0-2.73 1.22-2.73 2.73v1.82c0 6.48 3.58 12.36 9.35 15.35.45.23.99.06 1.22-.39.23-.45.06-.99-.39-1.22-5.16-2.67-8.36-7.93-8.36-13.73V85.6c0-.5.41-.91.91-.91h25.44c.5 0 .91.41.91.91v1.82c0 5.8-3.21 11.06-8.36 13.73-.45.23-.62.78-.39 1.22.16.31.48.49.81.49.14 0 .28-.03.42-.1 5.77-2.98 9.35-8.86 9.35-15.34V85.6c-.02-1.5-1.24-2.72-2.74-2.72z"/><path d="M337.54 101.61c-.14-.34-.47-.56-.84-.56h-39.98c-.37 0-.7.22-.84.56-.14.34-.06.73.2.99l2.04 2.04c1.2 1.2 2.8 1.86 4.5 1.86h28.19c1.7 0 3.3-.66 4.5-1.86l2.04-2.04c.25-.26.33-.65.19-.99zm-3.52 1.74c-.86.86-2 1.33-3.21 1.33h-28.19c-1.21 0-2.35-.47-3.21-1.33l-.49-.49h35.59l-.49.49zM337.66 87.17c-2.45-1.57-6.36.13-6.8.33-.46.21-.66.75-.45 1.2.21.46.75.66 1.2.45.88-.4 3.69-1.34 5.06-.46.62.4.92 1.17.92 2.35 0 3.64-7.34 5.84-10.17 6.38l-.64.13c-.49.1-.81.57-.72 1.07.09.43.47.73.89.73.06 0 .12-.01.18-.02l.64-.13c.48-.09 11.64-2.28 11.64-8.16.01-1.81-.58-3.12-1.75-3.87zM323.78 75.27c1.48-1.85 1.48-4.74 0-6.58-.31-.39-.88-.46-1.28-.14-.39.31-.46.88-.14 1.28.94 1.17.94 3.14 0 4.32-1.48 1.85-1.48 4.74 0 6.58.18.23.44.34.71.34.2 0 .4-.07.57-.2.39-.31.46-.89.14-1.28-.94-1.18-.94-3.15 0-4.32zM318.32 75.27c1.48-1.85 1.48-4.74 0-6.58-.31-.39-.88-.46-1.28-.14-.39.31-.46.89-.14 1.28.94 1.17.94 3.14 0 4.32-1.48 1.85-1.48 4.74 0 6.58.18.23.44.34.71.34.2 0 .4-.07.57-.2.39-.31.46-.88.14-1.28-.94-1.18-.94-3.15 0-4.32zM312.88 75.27c1.48-1.85 1.48-4.74 0-6.58-.31-.39-.88-.46-1.28-.14-.39.31-.45.88-.14 1.28.94 1.17.94 3.14 0 4.32-1.48 1.85-1.48 4.74 0 6.58.18.23.44.34.71.34.2 0 .4-.07.57-.2.39-.31.46-.89.14-1.28-.94-1.18-.94-3.15 0-4.32z"/></g></g></svg>