<svg version="1.1" id="Layer_1" xmlns="http://www.w3.org/2000/svg" x="0" y="0" viewBox="0 0 150 64" xml:space="preserve"><style>.st0{fill:#f8ec06}</style><g id="surface1_1_"><path class="st0" d="M61.5 24.2h9.8v4.9h-9.8v-4.9z"/><path class="st0" d="M145.4 16.9l-16.7-2.4c-3-1.9-6.2-3.5-9.5-5C108.5 4.6 96.8 2.1 85 2.1h-2.9c-13.9 0-27.7 3.5-39.9 10.2l-8.4 4.6c-9.9.1-19.5 2.7-28.1 7.6-3.5 2-5.6 5.7-5.6 9.7v14.6c0 1.4 1.1 2.5 2.5 2.5h8.3C13.6 59 22 63 29.6 60.3c4.2-1.5 7.5-4.8 9-9h65.7c2.7 7.7 11.1 11.7 18.7 9 4.2-1.5 7.5-4.8 9-9h.9c.3 0 .6-.1.9-.2l8-3.2c3.6-1.4 5.9-4.9 5.9-8.7V19.3c-.2-1.2-1.1-2.3-2.3-2.4zM34.2 48.3c-1.1 5.3-6.3 8.8-11.6 7.7-5.3-1.1-8.8-6.3-7.7-11.6 1.1-5.3 6.3-8.8 11.6-7.7 4.6.9 7.9 5 7.9 9.6 0 .7 0 1.4-.2 2zm44.5-2H39.3c0-8.1-6.6-14.8-14.8-14.8S9.8 38.2 9.8 46.3H4.9V34.2c0-2.3 1.2-4.3 3.2-5.5 8-4.6 17.1-7 26.3-7h44.3v24.6zm0-29.5H44.1l.5-.3c10.5-5.7 22.2-9 34.1-9.5v9.8zM83.6 7H85c9.9 0 19.7 1.9 28.9 5.5l-4.3 4.3h-26V7zm44.1 41.3c-1.1 5.3-6.3 8.8-11.6 7.7-5.3-1.1-8.8-6.3-7.7-11.6 1.1-5.3 6.3-8.8 11.6-7.7 4.6.9 7.9 5 7.9 9.6 0 .7-.1 1.4-.2 2zm14.9-24.1h-7.4v4.9h7.4v10.1c0 1.8-1.1 3.4-2.8 4.1l-7.1 2.8v-.7-.7c0-.2-.1-.5-.1-.7 0-.2-.1-.5-.1-.7 0-.2-.1-.5-.2-.7-.1-.2-.1-.5-.2-.7-.1-.2-.2-.4-.2-.7-.1-.2-.2-.5-.2-.7l-.3-.6-.3-.6c-.1-.2-.2-.4-.4-.6-.1-.2-.2-.4-.4-.6-.1-.2-.3-.4-.4-.5-.1-.2-.3-.4-.4-.6l-.5-.5c-.2-.2-.3-.4-.5-.5l-.5-.5c-.2-.2-.4-.3-.5-.5-.2-.2-.4-.3-.6-.4-.2-.1-.4-.3-.6-.4-.2-.1-.4-.2-.6-.4-.2-.1-.4-.2-.6-.4-.2-.1-.4-.2-.7-.3s-.4-.2-.6-.3c-.2-.1-.5-.2-.7-.3-.2-.1-.4-.2-.6-.2-.3-.1-.6-.1-.9-.2-.2 0-.4-.1-.6-.1-.3-.1-.6-.1-.9-.1-.2 0-.4-.1-.5-.1-.5 0-1-.1-1.5-.1-8.1 0-14.7 6.6-14.8 14.8H83.6V21.8h27c.7 0 1.3-.3 1.7-.7l6.4-6.4c2.7 1.3 5.3 2.7 7.8 4.3.3.2.6.3 1 .3l15.1 2.2v2.7z"/></g><g id="surface1"><path d="M63.9 27.1h9.8V32h-9.8v-4.9z"/><path d="M147.9 19.8l-16.7-2.4c-3-1.9-6.2-3.5-9.5-5C111 7.5 99.3 5 87.5 5h-2.9c-14 0-27.7 3.5-40 10.2l-8.4 4.6c-9.9.1-19.5 2.7-28.1 7.6-3.5 2-5.6 5.7-5.6 9.7v14.6c0 1.4 1.1 2.5 2.5 2.5h8.3c2.7 7.7 11.1 11.7 18.7 9 4.2-1.5 7.5-4.8 9-9h65.7c2.7 7.7 11.1 11.7 18.7 9 4.2-1.5 7.5-4.8 9-9h.9c.3 0 .6-.1.9-.2l8-3.2c3.6-1.4 5.9-4.9 5.9-8.7V22.2c-.1-1.2-1-2.3-2.2-2.4zM36.7 51.2c-1.1 5.3-6.3 8.8-11.6 7.7-5.3-1.1-8.8-6.3-7.7-11.6 1.1-5.3 6.3-8.8 11.6-7.7 4.6.9 7.9 5 7.9 9.6 0 .7-.1 1.4-.2 2zm44.4-1.9H41.8c0-8.1-6.6-14.8-14.8-14.8s-14.8 6.6-14.8 14.8H7.4V37.1c0-2.3 1.2-4.3 3.2-5.5 8-4.6 17.1-7 26.3-7h44.3v24.7zm0-29.6H46.5l.5-.3c10.5-5.7 22.2-9 34.1-9.5v9.8zm5-9.8h1.4c9.9 0 19.7 1.9 28.9 5.5l-4.3 4.3h-26V9.9zm44 41.3c-1.1 5.3-6.3 8.8-11.6 7.7-5.3-1.1-8.8-6.3-7.7-11.6 1.1-5.3 6.3-8.8 11.6-7.7 4.6.9 7.9 5 7.9 9.6 0 .7 0 1.4-.2 2zm15-24.1h-7.4V32h7.4v10.1c0 1.8-1.1 3.4-2.8 4.1l-7.1 2.8v-.7-.7c0-.2-.1-.5-.1-.7 0-.2-.1-.5-.1-.7 0-.2-.1-.5-.2-.7-.1-.2-.1-.5-.2-.7-.1-.2-.2-.4-.2-.7-.1-.2-.2-.5-.2-.7l-.3-.6-.3-.6c-.1-.2-.2-.4-.4-.6-.1-.2-.2-.4-.4-.6-.1-.2-.3-.4-.4-.5-.1-.2-.3-.4-.4-.6l-.5-.5c-.2-.2-.3-.4-.5-.5l-.5-.5c-.2-.2-.4-.3-.5-.5-.2-.2-.4-.3-.6-.4-.2-.1-.4-.3-.6-.4-.2-.1-.4-.2-.6-.4-.2-.1-.4-.2-.6-.4-.2-.1-.4-.2-.7-.3l-.6-.3c-.2-.1-.5-.2-.7-.3-.2-.1-.4-.2-.6-.2-.3-.1-.6-.1-.9-.2-.2 0-.4-.1-.6-.1-.3-.1-.6-.1-.9-.1-.2 0-.4-.1-.5-.1-.5 0-1-.1-1.5-.1-8.1 0-14.7 6.6-14.8 14.8H86.1V24.7h27c.7 0 1.3-.3 1.7-.7l6.4-6.4c2.7 1.3 5.3 2.7 7.8 4.3.3.2.6.3 1 .3l15.1 2.2v2.7z"/></g></svg>