<svg version="1.1" id="Layer_1" xmlns="http://www.w3.org/2000/svg" x="0" y="0" viewBox="0 0 41.28 41.28" xml:space="preserve"><style>.st0{fill:#ffed00}</style><text transform="translate(-338.0498 267.4473)"><tspan x="0" y="0" font-family="Montserrat-Medium" font-size="13.7445">Salas de </tspan><tspan x="-4.53" y="16.49" font-family="Montserrat-Medium" font-size="13.7445">reuniones</tspan></text><text transform="translate(-337.4844 400.8359)" font-family="Montserrat-Medium" font-size="13.7445">Pet friendly</text><text transform="translate(-132.0483 267.4473)"><tspan x="0" y="0" font-family="Montserrat-Medium" font-size="13.7445">Sala de </tspan><tspan x="-1.07" y="16.49" font-family="Montserrat-Medium" font-size="13.7445">chill out</tspan></text><text transform="translate(288.5718 400.9785)"><tspan x="0" y="0" font-family="Montserrat-Medium" font-size="13.7445">Café e </tspan><tspan x="-18.29" y="16.49" font-family="Montserrat-Medium" font-size="13.7445">hidratación</tspan></text><text transform="translate(240.9209 267.709)"><tspan x="0" y="0" font-family="Montserrat-Medium" font-size="13.7445">Estacionamiento </tspan><tspan x="34.49" y="16.49" font-family="Montserrat-Medium" font-size="13.7445">de bicis</tspan></text><text transform="translate(-121.9683 400.9961)" font-family="Montserrat-Medium" font-size="13.7445">Lockers</text><text transform="translate(78.6162 401.4189)" font-family="Montserrat-Medium" font-size="13.7445">Café bar</text><path class="st0" d="M318.62 216.79c-1.99 0-3.89.4-5.62 1.13l-4.14-8.03h5.78c.63 0 1.14.51 1.14 1.14 0 .63-.51 1.14-1.14 1.14h-1.23c-.65 0-1.18.53-1.18 1.18 0 .65.53 1.18 1.18 1.18h1.23c1.92 0 3.49-1.56 3.49-3.49 0-1.92-1.56-3.49-3.49-3.49h-7.71c-.41 0-.79.21-1 .56-.21.35-.23.79-.04 1.15l2.06 3.99h-16.96l-1.71-3.35h2.71c.65 0 1.18-.53 1.18-1.18s-.53-1.18-1.18-1.18h-7.71c-.65 0-1.18.53-1.18 1.18s.53 1.18 1.18 1.18h2.36l2.28 4.48-2.68 4.16c-2.05-1.11-4.4-1.74-6.9-1.74-8.04 0-14.59 6.54-14.59 14.59s6.54 14.59 14.59 14.59c7.65 0 13.94-5.92 14.54-13.41h3.45l-1.34 4.36h-.77c-.65 0-1.18.53-1.18 1.18s.53 1.18 1.18 1.18h4.23c.65 0 1.18-.53 1.18-1.18s-.53-1.18-1.18-1.18h-1l1.55-5.03 9.78-15.1 1.14 2.21c-4.13 2.58-6.88 7.17-6.88 12.38 0 8.04 6.54 14.59 14.59 14.59 8.04 0 14.59-6.54 14.59-14.59-.01-8.06-6.56-14.6-14.6-14.6zm-28.46 0L297 230.2h-3.12c-.34-4.23-2.49-7.95-5.67-10.4l1.95-3.01zm1.36 13.41H281.5l5.43-8.42c2.54 2.02 4.27 5.02 4.59 8.42zm-12.18 13.42c-6.75 0-12.24-5.49-12.24-12.24s5.49-12.24 12.24-12.24c2.02 0 3.93.5 5.62 1.37l-6.6 10.23c-.23.36-.25.82-.04 1.2s.6.61 1.03.61h12.18c-.6 6.2-5.84 11.07-12.19 11.07zm19.7-14.59l-6.86-13.44h15.56l-8.7 13.44zm19.58 14.59c-6.75 0-12.24-5.49-12.24-12.24 0-4.31 2.24-8.1 5.62-10.28l5.58 10.82c.21.4.62.64 1.05.64.18 0 .37-.04.54-.13.58-.3.8-1.01.51-1.58l-5.58-10.83c1.4-.56 2.93-.87 4.53-.87 6.75 0 12.24 5.49 12.24 12.24-.01 6.74-5.5 12.23-12.25 12.23z"/><path d="M320.66 218.2c-1.99 0-3.89.4-5.62 1.13l-4.14-8.03h5.78c.63 0 1.14.51 1.14 1.14 0 .63-.51 1.14-1.14 1.14h-1.23c-.65 0-1.18.53-1.18 1.18 0 .65.53 1.18 1.18 1.18h1.23c1.92 0 3.49-1.56 3.49-3.49 0-1.92-1.56-3.49-3.49-3.49h-7.71c-.41 0-.79.21-1 .56-.21.35-.23.79-.04 1.15l2.06 3.99h-16.96l-1.71-3.35h2.71c.65 0 1.18-.53 1.18-1.18s-.53-1.18-1.18-1.18h-7.71c-.65 0-1.18.53-1.18 1.18s.53 1.18 1.18 1.18h2.36l2.28 4.48-2.68 4.16c-2.05-1.11-4.4-1.74-6.9-1.74-8.04 0-14.59 6.54-14.59 14.59s6.54 14.59 14.59 14.59c7.65 0 13.94-5.92 14.54-13.41h3.45l-1.34 4.36h-.77c-.65 0-1.18.53-1.18 1.18s.53 1.18 1.18 1.18h4.23c.65 0 1.18-.53 1.18-1.18s-.53-1.18-1.18-1.18h-1l1.55-5.03 9.78-15.1 1.14 2.21c-4.13 2.58-6.88 7.17-6.88 12.38 0 8.04 6.54 14.59 14.59 14.59 8.04 0 14.59-6.54 14.59-14.59-.01-8.05-6.56-14.6-14.6-14.6zm-28.46 0l6.84 13.42h-3.12c-.34-4.23-2.49-7.95-5.67-10.4l1.95-3.02zm1.36 13.42h-10.02l5.43-8.42c2.54 2.02 4.26 5.01 4.59 8.42zm-12.18 13.41c-6.75 0-12.24-5.49-12.24-12.24s5.49-12.24 12.24-12.24c2.02 0 3.93.5 5.62 1.37l-6.6 10.23c-.23.36-.25.82-.04 1.2s.6.61 1.03.61h12.18c-.6 6.21-5.84 11.07-12.19 11.07zm19.7-14.59L294.22 217h15.56l-8.7 13.44zm19.58 14.59c-6.75 0-12.24-5.49-12.24-12.24 0-4.31 2.24-8.1 5.62-10.28l5.58 10.82c.21.4.62.64 1.05.64.18 0 .37-.04.54-.13.58-.3.8-1.01.51-1.58l-5.58-10.83c1.4-.56 2.93-.87 4.53-.87 6.75 0 12.24 5.49 12.24 12.24-.01 6.74-5.5 12.23-12.25 12.23z"/><path class="st0" d="M-106.47 344.19h-5.82c-.34 0-.61.27-.61.61 0 .34.27.61.61.61h5.82c.34 0 .61-.27.61-.61 0-.33-.27-.61-.61-.61zM-106.47 346.63h-5.82c-.34 0-.61.27-.61.61 0 .34.27.61.61.61h5.82c.34 0 .61-.27.61-.61 0-.34-.27-.61-.61-.61zM-106.47 349.07h-5.82c-.34 0-.61.27-.61.61 0 .34.27.61.61.61h5.82c.34 0 .61-.27.61-.61 0-.34-.27-.61-.61-.61zM-106.47 367.33h-5.82c-.34 0-.61.27-.61.61 0 .34.27.61.61.61h5.82c.34 0 .61-.27.61-.61 0-.33-.27-.61-.61-.61zM-106.47 369.77h-5.82c-.34 0-.61.27-.61.61 0 .34.27.61.61.61h5.82c.34 0 .61-.27.61-.61 0-.34-.27-.61-.61-.61zM-106.47 372.2h-5.82c-.34 0-.61.27-.61.61 0 .34.27.61.61.61h5.82c.34 0 .61-.27.61-.61 0-.33-.27-.61-.61-.61zM-111.07 360.64c1.01 0 1.83-.82 1.83-1.83 0-1.01-.82-1.83-1.83-1.83s-1.83.82-1.83 1.83c.01 1.01.83 1.83 1.83 1.83zm0-2.44c.34 0 .61.27.61.61 0 .34-.27.61-.61.61s-.61-.27-.61-.61c0-.34.28-.61.61-.61zM-94.15 344.19h-5.82c-.34 0-.61.27-.61.61 0 .34.27.61.61.61h5.82c.34 0 .61-.27.61-.61 0-.33-.28-.61-.61-.61zM-94.15 346.63h-5.82c-.34 0-.61.27-.61.61 0 .34.27.61.61.61h5.82c.34 0 .61-.27.61-.61 0-.34-.28-.61-.61-.61zM-94.15 349.07h-5.82c-.34 0-.61.27-.61.61 0 .34.27.61.61.61h5.82c.34 0 .61-.27.61-.61 0-.34-.28-.61-.61-.61zM-94.15 367.33h-5.82c-.34 0-.61.27-.61.61 0 .34.27.61.61.61h5.82c.34 0 .61-.27.61-.61 0-.33-.28-.61-.61-.61zM-94.15 369.77h-5.82c-.34 0-.61.27-.61.61 0 .34.27.61.61.61h5.82c.34 0 .61-.27.61-.61 0-.34-.28-.61-.61-.61zM-94.15 372.2h-5.82c-.34 0-.61.27-.61.61 0 .34.27.61.61.61h5.82c.34 0 .61-.27.61-.61 0-.33-.28-.61-.61-.61zM-98.75 360.64c1.01 0 1.83-.82 1.83-1.83 0-1.01-.82-1.83-1.83-1.83s-1.83.82-1.83 1.83c0 1.01.82 1.83 1.83 1.83zm0-2.44c.34 0 .61.27.61.61 0 .34-.27.61-.61.61s-.61-.27-.61-.61c0-.34.27-.61.61-.61zM-87.66 345.41h5.82c.34 0 .61-.27.61-.61 0-.34-.27-.61-.61-.61h-5.82c-.34 0-.61.27-.61.61 0 .34.28.61.61.61zM-81.84 346.63h-5.82c-.34 0-.61.27-.61.61 0 .34.27.61.61.61h5.82c.34 0 .61-.27.61-.61 0-.34-.27-.61-.61-.61zM-81.84 349.07h-5.82c-.34 0-.61.27-.61.61 0 .34.27.61.61.61h5.82c.34 0 .61-.27.61-.61 0-.34-.27-.61-.61-.61zM-81.84 367.33h-5.82c-.34 0-.61.27-.61.61 0 .34.27.61.61.61h5.82c.34 0 .61-.27.61-.61 0-.33-.27-.61-.61-.61zM-81.84 369.77h-5.82c-.34 0-.61.27-.61.61 0 .34.27.61.61.61h5.82c.34 0 .61-.27.61-.61 0-.34-.27-.61-.61-.61zM-81.84 372.2h-5.82c-.34 0-.61.27-.61.61 0 .34.27.61.61.61h5.82c.34 0 .61-.27.61-.61 0-.33-.27-.61-.61-.61zM-86.44 360.64c1.01 0 1.83-.82 1.83-1.83 0-1.01-.82-1.83-1.83-1.83-1.01 0-1.83.82-1.83 1.83 0 1.01.82 1.83 1.83 1.83zm0-2.44c.34 0 .61.27.61.61 0 .34-.27.61-.61.61s-.61-.27-.61-.61c0-.34.27-.61.61-.61z"/><path class="st0" d="M-78.59 340.95h-36.94c-.34 0-.61.27-.61.61v36.94c0 .34.27.61.61.61s.61-.27.61-.61v-1.83h11.1v1.83c0 .34.27.61.61.61s.61-.27.61-.61v-1.83h11.1v1.83c0 .34.27.61.61.61.34 0 .61-.27.61-.61v-1.83h11.1v1.83c0 .34.27.61.61.61.34 0 .61-.27.61-.61v-36.94c-.02-.34-.29-.61-.63-.61zm-11.71 34.5v-25.78c0-.34-.27-.61-.61-.61-.34 0-.61.27-.61.61v25.78h-11.1v-7.51c0-.34-.27-.61-.61-.61s-.61.27-.61.61v7.51h-11.1v-33.29h11.1v27.6c0 .34.27.61.61.61s.61-.27.61-.61v-27.6h11.1v9.8c0 .34.27.61.61.61.34 0 .61-.27.61-.61v-9.8h11.1v33.29h-11.1z"/><g><path d="M-104.43 345.61h-5.82c-.34 0-.61.27-.61.61 0 .34.27.61.61.61h5.82c.34 0 .61-.27.61-.61 0-.34-.27-.61-.61-.61zM-104.43 348.04h-5.82c-.34 0-.61.27-.61.61 0 .34.27.61.61.61h5.82c.34 0 .61-.27.61-.61 0-.33-.27-.61-.61-.61zM-104.43 350.48h-5.82c-.34 0-.61.27-.61.61 0 .34.27.61.61.61h5.82c.34 0 .61-.27.61-.61 0-.34-.27-.61-.61-.61zM-104.43 368.75h-5.82c-.34 0-.61.27-.61.61 0 .34.27.61.61.61h5.82c.34 0 .61-.27.61-.61 0-.34-.27-.61-.61-.61zM-104.43 371.18h-5.82c-.34 0-.61.27-.61.61 0 .34.27.61.61.61h5.82c.34 0 .61-.27.61-.61 0-.34-.27-.61-.61-.61zM-104.43 373.62h-5.82c-.34 0-.61.27-.61.61 0 .34.27.61.61.61h5.82c.34 0 .61-.27.61-.61 0-.34-.27-.61-.61-.61zM-109.03 362.05c1.01 0 1.83-.82 1.83-1.83 0-1.01-.82-1.83-1.83-1.83-1.01 0-1.83.82-1.83 1.83.01 1.01.83 1.83 1.83 1.83zm0-2.44c.34 0 .61.27.61.61 0 .34-.27.61-.61.61s-.61-.27-.61-.61c0-.33.28-.61.61-.61zM-92.11 345.61h-5.82c-.34 0-.61.27-.61.61 0 .34.27.61.61.61h5.82c.34 0 .61-.27.61-.61 0-.34-.28-.61-.61-.61zM-92.11 348.04h-5.82c-.34 0-.61.27-.61.61 0 .34.27.61.61.61h5.82c.34 0 .61-.27.61-.61 0-.33-.28-.61-.61-.61zM-92.11 350.48h-5.82c-.34 0-.61.27-.61.61 0 .34.27.61.61.61h5.82c.34 0 .61-.27.61-.61 0-.34-.28-.61-.61-.61zM-92.11 368.75h-5.82c-.34 0-.61.27-.61.61 0 .34.27.61.61.61h5.82c.34 0 .61-.27.61-.61 0-.34-.28-.61-.61-.61zM-92.11 371.18h-5.82c-.34 0-.61.27-.61.61 0 .34.27.61.61.61h5.82c.34 0 .61-.27.61-.61 0-.34-.28-.61-.61-.61zM-92.11 373.62h-5.82c-.34 0-.61.27-.61.61 0 .34.27.61.61.61h5.82c.34 0 .61-.27.61-.61 0-.34-.28-.61-.61-.61zM-96.71 362.05c1.01 0 1.83-.82 1.83-1.83 0-1.01-.82-1.83-1.83-1.83-1.01 0-1.83.82-1.83 1.83 0 1.01.82 1.83 1.83 1.83zm0-2.44c.34 0 .61.27.61.61 0 .34-.27.61-.61.61s-.61-.27-.61-.61c0-.33.27-.61.61-.61zM-85.62 346.83h5.82c.34 0 .61-.27.61-.61 0-.34-.27-.61-.61-.61h-5.82c-.34 0-.61.27-.61.61 0 .33.28.61.61.61zM-79.8 348.04h-5.82c-.34 0-.61.27-.61.61 0 .34.27.61.61.61h5.82c.34 0 .61-.27.61-.61 0-.33-.27-.61-.61-.61zM-79.8 350.48h-5.82c-.34 0-.61.27-.61.61 0 .34.27.61.61.61h5.82c.34 0 .61-.27.61-.61 0-.34-.27-.61-.61-.61zM-79.8 368.75h-5.82c-.34 0-.61.27-.61.61 0 .34.27.61.61.61h5.82c.34 0 .61-.27.61-.61 0-.34-.27-.61-.61-.61zM-79.8 371.18h-5.82c-.34 0-.61.27-.61.61 0 .34.27.61.61.61h5.82c.34 0 .61-.27.61-.61 0-.34-.27-.61-.61-.61zM-79.8 373.62h-5.82c-.34 0-.61.27-.61.61 0 .34.27.61.61.61h5.82c.34 0 .61-.27.61-.61 0-.34-.27-.61-.61-.61zM-84.4 362.05c1.01 0 1.83-.82 1.83-1.83 0-1.01-.82-1.83-1.83-1.83-1.01 0-1.83.82-1.83 1.83 0 1.01.82 1.83 1.83 1.83zm0-2.44c.34 0 .61.27.61.61 0 .34-.27.61-.61.61-.34 0-.61-.27-.61-.61 0-.33.27-.61.61-.61z"/><path d="M-76.55 342.36h-36.94c-.34 0-.61.27-.61.61v36.94c0 .34.27.61.61.61s.61-.27.61-.61v-1.83h11.1v1.83c0 .34.27.61.61.61.34 0 .61-.27.61-.61v-1.83h11.1v1.83c0 .34.27.61.61.61.34 0 .61-.27.61-.61v-1.83h11.1v1.83c0 .34.27.61.61.61.34 0 .61-.27.61-.61v-36.94c-.02-.34-.3-.61-.63-.61zm-11.71 34.51v-25.78c0-.34-.27-.61-.61-.61-.34 0-.61.27-.61.61v25.78h-11.1v-7.51c0-.34-.27-.61-.61-.61-.34 0-.61.27-.61.61v7.51h-11.1v-33.29h11.1v27.6c0 .34.27.61.61.61.34 0 .61-.27.61-.61v-27.6h11.1v9.8c0 .34.27.61.61.61.34 0 .61-.27.61-.61v-9.8h11.1v33.29h-11.1z"/></g><g><path class="st0" d="M135.51 370.91h-.25c.64-.88.93-1.89.83-2.93-.24-2.34-2.53-4.68-4.6-6.35.01-.01.01-.03.02-.04.27-.66.12-1.42-.37-1.93l-.1-.1c-2.15-2.71-6.89-4.07-7.23-4.18-.06-.63-.44-1.2-1.03-1.47-1.28-.6-4.07-1.6-8.46-1.61-1.47 0-2.76.12-3.88.29v-2.84c0-2.35-1.91-4.26-4.26-4.26H102v-3.22c0-.5-.4-.9-.9-.9H80.2c-.5 0-.9.4-.9.9v24.5c0 1.15.83 2.1 1.92 2.3v1.84h-1.8c-1.49 0-2.7 1.21-2.7 2.7s1.21 2.7 2.7 2.7h.84v.3c0 1.69 1.37 3.06 3.06 3.06h48.28c1.69 0 3.06-1.37 3.06-3.06v-.3h.84c1.49 0 2.7-1.21 2.7-2.7s-1.2-2.7-2.69-2.7zm-1.21-2.74c.1 1-.49 1.99-1.65 2.74h-6.2c1.79-2.37 3.31-5.38 4.29-7.56 2.14 1.8 3.42 3.52 3.56 4.82zm-10.67-10.94c.58.2 1.24.48 1.95.79.8.34 2.96 1.75 3.11 1.87.35.28.68.57.99.88.05.06.09.12.14.18-.07.17-.16.38-.26.62-.82 1.92-2.96 6.59-5.44 9.35h-2.97c.43-1.07.92-2.89 1.46-6.14.46-2.73.81-5.61 1.02-7.55zm-9.32-3.13c4.18.01 6.77 1.01 7.69 1.44l-.04.4c-.19 1.77-.58 5.23-1.12 8.48-.89 5.35-1.58 6.34-1.72 6.49h-9.62c-.14-.15-.83-1.15-1.72-6.49-.54-3.25-.93-6.7-1.12-8.48l-.01-.07v-.01l-.03-.33c.92-.42 3.51-1.42 7.69-1.43zm-12.29-6.81h4.14c1.36 0 2.46 1.1 2.46 2.46v3.2c-.71.18-1.31.37-1.8.55v-3.27c0-.63-.51-1.14-1.14-1.14h-3.66v-1.8zm-.02 3.61h3.02v3.81c-.06.12-.11.25-.15.39H102v-4.2zm-.48 7.91c.03-.02.06-.03.09-.05 0 0 .01 0 .01-.01 1.19-.69 2.39-1.18 3.37-1.52.22 1.94.57 4.82 1.02 7.55.54 3.25 1.03 5.07 1.46 6.14h-2.97c-2.49-2.76-4.62-7.42-5.44-9.34-.11-.25-.2-.48-.27-.66.82-.86 1.76-1.55 2.73-2.11zm.66 12.1h-6.25c-1.08-.72-1.67-1.68-1.61-2.65 0-.03 0-.06.01-.09.14-1.3 1.42-3.02 3.55-4.81.99 2.17 2.5 5.18 4.3 7.55zm-21.07-4.14v-23.6h19.1v14.33c-.95.6-1.89 1.31-2.7 2.16-.49.52-.64 1.28-.37 1.93.01.01.01.03.02.04-1.88 1.51-3.92 3.57-4.48 5.67H81.65c-.3.01-.54-.23-.54-.53zm12.24 4.14H83.03v-1.8h9.55c.11.63.37 1.24.77 1.8zm42.16 3.6H88.27c-.5 0-.9.4-.9.9s.4.9.9.9h44.6v.3c0 .7-.57 1.26-1.26 1.26H83.33c-.7 0-1.26-.57-1.26-1.26v-.3h17.26c.5 0 .9-.4.9-.9s-.4-.9-.9-.9h-19.9c-.5 0-.9-.4-.9-.9s.4-.9.9-.9h56.08c.5 0 .9.4.9.9s-.41.9-.9.9z"/><path d="M137.55 372.32h-.25c.64-.88.93-1.89.83-2.93-.24-2.34-2.53-4.68-4.6-6.35.01-.01.01-.03.02-.04.27-.66.12-1.42-.37-1.93l-.1-.1c-2.15-2.71-6.89-4.07-7.23-4.18-.06-.63-.44-1.2-1.03-1.47-1.28-.6-4.07-1.6-8.46-1.61-1.47 0-2.76.12-3.88.29v-2.84c0-2.35-1.91-4.26-4.26-4.26h-4.17v-3.22c0-.5-.4-.9-.9-.9H82.24c-.5 0-.9.4-.9.9v24.5c0 1.15.83 2.1 1.92 2.3v1.84h-1.8c-1.49 0-2.7 1.21-2.7 2.7s1.21 2.7 2.7 2.7h.84v.3c0 1.69 1.37 3.06 3.06 3.06h48.28c1.69 0 3.06-1.37 3.06-3.06v-.3h.84c1.49 0 2.7-1.21 2.7-2.7s-1.2-2.7-2.69-2.7zm-1.22-2.74c.1 1-.49 1.99-1.65 2.74h-6.2c1.79-2.37 3.31-5.38 4.29-7.56 2.15 1.8 3.43 3.53 3.56 4.82zm-10.66-10.94c.58.2 1.24.48 1.95.79.8.34 2.96 1.75 3.11 1.87.35.28.68.57.99.88.05.06.09.12.14.18-.07.17-.16.38-.26.62-.82 1.92-2.96 6.59-5.44 9.35h-2.97c.43-1.07.92-2.89 1.46-6.14.45-2.73.81-5.61 1.02-7.55zm-9.32-3.13c4.18.01 6.77 1.01 7.69 1.44l-.04.4c-.19 1.77-.58 5.23-1.12 8.48-.89 5.35-1.58 6.34-1.72 6.49h-9.62c-.14-.15-.83-1.15-1.72-6.49-.54-3.25-.93-6.7-1.12-8.48l-.01-.07v-.01l-.03-.33c.92-.42 3.51-1.42 7.69-1.43zm-12.29-6.8h4.14c1.36 0 2.46 1.1 2.46 2.46v3.2c-.71.18-1.31.37-1.8.55v-3.27c0-.63-.51-1.14-1.14-1.14h-3.66v-1.8zm-.02 3.6h3.02v3.81c-.06.12-.11.25-.15.39h-2.87v-4.2zm-.49 7.91c.03-.02.06-.03.09-.05 0 0 .01 0 .01-.01 1.19-.69 2.39-1.18 3.37-1.52.22 1.94.57 4.82 1.02 7.55.54 3.25 1.03 5.07 1.46 6.14h-2.97c-2.49-2.76-4.62-7.42-5.44-9.34-.11-.25-.2-.48-.27-.66.83-.85 1.77-1.54 2.73-2.11zm.67 12.1h-6.25c-1.08-.72-1.67-1.68-1.61-2.65 0-.03 0-.06.01-.09.14-1.3 1.42-3.02 3.55-4.81.98 2.18 2.5 5.18 4.3 7.55zm-21.07-4.14v-23.6h19.1v14.33c-.95.6-1.89 1.31-2.7 2.16-.49.52-.64 1.28-.37 1.93.01.01.01.03.02.04-1.88 1.51-3.92 3.57-4.48 5.67H83.69c-.3.01-.54-.23-.54-.53zm12.24 4.14H85.07v-1.8h9.55c.11.64.37 1.25.77 1.8zm42.16 3.61H90.31c-.5 0-.9.4-.9.9s.4.9.9.9h44.6v.3c0 .7-.57 1.26-1.26 1.26H85.37c-.7 0-1.26-.57-1.26-1.26v-.3h17.26c.5 0 .9-.4.9-.9s-.4-.9-.9-.9h-19.9c-.5 0-.9-.4-.9-.9s.4-.9.9-.9h56.08c.5 0 .9.4.9.9s-.41.9-.9.9z"/></g><g><text transform="translate(66.8164 267.0068)"><tspan x="0" y="0" font-family="Montserrat-Medium" font-size="13.7445">Area de </tspan><tspan x="-15.94" y="16.49" font-family="Montserrat-Medium" font-size="13.7445">conferencias</tspan></text></g><g><path class="st0" d="M38.36.96H1.33c-.35 0-.64.29-.64.64v13.49c0 .35.29.64.64.64.35 0 .64-.29.64-.64V2.23h35.75v14.05H13.61v1.28h24.74c.35 0 .64-.29.64-.64V1.6c.01-.36-.28-.64-.63-.64z"/><path class="st0" d="M21.76 4.15h12.77v1.28H21.76zM23.67 7.98h12.77v1.28H23.67zM21.12 11.81h12.77v1.28H21.12zM21.07 6.46c-.44-1.05-1.64-1.55-2.69-1.11-.02.01-.04.02-.05.02l-5.18 2.69c.2-.42.31-.89.31-1.36 0-1.76-1.43-3.19-3.19-3.19s-3.2 1.43-3.2 3.19c0 .69.23 1.37.65 1.92H7.7c-1.81.01-3.43 1.14-4.07 2.83l-1.7 5.87c-.41 1.05.12 2.24 1.17 2.64.48.18 1.01.18 1.49-.01.55-.22.98-.67 1.17-1.23l.67-2.12v9.24c-.55-.42-1.22-.65-1.92-.65-1.76 0-3.19 1.42-3.19 3.18 0 .86.35 1.69.96 2.29-.98.5-1.6 1.51-1.6 2.61v5.35c0 .35.29.64.64.64H7.7c.35 0 .64-.29.64-.64v-5.35c0-.9-.42-1.76-1.14-2.31h4.83c-.72.55-1.14 1.41-1.14 2.31v5.35c0 .35.29.64.64.64h6.38c.35 0 .64-.29.64-.64v-5.35c0-1.1-.62-2.11-1.6-2.61 1.26-1.23 1.29-3.25.05-4.51-.76-.78-1.86-1.11-2.92-.9V12.2l5.86-3.04c1.07-.44 1.57-1.65 1.13-2.7zm-10.8-1.67c1.06 0 1.92.86 1.92 1.92s-.86 1.92-1.92 1.92-1.91-.86-1.92-1.92c0-1.06.86-1.92 1.92-1.92zM4.52 26.47c1.06 0 1.92.86 1.92 1.92s-.86 1.91-1.92 1.91-1.92-.85-1.92-1.91c.01-1.06.86-1.92 1.92-1.92zm2.55 11.52h-5.1v-4.71c0-.92.75-1.67 1.67-1.67H5.4c.92 0 1.67.75 1.67 1.67v4.71zm10.22-4.71v4.71h-5.11v-4.71c0-.92.75-1.67 1.67-1.67h1.76c.93-.01 1.68.74 1.68 1.67zm-2.56-6.81c1.06 0 1.91.86 1.92 1.92 0 1.06-.86 1.92-1.92 1.92s-1.92-.86-1.92-1.92.87-1.92 1.92-1.92zM19.9 7.53c-.09.22-.26.39-.48.47l-6.25 3.24c-.21.11-.34.33-.34.57v14.04c-1.2.88-1.61 2.48-.99 3.84h-.94V18.83H9.63v10.85h-2.2c.18-.4.28-.84.28-1.28V12.45c0-.35-.29-.64-.64-.64-.28 0-.53.18-.61.45l-1.91 6.07c-.14.4-.58.6-.98.46-.03-.01-.06-.02-.08-.04-.37-.19-.52-.63-.36-1.01l1.7-5.87C5.3 10.68 6.43 9.9 7.7 9.9h4.52c.1 0 .2-.02.29-.07l6.35-3.29c.38-.16.82 0 1 .37.1.19.12.41.04.62zM27.18 30.67c1.26-1.23 1.29-3.25.06-4.51-1.23-1.26-3.25-1.29-4.51-.06-1.26 1.23-1.29 3.25-.06 4.51l.06.06c-.98.5-1.6 1.51-1.6 2.61v5.35c0 .35.29.64.64.64h6.38c.35 0 .64-.29.64-.64v-5.35c-.01-1.1-.63-2.11-1.61-2.61zm-2.23-4.2c1.06 0 1.92.86 1.92 1.92s-.86 1.92-1.92 1.92-1.92-.86-1.92-1.92c.01-1.06.86-1.92 1.92-1.92zm2.55 11.52h-5.1v-4.71c0-.92.75-1.67 1.67-1.67h1.76c.92 0 1.67.75 1.67 1.67v4.71zM37.39 30.67c1.26-1.23 1.29-3.25.06-4.51-1.23-1.26-3.25-1.29-4.51-.06-1.26 1.23-1.29 3.25-.06 4.51l.06.06c-.98.5-1.6 1.51-1.6 2.61v5.35c0 .35.29.64.64.64h6.38c.35 0 .64-.29.64-.64v-5.35c-.01-1.1-.63-2.11-1.61-2.61zm-2.22-4.2c1.06 0 1.92.86 1.92 1.92s-.86 1.92-1.92 1.92-1.92-.86-1.92-1.92.86-1.92 1.92-1.92zm2.55 11.52h-5.11v-4.71c0-.92.75-1.67 1.67-1.67h1.76c.92 0 1.67.75 1.67 1.67v4.71z"/><g><path d="M40.4 2.37H3.37c-.35 0-.64.29-.64.64V16.5c0 .35.29.64.64.64.35-.01.63-.29.63-.64V3.65h35.75V17.7h-24.1v1.28H40.4c.35 0 .64-.29.64-.64V3.01c0-.35-.29-.64-.64-.64z"/><path d="M23.8 5.56h12.77v1.28H23.8zM25.71 9.39h12.77v1.28H25.71zM23.16 13.22h12.77v1.28H23.16zM23.11 7.87c-.44-1.05-1.64-1.55-2.69-1.11-.02.01-.04.02-.05.02l-5.18 2.69c.2-.42.31-.89.31-1.36 0-1.76-1.43-3.19-3.19-3.19s-3.2 1.43-3.2 3.2c0 .69.23 1.37.65 1.92h-.02c-1.81.01-3.43 1.14-4.07 2.83l-1.7 5.87c-.41 1.05.12 2.24 1.17 2.64.48.18 1.01.18 1.49-.01.55-.22.98-.67 1.17-1.23l.67-2.12v9.24c-.55-.42-1.22-.65-1.92-.65-1.76 0-3.19 1.42-3.19 3.18 0 .86.35 1.69.96 2.29-.98.5-1.6 1.51-1.6 2.61v5.35c0 .35.29.64.64.64h6.38c.35 0 .64-.29.64-.64v-5.35c0-.9-.42-1.76-1.14-2.31h4.83c-.72.55-1.14 1.41-1.14 2.31v5.35c0 .35.29.64.64.64h6.38c.35 0 .64-.29.64-.64v-5.35c0-1.1-.62-2.11-1.6-2.61 1.26-1.23 1.29-3.25.05-4.51-.76-.78-1.86-1.11-2.92-.9V13.61L22 10.57c1.05-.44 1.54-1.64 1.11-2.7zM12.3 6.2c1.06 0 1.92.86 1.92 1.92s-.86 1.92-1.92 1.92-1.91-.86-1.92-1.92c.01-1.06.87-1.92 1.92-1.92zM6.56 27.89c1.06 0 1.92.86 1.92 1.92s-.86 1.92-1.92 1.92-1.92-.86-1.92-1.92c0-1.07.86-1.92 1.92-1.92zM9.11 39.4H4v-4.71c0-.92.75-1.67 1.67-1.67h1.76c.92 0 1.67.75 1.67 1.67v4.71zm10.22-4.71v4.71h-5.11v-4.71c0-.92.75-1.67 1.67-1.67h1.76c.93 0 1.68.75 1.68 1.67zm-2.56-6.8c1.06 0 1.91.86 1.92 1.92 0 1.06-.86 1.92-1.92 1.92s-1.92-.86-1.92-1.92.87-1.92 1.92-1.92zm5.17-18.95c-.09.22-.26.39-.48.47l-6.25 3.24c-.21.11-.34.33-.34.57v14.04c-1.2.88-1.61 2.48-.99 3.84h-.92V20.25h-1.28V31.1h-2.2c.18-.4.28-.84.28-1.28V13.86c0-.35-.29-.64-.64-.64-.28 0-.53.18-.61.45L6.6 19.74c-.14.4-.58.6-.98.46-.03-.01-.06-.02-.08-.04-.37-.19-.52-.63-.36-1.01l1.7-5.87a3.092 3.092 0 012.86-1.97h4.52c.1 0 .2-.02.29-.07l6.35-3.29c.38-.16.82 0 1 .37.1.19.12.42.04.62zM29.22 32.08c1.26-1.23 1.29-3.25.06-4.51-1.23-1.26-3.25-1.29-4.51-.06-1.26 1.23-1.29 3.25-.06 4.51l.06.06c-.98.5-1.6 1.51-1.6 2.61v5.35c0 .35.29.64.64.64h6.38c.35 0 .64-.29.64-.64v-5.35c-.01-1.1-.63-2.11-1.61-2.61zm-2.23-4.19c1.06 0 1.92.86 1.92 1.92s-.86 1.92-1.92 1.92-1.92-.86-1.92-1.92c.01-1.07.86-1.92 1.92-1.92zm2.55 11.51h-5.11v-4.71c0-.92.75-1.67 1.67-1.67h1.76c.92 0 1.67.75 1.67 1.67v4.71zM39.43 32.08c1.26-1.23 1.29-3.25.06-4.51-1.23-1.26-3.25-1.29-4.51-.06-1.26 1.23-1.29 3.25-.06 4.51l.06.06c-.98.5-1.6 1.51-1.6 2.61v5.35c0 .35.29.64.64.64h6.38c.35 0 .64-.29.64-.64v-5.35c-.01-1.1-.63-2.11-1.61-2.61zm-2.22-4.19c1.06 0 1.92.86 1.92 1.92s-.86 1.92-1.92 1.92-1.92-.86-1.92-1.92c0-1.07.86-1.92 1.92-1.92zm2.55 11.51h-5.11v-4.71c0-.92.75-1.67 1.67-1.67h1.76c.92 0 1.67.75 1.67 1.67v4.71z"/></g></g><g><path class="st0" d="M321.39 355.46h-25.44c-1.5 0-2.73 1.22-2.73 2.73v1.82c0 6.48 3.58 12.36 9.35 15.35.45.23.99.06 1.22-.39.23-.45.06-.99-.39-1.22-5.16-2.67-8.36-7.93-8.36-13.73v-1.82c0-.5.41-.91.91-.91h25.44c.5 0 .91.41.91.91v1.82c0 5.8-3.21 11.06-8.36 13.73-.45.23-.62.78-.39 1.22.16.31.48.49.81.49.14 0 .28-.03.42-.1 5.77-2.98 9.35-8.86 9.35-15.34v-1.82c-.02-1.51-1.24-2.74-2.74-2.74z"/><path class="st0" d="M329.5 374.19c-.14-.34-.47-.56-.84-.56h-39.98c-.37 0-.7.22-.84.56-.14.34-.06.73.2.99l2.04 2.04c1.2 1.2 2.8 1.86 4.5 1.86h28.19c1.7 0 3.3-.66 4.5-1.86l2.04-2.04c.25-.25.33-.65.19-.99zm-3.52 1.75c-.86.86-2 1.33-3.21 1.33h-28.19c-1.21 0-2.35-.47-3.21-1.33l-.49-.49h35.59l-.49.49zM329.62 359.75c-2.45-1.57-6.36.13-6.8.33-.46.21-.66.75-.45 1.2.21.46.75.66 1.2.45.88-.4 3.69-1.34 5.06-.46.62.4.92 1.17.92 2.35 0 3.64-7.34 5.84-10.17 6.38l-.64.13c-.49.1-.81.57-.72 1.07.09.43.47.73.89.73.06 0 .12-.01.18-.02l.64-.13c.48-.09 11.64-2.28 11.64-8.16.01-1.81-.58-3.11-1.75-3.87zM315.74 347.85c1.48-1.85 1.48-4.74 0-6.58-.31-.39-.88-.46-1.28-.14-.39.31-.46.88-.14 1.28.94 1.17.94 3.14 0 4.32-1.48 1.85-1.48 4.74 0 6.58.18.23.44.34.71.34.2 0 .4-.07.57-.2.39-.31.46-.89.14-1.28-.94-1.17-.94-3.14 0-4.32zM310.28 347.85c1.48-1.85 1.48-4.74 0-6.58-.31-.39-.88-.46-1.28-.14-.39.31-.46.89-.14 1.28.94 1.17.94 3.14 0 4.32-1.48 1.85-1.48 4.74 0 6.58.18.23.44.34.71.34.2 0 .4-.07.57-.2.39-.31.46-.88.14-1.28-.94-1.17-.94-3.14 0-4.32zM304.84 347.86c1.48-1.85 1.48-4.74 0-6.58-.31-.39-.88-.46-1.28-.14-.39.31-.45.88-.14 1.28.94 1.17.94 3.14 0 4.32-1.48 1.85-1.48 4.74 0 6.58.18.23.44.34.71.34.2 0 .4-.07.57-.2.39-.31.46-.89.14-1.28-.94-1.18-.94-3.15 0-4.32z"/><g><path d="M323.43 356.88h-25.44c-1.5 0-2.73 1.22-2.73 2.73v1.82c0 6.48 3.58 12.36 9.35 15.35.45.23.99.06 1.22-.39.23-.45.06-.99-.39-1.22-5.16-2.67-8.36-7.93-8.36-13.73v-1.82c0-.5.41-.91.91-.91h25.44c.5 0 .91.41.91.91v1.82c0 5.8-3.21 11.06-8.36 13.73-.45.23-.62.78-.39 1.22.16.31.48.49.81.49.14 0 .28-.03.42-.1 5.77-2.98 9.35-8.86 9.35-15.34v-1.82c-.02-1.52-1.24-2.74-2.74-2.74z"/><path d="M331.54 375.61c-.14-.34-.47-.56-.84-.56h-39.98c-.37 0-.7.22-.84.56-.14.34-.06.73.2.99l2.04 2.04c1.2 1.2 2.8 1.86 4.5 1.86h28.19c1.7 0 3.3-.66 4.5-1.86l2.04-2.04c.25-.26.33-.65.19-.99zm-3.52 1.74c-.86.86-2 1.33-3.21 1.33h-28.19c-1.21 0-2.35-.47-3.21-1.33l-.49-.49h35.59l-.49.49zM331.66 361.17c-2.45-1.57-6.36.13-6.8.33-.46.21-.66.75-.45 1.2.21.46.75.66 1.2.45.88-.4 3.69-1.34 5.06-.46.62.4.92 1.17.92 2.35 0 3.64-7.34 5.84-10.17 6.38l-.64.13c-.49.1-.81.57-.72 1.07.09.43.47.73.89.73.06 0 .12-.01.18-.02l.64-.13c.48-.09 11.64-2.28 11.64-8.16.01-1.81-.58-3.12-1.75-3.87zM317.78 349.27c1.48-1.85 1.48-4.74 0-6.58-.31-.39-.88-.46-1.28-.14-.39.31-.46.88-.14 1.28.94 1.17.94 3.14 0 4.32-1.48 1.85-1.48 4.74 0 6.58.18.23.44.34.71.34.2 0 .4-.07.57-.2.39-.31.46-.89.14-1.28-.94-1.18-.94-3.15 0-4.32zM312.32 349.27c1.48-1.85 1.48-4.74 0-6.58-.31-.39-.88-.46-1.28-.14-.39.31-.46.89-.14 1.28.94 1.17.94 3.14 0 4.32-1.48 1.85-1.48 4.74 0 6.58.18.23.44.34.71.34.2 0 .4-.07.57-.2.39-.31.46-.88.14-1.28-.94-1.18-.94-3.15 0-4.32zM306.88 349.27c1.48-1.85 1.48-4.74 0-6.58-.31-.39-.88-.46-1.28-.14-.39.31-.45.88-.14 1.28.94 1.17.94 3.14 0 4.32-1.48 1.85-1.48 4.74 0 6.58.18.23.44.34.71.34.2 0 .4-.07.57-.2.39-.31.46-.89.14-1.28-.94-1.18-.94-3.15 0-4.32z"/></g></g><g><path class="st0" d="M-279.53 346.5c-3.21-5.5-10.26-7.35-15.76-4.15-1.33.78-2.49 1.81-3.41 3.04l-.53.71-.53-.71c-2.18-2.89-5.59-4.6-9.22-4.61h-.27c-3.94 0-7.6 2.01-9.72 5.34-1.31 2.06-2.01 4.45-2.01 6.89v2.1c-.01 6.24 3.13 12.06 8.36 15.47l1.24.81 5.08 3.33 6.67 4.37c.24.16.56.16.8 0l13.06-8.65c5.18-3.42 8.29-9.21 8.28-15.42v-.93c.01-2.67-.69-5.29-2.04-7.59zm-23.97 27.96l.27.53-5.83-3.82-1.53-1-.42-.27 3.68-5.52c.08-.12.12-.26.12-.4v-2.27-.14c.04-.9.38-1.75.97-2.43l.12-.14.38 1.53c.08.32.37.55.7.55h1.74c.48 0 .94.24 1.21.65.49.74 1.26 1.26 2.13 1.45v.8c0 .8-.65 1.45-1.45 1.45-.4 0-.72.32-.72.72v2.64c0 .5-.15.99-.43 1.41l-.9 1.35c-.08.12-.12.26-.12.4v2.17c.01.13.03.24.08.34zm2.83 2.21l-.72-.47v-.61c0-.11-.03-.22-.08-.32l-.01-.02.81-.81v2.23zm5.79-1.94l-1.45.96v-4.1l1.45-1.09v4.23zm1.36-9.07c-.05 1.05-.45 2.06-1.13 2.87l-2.84 2.13c-.18.14-.29.35-.29.58v5.42l-1.45.96v-4.93c0-.4-.32-.72-.72-.72-.19 0-.38.08-.51.21l-1.66 1.66v-1.65l.78-1.17c.44-.65.67-1.42.67-2.21v-2c1.28-.33 2.17-1.49 2.17-2.81v-1.45c0-.4-.32-.72-.72-.72-.66 0-1.28-.33-1.65-.88-.3-.45-.72-.81-1.21-1.03l1.11-1.11-.02.05 2.52 1.26c1.31.65 2.74.99 4.2.99h.31l.37 2.75c.07.58.1 1.19.07 1.8zm-4.98-11.82v2.36c0 .3-.24.54-.54.54h-.91v-1.29c0-1.77.7-3.46 1.95-4.7.34-.34.79-.53 1.27-.53h1.57c.46 0 .89.18 1.21.5l1.46 1.46c.14.14.32.21.51.21h1.45v1.09c0 .6-.49 1.09-1.09 1.09h-1.81c-.4 0-.72.32-.72.72v4.35h-.13c-1.23 0-2.45-.29-3.55-.84l-1.22-.61h.01c1.1 0 1.99-.89 1.99-1.99v-2.36h-1.45zm19.57 1.18c.01 5.72-2.86 11.06-7.63 14.21l-6.87 4.55v-4.45c.81-1.03 1.29-2.28 1.35-3.59.03-.7.01-1.4-.09-2.09l-.54-4.05v-3.58h1.09c1.4 0 2.54-1.14 2.54-2.54v-1.81c0-.4-.32-.72-.72-.72h-1.87l-1.25-1.25c-.59-.6-1.4-.93-2.24-.93h-1.57c-.86 0-1.69.34-2.3.95-1.52 1.52-2.38 3.58-2.37 5.73v1.72l-2.48 2.47h-.58l-.59-2.35c-.1-.39-.49-.62-.88-.53-.15.04-.28.12-.38.23l-1.03 1.21c-.8.93-1.26 2.1-1.31 3.32V363.76l-3.56 5.34c-4.59-3.18-7.32-8.41-7.32-13.99v-2.1c0-2.16.62-4.28 1.78-6.11 1.85-2.91 5.05-4.66 8.5-4.66h.27c3.17.01 6.15 1.5 8.06 4.03l1.11 1.48c.24.32.69.39 1.01.14.05-.04.1-.09.14-.14l1.11-1.48c3.34-4.45 9.65-5.35 14.1-2.01 1.08.81 1.98 1.82 2.66 2.98 1.21 2.08 1.85 4.44 1.85 6.85v.93z"/><path d="M-277.49 347.92c-3.21-5.5-10.26-7.35-15.76-4.15-1.33.78-2.49 1.81-3.41 3.04l-.53.71-.53-.71c-2.18-2.89-5.59-4.6-9.22-4.61h-.27c-3.94 0-7.6 2.01-9.72 5.34-1.31 2.06-2.01 4.45-2.01 6.89v2.1c-.01 6.24 3.13 12.06 8.36 15.47l1.24.81 5.08 3.33 6.67 4.37c.24.16.56.16.8 0l13.06-8.65c5.18-3.42 8.29-9.21 8.28-15.42v-.93c.01-2.68-.7-5.29-2.04-7.59zm-23.97 27.95l.27.53-5.83-3.82-1.53-1-.42-.27 3.68-5.52c.08-.12.12-.26.12-.4v-2.27-.14c.04-.9.38-1.75.97-2.43l.12-.14.38 1.53c.08.32.37.55.7.55h1.74c.48 0 .94.24 1.21.65.49.74 1.26 1.26 2.13 1.45v.8c0 .8-.65 1.45-1.45 1.45-.4 0-.72.32-.72.72v2.64c0 .5-.15.99-.43 1.41l-.9 1.35c-.08.12-.12.26-.12.4v2.17c.01.13.03.24.08.34zm2.82 2.21l-.72-.47V377c0-.11-.03-.22-.08-.32l-.01-.02.81-.81v2.23zm5.8-1.93l-1.45.96v-4.1l1.45-1.09v4.23zm1.36-9.08c-.05 1.05-.45 2.06-1.13 2.87l-2.84 2.13c-.18.14-.29.35-.29.58v5.42l-1.45.96v-4.93c0-.4-.32-.72-.72-.72-.19 0-.38.08-.51.21l-1.66 1.66v-1.65l.78-1.17c.44-.65.67-1.42.67-2.21v-2c1.28-.33 2.17-1.49 2.17-2.81v-1.45c0-.4-.32-.72-.72-.72-.66 0-1.28-.33-1.65-.88-.3-.45-.72-.81-1.21-1.03l1.11-1.11-.02.05 2.52 1.26c1.31.65 2.74.99 4.2.99h.31l.37 2.75c.07.58.1 1.19.07 1.8zm-4.98-11.82v2.36c0 .3-.24.54-.54.54h-.91v-1.29c0-1.77.7-3.46 1.95-4.7.34-.34.79-.53 1.27-.53h1.57c.46 0 .89.18 1.21.5l1.46 1.46c.14.14.32.21.51.21h1.45v1.09c0 .6-.49 1.09-1.09 1.09h-1.81c-.4 0-.72.32-.72.72v4.35h-.13c-1.23 0-2.45-.29-3.55-.84l-1.22-.61h.01c1.1 0 1.99-.89 1.99-1.99v-2.36h-1.45zm19.57 1.18c.01 5.72-2.86 11.06-7.63 14.21l-6.87 4.55v-4.45c.81-1.03 1.29-2.28 1.35-3.59.03-.7.01-1.4-.09-2.09l-.54-4.05v-3.58h1.09c1.4 0 2.54-1.14 2.54-2.54v-1.81c0-.4-.32-.72-.72-.72h-1.87l-1.25-1.25c-.59-.6-1.4-.93-2.24-.93h-1.57c-.86 0-1.69.34-2.3.95-1.52 1.52-2.38 3.58-2.37 5.73v1.72l-2.48 2.47h-.58l-.59-2.35c-.1-.39-.49-.62-.88-.53-.15.04-.28.12-.38.23l-1.03 1.21c-.8.93-1.26 2.1-1.31 3.32V365.17l-3.56 5.34c-4.59-3.18-7.32-8.41-7.32-13.99v-2.1c0-2.16.62-4.28 1.78-6.11 1.85-2.91 5.05-4.66 8.5-4.66h.27c3.17.01 6.15 1.5 8.06 4.03l1.11 1.48c.24.32.69.39 1.01.14.05-.04.1-.09.14-.14l1.11-1.48c3.34-4.45 9.65-5.35 14.1-2.01 1.08.81 1.98 1.82 2.66 2.98 1.21 2.08 1.85 4.44 1.85 6.85v.93z"/></g></svg>