<svg xmlns="http://www.w3.org/2000/svg" viewBox="0 0 150 128"><path d="M133.76 0l-4.22.01L20.99.14h-2.78C8.2.16.09 7.12.1 15.69v2.38l.1 78.11v2.38c.01 8.27 7.85 14.97 17.52 14.96l98.02-.12c9.34-.01 16.9-6.5 16.89-14.5l-.07-56.39c0-1.36-1.31-2.46-2.92-2.42-1.56.04-2.76 1.21-2.76 2.54l.07 54.99c.01 6.02-5.69 10.91-12.73 10.92l-94.6.12c-7.59.01-13.74-5.25-13.75-11.74v-.85L5.78 16.5C5.77 10.16 11.77 5.01 19.17 5l110.5-.14h2.87c6.43-.01 11.65 4.45 11.65 9.95l.12 96.94c.01 6.41-6.05 11.61-13.54 11.62l-127.7.16c-1.59 0-2.88 1.13-2.83 2.5.04 1.34 1.41 2.36 2.97 2.36l128.54-.16c10.09-.01 18.27-7.03 18.25-15.67l-.12-98.8C149.87 6.15 142.65-.01 133.76 0z"/></svg>