<svg xmlns="http://www.w3.org/2000/svg" viewBox="0 0 50 50"><path d="M35.83 50.17H14.88C7.07 50.17.71 43.81.71 36V15.05C.71 7.24 7.07.88 14.88.88h20.95C43.64.88 50 7.24 50 15.05V36c0 7.81-6.36 14.17-14.17 14.17zM14.88 4.5C9.06 4.5 4.33 9.23 4.33 15.05V36c0 5.82 4.74 10.56 10.56 10.56h20.95c5.82 0 10.56-4.74 10.56-10.56V15.05c0-5.82-4.74-10.56-10.56-10.56H14.88z"/><path d="M25.36 37.15c-6.41 0-11.62-5.21-11.62-11.62s5.21-11.62 11.62-11.62 11.62 5.21 11.62 11.62-5.22 11.62-11.62 11.62zm0-19.63c-4.41 0-8 3.59-8 8s3.59 8 8 8 8-3.59 8-8-3.59-8-8-8zM38.14 15.11c-1.55 0-2.82-1.26-2.82-2.82 0-1.55 1.26-2.82 2.82-2.82 1.55 0 2.82 1.26 2.82 2.82 0 1.56-1.26 2.82-2.82 2.82zm0-3.61c-.44 0-.79.36-.79.79s.36.79.79.79.79-.36.79-.79-.35-.79-.79-.79z"/><g><path d="M258.64 90.29l-18.72-10.24c-1.08-.59-2.35-.57-3.4.06-1.06.63-1.69 1.73-1.69 2.96v20.31c0 1.22.63 2.32 1.67 2.95.55.33 1.15.49 1.76.49.56 0 1.12-.14 1.63-.41l18.72-10.07c1.11-.6 1.81-1.75 1.81-3.02.01-1.26-.68-2.43-1.78-3.03zm-18.85 10.53V85.64l13.99 7.66-13.99 7.52z"/><path d="M287.34 77.14v-.04c-.07-.68-.79-6.75-3.74-9.83-3.41-3.63-7.27-4.07-9.13-4.28-.15-.02-.29-.03-.42-.05l-.15-.02c-11.2-.81-28.12-.93-28.29-.93h-.02c-.17 0-17.09.11-28.39.93l-.15.02c-.12.02-.25.03-.4.05-1.84.21-5.66.65-9.08 4.41-2.81 3.05-3.62 8.99-3.7 9.66l-.01.09c-.03.28-.62 7.04-.62 13.82v6.34c0 6.78.6 13.54.62 13.82v.04c.07.67.79 6.63 3.72 9.71 3.21 3.51 7.26 3.97 9.44 4.22.34.04.64.07.84.11l.2.03c6.47.62 26.75.92 27.61.93h.06c.17 0 17.09-.11 28.29-.93l.15-.02c.14-.02.3-.04.48-.05 1.83-.19 5.63-.6 9-4.31 2.81-3.05 3.62-8.99 3.7-9.66l.01-.09c.03-.28.62-7.04.62-13.82v-6.34c-.02-6.77-.62-13.53-.64-13.81zM283 97.3c0 6.28-.55 12.74-.6 13.34-.21 1.64-1.07 5.39-2.44 6.88-2.11 2.32-4.28 2.55-5.86 2.72-.19.02-.37.04-.53.06-10.84.78-27.12.9-27.87.91-.84-.01-20.82-.32-27.1-.9-.32-.05-.67-.09-1.03-.13-1.86-.21-4.4-.5-6.35-2.65l-.05-.05c-1.34-1.4-2.18-4.91-2.39-6.81-.04-.45-.6-6.99-.6-13.36v-6.34c0-6.27.55-12.73.6-13.34.25-1.93 1.12-5.45 2.44-6.88 2.17-2.39 4.47-2.66 5.98-2.83.14-.02.28-.03.4-.05 10.99-.79 27.39-.9 27.98-.91.59 0 16.98.12 27.88.91.13.02.28.03.44.05 1.56.18 3.92.45 6.08 2.75l.02.02c1.34 1.4 2.18 4.97 2.39 6.91.04.42.6 6.98.6 13.36v6.34z"/></g></svg>