<svg version="1.1" id="Layer_1" xmlns="http://www.w3.org/2000/svg" x="0" y="0" viewBox="0 0 50 50" xml:space="preserve"><style>.st0{fill:#ffed00}</style><text transform="translate(294.5718 144.9785)"><tspan x="0" y="0" font-family="Montserrat-Medium" font-size="13.7445">Café e </tspan><tspan x="-18.29" y="16.49" font-family="Montserrat-Medium" font-size="13.7445">hidratación</tspan></text><text transform="translate(84.6162 145.4189)" font-family="Montserrat-Medium" font-size="13.7445">Café bar</text><path class="st0" d="M12.69 5.11H5.57c-.41 0-.74.33-.74.74s.33.75.74.75h7.11c.41 0 .74-.33.74-.74s-.32-.75-.73-.75zM12.69 8.09H5.57c-.41 0-.74.33-.74.74s.33.74.74.74h7.11c.41 0 .74-.33.74-.74.01-.41-.32-.74-.73-.74zM12.69 11.07H5.57c-.41 0-.74.33-.74.74s.33.74.74.74h7.11c.41 0 .74-.33.74-.74.01-.41-.32-.74-.73-.74zM12.69 33.4H5.57c-.41 0-.74.33-.74.74s.33.74.74.74h7.11c.41 0 .74-.33.74-.74.01-.41-.32-.74-.73-.74zM12.69 36.38H5.57c-.41 0-.74.33-.74.74s.33.74.74.74h7.11c.41 0 .74-.33.74-.74.01-.41-.32-.74-.73-.74zM12.69 39.36H5.57c-.41 0-.74.33-.74.74s.33.74.74.74h7.11c.41 0 .74-.33.74-.74.01-.41-.32-.74-.73-.74zM7.06 25.21c1.23 0 2.23-1 2.23-2.23s-1-2.23-2.23-2.23-2.23 1-2.23 2.23 1 2.23 2.23 2.23zm0-2.98c.41 0 .74.33.74.74s-.33.74-.74.74-.74-.33-.74-.74.33-.74.74-.74zM27.74 5.11h-7.11c-.41 0-.74.33-.74.74s.33.74.74.74h7.11c.41 0 .74-.33.74-.74s-.33-.74-.74-.74zM27.74 8.09h-7.11c-.41 0-.74.33-.74.74s.33.74.74.74h7.11c.41 0 .74-.33.74-.74s-.33-.74-.74-.74zM27.74 11.07h-7.11c-.41 0-.74.33-.74.74s.33.74.74.74h7.11c.41 0 .74-.33.74-.74s-.33-.74-.74-.74zM27.74 33.4h-7.11c-.41 0-.74.33-.74.74s.33.74.74.74h7.11c.41 0 .74-.33.74-.74s-.33-.74-.74-.74zM27.74 36.38h-7.11c-.41 0-.74.33-.74.74s.33.74.74.74h7.11c.41 0 .74-.33.74-.74s-.33-.74-.74-.74zM27.74 39.36h-7.11c-.41 0-.74.33-.74.74s.33.74.74.74h7.11c.41 0 .74-.33.74-.74s-.33-.74-.74-.74zM22.12 25.21c1.23 0 2.23-1 2.23-2.23s-1-2.23-2.23-2.23-2.23 1-2.23 2.23c-.01 1.23.99 2.23 2.23 2.23zm0-2.98c.41 0 .74.33.74.74s-.33.74-.74.74-.74-.33-.74-.74.32-.74.74-.74zM35.68 6.6h7.11c.41 0 .74-.33.74-.74s-.33-.74-.74-.74h-7.11c-.41 0-.74.33-.74.74s.33.74.74.74zM42.79 8.09h-7.11c-.41 0-.74.33-.74.74s.33.74.74.74h7.11c.41 0 .74-.33.74-.74.01-.41-.33-.74-.74-.74zM42.79 11.07h-7.11c-.41 0-.74.33-.74.74s.33.74.74.74h7.11c.41 0 .74-.33.74-.74.01-.41-.33-.74-.74-.74zM42.79 33.4h-7.11c-.41 0-.74.33-.74.74s.33.74.74.74h7.11c.41 0 .74-.33.74-.74.01-.41-.33-.74-.74-.74zM42.79 36.38h-7.11c-.41 0-.74.33-.74.74s.33.74.74.74h7.11c.41 0 .74-.33.74-.74.01-.41-.33-.74-.74-.74zM42.79 39.36h-7.11c-.41 0-.74.33-.74.74s.33.74.74.74h7.11c.41 0 .74-.33.74-.74.01-.41-.33-.74-.74-.74zM37.17 25.21c1.23 0 2.23-1 2.23-2.23s-1-2.23-2.23-2.23-2.23 1-2.23 2.23 1 2.23 2.23 2.23zm0-2.98c.41 0 .74.33.74.74s-.33.74-.74.74-.74-.33-.74-.74.33-.74.74-.74z"/><path class="st0" d="M46.76 1.14H1.6c-.41 0-.74.33-.74.74v45.16c0 .41.33.74.74.74s.74-.33.74-.74v-2.23H15.9v2.23c0 .41.33.74.74.74s.74-.33.74-.74v-2.23h13.56v2.23c0 .41.33.74.74.74s.74-.33.74-.74v-2.23h13.56v2.23c0 .41.33.74.74.74s.74-.33.74-.74V1.89c.05-.41-.29-.75-.7-.75zM32.45 43.33V11.81c0-.41-.33-.74-.74-.74s-.74.33-.74.74v31.51H17.4v-9.18c0-.41-.33-.74-.74-.74s-.74.33-.74.74v9.18H2.35V2.63h13.56v33.75c0 .41.33.74.74.74s.74-.33.74-.74V2.63h13.56v11.98c0 .41.33.74.74.74s.74-.33.74-.74V2.63h13.56v40.69H32.45z"/><g><path d="M15.18 6.84H8.07c-.41 0-.74.33-.74.74s.33.74.74.74h7.11c.41 0 .74-.33.74-.74s-.33-.74-.74-.74zM15.18 9.82H8.07c-.41 0-.74.33-.74.74s.33.74.74.74h7.11c.41 0 .74-.33.74-.74s-.33-.74-.74-.74zM15.18 12.8H8.07c-.41 0-.74.33-.74.74s.33.74.74.74h7.11c.41 0 .74-.33.74-.74s-.33-.74-.74-.74zM15.18 35.13H8.07c-.41 0-.74.33-.74.74s.33.74.74.74h7.11c.41 0 .74-.33.74-.74s-.33-.74-.74-.74zM15.18 38.11H8.07c-.41 0-.74.33-.74.74s.33.74.74.74h7.11c.41 0 .74-.33.74-.74s-.33-.74-.74-.74zM15.18 41.08H8.07c-.41 0-.74.33-.74.74s.33.74.74.74h7.11c.41 0 .74-.33.74-.74 0-.4-.33-.74-.74-.74zM9.55 26.94c1.23 0 2.23-1 2.23-2.23s-1-2.23-2.23-2.23-2.23 1-2.23 2.23 1 2.23 2.23 2.23zm0-2.98c.41 0 .74.33.74.74s-.33.74-.74.74-.74-.33-.74-.74.33-.74.74-.74zM30.23 6.84h-7.11c-.41 0-.74.33-.74.74s.33.74.74.74h7.11c.41 0 .74-.33.74-.74s-.33-.74-.74-.74zM30.23 9.82h-7.11c-.41 0-.74.33-.74.74s.33.74.74.74h7.11c.41 0 .74-.33.74-.74.01-.41-.33-.74-.74-.74zM30.23 12.8h-7.11c-.41 0-.74.33-.74.74s.33.74.74.74h7.11c.41 0 .74-.33.74-.74.01-.41-.33-.74-.74-.74zM30.23 35.13h-7.11c-.41 0-.74.33-.74.74s.33.74.74.74h7.11c.41 0 .74-.33.74-.74.01-.41-.33-.74-.74-.74zM30.23 38.11h-7.11c-.41 0-.74.33-.74.74s.33.74.74.74h7.11c.41 0 .74-.33.74-.74.01-.41-.33-.74-.74-.74zM30.23 41.08h-7.11c-.41 0-.74.33-.74.74s.33.74.74.74h7.11c.41 0 .74-.33.74-.74.01-.4-.33-.74-.74-.74zM24.61 26.94c1.23 0 2.23-1 2.23-2.23s-1-2.23-2.23-2.23-2.23 1-2.23 2.23c-.01 1.23 1 2.23 2.23 2.23zm0-2.98c.41 0 .74.33.74.74s-.33.74-.74.74-.74-.33-.74-.74.33-.74.74-.74zM38.17 8.33h7.11c.41 0 .74-.33.74-.74s-.33-.74-.74-.74h-7.11c-.41 0-.74.33-.74.74s.33.74.74.74zM45.29 9.82h-7.11c-.41 0-.74.33-.74.74s.33.74.74.74h7.11c.41 0 .74-.33.74-.74s-.33-.74-.74-.74zM45.29 12.8h-7.11c-.41 0-.74.33-.74.74s.33.74.74.74h7.11c.41 0 .74-.33.74-.74s-.33-.74-.74-.74zM45.29 35.13h-7.11c-.41 0-.74.33-.74.74s.33.74.74.74h7.11c.41 0 .74-.33.74-.74s-.33-.74-.74-.74zM45.29 38.11h-7.11c-.41 0-.74.33-.74.74s.33.74.74.74h7.11c.41 0 .74-.33.74-.74s-.33-.74-.74-.74zM45.29 41.08h-7.11c-.41 0-.74.33-.74.74s.33.74.74.74h7.11c.41 0 .74-.33.74-.74 0-.4-.33-.74-.74-.74zM39.66 26.94c1.23 0 2.23-1 2.23-2.23s-1-2.23-2.23-2.23-2.23 1-2.23 2.23 1 2.23 2.23 2.23zm0-2.98c.41 0 .74.33.74.74s-.33.74-.74.74-.74-.33-.74-.74.33-.74.74-.74z"/><path d="M49.26 2.87H4.1c-.41 0-.74.33-.74.74v45.16c0 .41.33.74.74.74s.74-.33.74-.74v-2.23H18.4v2.23c0 .41.33.74.74.74s.74-.33.74-.74v-2.23h13.56v2.23c0 .41.33.74.74.74s.74-.33.74-.74v-2.23h13.56v2.23c0 .41.33.74.74.74s.78-.32.78-.74V3.62c0-.42-.33-.75-.74-.75zM34.95 45.05V13.54c0-.41-.33-.74-.74-.74s-.74.33-.74.74v31.51H19.89v-9.18c0-.41-.33-.74-.74-.74s-.74.33-.74.74v9.18H4.84V4.36H18.4v33.75c0 .41.33.74.74.74s.74-.33.74-.74V4.36h13.56v11.98c0 .41.33.74.74.74s.74-.33.74-.74V4.36h13.56v40.69H34.95z"/></g><g><path class="st0" d="M141.51 114.91h-.25c.64-.88.93-1.89.83-2.93-.24-2.34-2.53-4.68-4.6-6.35.01-.01.01-.03.02-.04.27-.66.12-1.42-.37-1.93l-.1-.1c-2.15-2.71-6.89-4.07-7.23-4.18-.06-.63-.44-1.2-1.03-1.47-1.28-.6-4.07-1.6-8.46-1.61-1.47 0-2.76.12-3.88.29v-2.84c0-2.35-1.91-4.26-4.26-4.26H108v-3.22c0-.5-.4-.9-.9-.9H86.2c-.5 0-.9.4-.9.9v24.5c0 1.15.83 2.1 1.92 2.3v1.84h-1.8c-1.49 0-2.7 1.21-2.7 2.7 0 1.49 1.21 2.7 2.7 2.7h.84v.3c0 1.69 1.37 3.06 3.06 3.06h48.28c1.69 0 3.06-1.37 3.06-3.06v-.3h.84c1.49 0 2.7-1.21 2.7-2.7.01-1.49-1.2-2.7-2.69-2.7zm-1.21-2.74c.1 1-.49 1.99-1.65 2.74h-6.2c1.79-2.37 3.31-5.38 4.29-7.56 2.14 1.8 3.42 3.52 3.56 4.82zm-10.67-10.94c.58.2 1.24.48 1.95.79.8.34 2.96 1.75 3.11 1.87.35.28.68.57.99.88.05.06.09.12.14.18-.07.17-.16.38-.26.62-.82 1.92-2.96 6.59-5.44 9.35h-2.97c.43-1.07.92-2.89 1.46-6.14.46-2.73.81-5.61 1.02-7.55zm-9.32-3.13c4.18.01 6.77 1.01 7.69 1.44l-.04.4c-.19 1.77-.58 5.23-1.12 8.48-.89 5.35-1.58 6.34-1.72 6.49h-9.62c-.14-.15-.83-1.15-1.72-6.49-.54-3.25-.93-6.7-1.12-8.48l-.01-.07v-.01l-.03-.33c.92-.42 3.51-1.42 7.69-1.43zm-12.29-6.81h4.14c1.36 0 2.46 1.1 2.46 2.46v3.2c-.71.18-1.31.37-1.8.55v-3.27c0-.63-.51-1.14-1.14-1.14h-3.66v-1.8zM108 94.9h3.02v3.81c-.06.12-.11.25-.15.39H108v-4.2zm-.48 7.91c.03-.02.06-.03.09-.05 0 0 .01 0 .01-.01 1.19-.69 2.39-1.18 3.37-1.52.22 1.94.57 4.82 1.02 7.55.54 3.25 1.03 5.07 1.46 6.14h-2.97c-2.49-2.76-4.62-7.42-5.44-9.34-.11-.25-.2-.48-.27-.66.82-.86 1.76-1.55 2.73-2.11zm.66 12.1h-6.25c-1.08-.72-1.67-1.68-1.61-2.65 0-.03 0-.06.01-.09.14-1.3 1.42-3.02 3.55-4.81.99 2.17 2.5 5.18 4.3 7.55zm-21.07-4.14v-23.6h19.1v14.33c-.95.6-1.89 1.31-2.7 2.16-.49.52-.64 1.28-.37 1.93.01.01.01.03.02.04-1.88 1.51-3.92 3.57-4.48 5.67H87.65c-.3.01-.54-.23-.54-.53zm12.24 4.14H89.03v-1.8h9.55c.11.63.37 1.24.77 1.8zm42.16 3.6H94.27c-.5 0-.9.4-.9.9s.4.9.9.9h44.6v.3c0 .7-.57 1.26-1.26 1.26H89.33c-.7 0-1.26-.57-1.26-1.26v-.3h17.26c.5 0 .9-.4.9-.9s-.4-.9-.9-.9h-19.9c-.5 0-.9-.4-.9-.9s.4-.9.9-.9h56.08c.5 0 .9.4.9.9s-.41.9-.9.9z"/><path d="M143.55 116.32h-.25c.64-.88.93-1.89.83-2.93-.24-2.34-2.53-4.68-4.6-6.35.01-.01.01-.03.02-.04.27-.66.12-1.42-.37-1.93l-.1-.1c-2.15-2.71-6.89-4.07-7.23-4.18-.06-.63-.44-1.2-1.03-1.47-1.28-.6-4.07-1.6-8.46-1.61-1.47 0-2.76.12-3.88.29v-2.84c0-2.35-1.91-4.26-4.26-4.26h-4.17v-3.22c0-.5-.4-.9-.9-.9H88.24c-.5 0-.9.4-.9.9v24.5c0 1.15.83 2.1 1.92 2.3v1.84h-1.8c-1.49 0-2.7 1.21-2.7 2.7 0 1.49 1.21 2.7 2.7 2.7h.84v.3c0 1.69 1.37 3.06 3.06 3.06h48.28c1.69 0 3.06-1.37 3.06-3.06v-.3h.84c1.49 0 2.7-1.21 2.7-2.7.01-1.48-1.2-2.7-2.69-2.7zm-1.22-2.74c.1 1-.49 1.99-1.65 2.74h-6.2c1.79-2.37 3.31-5.38 4.29-7.56 2.15 1.8 3.43 3.53 3.56 4.82zm-10.66-10.94c.58.2 1.24.48 1.95.79.8.34 2.96 1.75 3.11 1.87.35.28.68.57.99.88.05.06.09.12.14.18-.07.17-.16.38-.26.62-.82 1.92-2.96 6.59-5.44 9.35h-2.97c.43-1.07.92-2.89 1.46-6.14.45-2.73.81-5.61 1.02-7.55zm-9.32-3.13c4.18.01 6.77 1.01 7.69 1.44l-.04.4c-.19 1.77-.58 5.23-1.12 8.48-.89 5.35-1.58 6.34-1.72 6.49h-9.62c-.14-.15-.83-1.15-1.72-6.49-.54-3.25-.93-6.7-1.12-8.48l-.01-.07v-.01l-.03-.33c.92-.42 3.51-1.42 7.69-1.43zm-12.29-6.8h4.14c1.36 0 2.46 1.1 2.46 2.46v3.2c-.71.18-1.31.37-1.8.55v-3.27c0-.63-.51-1.14-1.14-1.14h-3.66v-1.8zm-.02 3.6h3.02v3.81c-.06.12-.11.25-.15.39h-2.87v-4.2zm-.49 7.91c.03-.02.06-.03.09-.05 0 0 .01 0 .01-.01 1.19-.69 2.39-1.18 3.37-1.52.22 1.94.57 4.82 1.02 7.55.54 3.25 1.03 5.07 1.46 6.14h-2.97c-2.49-2.76-4.62-7.42-5.44-9.34-.11-.25-.2-.48-.27-.66.83-.85 1.77-1.54 2.73-2.11zm.67 12.1h-6.25c-1.08-.72-1.67-1.68-1.61-2.65 0-.03 0-.06.01-.09.14-1.3 1.42-3.02 3.55-4.81.98 2.18 2.5 5.18 4.3 7.55zm-21.07-4.14v-23.6h19.1v14.33c-.95.6-1.89 1.31-2.7 2.16-.49.52-.64 1.28-.37 1.93.01.01.01.03.02.04-1.88 1.51-3.92 3.57-4.48 5.67H89.69c-.3.01-.54-.23-.54-.53zm12.24 4.14H91.07v-1.8h9.55c.11.64.37 1.25.77 1.8zm42.16 3.61H96.31c-.5 0-.9.4-.9.9s.4.9.9.9h44.6v.3c0 .7-.57 1.26-1.26 1.26H91.37c-.7 0-1.26-.57-1.26-1.26v-.3h17.26c.5 0 .9-.4.9-.9s-.4-.9-.9-.9h-19.9c-.5 0-.9-.4-.9-.9s.4-.9.9-.9h56.08c.5 0 .9.4.9.9 0 .49-.41.9-.9.9z"/></g><g><path class="st0" d="M327.39 99.46h-25.44c-1.5 0-2.73 1.22-2.73 2.73v1.82c0 6.48 3.58 12.36 9.35 15.35.45.23.99.06 1.22-.39.23-.45.06-.99-.39-1.22-5.16-2.67-8.36-7.93-8.36-13.73v-1.82c0-.5.41-.91.91-.91h25.44c.5 0 .91.41.91.91v1.82c0 5.8-3.21 11.06-8.36 13.73-.45.23-.62.78-.39 1.22.16.31.48.49.81.49.14 0 .28-.03.42-.1 5.77-2.98 9.35-8.86 9.35-15.34v-1.82c-.02-1.51-1.24-2.74-2.74-2.74z"/><path class="st0" d="M335.5 118.19c-.14-.34-.47-.56-.84-.56h-39.98c-.37 0-.7.22-.84.56-.14.34-.06.73.2.99l2.04 2.04c1.2 1.2 2.8 1.86 4.5 1.86h28.19c1.7 0 3.3-.66 4.5-1.86l2.04-2.04c.25-.25.33-.65.19-.99zm-3.52 1.75c-.86.86-2 1.33-3.21 1.33h-28.19c-1.21 0-2.35-.47-3.21-1.33l-.49-.49h35.59l-.49.49zM335.62 103.75c-2.45-1.57-6.36.13-6.8.33-.46.21-.66.75-.45 1.2.21.46.75.66 1.2.45.88-.4 3.69-1.34 5.06-.46.62.4.92 1.17.92 2.35 0 3.64-7.34 5.84-10.17 6.38l-.64.13c-.49.1-.81.57-.72 1.07.09.43.47.73.89.73.06 0 .12-.01.18-.02l.64-.13c.48-.09 11.64-2.28 11.64-8.16.01-1.81-.58-3.11-1.75-3.87zM321.74 91.85c1.48-1.85 1.48-4.74 0-6.58-.31-.39-.88-.46-1.28-.14-.39.31-.46.88-.14 1.28.94 1.17.94 3.14 0 4.32-1.48 1.85-1.48 4.74 0 6.58.18.23.44.34.71.34.2 0 .4-.07.57-.2.39-.31.46-.89.14-1.28-.94-1.17-.94-3.14 0-4.32zM316.28 91.85c1.48-1.85 1.48-4.74 0-6.58-.31-.39-.88-.46-1.28-.14s-.46.89-.14 1.28c.94 1.17.94 3.14 0 4.32-1.48 1.85-1.48 4.74 0 6.58.18.23.44.34.71.34.2 0 .4-.07.57-.2.39-.31.46-.88.14-1.28-.94-1.17-.94-3.14 0-4.32zM310.84 91.86c1.48-1.85 1.48-4.74 0-6.58-.31-.39-.88-.46-1.28-.14-.39.31-.45.88-.14 1.28.94 1.17.94 3.14 0 4.32-1.48 1.85-1.48 4.74 0 6.58.18.23.44.34.71.34.2 0 .4-.07.57-.2.39-.31.46-.89.14-1.28-.94-1.18-.94-3.15 0-4.32z"/><g><path d="M329.43 100.88h-25.44c-1.5 0-2.73 1.22-2.73 2.73v1.82c0 6.48 3.58 12.36 9.35 15.35.45.23.99.06 1.22-.39.23-.45.06-.99-.39-1.22-5.16-2.67-8.36-7.93-8.36-13.73v-1.82c0-.5.41-.91.91-.91h25.44c.5 0 .91.41.91.91v1.82c0 5.8-3.21 11.06-8.36 13.73-.45.23-.62.78-.39 1.22.16.31.48.49.81.49.14 0 .28-.03.42-.1 5.77-2.98 9.35-8.86 9.35-15.34v-1.82c-.02-1.52-1.24-2.74-2.74-2.74z"/><path d="M337.54 119.61c-.14-.34-.47-.56-.84-.56h-39.98c-.37 0-.7.22-.84.56-.14.34-.06.73.2.99l2.04 2.04c1.2 1.2 2.8 1.86 4.5 1.86h28.19c1.7 0 3.3-.66 4.5-1.86l2.04-2.04c.25-.26.33-.65.19-.99zm-3.52 1.74c-.86.86-2 1.33-3.21 1.33h-28.19c-1.21 0-2.35-.47-3.21-1.33l-.49-.49h35.59l-.49.49zM337.66 105.17c-2.45-1.57-6.36.13-6.8.33-.46.21-.66.75-.45 1.2.21.46.75.66 1.2.45.88-.4 3.69-1.34 5.06-.46.62.4.92 1.17.92 2.35 0 3.64-7.34 5.84-10.17 6.38l-.64.13c-.49.1-.81.57-.72 1.07.09.43.47.73.89.73.06 0 .12-.01.18-.02l.64-.13c.48-.09 11.64-2.28 11.64-8.16.01-1.81-.58-3.12-1.75-3.87zM323.78 93.27c1.48-1.85 1.48-4.74 0-6.58-.31-.39-.88-.46-1.28-.14-.39.31-.46.88-.14 1.28.94 1.17.94 3.14 0 4.32-1.48 1.85-1.48 4.74 0 6.58.18.23.44.34.71.34.2 0 .4-.07.57-.2.39-.31.46-.89.14-1.28-.94-1.18-.94-3.15 0-4.32zM318.32 93.27c1.48-1.85 1.48-4.74 0-6.58-.31-.39-.88-.46-1.28-.14-.39.31-.46.89-.14 1.28.94 1.17.94 3.14 0 4.32-1.48 1.85-1.48 4.74 0 6.58.18.23.44.34.71.34.2 0 .4-.07.57-.2.39-.31.46-.88.14-1.28-.94-1.18-.94-3.15 0-4.32zM312.88 93.27c1.48-1.85 1.48-4.74 0-6.58-.31-.39-.88-.46-1.28-.14-.39.31-.45.88-.14 1.28.94 1.17.94 3.14 0 4.32-1.48 1.85-1.48 4.74 0 6.58.18.23.44.34.71.34.2 0 .4-.07.57-.2.39-.31.46-.89.14-1.28-.94-1.18-.94-3.15 0-4.32z"/></g></g></svg>