<svg xmlns="http://www.w3.org/2000/svg" viewBox="0 0 150 85"><path d="M41.56 70.03h2.97L39.46 85h-2.97l-3.42-11.36L29.58 85h-2.93L21.6 70.03h3.08l3.53 11.87 3.51-11.87h2.82l3.53 11.91 3.49-11.91zM62.12 70.85c1.22.67 2.18 1.59 2.88 2.76.7 1.17 1.05 2.47 1.05 3.89s-.35 2.73-1.05 3.9c-.7 1.18-1.66 2.11-2.88 2.79-1.22.68-2.57 1.03-4.05 1.03s-2.83-.34-4.05-1.03c-1.22-.68-2.18-1.61-2.88-2.79-.7-1.18-1.05-2.48-1.05-3.9s.35-2.72 1.05-3.89c.7-1.17 1.66-2.09 2.88-2.76 1.22-.67 2.57-1.01 4.05-1.01s2.83.34 4.05 1.01zm-6.56 2.23c-.78.45-1.4 1.06-1.86 1.84-.46.78-.68 1.64-.68 2.58 0 .94.23 1.8.7 2.59.46.78 1.08 1.4 1.86 1.86.78.46 1.62.68 2.53.68.9 0 1.73-.23 2.5-.68.77-.46 1.38-1.08 1.83-1.86.45-.78.67-1.65.67-2.59s-.22-1.8-.67-2.58c-.45-.78-1.06-1.39-1.83-1.84s-1.6-.67-2.5-.67c-.91 0-1.76.22-2.55.67zM82.64 85l-2.59-4.43c-.11.01-.29.02-.53.02h-3.38V85h-2.87V70.03h6.24c1.94 0 3.44.45 4.49 1.35 1.06.9 1.58 2.17 1.58 3.81 0 1.17-.25 2.17-.76 2.99-.51.83-1.24 1.45-2.21 1.86l3.3 4.96h-3.27zm-6.5-6.93h3.38c1.08 0 1.91-.24 2.48-.71.57-.47.86-1.17.86-2.1 0-.91-.29-1.6-.86-2.05-.57-.46-1.4-.68-2.48-.68h-3.38v5.54zM108.94 85h-3.44l-4.7-6.42-2.35 2.59V85h-2.87V70.03h2.87v7.46l6.76-7.46h3.38l-5.75 6.33 6.1 8.64zM124.99 72.79c-.81-.26-1.52-.38-2.13-.38-.68 0-1.23.13-1.63.38-.4.26-.6.61-.6 1.07 0 .41.14.76.42 1.04.28.28.63.51 1.05.68.42.18.99.37 1.72.59 1.01.3 1.84.6 2.49.9.65.3 1.2.74 1.66 1.33.46.58.68 1.35.68 2.31 0 .91-.25 1.71-.74 2.38-.49.68-1.17 1.19-2.03 1.55-.86.36-1.85.53-2.96.53-1.17 0-2.31-.22-3.42-.65-1.11-.43-2.08-1.02-2.91-1.74l1.2-2.44c.76.7 1.6 1.25 2.55 1.65.94.4 1.82.6 2.63.6.8 0 1.43-.15 1.88-.46.46-.31.68-.72.68-1.25 0-.43-.14-.78-.42-1.06-.28-.28-.63-.5-1.06-.67-.43-.17-1.01-.36-1.75-.58-1.01-.3-1.84-.59-2.48-.88-.64-.29-1.19-.72-1.65-1.29-.46-.58-.68-1.34-.68-2.28 0-.87.23-1.63.7-2.28.46-.65 1.12-1.15 1.97-1.51.85-.36 1.83-.53 2.94-.53.97 0 1.93.14 2.88.43s1.79.67 2.53 1.15l-1.15 2.5c-.77-.47-1.56-.83-2.37-1.09z"/><g><path d="M148.63 18.71c-.76 0-1.37.61-1.37 1.37v30.54c0 2.84-2.31 5.15-5.15 5.15H8.14C5.31 55.76 3 53.46 3 50.62V7.88c0-2.84 2.31-5.15 5.15-5.15H135.1c2.84 0 5.15 2.31 5.15 5.15v36.91c0 2.84-2.31 5.15-5.15 5.15h-31.08c-2.84 0-5.15-2.31-5.15-5.15V13.71c0-4.35-3.54-7.88-7.88-7.88H59.91c-4.35 0-7.88 3.54-7.88 7.88V44.79c0 2.84-2.31 5.15-5.15 5.15H15.8c-2.84 0-5.15-2.31-5.15-5.15V17.28c0-.76-.61-1.37-1.37-1.37-.76 0-1.37.61-1.37 1.37v27.51c0 4.35 3.54 7.88 7.88 7.88h31.08c4.35 0 7.88-3.54 7.88-7.88V13.71c0-2.84 2.31-5.15 5.15-5.15h31.08c2.84 0 5.15 2.31 5.15 5.15V44.79c0 4.35 3.54 7.88 7.88 7.88h31.08c4.35 0 7.88-3.54 7.88-7.88V7.19c0-.18-.04-.35-.1-.51C142.3 2.91 139.04 0 135.1 0H8.14C3.8 0 .26 3.54.26 7.88v42.74c0 4.35 3.54 7.88 7.88 7.88h133.97c4.35 0 7.88-3.54 7.88-7.88V20.08c.01-.76-.6-1.37-1.36-1.37z"/><path d="M23.84 19.91v17.55h3.36v-4.49l2.76-3.03 5.51 7.52h4.04l-7.17-10.13 6.74-7.42h-3.96l-7.92 8.75v-8.75zM120.51 37.46v-5.74l6.39-11.81h-3.38l-4.72 8.25-4.79-8.25h-3.41l6.55 11.93v5.62zM81.95 22.84V19.9H69.09v17.56h13.16v-2.94h-9.8v-4.41h8.53v-2.93h-8.53v-4.34z"/></g></svg>