<svg xmlns="http://www.w3.org/2000/svg" viewBox="0 0 50 31"><path d="M24.68 19.53L3.25.71C2.97.46 3.14 0 3.51 0h42.87c.37 0 .55.46.27.71L25.22 19.53c-.16.14-.38.14-.54 0zm.27.24M15.64 15.79L.88 28.75c-.26.23-.67.04-.67-.3V2.52c0-.35.41-.53.67-.3l14.76 12.96c.18.16.18.45 0 .61zm.34-.31"/><path d="M18.29 17.51l6.39 5.61c.15.13.38.13.53 0l6.39-5.61c.15-.13.38-.13.53 0l14.53 12.76c.28.25.11.71-.27.71H3.5c-.37 0-.55-.46-.27-.71l14.53-12.76c.15-.13.38-.13.53 0zm-.26-.23M34.26 15.18L49.02 2.22c.26-.23.67-.04.67.3v25.92c0 .35-.41.53-.67.3L34.26 15.79c-.18-.16-.18-.45 0-.61zm-.34.31"/><g><path d="M251.63 325.17h-27.39c-10.22 0-18.53-8.31-18.53-18.53v-27.39c0-10.22 8.31-18.53 18.53-18.53h27.39c10.22 0 18.53 8.31 18.53 18.53v27.39c-.01 10.22-8.32 18.53-18.53 18.53zm-27.39-59.71c-7.61 0-13.8 6.19-13.8 13.8v27.39c0 7.61 6.19 13.8 13.8 13.8h27.39c7.61 0 13.8-6.19 13.8-13.8v-27.39c0-7.61-6.19-13.8-13.8-13.8h-27.39z"/><path d="M237.93 308.14c-8.38 0-15.19-6.81-15.19-15.19s6.81-15.19 15.19-15.19 15.19 6.81 15.19 15.19-6.81 15.19-15.19 15.19zm0-25.65c-5.77 0-10.46 4.69-10.46 10.46 0 5.77 4.69 10.46 10.46 10.46 5.77 0 10.46-4.69 10.46-10.46.01-5.77-4.69-10.46-10.46-10.46zM254.65 279.34c-2.03 0-3.69-1.65-3.69-3.69 0-2.03 1.65-3.69 3.69-3.69 2.03 0 3.69 1.65 3.69 3.69 0 2.03-1.66 3.69-3.69 3.69zm0-4.73c-.57 0-1.04.47-1.04 1.04 0 .57.47 1.04 1.04 1.04s1.04-.47 1.04-1.04c0-.57-.47-1.04-1.04-1.04z"/></g><g><path d="M153.32 325.17h-11.68c-1.97 0-3.58-1.6-3.58-3.58v-18.68c0-1.97 1.6-3.58 3.58-3.58h5.65l.96-5.77h-6.61c-1.97 0-3.58-1.6-3.58-3.58v-4.69c0-1.97 1.6-3.58 3.58-3.58h7.04v-5.77h-7.04c-5.15 0-9.35 4.19-9.35 9.35v4.69c0 1.97-1.6 3.58-3.58 3.58h-3.42v5.77h3.42c1.97 0 3.58 1.6 3.58 3.58v18.68c0 1.97-1.6 3.58-3.58 3.58h-15.18c-6.8 0-12.32-5.53-12.32-12.32v-39.79c0-6.8 5.53-12.32 12.32-12.32h41.01c6.13 0 11.11 4.98 11.11 11.11v41.01c0 6.78-5.53 12.31-12.33 12.31zm-10.53-4.72h10.54c4.19 0 7.6-3.41 7.6-7.6v-41.01c0-3.52-2.86-6.39-6.38-6.39h-41.01c-4.19 0-7.6 3.41-7.6 7.6v39.79c0 4.19 3.41 7.6 7.6 7.6h14.03v-16.39h-3.42c-1.97 0-3.58-1.6-3.58-3.58v-8.07c0-1.97 1.6-3.58 3.58-3.58h3.42v-3.54c0-7.76 6.31-14.07 14.07-14.07h8.18c1.97 0 3.58 1.6 3.58 3.58v8.07c0 1.97-1.6 3.58-3.58 3.58h-7.04v2.39h6.82c1.05 0 2.05.46 2.73 1.26.68.8.97 1.86.8 2.9l-1.34 8.07c-.29 1.73-1.77 2.99-3.53 2.99h-5.47v16.4z"/></g><g><path d="M364.64 289.29l-18.72-10.24c-1.08-.59-2.35-.57-3.4.06-1.06.63-1.69 1.73-1.69 2.96v20.31c0 1.22.63 2.32 1.67 2.95.55.33 1.15.49 1.76.49.56 0 1.12-.14 1.63-.41l18.72-10.07c1.11-.6 1.81-1.75 1.81-3.02.01-1.26-.68-2.43-1.78-3.03zm-18.85 10.53v-15.18l13.99 7.66-13.99 7.52z"/><path d="M393.34 276.14v-.04c-.07-.68-.79-6.75-3.74-9.83-3.41-3.63-7.27-4.07-9.13-4.28-.15-.02-.29-.03-.42-.05l-.15-.02c-11.2-.81-28.12-.93-28.29-.93h-.02c-.17 0-17.09.11-28.39.93l-.15.02c-.12.02-.25.03-.4.05-1.84.21-5.66.65-9.08 4.41-2.81 3.05-3.62 8.99-3.7 9.66l-.01.09c-.03.28-.62 7.04-.62 13.82v6.34c0 6.78.6 13.54.62 13.82v.04c.07.67.79 6.63 3.72 9.71 3.21 3.51 7.26 3.97 9.44 4.22.34.04.64.07.84.11l.2.03c6.47.62 26.75.92 27.61.93h.06c.17 0 17.09-.11 28.29-.93l.15-.02c.14-.02.3-.04.48-.05 1.83-.19 5.63-.6 9-4.31 2.81-3.05 3.62-8.99 3.7-9.66l.01-.09c.03-.28.62-7.04.62-13.82v-6.34c-.02-6.77-.62-13.53-.64-13.81zM389 296.3c0 6.28-.55 12.74-.6 13.34-.21 1.64-1.07 5.39-2.44 6.88-2.11 2.32-4.28 2.55-5.86 2.72-.19.02-.37.04-.53.06-10.84.78-27.12.9-27.87.91-.84-.01-20.82-.32-27.1-.9-.32-.05-.67-.09-1.03-.13-1.86-.21-4.4-.5-6.35-2.65l-.05-.05c-1.34-1.4-2.18-4.91-2.39-6.81-.04-.45-.6-6.99-.6-13.36v-6.34c0-6.27.55-12.73.6-13.34.25-1.93 1.12-5.45 2.44-6.88 2.17-2.39 4.47-2.66 5.98-2.83.14-.02.28-.03.4-.05 10.99-.79 27.39-.9 27.98-.91.59 0 16.98.12 27.88.91.13.02.28.03.44.05 1.56.18 3.92.45 6.08 2.75l.02.02c1.34 1.4 2.18 4.97 2.39 6.91.04.42.6 6.98.6 13.36v6.34z"/></g></svg>