<svg xmlns="http://www.w3.org/2000/svg" viewBox="0 0 94 150"><path d="M60.71 149.96c-1.48 0-2.87-.94-3.37-2.42-.63-1.86.37-3.88 2.23-4.51 16.27-5.49 27.2-20.66 27.2-37.76V46.94c0-21.96-17.87-39.83-39.83-39.83S7.11 24.98 7.11 46.94v58.32c0 16.56 10.48 31.57 26.07 37.36 1.84.68 2.78 2.73 2.1 4.57-.68 1.84-2.73 2.78-4.57 2.1C12.34 142.48 0 124.78 0 105.27V46.94C0 21.06 21.06 0 46.94 0s46.94 21.06 46.94 46.94v58.32c0 20.16-12.88 38.04-32.04 44.5-.37.14-.75.2-1.13.2z"/><path d="M46.23 56.9C38 56.9 31.3 50.2 31.3 41.96S38 27.03 46.23 27.03s14.94 6.7 14.94 14.94-6.7 14.93-14.94 14.93zm0-22.76c-4.31 0-7.82 3.51-7.82 7.82s3.51 7.82 7.82 7.82 7.82-3.51 7.82-7.82-3.5-7.82-7.82-7.82z"/></svg>