<svg xmlns="http://www.w3.org/2000/svg" viewBox="0 0 55 150"><path d="M27.92 125.46c-2.09 0-3.78-1.69-3.78-3.78V3.78c0-2.09 1.69-3.78 3.78-3.78s3.78 1.69 3.78 3.78v117.91c0 2.08-1.7 3.77-3.78 3.77zM27.3 149.65c-.97 0-1.93-.37-2.67-1.11L1.2 125.11c-1.48-1.48-1.48-3.87 0-5.34s3.87-1.48 5.34 0l23.43 23.43c1.48 1.48 1.48 3.87 0 5.34-.73.74-1.7 1.11-2.67 1.11z"/><path d="M27.78 149.65c-.97 0-1.93-.37-2.67-1.11-1.48-1.48-1.48-3.87 0-5.34l23.43-23.43c1.48-1.48 3.87-1.48 5.34 0 1.48 1.48 1.48 3.87 0 5.34l-23.43 23.43c-.74.74-1.7 1.11-2.67 1.11z"/></svg>