<svg xmlns="http://www.w3.org/2000/svg" viewBox="0 0 50 38"><path d="M32.77 17.09l-11-6.02c-.63-.35-1.38-.33-2 .03-.62.37-.99 1.02-.99 1.74v11.93c0 .72.37 1.37.98 1.73.32.19.68.29 1.04.29.33 0 .66-.08.96-.24l11-5.91c.65-.35 1.06-1.03 1.06-1.77.01-.74-.4-1.42-1.05-1.78zM21.7 23.28v-8.92l8.22 4.5-8.22 4.42z"/><path d="M49.63 9.37v-.02c-.04-.4-.46-3.96-2.19-5.78-2-2.13-4.27-2.39-5.36-2.52-.09-.01-.17-.02-.25-.03l-.09-.01C35.16.53 25.22.47 25.12.47h-.02c-.1 0-10.04.07-16.68.54l-.08.01c-.07.01-.15.02-.24.03-1.08.13-3.32.39-5.33 2.59C1.12 5.44.64 8.92.59 9.32v.05c-.01.17-.37 4.14-.37 8.12v3.72c0 3.98.35 7.95.37 8.12v.03c.04.39.46 3.89 2.19 5.71 1.88 2.06 4.26 2.33 5.54 2.48.2.02.38.04.5.06l.12.02c3.8.36 15.71.54 16.22.55h.04c.1 0 10.04-.07 16.62-.54l.09-.01c.08-.01.18-.02.28-.03 1.07-.11 3.31-.35 5.29-2.53 1.65-1.79 2.13-5.28 2.18-5.67l.01-.05c-.02-.18.33-4.15.33-8.14v-3.72c0-3.99-.35-7.96-.37-8.12zm-2.55 11.84c0 3.69-.32 7.49-.35 7.83-.12.96-.63 3.17-1.43 4.04-1.24 1.36-2.51 1.5-3.44 1.6-.11.01-.22.02-.31.03-6.36.46-15.93.53-16.37.53-.49-.01-12.23-.19-15.92-.53-.19-.03-.39-.05-.61-.08-1.09-.12-2.58-.3-3.73-1.56l-.02-.01c-.79-.82-1.28-2.89-1.4-4-.02-.26-.35-4.11-.35-7.85v-3.72c0-3.68.32-7.48.35-7.83.15-1.13.66-3.2 1.43-4.04C6.2 4.21 7.55 4.05 8.44 3.95l.24-.03c6.46-.46 16.09-.53 16.43-.53.35 0 9.97.07 16.37.53.08.01.16.02.26.03.92.1 2.3.26 3.57 1.62l.01.01c.79.82 1.28 2.92 1.4 4.06.02.25.35 4.1.35 7.85v3.72z"/></svg>