<?xml version="1.0" encoding="utf-8"?>
<!-- Generator: Adobe Illustrator 24.0.0, SVG Export Plug-In . SVG Version: 6.00 Build 0)  -->
<svg version="1.1" id="Layer_1" xmlns="http://www.w3.org/2000/svg" xmlns:xlink="http://www.w3.org/1999/xlink" x="0px" y="0px"
	 viewBox="0 0 50 44" style="enable-background:new 0 0 50 44;" xml:space="preserve">
<style type="text/css">
	.st0{fill:#FFED00;}
</style>
<g>
	<text transform="matrix(1 0 0 1 -331.4844 138.8359)" style="font-family:'Montserrat-Medium'; font-size:13.7445px;">Pet friendly</text>
</g>
<g>
	<text transform="matrix(1 0 0 1 294.5718 138.9785)"><tspan x="0" y="0" style="font-family:'Montserrat-Medium'; font-size:13.7445px;">Café e </tspan><tspan x="-18.29" y="16.49" style="font-family:'Montserrat-Medium'; font-size:13.7445px;">hidratación </tspan></text>
</g>
<g>
	<text transform="matrix(1 0 0 1 -115.9683 138.9961)" style="font-family:'Montserrat-Medium'; font-size:13.7445px;">Lockers</text>
</g>
<g>
	<text transform="matrix(1 0 0 1 84.6162 139.4189)" style="font-family:'Montserrat-Medium'; font-size:13.7445px;">Café bar</text>
</g>
<g>
	<g>
		<path class="st0" d="M-100.47,82.19h-5.82c-0.34,0-0.61,0.27-0.61,0.61s0.27,0.61,0.61,0.61h5.82c0.34,0,0.61-0.27,0.61-0.61
			S-100.13,82.19-100.47,82.19z"/>
		<path class="st0" d="M-100.47,84.63h-5.82c-0.34,0-0.61,0.27-0.61,0.61s0.27,0.61,0.61,0.61h5.82c0.34,0,0.61-0.27,0.61-0.61
			S-100.13,84.63-100.47,84.63z"/>
		<path class="st0" d="M-100.47,87.07h-5.82c-0.34,0-0.61,0.27-0.61,0.61c0,0.34,0.27,0.61,0.61,0.61h5.82
			c0.34,0,0.61-0.27,0.61-0.61C-99.86,87.34-100.13,87.07-100.47,87.07z"/>
		<path class="st0" d="M-100.47,105.33h-5.82c-0.34,0-0.61,0.27-0.61,0.61c0,0.34,0.27,0.61,0.61,0.61h5.82
			c0.34,0,0.61-0.27,0.61-0.61C-99.86,105.61-100.13,105.33-100.47,105.33z"/>
		<path class="st0" d="M-100.47,107.77h-5.82c-0.34,0-0.61,0.27-0.61,0.61c0,0.34,0.27,0.61,0.61,0.61h5.82
			c0.34,0,0.61-0.27,0.61-0.61C-99.86,108.04-100.13,107.77-100.47,107.77z"/>
		<path class="st0" d="M-100.47,110.2h-5.82c-0.34,0-0.61,0.27-0.61,0.61s0.27,0.61,0.61,0.61h5.82c0.34,0,0.61-0.27,0.61-0.61
			S-100.13,110.2-100.47,110.2z"/>
		<path class="st0" d="M-105.07,98.64c1.01,0,1.83-0.82,1.83-1.83s-0.82-1.83-1.83-1.83s-1.83,0.82-1.83,1.83
			S-106.07,98.64-105.07,98.64z M-105.07,96.2c0.34,0,0.61,0.27,0.61,0.61s-0.27,0.61-0.61,0.61s-0.61-0.27-0.61-0.61
			S-105.4,96.2-105.07,96.2z"/>
		<path class="st0" d="M-88.15,82.19h-5.82c-0.34,0-0.61,0.27-0.61,0.61s0.27,0.61,0.61,0.61h5.82c0.34,0,0.61-0.27,0.61-0.61
			S-87.82,82.19-88.15,82.19z"/>
		<path class="st0" d="M-88.15,84.63h-5.82c-0.34,0-0.61,0.27-0.61,0.61s0.27,0.61,0.61,0.61h5.82c0.34,0,0.61-0.27,0.61-0.61
			S-87.82,84.63-88.15,84.63z"/>
		<path class="st0" d="M-88.15,87.07h-5.82c-0.34,0-0.61,0.27-0.61,0.61c0,0.34,0.27,0.61,0.61,0.61h5.82
			c0.34,0,0.61-0.27,0.61-0.61C-87.54,87.34-87.82,87.07-88.15,87.07z"/>
		<path class="st0" d="M-88.15,105.33h-5.82c-0.34,0-0.61,0.27-0.61,0.61c0,0.34,0.27,0.61,0.61,0.61h5.82
			c0.34,0,0.61-0.27,0.61-0.61C-87.54,105.61-87.82,105.33-88.15,105.33z"/>
		<path class="st0" d="M-88.15,107.77h-5.82c-0.34,0-0.61,0.27-0.61,0.61c0,0.34,0.27,0.61,0.61,0.61h5.82
			c0.34,0,0.61-0.27,0.61-0.61C-87.54,108.04-87.82,107.77-88.15,107.77z"/>
		<path class="st0" d="M-88.15,110.2h-5.82c-0.34,0-0.61,0.27-0.61,0.61s0.27,0.61,0.61,0.61h5.82c0.34,0,0.61-0.27,0.61-0.61
			S-87.82,110.2-88.15,110.2z"/>
		<path class="st0" d="M-92.75,98.64c1.01,0,1.83-0.82,1.83-1.83s-0.82-1.83-1.83-1.83s-1.83,0.82-1.83,1.83
			S-93.76,98.64-92.75,98.64z M-92.75,96.2c0.34,0,0.61,0.27,0.61,0.61s-0.27,0.61-0.61,0.61s-0.61-0.27-0.61-0.61
			S-93.09,96.2-92.75,96.2z"/>
		<path class="st0" d="M-81.66,83.41h5.82c0.34,0,0.61-0.27,0.61-0.61s-0.27-0.61-0.61-0.61h-5.82c-0.34,0-0.61,0.27-0.61,0.61
			S-81.99,83.41-81.66,83.41z"/>
		<path class="st0" d="M-75.84,84.63h-5.82c-0.34,0-0.61,0.27-0.61,0.61s0.27,0.61,0.61,0.61h5.82c0.34,0,0.61-0.27,0.61-0.61
			S-75.5,84.63-75.84,84.63z"/>
		<path class="st0" d="M-75.84,87.07h-5.82c-0.34,0-0.61,0.27-0.61,0.61c0,0.34,0.27,0.61,0.61,0.61h5.82
			c0.34,0,0.61-0.27,0.61-0.61C-75.23,87.34-75.5,87.07-75.84,87.07z"/>
		<path class="st0" d="M-75.84,105.33h-5.82c-0.34,0-0.61,0.27-0.61,0.61c0,0.34,0.27,0.61,0.61,0.61h5.82
			c0.34,0,0.61-0.27,0.61-0.61C-75.23,105.61-75.5,105.33-75.84,105.33z"/>
		<path class="st0" d="M-75.84,107.77h-5.82c-0.34,0-0.61,0.27-0.61,0.61c0,0.34,0.27,0.61,0.61,0.61h5.82
			c0.34,0,0.61-0.27,0.61-0.61C-75.23,108.04-75.5,107.77-75.84,107.77z"/>
		<path class="st0" d="M-75.84,110.2h-5.82c-0.34,0-0.61,0.27-0.61,0.61s0.27,0.61,0.61,0.61h5.82c0.34,0,0.61-0.27,0.61-0.61
			S-75.5,110.2-75.84,110.2z"/>
		<path class="st0" d="M-80.44,98.64c1.01,0,1.83-0.82,1.83-1.83s-0.82-1.83-1.83-1.83c-1.01,0-1.83,0.82-1.83,1.83
			S-81.45,98.64-80.44,98.64z M-80.44,96.2c0.34,0,0.61,0.27,0.61,0.61s-0.27,0.61-0.61,0.61s-0.61-0.27-0.61-0.61
			S-80.78,96.2-80.44,96.2z"/>
		<path class="st0" d="M-72.59,78.95h-36.94c-0.34,0-0.61,0.27-0.61,0.61v36.94c0,0.34,0.27,0.61,0.61,0.61s0.61-0.27,0.61-0.61
			v-1.83h11.1v1.83c0,0.34,0.27,0.61,0.61,0.61s0.61-0.27,0.61-0.61v-1.83h11.1v1.83c0,0.34,0.27,0.61,0.61,0.61
			c0.34,0,0.61-0.27,0.61-0.61v-1.83h11.1v1.83c0,0.34,0.27,0.61,0.61,0.61c0.34,0,0.61-0.27,0.61-0.61V79.56
			C-71.98,79.22-72.25,78.95-72.59,78.95z M-84.3,113.45V87.67c0-0.34-0.27-0.61-0.61-0.61c-0.34,0-0.61,0.27-0.61,0.61v25.78h-11.1
			v-7.51c0-0.34-0.27-0.61-0.61-0.61s-0.61,0.27-0.61,0.61v7.51h-11.1V80.16h11.1v27.6c0,0.34,0.27,0.61,0.61,0.61
			s0.61-0.27,0.61-0.61v-27.6h11.1v9.8c0,0.34,0.27,0.61,0.61,0.61c0.34,0,0.61-0.27,0.61-0.61v-9.8h11.1v33.29H-84.3z"/>
	</g>
	<g>
		<path d="M-98.43,83.61h-5.82c-0.34,0-0.61,0.27-0.61,0.61s0.27,0.61,0.61,0.61h5.82c0.34,0,0.61-0.27,0.61-0.61
			S-98.09,83.61-98.43,83.61z"/>
		<path d="M-98.43,86.04h-5.82c-0.34,0-0.61,0.27-0.61,0.61s0.27,0.61,0.61,0.61h5.82c0.34,0,0.61-0.27,0.61-0.61
			S-98.09,86.04-98.43,86.04z"/>
		<path d="M-98.43,88.48h-5.82c-0.34,0-0.61,0.27-0.61,0.61c0,0.34,0.27,0.61,0.61,0.61h5.82c0.34,0,0.61-0.27,0.61-0.61
			C-97.82,88.75-98.09,88.48-98.43,88.48z"/>
		<path d="M-98.43,106.75h-5.82c-0.34,0-0.61,0.27-0.61,0.61s0.27,0.61,0.61,0.61h5.82c0.34,0,0.61-0.27,0.61-0.61
			S-98.09,106.75-98.43,106.75z"/>
		<path d="M-98.43,109.18h-5.82c-0.34,0-0.61,0.27-0.61,0.61c0,0.34,0.27,0.61,0.61,0.61h5.82c0.34,0,0.61-0.27,0.61-0.61
			C-97.82,109.45-98.09,109.18-98.43,109.18z"/>
		<path d="M-98.43,111.62h-5.82c-0.34,0-0.61,0.27-0.61,0.61s0.27,0.61,0.61,0.61h5.82c0.34,0,0.61-0.27,0.61-0.61
			S-98.09,111.62-98.43,111.62z"/>
		<path d="M-103.03,100.05c1.01,0,1.83-0.82,1.83-1.83c0-1.01-0.82-1.83-1.83-1.83c-1.01,0-1.83,0.82-1.83,1.83
			C-104.85,99.23-104.03,100.05-103.03,100.05z M-103.03,97.61c0.34,0,0.61,0.27,0.61,0.61s-0.27,0.61-0.61,0.61
			s-0.61-0.27-0.61-0.61S-103.36,97.61-103.03,97.61z"/>
		<path d="M-86.11,83.61h-5.82c-0.34,0-0.61,0.27-0.61,0.61s0.27,0.61,0.61,0.61h5.82c0.34,0,0.61-0.27,0.61-0.61
			S-85.78,83.61-86.11,83.61z"/>
		<path d="M-86.11,86.04h-5.82c-0.34,0-0.61,0.27-0.61,0.61s0.27,0.61,0.61,0.61h5.82c0.34,0,0.61-0.27,0.61-0.61
			S-85.78,86.04-86.11,86.04z"/>
		<path d="M-86.11,88.48h-5.82c-0.34,0-0.61,0.27-0.61,0.61c0,0.34,0.27,0.61,0.61,0.61h5.82c0.34,0,0.61-0.27,0.61-0.61
			C-85.5,88.75-85.78,88.48-86.11,88.48z"/>
		<path d="M-86.11,106.75h-5.82c-0.34,0-0.61,0.27-0.61,0.61s0.27,0.61,0.61,0.61h5.82c0.34,0,0.61-0.27,0.61-0.61
			S-85.78,106.75-86.11,106.75z"/>
		<path d="M-86.11,109.18h-5.82c-0.34,0-0.61,0.27-0.61,0.61c0,0.34,0.27,0.61,0.61,0.61h5.82c0.34,0,0.61-0.27,0.61-0.61
			C-85.5,109.45-85.78,109.18-86.11,109.18z"/>
		<path d="M-86.11,111.62h-5.82c-0.34,0-0.61,0.27-0.61,0.61s0.27,0.61,0.61,0.61h5.82c0.34,0,0.61-0.27,0.61-0.61
			S-85.78,111.62-86.11,111.62z"/>
		<path d="M-90.71,100.05c1.01,0,1.83-0.82,1.83-1.83c0-1.01-0.82-1.83-1.83-1.83c-1.01,0-1.83,0.82-1.83,1.83
			C-92.54,99.23-91.72,100.05-90.71,100.05z M-90.71,97.61c0.34,0,0.61,0.27,0.61,0.61s-0.27,0.61-0.61,0.61s-0.61-0.27-0.61-0.61
			S-91.05,97.61-90.71,97.61z"/>
		<path d="M-79.62,84.83h5.82c0.34,0,0.61-0.27,0.61-0.61s-0.27-0.61-0.61-0.61h-5.82c-0.34,0-0.61,0.27-0.61,0.61
			S-79.95,84.83-79.62,84.83z"/>
		<path d="M-73.8,86.04h-5.82c-0.34,0-0.61,0.27-0.61,0.61s0.27,0.61,0.61,0.61h5.82c0.34,0,0.61-0.27,0.61-0.61
			S-73.46,86.04-73.8,86.04z"/>
		<path d="M-73.8,88.48h-5.82c-0.34,0-0.61,0.27-0.61,0.61c0,0.34,0.27,0.61,0.61,0.61h5.82c0.34,0,0.61-0.27,0.61-0.61
			C-73.19,88.75-73.46,88.48-73.8,88.48z"/>
		<path d="M-73.8,106.75h-5.82c-0.34,0-0.61,0.27-0.61,0.61s0.27,0.61,0.61,0.61h5.82c0.34,0,0.61-0.27,0.61-0.61
			S-73.46,106.75-73.8,106.75z"/>
		<path d="M-73.8,109.18h-5.82c-0.34,0-0.61,0.27-0.61,0.61c0,0.34,0.27,0.61,0.61,0.61h5.82c0.34,0,0.61-0.27,0.61-0.61
			C-73.19,109.45-73.46,109.18-73.8,109.18z"/>
		<path d="M-73.8,111.62h-5.82c-0.34,0-0.61,0.27-0.61,0.61s0.27,0.61,0.61,0.61h5.82c0.34,0,0.61-0.27,0.61-0.61
			S-73.46,111.62-73.8,111.62z"/>
		<path d="M-78.4,100.05c1.01,0,1.83-0.82,1.83-1.83c0-1.01-0.82-1.83-1.83-1.83c-1.01,0-1.83,0.82-1.83,1.83
			C-80.23,99.23-79.41,100.05-78.4,100.05z M-78.4,97.61c0.34,0,0.61,0.27,0.61,0.61s-0.27,0.61-0.61,0.61
			c-0.34,0-0.61-0.27-0.61-0.61S-78.74,97.61-78.4,97.61z"/>
		<path d="M-70.55,80.36h-36.94c-0.34,0-0.61,0.27-0.61,0.61v36.94c0,0.34,0.27,0.61,0.61,0.61s0.61-0.27,0.61-0.61v-1.83h11.1v1.83
			c0,0.34,0.27,0.61,0.61,0.61c0.34,0,0.61-0.27,0.61-0.61v-1.83h11.1v1.83c0,0.34,0.27,0.61,0.61,0.61c0.34,0,0.61-0.27,0.61-0.61
			v-1.83h11.1v1.83c0,0.34,0.27,0.61,0.61,0.61c0.34,0,0.61-0.27,0.61-0.61V80.97C-69.94,80.63-70.22,80.36-70.55,80.36z
			 M-82.26,114.87V89.09c0-0.34-0.27-0.61-0.61-0.61c-0.34,0-0.61,0.27-0.61,0.61v25.78h-11.1v-7.51c0-0.34-0.27-0.61-0.61-0.61
			c-0.34,0-0.61,0.27-0.61,0.61v7.51h-11.1V81.58h11.1v27.6c0,0.34,0.27,0.61,0.61,0.61c0.34,0,0.61-0.27,0.61-0.61v-27.6h11.1v9.8
			c0,0.34,0.27,0.61,0.61,0.61c0.34,0,0.61-0.27,0.61-0.61v-9.8h11.1v33.29H-82.26z"/>
	</g>
</g>
<g>
	<path class="st0" d="M141.51,108.91h-0.25c0.64-0.88,0.93-1.89,0.83-2.93c-0.24-2.34-2.53-4.68-4.6-6.35
		c0.01-0.01,0.01-0.03,0.02-0.04c0.27-0.66,0.12-1.42-0.37-1.93c-0.03-0.03-0.07-0.07-0.1-0.1c-2.15-2.71-6.89-4.07-7.23-4.18
		c-0.06-0.63-0.44-1.2-1.03-1.47c-1.28-0.6-4.07-1.6-8.46-1.61c-1.47,0-2.76,0.12-3.88,0.29v-2.84c0-2.35-1.91-4.26-4.26-4.26H108
		v-3.22c0-0.5-0.4-0.9-0.9-0.9H96.54h-2.23h-8.11c-0.5,0-0.9,0.4-0.9,0.9v24.5c0,1.15,0.83,2.1,1.92,2.3v1.84h-1.8
		c-1.49,0-2.7,1.21-2.7,2.7c0,1.49,1.21,2.7,2.7,2.7h0.84v0.3c0,1.69,1.37,3.06,3.06,3.06h48.28c1.69,0,3.06-1.37,3.06-3.06v-0.3
		h0.84c1.49,0,2.7-1.21,2.7-2.7C144.21,110.12,143,108.91,141.51,108.91z M140.3,106.17c0.1,1-0.49,1.99-1.65,2.74h-6.2
		c1.79-2.37,3.31-5.38,4.29-7.56C138.88,103.15,140.16,104.87,140.3,106.17z M129.63,95.23c0.58,0.2,1.24,0.48,1.95,0.79
		c0.8,0.34,2.96,1.75,3.11,1.87c0.35,0.28,0.68,0.57,0.99,0.88c0.05,0.06,0.09,0.12,0.14,0.18c-0.07,0.17-0.16,0.38-0.26,0.62
		c-0.82,1.92-2.96,6.59-5.44,9.35h-2.97c0.43-1.07,0.92-2.89,1.46-6.14C129.07,100.05,129.42,97.17,129.63,95.23z M120.31,92.1
		c4.18,0.01,6.77,1.01,7.69,1.44l-0.04,0.4c-0.19,1.77-0.58,5.23-1.12,8.48c-0.89,5.35-1.58,6.34-1.72,6.49h-9.62
		c-0.14-0.15-0.83-1.15-1.72-6.49c-0.54-3.25-0.93-6.7-1.12-8.48l-0.01-0.07c0,0,0,0,0-0.01l-0.03-0.33
		C113.54,93.11,116.13,92.11,120.31,92.1z M108.02,85.29h4.14c1.36,0,2.46,1.1,2.46,2.46v3.2c-0.71,0.18-1.31,0.37-1.8,0.55v-3.27
		c0-0.63-0.51-1.14-1.14-1.14h-3.66V85.29z M108,88.9h3.02v3.81c-0.06,0.12-0.11,0.25-0.15,0.39H108V88.9z M107.52,96.81
		c0.03-0.02,0.06-0.03,0.09-0.05c0,0,0.01,0,0.01-0.01c1.19-0.69,2.39-1.18,3.37-1.52c0.22,1.94,0.57,4.82,1.02,7.55
		c0.54,3.25,1.03,5.07,1.46,6.14h-2.97c-2.49-2.76-4.62-7.42-5.44-9.34c-0.11-0.25-0.2-0.48-0.27-0.66
		C105.61,98.06,106.55,97.37,107.52,96.81z M108.18,108.91h-6.25c-1.08-0.72-1.67-1.68-1.61-2.65c0-0.03,0-0.06,0.01-0.09
		c0.14-1.3,1.42-3.02,3.55-4.81C104.87,103.53,106.38,106.54,108.18,108.91z M87.11,104.77v-23.6h7.21h2.23h9.66V95.5
		c-0.95,0.6-1.89,1.31-2.7,2.16c-0.49,0.52-0.64,1.28-0.37,1.93c0.01,0.01,0.01,0.03,0.02,0.04c-1.88,1.51-3.92,3.57-4.48,5.67
		H87.65C87.35,105.31,87.11,105.07,87.11,104.77z M99.35,108.91H89.03v-1.8h9.55C98.69,107.74,98.95,108.35,99.35,108.91z
		 M141.51,112.51H94.27c-0.5,0-0.9,0.4-0.9,0.9c0,0.5,0.4,0.9,0.9,0.9h44.6v0.3c0,0.7-0.57,1.26-1.26,1.26H89.33
		c-0.7,0-1.26-0.57-1.26-1.26v-0.3h17.26c0.5,0,0.9-0.4,0.9-0.9c0-0.5-0.4-0.9-0.9-0.9h-19.9c-0.5,0-0.9-0.4-0.9-0.9
		s0.4-0.9,0.9-0.9h56.08c0.5,0,0.9,0.4,0.9,0.9S142,112.51,141.51,112.51z"/>
	<path d="M143.55,110.32h-0.25c0.64-0.88,0.93-1.89,0.83-2.93c-0.24-2.34-2.53-4.68-4.6-6.35c0.01-0.01,0.01-0.03,0.02-0.04
		c0.27-0.66,0.12-1.42-0.37-1.93c-0.03-0.03-0.07-0.07-0.1-0.1c-2.15-2.71-6.89-4.07-7.23-4.18c-0.06-0.63-0.44-1.2-1.03-1.47
		c-1.28-0.6-4.07-1.6-8.46-1.61c-1.47,0-2.76,0.12-3.88,0.29v-2.84c0-2.35-1.91-4.26-4.26-4.26h-4.17v-3.22c0-0.5-0.4-0.9-0.9-0.9
		H98.58h-2.23h-8.11c-0.5,0-0.9,0.4-0.9,0.9v24.5c0,1.15,0.83,2.1,1.92,2.3v1.84h-1.8c-1.49,0-2.7,1.21-2.7,2.7
		c0,1.49,1.21,2.7,2.7,2.7h0.84v0.3c0,1.69,1.37,3.06,3.06,3.06h48.28c1.69,0,3.06-1.37,3.06-3.06v-0.3h0.84
		c1.49,0,2.7-1.21,2.7-2.7C146.25,111.54,145.04,110.32,143.55,110.32z M142.33,107.58c0.1,1-0.49,1.99-1.65,2.74h-6.2
		c1.79-2.37,3.31-5.38,4.29-7.56C140.92,104.56,142.2,106.29,142.33,107.58z M131.67,96.64c0.58,0.2,1.24,0.48,1.95,0.79
		c0.8,0.34,2.96,1.75,3.11,1.87c0.35,0.28,0.68,0.57,0.99,0.88c0.05,0.06,0.09,0.12,0.14,0.18c-0.07,0.17-0.16,0.38-0.26,0.62
		c-0.82,1.92-2.96,6.59-5.44,9.35h-2.97c0.43-1.07,0.92-2.89,1.46-6.14C131.1,101.46,131.46,98.58,131.67,96.64z M122.35,93.51
		c4.18,0.01,6.77,1.01,7.69,1.44l-0.04,0.4c-0.19,1.77-0.58,5.23-1.12,8.48c-0.89,5.35-1.58,6.34-1.72,6.49h-9.62
		c-0.14-0.15-0.83-1.15-1.72-6.49c-0.54-3.25-0.93-6.7-1.12-8.48l-0.01-0.07c0,0,0,0,0-0.01l-0.03-0.33
		C115.58,94.52,118.17,93.52,122.35,93.51z M110.06,86.71h4.14c1.36,0,2.46,1.1,2.46,2.46v3.2c-0.71,0.18-1.31,0.37-1.8,0.55v-3.27
		c0-0.63-0.51-1.14-1.14-1.14h-3.66V86.71z M110.04,90.31h3.02v3.81c-0.06,0.12-0.11,0.25-0.15,0.39h-2.87V90.31z M109.55,98.22
		c0.03-0.02,0.06-0.03,0.09-0.05c0,0,0.01,0,0.01-0.01c1.19-0.69,2.39-1.18,3.37-1.52c0.22,1.94,0.57,4.82,1.02,7.55
		c0.54,3.25,1.03,5.07,1.46,6.14h-2.97c-2.49-2.76-4.62-7.42-5.44-9.34c-0.11-0.25-0.2-0.48-0.27-0.66
		C107.65,99.48,108.59,98.79,109.55,98.22z M110.22,110.32h-6.25c-1.08-0.72-1.67-1.68-1.61-2.65c0-0.03,0-0.06,0.01-0.09
		c0.14-1.3,1.42-3.02,3.55-4.81C106.9,104.95,108.42,107.95,110.22,110.32z M89.15,106.18v-23.6h7.21h2.23h9.66v14.33
		c-0.95,0.6-1.89,1.31-2.7,2.16c-0.49,0.52-0.64,1.28-0.37,1.93c0.01,0.01,0.01,0.03,0.02,0.04c-1.88,1.51-3.92,3.57-4.48,5.67
		H89.69C89.39,106.72,89.15,106.48,89.15,106.18z M101.39,110.32H91.07v-1.8h9.55C100.73,109.16,100.99,109.77,101.39,110.32z
		 M143.55,113.93H96.31c-0.5,0-0.9,0.4-0.9,0.9s0.4,0.9,0.9,0.9h44.6v0.3c0,0.7-0.57,1.26-1.26,1.26H91.37
		c-0.7,0-1.26-0.57-1.26-1.26v-0.3h17.26c0.5,0,0.9-0.4,0.9-0.9s-0.4-0.9-0.9-0.9h-19.9c-0.5,0-0.9-0.4-0.9-0.9
		c0-0.5,0.4-0.9,0.9-0.9h56.08c0.5,0,0.9,0.4,0.9,0.9C144.45,113.52,144.04,113.93,143.55,113.93z"/>
</g>
<g>
	<g>
		<g>
			<g>
				<path class="st0" d="M327.39,93.46h-25.44c-1.5,0-2.73,1.22-2.73,2.73v1.82c0,6.48,3.58,12.36,9.35,15.35
					c0.45,0.23,0.99,0.06,1.22-0.39c0.23-0.45,0.06-0.99-0.39-1.22c-5.16-2.67-8.36-7.93-8.36-13.73v-1.82
					c0-0.5,0.41-0.91,0.91-0.91h25.44c0.5,0,0.91,0.41,0.91,0.91v1.82c0,5.8-3.21,11.06-8.36,13.73c-0.45,0.23-0.62,0.78-0.39,1.22
					c0.16,0.31,0.48,0.49,0.81,0.49c0.14,0,0.28-0.03,0.42-0.1c5.77-2.98,9.35-8.86,9.35-15.34v-1.82
					C330.11,94.69,328.89,93.46,327.39,93.46z"/>
			</g>
		</g>
		<g>
			<g>
				<path class="st0" d="M335.5,112.19c-0.14-0.34-0.47-0.56-0.84-0.56h-39.98c-0.37,0-0.7,0.22-0.84,0.56
					c-0.14,0.34-0.06,0.73,0.2,0.99l2.04,2.04c1.2,1.2,2.8,1.86,4.5,1.86h28.19c1.7,0,3.3-0.66,4.5-1.86l2.04-2.04
					C335.56,112.93,335.64,112.53,335.5,112.19z M331.98,113.94c-0.86,0.86-2,1.33-3.21,1.33h-28.19c-1.21,0-2.35-0.47-3.21-1.33
					l-0.49-0.49h35.59L331.98,113.94z"/>
			</g>
		</g>
		<g>
			<g>
				<path class="st0" d="M335.62,97.75c-2.45-1.57-6.36,0.13-6.8,0.33c-0.46,0.21-0.66,0.75-0.45,1.2c0.21,0.46,0.75,0.66,1.2,0.45
					c0.88-0.4,3.69-1.34,5.06-0.46c0.62,0.4,0.92,1.17,0.92,2.35c0,3.64-7.34,5.84-10.17,6.38l-0.64,0.13
					c-0.49,0.1-0.81,0.57-0.72,1.07c0.09,0.43,0.47,0.73,0.89,0.73c0.06,0,0.12-0.01,0.18-0.02l0.64-0.13
					c0.48-0.09,11.64-2.28,11.64-8.16C337.38,99.81,336.79,98.51,335.62,97.75z"/>
			</g>
		</g>
		<g>
			<g>
				<path class="st0" d="M321.74,85.85c1.48-1.85,1.48-4.74,0-6.58c-0.31-0.39-0.88-0.46-1.28-0.14c-0.39,0.31-0.46,0.88-0.14,1.28
					c0.94,1.17,0.94,3.14,0,4.32c-1.48,1.85-1.48,4.74,0,6.58c0.18,0.23,0.44,0.34,0.71,0.34c0.2,0,0.4-0.07,0.57-0.2
					c0.39-0.31,0.46-0.89,0.14-1.28C320.8,89,320.8,87.03,321.74,85.85z"/>
			</g>
		</g>
		<g>
			<g>
				<path class="st0" d="M316.28,85.85c1.48-1.85,1.48-4.74,0-6.58c-0.31-0.39-0.88-0.46-1.28-0.14s-0.46,0.89-0.14,1.28
					c0.94,1.17,0.94,3.14,0,4.32c-1.48,1.85-1.48,4.74,0,6.58c0.18,0.23,0.44,0.34,0.71,0.34c0.2,0,0.4-0.07,0.57-0.2
					c0.39-0.31,0.46-0.88,0.14-1.28C315.34,89,315.34,87.03,316.28,85.85z"/>
			</g>
		</g>
		<g>
			<g>
				<path class="st0" d="M310.84,85.86c1.48-1.85,1.48-4.74,0-6.58c-0.31-0.39-0.88-0.46-1.28-0.14c-0.39,0.31-0.45,0.88-0.14,1.28
					c0.94,1.17,0.94,3.14,0,4.32c-1.48,1.85-1.48,4.74,0,6.58c0.18,0.23,0.44,0.34,0.71,0.34c0.2,0,0.4-0.07,0.57-0.2
					c0.39-0.31,0.46-0.89,0.14-1.28C309.9,89,309.9,87.03,310.84,85.86z"/>
			</g>
		</g>
	</g>
	<g>
		<g>
			<g>
				<path d="M329.43,94.88h-25.44c-1.5,0-2.73,1.22-2.73,2.73v1.82c0,6.48,3.58,12.36,9.35,15.35c0.45,0.23,0.99,0.06,1.22-0.39
					c0.23-0.45,0.06-0.99-0.39-1.22c-5.16-2.67-8.36-7.93-8.36-13.73V97.6c0-0.5,0.41-0.91,0.91-0.91h25.44
					c0.5,0,0.91,0.41,0.91,0.91v1.82c0,5.8-3.21,11.06-8.36,13.73c-0.45,0.23-0.62,0.78-0.39,1.22c0.16,0.31,0.48,0.49,0.81,0.49
					c0.14,0,0.28-0.03,0.42-0.1c5.77-2.98,9.35-8.86,9.35-15.34V97.6C332.15,96.1,330.93,94.88,329.43,94.88z"/>
			</g>
		</g>
		<g>
			<g>
				<path d="M337.54,113.61c-0.14-0.34-0.47-0.56-0.84-0.56h-39.98c-0.37,0-0.7,0.22-0.84,0.56c-0.14,0.34-0.06,0.73,0.2,0.99
					l2.04,2.04c1.2,1.2,2.8,1.86,4.5,1.86h28.19c1.7,0,3.3-0.66,4.5-1.86l2.04-2.04C337.6,114.34,337.68,113.95,337.54,113.61z
					 M334.02,115.35c-0.86,0.86-2,1.33-3.21,1.33h-28.19c-1.21,0-2.35-0.47-3.21-1.33l-0.49-0.49h35.59L334.02,115.35z"/>
			</g>
		</g>
		<g>
			<g>
				<path d="M337.66,99.17c-2.45-1.57-6.36,0.13-6.8,0.33c-0.46,0.21-0.66,0.75-0.45,1.2c0.21,0.46,0.75,0.66,1.2,0.45
					c0.88-0.4,3.69-1.34,5.06-0.46c0.62,0.4,0.92,1.17,0.92,2.35c0,3.64-7.34,5.84-10.17,6.38l-0.64,0.13
					c-0.49,0.1-0.81,0.57-0.72,1.07c0.09,0.43,0.47,0.73,0.89,0.73c0.06,0,0.12-0.01,0.18-0.02l0.64-0.13
					c0.48-0.09,11.64-2.28,11.64-8.16C339.42,101.23,338.83,99.92,337.66,99.17z"/>
			</g>
		</g>
		<g>
			<g>
				<path d="M323.78,87.27c1.48-1.85,1.48-4.74,0-6.58c-0.31-0.39-0.88-0.46-1.28-0.14c-0.39,0.31-0.46,0.88-0.14,1.28
					c0.94,1.17,0.94,3.14,0,4.32c-1.48,1.85-1.48,4.74,0,6.58c0.18,0.23,0.44,0.34,0.71,0.34c0.2,0,0.4-0.07,0.57-0.2
					c0.39-0.31,0.46-0.89,0.14-1.28C322.84,90.41,322.84,88.44,323.78,87.27z"/>
			</g>
		</g>
		<g>
			<g>
				<path d="M318.32,87.27c1.48-1.85,1.48-4.74,0-6.58c-0.31-0.39-0.88-0.46-1.28-0.14c-0.39,0.31-0.46,0.89-0.14,1.28
					c0.94,1.17,0.94,3.14,0,4.32c-1.48,1.85-1.48,4.74,0,6.58c0.18,0.23,0.44,0.34,0.71,0.34c0.2,0,0.4-0.07,0.57-0.2
					c0.39-0.31,0.46-0.88,0.14-1.28C317.38,90.41,317.38,88.44,318.32,87.27z"/>
			</g>
		</g>
		<g>
			<g>
				<path d="M312.88,87.27c1.48-1.85,1.48-4.74,0-6.58c-0.31-0.39-0.88-0.46-1.28-0.14c-0.39,0.31-0.45,0.88-0.14,1.28
					c0.94,1.17,0.94,3.14,0,4.32c-1.48,1.85-1.48,4.74,0,6.58c0.18,0.23,0.44,0.34,0.71,0.34c0.2,0,0.4-0.07,0.57-0.2
					c0.39-0.31,0.46-0.89,0.14-1.28C311.94,90.41,311.94,88.44,312.88,87.27z"/>
			</g>
		</g>
	</g>
</g>
<g>
	<path class="st0" d="M44.6,6.93c-3.45-5.91-11.03-7.91-16.95-4.46c-1.43,0.83-2.68,1.95-3.67,3.27L23.42,6.5l-0.57-0.76
		c-2.35-3.11-6.01-4.95-9.91-4.96h-0.3c-4.24,0-8.18,2.16-10.45,5.74c-1.41,2.21-2.16,4.78-2.16,7.41v2.25
		C0.02,22.89,3.4,29.15,9.02,32.82l1.33,0.87l5.47,3.58l7.18,4.7c0.26,0.17,0.6,0.17,0.86,0l14.05-9.31
		c5.57-3.68,8.92-9.91,8.91-16.58v-1C46.81,12.21,46.05,9.4,44.6,6.93L44.6,6.93z M18.82,36.99l0.29,0.57l-6.27-4.11l-1.64-1.07
		l-0.45-0.29l3.96-5.93c0.09-0.13,0.13-0.28,0.13-0.43v-2.44c0-0.05,0-0.1,0-0.15c0.04-0.96,0.41-1.89,1.04-2.62l0.13-0.15
		l0.41,1.65c0.09,0.35,0.4,0.59,0.76,0.59h1.87c0.52,0,1.01,0.26,1.3,0.7c0.53,0.8,1.35,1.36,2.29,1.56v0.86
		c0,0.86-0.7,1.56-1.56,1.56c-0.43,0-0.78,0.35-0.78,0.78v2.84c0,0.54-0.16,1.07-0.46,1.51l-0.97,1.45
		c-0.09,0.13-0.13,0.28-0.13,0.43v2.34C18.74,36.77,18.77,36.88,18.82,36.99L18.82,36.99z M21.86,39.37l-0.78-0.51V38.2
		c0-0.12-0.03-0.24-0.08-0.35l-0.01-0.02l0.87-0.87V39.37z M28.1,37.29l-1.56,1.03v-4.41l1.56-1.17V37.29z M29.55,27.53
		c-0.06,1.13-0.48,2.22-1.21,3.09l-3.05,2.29c-0.2,0.15-0.31,0.38-0.31,0.62v5.83l-1.56,1.03v-5.3c0-0.43-0.35-0.78-0.78-0.78
		c-0.21,0-0.41,0.08-0.55,0.23l-1.79,1.79v-1.78l0.84-1.26c0.47-0.7,0.72-1.53,0.72-2.38v-2.16c1.38-0.36,2.34-1.6,2.34-3.02v-1.56
		c0-0.43-0.35-0.78-0.78-0.78c-0.71,0-1.38-0.36-1.78-0.95c-0.32-0.48-0.77-0.87-1.3-1.11l1.19-1.19l-0.03,0.05l2.71,1.35
		c1.4,0.7,2.95,1.06,4.52,1.07h0.34l0.39,2.95C29.56,26.21,29.58,26.87,29.55,27.53L29.55,27.53z M24.2,14.81v2.53
		c0,0.32-0.26,0.59-0.59,0.59h-0.97v-1.39c-0.01-1.9,0.75-3.72,2.1-5.06c0.36-0.36,0.85-0.57,1.37-0.57h1.69
		c0.49,0,0.96,0.19,1.3,0.54l1.57,1.57c0.15,0.15,0.34,0.23,0.55,0.23h1.56v1.17c0,0.65-0.52,1.17-1.17,1.17h-1.95
		c-0.43,0-0.78,0.35-0.78,0.78v4.68h-0.14c-1.33,0-2.64-0.31-3.82-0.9l-1.31-0.66h0.01c1.18,0,2.14-0.96,2.15-2.15v-2.53H24.2z
		 M45.25,16.08c0.01,6.15-3.08,11.89-8.21,15.28l-7.38,4.89v-4.79c0.88-1.1,1.39-2.46,1.46-3.86c0.04-0.75,0.01-1.5-0.09-2.25
		L30.43,21v-3.85h1.17c1.51,0,2.73-1.22,2.73-2.73v-1.95c0-0.43-0.35-0.78-0.78-0.78h-2.02l-1.34-1.34c-0.64-0.64-1.5-1-2.41-1H26.1
		c-0.93,0-1.81,0.37-2.47,1.02c-1.64,1.63-2.56,3.85-2.55,6.16v1.85l-2.66,2.66h-0.63l-0.63-2.53c-0.1-0.42-0.53-0.67-0.95-0.57
		c-0.16,0.04-0.3,0.13-0.4,0.25l-1.11,1.3c-0.86,1-1.36,2.26-1.41,3.57c0,0.07,0,0.14,0,0.2v2.2l-3.83,5.74
		c-4.94-3.42-7.88-9.05-7.87-15.05v-2.25c0-2.33,0.66-4.61,1.91-6.57c1.99-3.12,5.43-5.02,9.14-5.02h0.3
		c3.41,0.01,6.61,1.61,8.66,4.33l1.19,1.59c0.26,0.34,0.75,0.41,1.09,0.16c0.06-0.04,0.11-0.1,0.16-0.16l1.19-1.59
		c3.59-4.79,10.38-5.76,15.16-2.17c1.16,0.87,2.13,1.96,2.86,3.21c1.3,2.24,1.99,4.78,1.99,7.36L45.25,16.08z"/>
	<path d="M46.8,8.45c-3.45-5.91-11.03-7.91-16.95-4.46c-1.43,0.83-2.68,1.95-3.67,3.27l-0.57,0.76l-0.57-0.76
		c-2.35-3.11-6.01-4.95-9.91-4.96h-0.3c-4.24,0-8.18,2.16-10.45,5.74c-1.41,2.21-2.16,4.78-2.16,7.41v2.25
		c-0.01,6.71,3.37,12.97,8.99,16.64l1.33,0.87l5.47,3.58l7.18,4.7c0.26,0.17,0.6,0.17,0.86,0l14.05-9.31
		c5.57-3.68,8.92-9.91,8.91-16.58v-1C49,13.73,48.24,10.92,46.8,8.45L46.8,8.45z M21.02,38.51l0.29,0.57l-6.27-4.11l-1.64-1.07
		l-0.45-0.29l3.96-5.93c0.09-0.13,0.13-0.28,0.13-0.43v-2.44c0-0.05,0-0.1,0-0.15c0.04-0.96,0.41-1.89,1.04-2.62l0.13-0.15
		l0.41,1.65c0.09,0.35,0.4,0.59,0.76,0.59h1.87c0.52,0,1.01,0.26,1.3,0.7c0.53,0.8,1.35,1.36,2.29,1.56v0.86
		c0,0.86-0.7,1.56-1.56,1.56c-0.43,0-0.78,0.35-0.78,0.78v2.84c0,0.54-0.16,1.07-0.46,1.51l-0.97,1.45
		c-0.09,0.13-0.13,0.28-0.13,0.43v2.34C20.93,38.29,20.96,38.4,21.02,38.51L21.02,38.51z M24.05,40.89l-0.78-0.51v-0.65
		c0-0.12-0.03-0.24-0.08-0.35l-0.01-0.02l0.87-0.87V40.89z M30.29,38.81l-1.56,1.03v-4.41l1.56-1.17V38.81z M31.75,29.05
		c-0.06,1.13-0.48,2.22-1.21,3.09l-3.05,2.29c-0.2,0.15-0.31,0.38-0.31,0.62v5.83l-1.56,1.03v-5.3c0-0.43-0.35-0.78-0.78-0.78
		c-0.21,0-0.41,0.08-0.55,0.23l-1.79,1.79v-1.78l0.84-1.26c0.47-0.7,0.72-1.53,0.72-2.38v-2.16c1.38-0.36,2.34-1.6,2.34-3.02v-1.56
		c0-0.43-0.35-0.78-0.78-0.78c-0.71,0-1.38-0.36-1.78-0.95c-0.32-0.48-0.77-0.87-1.3-1.11l1.19-1.19l-0.03,0.05l2.71,1.35
		c1.4,0.7,2.95,1.06,4.52,1.07h0.34l0.39,2.95C31.75,27.73,31.78,28.39,31.75,29.05L31.75,29.05z M26.39,16.33v2.53
		c0,0.32-0.26,0.59-0.59,0.59h-0.97v-1.39c-0.01-1.9,0.75-3.72,2.1-5.06c0.36-0.36,0.85-0.57,1.37-0.57h1.69
		c0.49,0,0.96,0.19,1.3,0.54l1.57,1.57c0.15,0.15,0.34,0.23,0.55,0.23h1.56v1.17c0,0.65-0.52,1.17-1.17,1.17h-1.95
		c-0.43,0-0.78,0.35-0.78,0.78v4.68h-0.14c-1.33,0-2.64-0.31-3.82-0.9l-1.31-0.66h0.01c1.18,0,2.14-0.96,2.15-2.15v-2.53H26.39z
		 M47.44,17.6c0.01,6.15-3.08,11.89-8.21,15.28l-7.38,4.89v-4.79c0.88-1.1,1.39-2.46,1.46-3.86c0.04-0.75,0.01-1.5-0.09-2.25
		l-0.58-4.36v-3.85h1.17c1.51,0,2.73-1.22,2.73-2.73V14c0-0.43-0.35-0.78-0.78-0.78h-2.02l-1.34-1.34c-0.64-0.64-1.5-1-2.41-1h-1.69
		c-0.93,0-1.81,0.37-2.47,1.02c-1.64,1.63-2.56,3.85-2.55,6.16v1.85l-2.66,2.66h-0.63l-0.63-2.53c-0.1-0.42-0.53-0.67-0.95-0.57
		c-0.16,0.04-0.3,0.13-0.4,0.25l-1.11,1.3c-0.86,1-1.36,2.26-1.41,3.57c0,0.07,0,0.14,0,0.2v2.2l-3.83,5.74
		c-4.94-3.42-7.88-9.05-7.87-15.05v-2.25c0-2.33,0.66-4.61,1.91-6.57c1.99-3.12,5.43-5.02,9.14-5.02h0.3
		c3.41,0.01,6.61,1.61,8.66,4.33l1.19,1.59c0.26,0.34,0.75,0.41,1.09,0.16c0.06-0.04,0.11-0.1,0.16-0.16l1.19-1.59
		c3.59-4.79,10.38-5.76,15.16-2.17c1.16,0.87,2.13,1.96,2.86,3.21c1.3,2.24,1.99,4.78,1.99,7.36V17.6z"/>
</g>
</svg>
