<?xml version="1.0" encoding="utf-8"?>
<!-- Generator: Adobe Illustrator 24.0.0, SVG Export Plug-In . SVG Version: 6.00 Build 0)  -->
<svg version="1.1" id="Layer_1" xmlns="http://www.w3.org/2000/svg" xmlns:xlink="http://www.w3.org/1999/xlink" x="0px" y="0px"
	 viewBox="0 0 50 29" style="enable-background:new 0 0 50 29;" xml:space="preserve">
<style type="text/css">
	.st0{fill:#FFED00;}
</style>
<g>
	<text transform="matrix(1 0 0 1 -331.4844 123.8359)" style="font-family:'Montserrat-Medium'; font-size:13.7445px;">Pet friendly</text>
</g>
<g>
	<text transform="matrix(1 0 0 1 294.5718 123.9785)"><tspan x="0" y="0" style="font-family:'Montserrat-Medium'; font-size:13.7445px;">Café e </tspan><tspan x="-18.29" y="16.49" style="font-family:'Montserrat-Medium'; font-size:13.7445px;">hidratación </tspan></text>
</g>
<g>
	<text transform="matrix(1 0 0 1 -115.9683 123.9961)" style="font-family:'Montserrat-Medium'; font-size:13.7445px;">Lockers</text>
</g>
<g>
	<text transform="matrix(1 0 0 1 84.6162 124.4189)" style="font-family:'Montserrat-Medium'; font-size:13.7445px;">Café bar</text>
</g>
<g>
	<path class="st0" d="M38.38,7.01c-1.39,0-2.72,0.28-3.92,0.79l-2.89-5.61h4.04c0.44,0,0.79,0.36,0.79,0.79s-0.36,0.79-0.79,0.79
		h-0.86c-0.45,0-0.82,0.37-0.82,0.82s0.37,0.82,0.82,0.82h0.86c1.34,0,2.44-1.09,2.44-2.44s-1.09-2.44-2.44-2.44h-5.39
		c-0.29,0-0.55,0.15-0.7,0.39c-0.15,0.24-0.16,0.55-0.03,0.8l1.44,2.79H19.08l-1.2-2.34h1.89c0.45,0,0.82-0.37,0.82-0.82
		s-0.37-0.82-0.82-0.82h-5.39c-0.45,0-0.82,0.37-0.82,0.82s0.37,0.82,0.82,0.82h1.65l1.6,3.13l-1.88,2.91
		c-1.44-0.77-3.08-1.21-4.82-1.21c-5.62,0-10.19,4.57-10.19,10.19s4.57,10.19,10.19,10.19c5.34,0,9.74-4.13,10.16-9.37h2.41
		l-0.94,3.05h-0.54c-0.45,0-0.82,0.37-0.82,0.82c0,0.45,0.37,0.82,0.82,0.82h2.96c0.45,0,0.82-0.37,0.82-0.82
		c0-0.45-0.37-0.82-0.82-0.82h-0.7l1.08-3.52l6.83-10.55L33,8.55c-2.89,1.8-4.81,5.01-4.81,8.65c0,5.62,4.57,10.19,10.19,10.19
		c5.62,0,10.19-4.57,10.19-10.19C48.58,11.58,44,7.01,38.38,7.01z M18.5,7.01l4.78,9.37H21.1c-0.24-2.95-1.74-5.56-3.96-7.26
		L18.5,7.01z M19.45,16.38h-7l3.79-5.88C18.02,11.91,19.23,14,19.45,16.38z M10.94,25.75c-4.71,0-8.55-3.84-8.55-8.55
		c0-4.71,3.84-8.55,8.55-8.55c1.41,0,2.75,0.35,3.92,0.96l-4.61,7.15c-0.16,0.25-0.17,0.57-0.03,0.84c0.14,0.26,0.42,0.43,0.72,0.43
		h8.51C19.04,22.35,15.38,25.75,10.94,25.75z M24.71,15.56l-4.79-9.39h10.87L24.71,15.56z M38.38,25.75c-4.71,0-8.55-3.84-8.55-8.55
		c0-3.01,1.57-5.66,3.92-7.18l3.9,7.56c0.15,0.28,0.43,0.45,0.73,0.45c0.13,0,0.26-0.03,0.38-0.09c0.4-0.21,0.56-0.7,0.35-1.11
		l-3.9-7.56c0.98-0.39,2.05-0.61,3.17-0.61c4.71,0,8.55,3.84,8.55,8.55C46.93,21.92,43.1,25.75,38.38,25.75z"/>
	<path d="M39.81,8c-1.39,0-2.72,0.28-3.92,0.79l-2.89-5.61h4.04c0.44,0,0.79,0.36,0.79,0.79s-0.36,0.79-0.79,0.79h-0.86
		c-0.45,0-0.82,0.37-0.82,0.82s0.37,0.82,0.82,0.82h0.86c1.34,0,2.44-1.09,2.44-2.44s-1.09-2.44-2.44-2.44h-5.39
		c-0.29,0-0.55,0.15-0.7,0.39c-0.15,0.24-0.16,0.55-0.03,0.8l1.44,2.79H20.5l-1.2-2.34h1.89c0.45,0,0.82-0.37,0.82-0.82
		s-0.37-0.82-0.82-0.82h-5.39c-0.45,0-0.82,0.37-0.82,0.82s0.37,0.82,0.82,0.82h1.65l1.6,3.13l-1.88,2.91
		C15.75,8.44,14.11,8,12.37,8C6.75,8,2.18,12.57,2.18,18.19s4.57,10.19,10.19,10.19c5.34,0,9.74-4.13,10.16-9.37h2.41L24,22.06
		h-0.54c-0.45,0-0.82,0.37-0.82,0.82c0,0.45,0.37,0.82,0.82,0.82h2.96c0.45,0,0.82-0.37,0.82-0.82c0-0.45-0.37-0.82-0.82-0.82h-0.7
		l1.08-3.52l6.83-10.55l0.8,1.54c-2.89,1.8-4.81,5.01-4.81,8.65c0,5.62,4.57,10.19,10.19,10.19c5.62,0,10.19-4.57,10.19-10.19
		C50,12.57,45.43,8,39.81,8z M19.92,8l4.78,9.37h-2.18c-0.24-2.95-1.74-5.56-3.96-7.26L19.92,8z M20.88,17.37h-7l3.79-5.88
		C19.44,12.9,20.65,14.99,20.88,17.37z M12.37,26.74c-4.71,0-8.55-3.84-8.55-8.55c0-4.71,3.84-8.55,8.55-8.55
		c1.41,0,2.75,0.35,3.92,0.96l-4.61,7.15c-0.16,0.25-0.17,0.57-0.03,0.84c0.14,0.26,0.42,0.43,0.72,0.43h8.51
		C20.46,23.34,16.81,26.74,12.37,26.74z M26.13,16.55l-4.79-9.39h10.87L26.13,16.55z M39.81,26.74c-4.71,0-8.55-3.84-8.55-8.55
		c0-3.01,1.57-5.66,3.92-7.18l3.9,7.56c0.15,0.28,0.43,0.45,0.73,0.45c0.13,0,0.26-0.03,0.38-0.09c0.4-0.21,0.56-0.7,0.35-1.11
		l-3.9-7.56c0.98-0.39,2.05-0.61,3.17-0.61c4.71,0,8.55,3.84,8.55,8.55C48.36,22.9,44.52,26.74,39.81,26.74z"/>
</g>
<g>
	<g>
		<path class="st0" d="M-100.47,67.19h-5.82c-0.34,0-0.61,0.27-0.61,0.61s0.27,0.61,0.61,0.61h5.82c0.34,0,0.61-0.27,0.61-0.61
			S-100.13,67.19-100.47,67.19z"/>
		<path class="st0" d="M-100.47,69.63h-5.82c-0.34,0-0.61,0.27-0.61,0.61s0.27,0.61,0.61,0.61h5.82c0.34,0,0.61-0.27,0.61-0.61
			S-100.13,69.63-100.47,69.63z"/>
		<path class="st0" d="M-100.47,72.07h-5.82c-0.34,0-0.61,0.27-0.61,0.61c0,0.34,0.27,0.61,0.61,0.61h5.82
			c0.34,0,0.61-0.27,0.61-0.61C-99.86,72.34-100.13,72.07-100.47,72.07z"/>
		<path class="st0" d="M-100.47,90.33h-5.82c-0.34,0-0.61,0.27-0.61,0.61c0,0.34,0.27,0.61,0.61,0.61h5.82
			c0.34,0,0.61-0.27,0.61-0.61C-99.86,90.61-100.13,90.33-100.47,90.33z"/>
		<path class="st0" d="M-100.47,92.77h-5.82c-0.34,0-0.61,0.27-0.61,0.61c0,0.34,0.27,0.61,0.61,0.61h5.82
			c0.34,0,0.61-0.27,0.61-0.61C-99.86,93.04-100.13,92.77-100.47,92.77z"/>
		<path class="st0" d="M-100.47,95.2h-5.82c-0.34,0-0.61,0.27-0.61,0.61s0.27,0.61,0.61,0.61h5.82c0.34,0,0.61-0.27,0.61-0.61
			S-100.13,95.2-100.47,95.2z"/>
		<path class="st0" d="M-105.07,83.64c1.01,0,1.83-0.82,1.83-1.83s-0.82-1.83-1.83-1.83s-1.83,0.82-1.83,1.83
			S-106.07,83.64-105.07,83.64z M-105.07,81.2c0.34,0,0.61,0.27,0.61,0.61s-0.27,0.61-0.61,0.61s-0.61-0.27-0.61-0.61
			S-105.4,81.2-105.07,81.2z"/>
		<path class="st0" d="M-88.15,67.19h-5.82c-0.34,0-0.61,0.27-0.61,0.61s0.27,0.61,0.61,0.61h5.82c0.34,0,0.61-0.27,0.61-0.61
			S-87.82,67.19-88.15,67.19z"/>
		<path class="st0" d="M-88.15,69.63h-5.82c-0.34,0-0.61,0.27-0.61,0.61s0.27,0.61,0.61,0.61h5.82c0.34,0,0.61-0.27,0.61-0.61
			S-87.82,69.63-88.15,69.63z"/>
		<path class="st0" d="M-88.15,72.07h-5.82c-0.34,0-0.61,0.27-0.61,0.61c0,0.34,0.27,0.61,0.61,0.61h5.82
			c0.34,0,0.61-0.27,0.61-0.61C-87.54,72.34-87.82,72.07-88.15,72.07z"/>
		<path class="st0" d="M-88.15,90.33h-5.82c-0.34,0-0.61,0.27-0.61,0.61c0,0.34,0.27,0.61,0.61,0.61h5.82
			c0.34,0,0.61-0.27,0.61-0.61C-87.54,90.61-87.82,90.33-88.15,90.33z"/>
		<path class="st0" d="M-88.15,92.77h-5.82c-0.34,0-0.61,0.27-0.61,0.61c0,0.34,0.27,0.61,0.61,0.61h5.82
			c0.34,0,0.61-0.27,0.61-0.61C-87.54,93.04-87.82,92.77-88.15,92.77z"/>
		<path class="st0" d="M-88.15,95.2h-5.82c-0.34,0-0.61,0.27-0.61,0.61s0.27,0.61,0.61,0.61h5.82c0.34,0,0.61-0.27,0.61-0.61
			S-87.82,95.2-88.15,95.2z"/>
		<path class="st0" d="M-92.75,83.64c1.01,0,1.83-0.82,1.83-1.83s-0.82-1.83-1.83-1.83s-1.83,0.82-1.83,1.83
			S-93.76,83.64-92.75,83.64z M-92.75,81.2c0.34,0,0.61,0.27,0.61,0.61s-0.27,0.61-0.61,0.61s-0.61-0.27-0.61-0.61
			S-93.09,81.2-92.75,81.2z"/>
		<path class="st0" d="M-81.66,68.41h5.82c0.34,0,0.61-0.27,0.61-0.61s-0.27-0.61-0.61-0.61h-5.82c-0.34,0-0.61,0.27-0.61,0.61
			S-81.99,68.41-81.66,68.41z"/>
		<path class="st0" d="M-75.84,69.63h-5.82c-0.34,0-0.61,0.27-0.61,0.61s0.27,0.61,0.61,0.61h5.82c0.34,0,0.61-0.27,0.61-0.61
			S-75.5,69.63-75.84,69.63z"/>
		<path class="st0" d="M-75.84,72.07h-5.82c-0.34,0-0.61,0.27-0.61,0.61c0,0.34,0.27,0.61,0.61,0.61h5.82
			c0.34,0,0.61-0.27,0.61-0.61C-75.23,72.34-75.5,72.07-75.84,72.07z"/>
		<path class="st0" d="M-75.84,90.33h-5.82c-0.34,0-0.61,0.27-0.61,0.61c0,0.34,0.27,0.61,0.61,0.61h5.82
			c0.34,0,0.61-0.27,0.61-0.61C-75.23,90.61-75.5,90.33-75.84,90.33z"/>
		<path class="st0" d="M-75.84,92.77h-5.82c-0.34,0-0.61,0.27-0.61,0.61c0,0.34,0.27,0.61,0.61,0.61h5.82
			c0.34,0,0.61-0.27,0.61-0.61C-75.23,93.04-75.5,92.77-75.84,92.77z"/>
		<path class="st0" d="M-75.84,95.2h-5.82c-0.34,0-0.61,0.27-0.61,0.61s0.27,0.61,0.61,0.61h5.82c0.34,0,0.61-0.27,0.61-0.61
			S-75.5,95.2-75.84,95.2z"/>
		<path class="st0" d="M-80.44,83.64c1.01,0,1.83-0.82,1.83-1.83s-0.82-1.83-1.83-1.83c-1.01,0-1.83,0.82-1.83,1.83
			S-81.45,83.64-80.44,83.64z M-80.44,81.2c0.34,0,0.61,0.27,0.61,0.61s-0.27,0.61-0.61,0.61s-0.61-0.27-0.61-0.61
			S-80.78,81.2-80.44,81.2z"/>
		<path class="st0" d="M-72.59,63.95h-36.94c-0.34,0-0.61,0.27-0.61,0.61v36.94c0,0.34,0.27,0.61,0.61,0.61s0.61-0.27,0.61-0.61
			v-1.83h11.1v1.83c0,0.34,0.27,0.61,0.61,0.61s0.61-0.27,0.61-0.61v-1.83h11.1v1.83c0,0.34,0.27,0.61,0.61,0.61
			c0.34,0,0.61-0.27,0.61-0.61v-1.83h11.1v1.83c0,0.34,0.27,0.61,0.61,0.61c0.34,0,0.61-0.27,0.61-0.61V64.56
			C-71.98,64.22-72.25,63.95-72.59,63.95z M-84.3,98.45V72.67c0-0.34-0.27-0.61-0.61-0.61c-0.34,0-0.61,0.27-0.61,0.61v25.78h-11.1
			v-7.51c0-0.34-0.27-0.61-0.61-0.61s-0.61,0.27-0.61,0.61v7.51h-11.1V65.16h11.1v27.6c0,0.34,0.27,0.61,0.61,0.61
			s0.61-0.27,0.61-0.61v-27.6h11.1v9.8c0,0.34,0.27,0.61,0.61,0.61c0.34,0,0.61-0.27,0.61-0.61v-9.8h11.1v33.29H-84.3z"/>
	</g>
	<g>
		<path d="M-98.43,68.61h-5.82c-0.34,0-0.61,0.27-0.61,0.61s0.27,0.61,0.61,0.61h5.82c0.34,0,0.61-0.27,0.61-0.61
			S-98.09,68.61-98.43,68.61z"/>
		<path d="M-98.43,71.04h-5.82c-0.34,0-0.61,0.27-0.61,0.61s0.27,0.61,0.61,0.61h5.82c0.34,0,0.61-0.27,0.61-0.61
			S-98.09,71.04-98.43,71.04z"/>
		<path d="M-98.43,73.48h-5.82c-0.34,0-0.61,0.27-0.61,0.61c0,0.34,0.27,0.61,0.61,0.61h5.82c0.34,0,0.61-0.27,0.61-0.61
			C-97.82,73.75-98.09,73.48-98.43,73.48z"/>
		<path d="M-98.43,91.75h-5.82c-0.34,0-0.61,0.27-0.61,0.61s0.27,0.61,0.61,0.61h5.82c0.34,0,0.61-0.27,0.61-0.61
			S-98.09,91.75-98.43,91.75z"/>
		<path d="M-98.43,94.18h-5.82c-0.34,0-0.61,0.27-0.61,0.61c0,0.34,0.27,0.61,0.61,0.61h5.82c0.34,0,0.61-0.27,0.61-0.61
			C-97.82,94.45-98.09,94.18-98.43,94.18z"/>
		<path d="M-98.43,96.62h-5.82c-0.34,0-0.61,0.27-0.61,0.61s0.27,0.61,0.61,0.61h5.82c0.34,0,0.61-0.27,0.61-0.61
			S-98.09,96.62-98.43,96.62z"/>
		<path d="M-103.03,85.05c1.01,0,1.83-0.82,1.83-1.83c0-1.01-0.82-1.83-1.83-1.83c-1.01,0-1.83,0.82-1.83,1.83
			C-104.85,84.23-104.03,85.05-103.03,85.05z M-103.03,82.61c0.34,0,0.61,0.27,0.61,0.61s-0.27,0.61-0.61,0.61s-0.61-0.27-0.61-0.61
			S-103.36,82.61-103.03,82.61z"/>
		<path d="M-86.11,68.61h-5.82c-0.34,0-0.61,0.27-0.61,0.61s0.27,0.61,0.61,0.61h5.82c0.34,0,0.61-0.27,0.61-0.61
			S-85.78,68.61-86.11,68.61z"/>
		<path d="M-86.11,71.04h-5.82c-0.34,0-0.61,0.27-0.61,0.61s0.27,0.61,0.61,0.61h5.82c0.34,0,0.61-0.27,0.61-0.61
			S-85.78,71.04-86.11,71.04z"/>
		<path d="M-86.11,73.48h-5.82c-0.34,0-0.61,0.27-0.61,0.61c0,0.34,0.27,0.61,0.61,0.61h5.82c0.34,0,0.61-0.27,0.61-0.61
			C-85.5,73.75-85.78,73.48-86.11,73.48z"/>
		<path d="M-86.11,91.75h-5.82c-0.34,0-0.61,0.27-0.61,0.61s0.27,0.61,0.61,0.61h5.82c0.34,0,0.61-0.27,0.61-0.61
			S-85.78,91.75-86.11,91.75z"/>
		<path d="M-86.11,94.18h-5.82c-0.34,0-0.61,0.27-0.61,0.61c0,0.34,0.27,0.61,0.61,0.61h5.82c0.34,0,0.61-0.27,0.61-0.61
			C-85.5,94.45-85.78,94.18-86.11,94.18z"/>
		<path d="M-86.11,96.62h-5.82c-0.34,0-0.61,0.27-0.61,0.61s0.27,0.61,0.61,0.61h5.82c0.34,0,0.61-0.27,0.61-0.61
			S-85.78,96.62-86.11,96.62z"/>
		<path d="M-90.71,85.05c1.01,0,1.83-0.82,1.83-1.83c0-1.01-0.82-1.83-1.83-1.83c-1.01,0-1.83,0.82-1.83,1.83
			C-92.54,84.23-91.72,85.05-90.71,85.05z M-90.71,82.61c0.34,0,0.61,0.27,0.61,0.61s-0.27,0.61-0.61,0.61s-0.61-0.27-0.61-0.61
			S-91.05,82.61-90.71,82.61z"/>
		<path d="M-79.62,69.83h5.82c0.34,0,0.61-0.27,0.61-0.61s-0.27-0.61-0.61-0.61h-5.82c-0.34,0-0.61,0.27-0.61,0.61
			S-79.95,69.83-79.62,69.83z"/>
		<path d="M-73.8,71.04h-5.82c-0.34,0-0.61,0.27-0.61,0.61s0.27,0.61,0.61,0.61h5.82c0.34,0,0.61-0.27,0.61-0.61
			S-73.46,71.04-73.8,71.04z"/>
		<path d="M-73.8,73.48h-5.82c-0.34,0-0.61,0.27-0.61,0.61c0,0.34,0.27,0.61,0.61,0.61h5.82c0.34,0,0.61-0.27,0.61-0.61
			C-73.19,73.75-73.46,73.48-73.8,73.48z"/>
		<path d="M-73.8,91.75h-5.82c-0.34,0-0.61,0.27-0.61,0.61s0.27,0.61,0.61,0.61h5.82c0.34,0,0.61-0.27,0.61-0.61
			S-73.46,91.75-73.8,91.75z"/>
		<path d="M-73.8,94.18h-5.82c-0.34,0-0.61,0.27-0.61,0.61c0,0.34,0.27,0.61,0.61,0.61h5.82c0.34,0,0.61-0.27,0.61-0.61
			C-73.19,94.45-73.46,94.18-73.8,94.18z"/>
		<path d="M-73.8,96.62h-5.82c-0.34,0-0.61,0.27-0.61,0.61s0.27,0.61,0.61,0.61h5.82c0.34,0,0.61-0.27,0.61-0.61
			S-73.46,96.62-73.8,96.62z"/>
		<path d="M-78.4,85.05c1.01,0,1.83-0.82,1.83-1.83c0-1.01-0.82-1.83-1.83-1.83c-1.01,0-1.83,0.82-1.83,1.83
			C-80.23,84.23-79.41,85.05-78.4,85.05z M-78.4,82.61c0.34,0,0.61,0.27,0.61,0.61s-0.27,0.61-0.61,0.61
			c-0.34,0-0.61-0.27-0.61-0.61S-78.74,82.61-78.4,82.61z"/>
		<path d="M-70.55,65.36h-36.94c-0.34,0-0.61,0.27-0.61,0.61v36.94c0,0.34,0.27,0.61,0.61,0.61s0.61-0.27,0.61-0.61v-1.83h11.1v1.83
			c0,0.34,0.27,0.61,0.61,0.61c0.34,0,0.61-0.27,0.61-0.61v-1.83h11.1v1.83c0,0.34,0.27,0.61,0.61,0.61c0.34,0,0.61-0.27,0.61-0.61
			v-1.83h11.1v1.83c0,0.34,0.27,0.61,0.61,0.61c0.34,0,0.61-0.27,0.61-0.61V65.97C-69.94,65.63-70.22,65.36-70.55,65.36z
			 M-82.26,99.87V74.09c0-0.34-0.27-0.61-0.61-0.61c-0.34,0-0.61,0.27-0.61,0.61v25.78h-11.1v-7.51c0-0.34-0.27-0.61-0.61-0.61
			c-0.34,0-0.61,0.27-0.61,0.61v7.51h-11.1V66.58h11.1v27.6c0,0.34,0.27,0.61,0.61,0.61c0.34,0,0.61-0.27,0.61-0.61v-27.6h11.1v9.8
			c0,0.34,0.27,0.61,0.61,0.61c0.34,0,0.61-0.27,0.61-0.61v-9.8h11.1v33.29H-82.26z"/>
	</g>
</g>
<g>
	<path class="st0" d="M141.51,93.91h-0.25c0.64-0.88,0.93-1.89,0.83-2.93c-0.24-2.34-2.53-4.68-4.6-6.35
		c0.01-0.01,0.01-0.03,0.02-0.04c0.27-0.66,0.12-1.42-0.37-1.93c-0.03-0.03-0.07-0.07-0.1-0.1c-2.15-2.71-6.89-4.07-7.23-4.18
		c-0.06-0.63-0.44-1.2-1.03-1.47c-1.28-0.6-4.07-1.6-8.46-1.61c-1.47,0-2.76,0.12-3.88,0.29v-2.84c0-2.35-1.91-4.26-4.26-4.26H108
		v-3.22c0-0.5-0.4-0.9-0.9-0.9H96.54h-2.23h-8.11c-0.5,0-0.9,0.4-0.9,0.9v24.5c0,1.15,0.83,2.1,1.92,2.3v1.84h-1.8
		c-1.49,0-2.7,1.21-2.7,2.7c0,1.49,1.21,2.7,2.7,2.7h0.84v0.3c0,1.69,1.37,3.06,3.06,3.06h48.28c1.69,0,3.06-1.37,3.06-3.06v-0.3
		h0.84c1.49,0,2.7-1.21,2.7-2.7C144.21,95.12,143,93.91,141.51,93.91z M140.3,91.17c0.1,1-0.49,1.99-1.65,2.74h-6.2
		c1.79-2.37,3.31-5.38,4.29-7.56C138.88,88.15,140.16,89.87,140.3,91.17z M129.63,80.23c0.58,0.2,1.24,0.48,1.95,0.79
		c0.8,0.34,2.96,1.75,3.11,1.87c0.35,0.28,0.68,0.57,0.99,0.88c0.05,0.06,0.09,0.12,0.14,0.18c-0.07,0.17-0.16,0.38-0.26,0.62
		c-0.82,1.92-2.96,6.59-5.44,9.35h-2.97c0.43-1.07,0.92-2.89,1.46-6.14C129.07,85.05,129.42,82.17,129.63,80.23z M120.31,77.1
		c4.18,0.01,6.77,1.01,7.69,1.44l-0.04,0.4c-0.19,1.77-0.58,5.23-1.12,8.48c-0.89,5.35-1.58,6.34-1.72,6.49h-9.62
		c-0.14-0.15-0.83-1.15-1.72-6.49c-0.54-3.25-0.93-6.7-1.12-8.48l-0.01-0.07c0,0,0,0,0-0.01l-0.03-0.33
		C113.54,78.11,116.13,77.11,120.31,77.1z M108.02,70.29h4.14c1.36,0,2.46,1.1,2.46,2.46v3.2c-0.71,0.18-1.31,0.37-1.8,0.55v-3.27
		c0-0.63-0.51-1.14-1.14-1.14h-3.66V70.29z M108,73.9h3.02v3.81c-0.06,0.12-0.11,0.25-0.15,0.39H108V73.9z M107.52,81.81
		c0.03-0.02,0.06-0.03,0.09-0.05c0,0,0.01,0,0.01-0.01c1.19-0.69,2.39-1.18,3.37-1.52c0.22,1.94,0.57,4.82,1.02,7.55
		c0.54,3.25,1.03,5.07,1.46,6.14h-2.97c-2.49-2.76-4.62-7.42-5.44-9.34c-0.11-0.25-0.2-0.48-0.27-0.66
		C105.61,83.06,106.55,82.37,107.52,81.81z M108.18,93.91h-6.25c-1.08-0.72-1.67-1.68-1.61-2.65c0-0.03,0-0.06,0.01-0.09
		c0.14-1.3,1.42-3.02,3.55-4.81C104.87,88.53,106.38,91.54,108.18,93.91z M87.11,89.77v-23.6h7.21h2.23h9.66V80.5
		c-0.95,0.6-1.89,1.31-2.7,2.16c-0.49,0.52-0.64,1.28-0.37,1.93c0.01,0.01,0.01,0.03,0.02,0.04c-1.88,1.51-3.92,3.57-4.48,5.67
		H87.65C87.35,90.31,87.11,90.07,87.11,89.77z M99.35,93.91H89.03v-1.8h9.55C98.69,92.74,98.95,93.35,99.35,93.91z M141.51,97.51
		H94.27c-0.5,0-0.9,0.4-0.9,0.9c0,0.5,0.4,0.9,0.9,0.9h44.6v0.3c0,0.7-0.57,1.26-1.26,1.26H89.33c-0.7,0-1.26-0.57-1.26-1.26v-0.3
		h17.26c0.5,0,0.9-0.4,0.9-0.9c0-0.5-0.4-0.9-0.9-0.9h-19.9c-0.5,0-0.9-0.4-0.9-0.9s0.4-0.9,0.9-0.9h56.08c0.5,0,0.9,0.4,0.9,0.9
		S142,97.51,141.51,97.51z"/>
	<path d="M143.55,95.32h-0.25c0.64-0.88,0.93-1.89,0.83-2.93c-0.24-2.34-2.53-4.68-4.6-6.35c0.01-0.01,0.01-0.03,0.02-0.04
		c0.27-0.66,0.12-1.42-0.37-1.93c-0.03-0.03-0.07-0.07-0.1-0.1c-2.15-2.71-6.89-4.07-7.23-4.18c-0.06-0.63-0.44-1.2-1.03-1.47
		c-1.28-0.6-4.07-1.6-8.46-1.61c-1.47,0-2.76,0.12-3.88,0.29v-2.84c0-2.35-1.91-4.26-4.26-4.26h-4.17v-3.22c0-0.5-0.4-0.9-0.9-0.9
		H98.58h-2.23h-8.11c-0.5,0-0.9,0.4-0.9,0.9v24.5c0,1.15,0.83,2.1,1.92,2.3v1.84h-1.8c-1.49,0-2.7,1.21-2.7,2.7
		c0,1.49,1.21,2.7,2.7,2.7h0.84v0.3c0,1.69,1.37,3.06,3.06,3.06h48.28c1.69,0,3.06-1.37,3.06-3.06v-0.3h0.84
		c1.49,0,2.7-1.21,2.7-2.7C146.25,96.54,145.04,95.32,143.55,95.32z M142.33,92.58c0.1,1-0.49,1.99-1.65,2.74h-6.2
		c1.79-2.37,3.31-5.38,4.29-7.56C140.92,89.56,142.2,91.29,142.33,92.58z M131.67,81.64c0.58,0.2,1.24,0.48,1.95,0.79
		c0.8,0.34,2.96,1.75,3.11,1.87c0.35,0.28,0.68,0.57,0.99,0.88c0.05,0.06,0.09,0.12,0.14,0.18c-0.07,0.17-0.16,0.38-0.26,0.62
		c-0.82,1.92-2.96,6.59-5.44,9.35h-2.97c0.43-1.07,0.92-2.89,1.46-6.14C131.1,86.46,131.46,83.58,131.67,81.64z M122.35,78.51
		c4.18,0.01,6.77,1.01,7.69,1.44l-0.04,0.4c-0.19,1.77-0.58,5.23-1.12,8.48c-0.89,5.35-1.58,6.34-1.72,6.49h-9.62
		c-0.14-0.15-0.83-1.15-1.72-6.49c-0.54-3.25-0.93-6.7-1.12-8.48l-0.01-0.07c0,0,0,0,0-0.01l-0.03-0.33
		C115.58,79.52,118.17,78.52,122.35,78.51z M110.06,71.71h4.14c1.36,0,2.46,1.1,2.46,2.46v3.2c-0.71,0.18-1.31,0.37-1.8,0.55v-3.27
		c0-0.63-0.51-1.14-1.14-1.14h-3.66V71.71z M110.04,75.31h3.02v3.81c-0.06,0.12-0.11,0.25-0.15,0.39h-2.87V75.31z M109.55,83.22
		c0.03-0.02,0.06-0.03,0.09-0.05c0,0,0.01,0,0.01-0.01c1.19-0.69,2.39-1.18,3.37-1.52c0.22,1.94,0.57,4.82,1.02,7.55
		c0.54,3.25,1.03,5.07,1.46,6.14h-2.97c-2.49-2.76-4.62-7.42-5.44-9.34c-0.11-0.25-0.2-0.48-0.27-0.66
		C107.65,84.48,108.59,83.79,109.55,83.22z M110.22,95.32h-6.25c-1.08-0.72-1.67-1.68-1.61-2.65c0-0.03,0-0.06,0.01-0.09
		c0.14-1.3,1.42-3.02,3.55-4.81C106.9,89.95,108.42,92.95,110.22,95.32z M89.15,91.18v-23.6h7.21h2.23h9.66v14.33
		c-0.95,0.6-1.89,1.31-2.7,2.16c-0.49,0.52-0.64,1.28-0.37,1.93c0.01,0.01,0.01,0.03,0.02,0.04c-1.88,1.51-3.92,3.57-4.48,5.67
		H89.69C89.39,91.72,89.15,91.48,89.15,91.18z M101.39,95.32H91.07v-1.8h9.55C100.73,94.16,100.99,94.77,101.39,95.32z
		 M143.55,98.93H96.31c-0.5,0-0.9,0.4-0.9,0.9s0.4,0.9,0.9,0.9h44.6v0.3c0,0.7-0.57,1.26-1.26,1.26H91.37
		c-0.7,0-1.26-0.57-1.26-1.26v-0.3h17.26c0.5,0,0.9-0.4,0.9-0.9s-0.4-0.9-0.9-0.9h-19.9c-0.5,0-0.9-0.4-0.9-0.9
		c0-0.5,0.4-0.9,0.9-0.9h56.08c0.5,0,0.9,0.4,0.9,0.9C144.45,98.52,144.04,98.93,143.55,98.93z"/>
</g>
<g>
	<g>
		<g>
			<g>
				<path class="st0" d="M327.39,78.46h-25.44c-1.5,0-2.73,1.22-2.73,2.73v1.82c0,6.48,3.58,12.36,9.35,15.35
					c0.45,0.23,0.99,0.06,1.22-0.39c0.23-0.45,0.06-0.99-0.39-1.22c-5.16-2.67-8.36-7.93-8.36-13.73v-1.82
					c0-0.5,0.41-0.91,0.91-0.91h25.44c0.5,0,0.91,0.41,0.91,0.91v1.82c0,5.8-3.21,11.06-8.36,13.73c-0.45,0.23-0.62,0.78-0.39,1.22
					c0.16,0.31,0.48,0.49,0.81,0.49c0.14,0,0.28-0.03,0.42-0.1c5.77-2.98,9.35-8.86,9.35-15.34v-1.82
					C330.11,79.69,328.89,78.46,327.39,78.46z"/>
			</g>
		</g>
		<g>
			<g>
				<path class="st0" d="M335.5,97.19c-0.14-0.34-0.47-0.56-0.84-0.56h-39.98c-0.37,0-0.7,0.22-0.84,0.56
					c-0.14,0.34-0.06,0.73,0.2,0.99l2.04,2.04c1.2,1.2,2.8,1.86,4.5,1.86h28.19c1.7,0,3.3-0.66,4.5-1.86l2.04-2.04
					C335.56,97.93,335.64,97.53,335.5,97.19z M331.98,98.94c-0.86,0.86-2,1.33-3.21,1.33h-28.19c-1.21,0-2.35-0.47-3.21-1.33
					l-0.49-0.49h35.59L331.98,98.94z"/>
			</g>
		</g>
		<g>
			<g>
				<path class="st0" d="M335.62,82.75c-2.45-1.57-6.36,0.13-6.8,0.33c-0.46,0.21-0.66,0.75-0.45,1.2c0.21,0.46,0.75,0.66,1.2,0.45
					c0.88-0.4,3.69-1.34,5.06-0.46c0.62,0.4,0.92,1.17,0.92,2.35c0,3.64-7.34,5.84-10.17,6.38l-0.64,0.13
					c-0.49,0.1-0.81,0.57-0.72,1.07c0.09,0.43,0.47,0.73,0.89,0.73c0.06,0,0.12-0.01,0.18-0.02l0.64-0.13
					c0.48-0.09,11.64-2.28,11.64-8.16C337.38,84.81,336.79,83.51,335.62,82.75z"/>
			</g>
		</g>
		<g>
			<g>
				<path class="st0" d="M321.74,70.85c1.48-1.85,1.48-4.74,0-6.58c-0.31-0.39-0.88-0.46-1.28-0.14c-0.39,0.31-0.46,0.88-0.14,1.28
					c0.94,1.17,0.94,3.14,0,4.32c-1.48,1.85-1.48,4.74,0,6.58c0.18,0.23,0.44,0.34,0.71,0.34c0.2,0,0.4-0.07,0.57-0.2
					c0.39-0.31,0.46-0.89,0.14-1.28C320.8,74,320.8,72.03,321.74,70.85z"/>
			</g>
		</g>
		<g>
			<g>
				<path class="st0" d="M316.28,70.85c1.48-1.85,1.48-4.74,0-6.58c-0.31-0.39-0.88-0.46-1.28-0.14c-0.39,0.31-0.46,0.89-0.14,1.28
					c0.94,1.17,0.94,3.14,0,4.32c-1.48,1.85-1.48,4.74,0,6.58c0.18,0.23,0.44,0.34,0.71,0.34c0.2,0,0.4-0.07,0.57-0.2
					c0.39-0.31,0.46-0.88,0.14-1.28C315.34,74,315.34,72.03,316.28,70.85z"/>
			</g>
		</g>
		<g>
			<g>
				<path class="st0" d="M310.84,70.86c1.48-1.85,1.48-4.74,0-6.58c-0.31-0.39-0.88-0.46-1.28-0.14c-0.39,0.31-0.45,0.88-0.14,1.28
					c0.94,1.17,0.94,3.14,0,4.32c-1.48,1.85-1.48,4.74,0,6.58c0.18,0.23,0.44,0.34,0.71,0.34c0.2,0,0.4-0.07,0.57-0.2
					c0.39-0.31,0.46-0.89,0.14-1.28C309.9,74,309.9,72.03,310.84,70.86z"/>
			</g>
		</g>
	</g>
	<g>
		<g>
			<g>
				<path d="M329.43,79.88h-25.44c-1.5,0-2.73,1.22-2.73,2.73v1.82c0,6.48,3.58,12.36,9.35,15.35c0.45,0.23,0.99,0.06,1.22-0.39
					c0.23-0.45,0.06-0.99-0.39-1.22c-5.16-2.67-8.36-7.93-8.36-13.73V82.6c0-0.5,0.41-0.91,0.91-0.91h25.44
					c0.5,0,0.91,0.41,0.91,0.91v1.82c0,5.8-3.21,11.06-8.36,13.73c-0.45,0.23-0.62,0.78-0.39,1.22c0.16,0.31,0.48,0.49,0.81,0.49
					c0.14,0,0.28-0.03,0.42-0.1c5.77-2.98,9.35-8.86,9.35-15.34V82.6C332.15,81.1,330.93,79.88,329.43,79.88z"/>
			</g>
		</g>
		<g>
			<g>
				<path d="M337.54,98.61c-0.14-0.34-0.47-0.56-0.84-0.56h-39.98c-0.37,0-0.7,0.22-0.84,0.56c-0.14,0.34-0.06,0.73,0.2,0.99
					l2.04,2.04c1.2,1.2,2.8,1.86,4.5,1.86h28.19c1.7,0,3.3-0.66,4.5-1.86l2.04-2.04C337.6,99.34,337.68,98.95,337.54,98.61z
					 M334.02,100.35c-0.86,0.86-2,1.33-3.21,1.33h-28.19c-1.21,0-2.35-0.47-3.21-1.33l-0.49-0.49h35.59L334.02,100.35z"/>
			</g>
		</g>
		<g>
			<g>
				<path d="M337.66,84.17c-2.45-1.57-6.36,0.13-6.8,0.33c-0.46,0.21-0.66,0.75-0.45,1.2c0.21,0.46,0.75,0.66,1.2,0.45
					c0.88-0.4,3.69-1.34,5.06-0.46c0.62,0.4,0.92,1.17,0.92,2.35c0,3.64-7.34,5.84-10.17,6.38l-0.64,0.13
					c-0.49,0.1-0.81,0.57-0.72,1.07c0.09,0.43,0.47,0.73,0.89,0.73c0.06,0,0.12-0.01,0.18-0.02l0.64-0.13
					c0.48-0.09,11.64-2.28,11.64-8.16C339.42,86.23,338.83,84.92,337.66,84.17z"/>
			</g>
		</g>
		<g>
			<g>
				<path d="M323.78,72.27c1.48-1.85,1.48-4.74,0-6.58c-0.31-0.39-0.88-0.46-1.28-0.14c-0.39,0.31-0.46,0.88-0.14,1.28
					c0.94,1.17,0.94,3.14,0,4.32c-1.48,1.85-1.48,4.74,0,6.58c0.18,0.23,0.44,0.34,0.71,0.34c0.2,0,0.4-0.07,0.57-0.2
					c0.39-0.31,0.46-0.89,0.14-1.28C322.84,75.41,322.84,73.44,323.78,72.27z"/>
			</g>
		</g>
		<g>
			<g>
				<path d="M318.32,72.27c1.48-1.85,1.48-4.74,0-6.58c-0.31-0.39-0.88-0.46-1.28-0.14c-0.39,0.31-0.46,0.89-0.14,1.28
					c0.94,1.17,0.94,3.14,0,4.32c-1.48,1.85-1.48,4.74,0,6.58c0.18,0.23,0.44,0.34,0.71,0.34c0.2,0,0.4-0.07,0.57-0.2
					c0.39-0.31,0.46-0.88,0.14-1.28C317.38,75.41,317.38,73.44,318.32,72.27z"/>
			</g>
		</g>
		<g>
			<g>
				<path d="M312.88,72.27c1.48-1.85,1.48-4.74,0-6.58c-0.31-0.39-0.88-0.46-1.28-0.14c-0.39,0.31-0.45,0.88-0.14,1.28
					c0.94,1.17,0.94,3.14,0,4.32c-1.48,1.85-1.48,4.74,0,6.58c0.18,0.23,0.44,0.34,0.71,0.34c0.2,0,0.4-0.07,0.57-0.2
					c0.39-0.31,0.46-0.89,0.14-1.28C311.94,75.41,311.94,73.44,312.88,72.27z"/>
			</g>
		</g>
	</g>
</g>
<g>
	<path class="st0" d="M-273.53,69.5c-3.21-5.5-10.26-7.35-15.76-4.15c-1.33,0.78-2.49,1.81-3.41,3.04l-0.53,0.71l-0.53-0.71
		c-2.18-2.89-5.59-4.6-9.22-4.61h-0.27c-3.94,0-7.6,2.01-9.72,5.34c-1.31,2.06-2.01,4.45-2.01,6.89v2.1
		c-0.01,6.24,3.13,12.06,8.36,15.47l1.24,0.81l5.08,3.33l6.67,4.37c0.24,0.16,0.56,0.16,0.8,0l13.06-8.65
		c5.18-3.42,8.29-9.21,8.28-15.42v-0.93C-271.48,74.42-272.18,71.8-273.53,69.5L-273.53,69.5z M-297.5,97.46l0.27,0.53l-5.83-3.82
		l-1.53-1L-305,92.9l3.68-5.52c0.08-0.12,0.12-0.26,0.12-0.4v-2.27c0-0.05,0-0.1,0-0.14c0.04-0.9,0.38-1.75,0.97-2.43l0.12-0.14
		l0.38,1.53c0.08,0.32,0.37,0.55,0.7,0.55h1.74c0.48,0,0.94,0.24,1.21,0.65c0.49,0.74,1.26,1.26,2.13,1.45v0.8
		c0,0.8-0.65,1.45-1.45,1.45c-0.4,0-0.72,0.32-0.72,0.72v2.64c0,0.5-0.15,0.99-0.43,1.41l-0.9,1.35c-0.08,0.12-0.12,0.26-0.12,0.4
		v2.17C-297.57,97.25-297.55,97.36-297.5,97.46L-297.5,97.46z M-294.67,99.67l-0.72-0.47v-0.61c0-0.11-0.03-0.22-0.08-0.32
		l-0.01-0.02l0.81-0.81V99.67z M-288.88,97.73l-1.45,0.96v-4.1l1.45-1.09V97.73z M-287.52,88.66c-0.05,1.05-0.45,2.06-1.13,2.87
		l-2.84,2.13c-0.18,0.14-0.29,0.35-0.29,0.58v5.42l-1.45,0.96v-4.93c0-0.4-0.32-0.72-0.72-0.72c-0.19,0-0.38,0.08-0.51,0.21
		l-1.66,1.66v-1.65l0.78-1.17c0.44-0.65,0.67-1.42,0.67-2.21v-2c1.28-0.33,2.17-1.49,2.17-2.81v-1.45c0-0.4-0.32-0.72-0.72-0.72
		c-0.66,0-1.28-0.33-1.65-0.88c-0.3-0.45-0.72-0.81-1.21-1.03l1.11-1.11l-0.02,0.05l2.52,1.26c1.31,0.65,2.74,0.99,4.2,0.99h0.31
		l0.37,2.75C-287.52,87.44-287.49,88.05-287.52,88.66L-287.52,88.66z M-292.5,76.84v2.36c0,0.3-0.24,0.54-0.54,0.54h-0.91v-1.29
		c0-1.77,0.7-3.46,1.95-4.7c0.34-0.34,0.79-0.53,1.27-0.53h1.57c0.46,0,0.89,0.18,1.21,0.5l1.46,1.46c0.14,0.14,0.32,0.21,0.51,0.21
		h1.45v1.09c0,0.6-0.49,1.09-1.09,1.09h-1.81c-0.4,0-0.72,0.32-0.72,0.72v4.35h-0.13c-1.23,0-2.45-0.29-3.55-0.84l-1.22-0.61h0.01
		c1.1,0,1.99-0.89,1.99-1.99v-2.36H-292.5z M-272.93,78.02c0.01,5.72-2.86,11.06-7.63,14.21l-6.87,4.55v-4.45
		c0.81-1.03,1.29-2.28,1.35-3.59c0.03-0.7,0.01-1.4-0.09-2.09l-0.54-4.05v-3.58h1.09c1.4,0,2.54-1.14,2.54-2.54v-1.81
		c0-0.4-0.32-0.72-0.72-0.72h-1.87l-1.25-1.25c-0.59-0.6-1.4-0.93-2.24-0.93h-1.57c-0.86,0-1.69,0.34-2.3,0.95
		c-1.52,1.52-2.38,3.58-2.37,5.73v1.72l-2.48,2.47h-0.58l-0.59-2.35c-0.1-0.39-0.49-0.62-0.88-0.53c-0.15,0.04-0.28,0.12-0.38,0.23
		l-1.03,1.21c-0.8,0.93-1.26,2.1-1.31,3.32c0,0.06,0,0.13,0,0.19v2.05l-3.56,5.34c-4.59-3.18-7.32-8.41-7.32-13.99v-2.1
		c0-2.16,0.62-4.28,1.78-6.11c1.85-2.91,5.05-4.66,8.5-4.66h0.27c3.17,0.01,6.15,1.5,8.06,4.03l1.11,1.48
		c0.24,0.32,0.69,0.39,1.01,0.14c0.05-0.04,0.1-0.09,0.14-0.14l1.11-1.48c3.34-4.45,9.65-5.35,14.1-2.01
		c1.08,0.81,1.98,1.82,2.66,2.98c1.21,2.08,1.85,4.44,1.85,6.85V78.02z"/>
	<path d="M-271.49,70.92c-3.21-5.5-10.26-7.35-15.76-4.15c-1.33,0.78-2.49,1.81-3.41,3.04l-0.53,0.71l-0.53-0.71
		c-2.18-2.89-5.59-4.6-9.22-4.61h-0.27c-3.94,0-7.6,2.01-9.72,5.34c-1.31,2.06-2.01,4.45-2.01,6.89v2.1
		c-0.01,6.24,3.13,12.06,8.36,15.47l1.24,0.81l5.08,3.33l6.67,4.37c0.24,0.16,0.56,0.16,0.8,0l13.06-8.65
		c5.18-3.42,8.29-9.21,8.28-15.42V78.5C-269.44,75.83-270.15,73.22-271.49,70.92L-271.49,70.92z M-295.46,98.87l0.27,0.53
		l-5.83-3.82l-1.53-1l-0.42-0.27l3.68-5.52c0.08-0.12,0.12-0.26,0.12-0.4v-2.27c0-0.05,0-0.1,0-0.14c0.04-0.9,0.38-1.75,0.97-2.43
		l0.12-0.14l0.38,1.53c0.08,0.32,0.37,0.55,0.7,0.55h1.74c0.48,0,0.94,0.24,1.21,0.65c0.49,0.74,1.26,1.26,2.13,1.45v0.8
		c0,0.8-0.65,1.45-1.45,1.45c-0.4,0-0.72,0.32-0.72,0.72v2.64c0,0.5-0.15,0.99-0.43,1.41l-0.9,1.35c-0.08,0.12-0.12,0.26-0.12,0.4
		v2.17C-295.53,98.66-295.51,98.77-295.46,98.87L-295.46,98.87z M-292.64,101.08l-0.72-0.47V100c0-0.11-0.03-0.22-0.08-0.32
		l-0.01-0.02l0.81-0.81V101.08z M-286.84,99.15l-1.45,0.96v-4.1l1.45-1.09V99.15z M-285.48,90.07c-0.05,1.05-0.45,2.06-1.13,2.87
		l-2.84,2.13c-0.18,0.14-0.29,0.35-0.29,0.58v5.42l-1.45,0.96V97.1c0-0.4-0.32-0.72-0.72-0.72c-0.19,0-0.38,0.08-0.51,0.21
		l-1.66,1.66v-1.65l0.78-1.17c0.44-0.65,0.67-1.42,0.67-2.21v-2c1.28-0.33,2.17-1.49,2.17-2.81v-1.45c0-0.4-0.32-0.72-0.72-0.72
		c-0.66,0-1.28-0.33-1.65-0.88c-0.3-0.45-0.72-0.81-1.21-1.03l1.11-1.11l-0.02,0.05l2.52,1.26c1.31,0.65,2.74,0.99,4.2,0.99h0.31
		l0.37,2.75C-285.48,88.85-285.45,89.46-285.48,90.07L-285.48,90.07z M-290.46,78.25v2.36c0,0.3-0.24,0.54-0.54,0.54h-0.91v-1.29
		c0-1.77,0.7-3.46,1.95-4.7c0.34-0.34,0.79-0.53,1.27-0.53h1.57c0.46,0,0.89,0.18,1.21,0.5l1.46,1.46c0.14,0.14,0.32,0.21,0.51,0.21
		h1.45v1.09c0,0.6-0.49,1.09-1.09,1.09h-1.81c-0.4,0-0.72,0.32-0.72,0.72v4.35h-0.13c-1.23,0-2.45-0.29-3.55-0.84l-1.22-0.61h0.01
		c1.1,0,1.99-0.89,1.99-1.99v-2.36H-290.46z M-270.89,79.43c0.01,5.72-2.86,11.06-7.63,14.21l-6.87,4.55v-4.45
		c0.81-1.03,1.29-2.28,1.35-3.59c0.03-0.7,0.01-1.4-0.09-2.09l-0.54-4.05v-3.58h1.09c1.4,0,2.54-1.14,2.54-2.54v-1.81
		c0-0.4-0.32-0.72-0.72-0.72h-1.87l-1.25-1.25c-0.59-0.6-1.4-0.93-2.24-0.93h-1.57c-0.86,0-1.69,0.34-2.3,0.95
		c-1.52,1.52-2.38,3.58-2.37,5.73v1.72l-2.48,2.47h-0.58l-0.59-2.35c-0.1-0.39-0.49-0.62-0.88-0.53c-0.15,0.04-0.28,0.12-0.38,0.23
		l-1.03,1.21c-0.8,0.93-1.26,2.1-1.31,3.32c0,0.06,0,0.13,0,0.19v2.05l-3.56,5.34c-4.59-3.18-7.32-8.41-7.32-13.99v-2.1
		c0-2.16,0.62-4.28,1.78-6.11c1.85-2.91,5.05-4.66,8.5-4.66h0.27c3.17,0.01,6.15,1.5,8.06,4.03l1.11,1.48
		c0.24,0.32,0.69,0.39,1.01,0.14c0.05-0.04,0.1-0.09,0.14-0.14l1.11-1.48c3.34-4.45,9.65-5.35,14.1-2.01
		c1.08,0.81,1.98,1.82,2.66,2.98c1.21,2.08,1.85,4.44,1.85,6.85V79.43z"/>
</g>
</svg>
