<?xml version="1.0" encoding="utf-8"?>
<!-- Generator: Adobe Illustrator 24.0.0, SVG Export Plug-In . SVG Version: 6.00 Build 0)  -->
<svg version="1.1" id="Layer_1" xmlns="http://www.w3.org/2000/svg" xmlns:xlink="http://www.w3.org/1999/xlink" x="0px" y="0px"
	 viewBox="0 0 50 43" style="enable-background:new 0 0 50 43;" xml:space="preserve">
<style type="text/css">
	.st0{fill:#FFED00;}
</style>
<g>
	<g>
		<g>
			<g>
				<path class="st0" d="M36.87,15.61H9.55c-1.61,0-2.93,1.31-2.93,2.93v1.95c0,6.96,3.85,13.28,10.04,16.48
					c0.48,0.25,1.07,0.06,1.32-0.42c0.25-0.48,0.06-1.07-0.42-1.32c-5.54-2.86-8.98-8.51-8.98-14.75v-1.95
					c0-0.54,0.44-0.98,0.98-0.98h27.32c0.54,0,0.98,0.44,0.98,0.98v1.95c0,6.23-3.44,11.88-8.98,14.74
					c-0.48,0.25-0.67,0.84-0.42,1.32c0.17,0.34,0.52,0.53,0.87,0.53c0.15,0,0.3-0.04,0.45-0.11c6.19-3.2,10.04-9.51,10.04-16.48
					v-1.95C39.8,16.92,38.49,15.61,36.87,15.61z"/>
			</g>
		</g>
		<g>
			<g>
				<path class="st0" d="M45.58,35.73c-0.15-0.36-0.51-0.6-0.9-0.6H1.75c-0.39,0-0.75,0.24-0.9,0.6c-0.15,0.36-0.07,0.78,0.21,1.06
					l2.19,2.19c1.29,1.29,3.01,2,4.83,2h30.28c1.82,0,3.54-0.71,4.83-2l2.19-2.19C45.65,36.51,45.74,36.09,45.58,35.73z M41.8,37.6
					c-0.92,0.92-2.15,1.43-3.45,1.43H8.07c-1.3,0-2.53-0.51-3.45-1.43L4.1,37.08h38.23L41.8,37.6z"/>
			</g>
		</g>
		<g>
			<g>
				<path class="st0" d="M45.72,20.22c-2.63-1.69-6.83,0.14-7.3,0.36c-0.49,0.22-0.71,0.8-0.48,1.29c0.22,0.49,0.8,0.71,1.29,0.48
					c0.94-0.43,3.96-1.44,5.43-0.49c0.67,0.43,0.99,1.26,0.99,2.53c0,3.91-7.88,6.27-10.92,6.85l-0.69,0.14
					c-0.53,0.1-0.87,0.62-0.77,1.15c0.09,0.46,0.5,0.79,0.96,0.79c0.06,0,0.12-0.01,0.19-0.02l0.69-0.13
					c0.51-0.1,12.5-2.45,12.5-8.76C47.61,22.43,46.97,21.03,45.72,20.22z"/>
			</g>
		</g>
		<g>
			<g>
				<path class="st0" d="M30.81,7.44c1.59-1.98,1.59-5.09,0-7.07c-0.34-0.42-0.95-0.49-1.37-0.15c-0.42,0.34-0.49,0.95-0.15,1.37
					c1.01,1.25,1.01,3.38,0,4.64c-1.59,1.98-1.59,5.09,0,7.07c0.19,0.24,0.48,0.37,0.76,0.37c0.21,0,0.43-0.07,0.61-0.21
					c0.42-0.34,0.49-0.95,0.15-1.37C29.8,10.82,29.8,8.7,30.81,7.44z"/>
			</g>
		</g>
		<g>
			<g>
				<path class="st0" d="M24.95,7.44c1.59-1.98,1.59-5.09,0-7.07C24.61-0.05,24-0.12,23.58,0.22c-0.42,0.34-0.49,0.95-0.15,1.37
					c1.01,1.25,1.01,3.38,0,4.64c-1.59,1.98-1.59,5.09,0,7.07c0.19,0.24,0.48,0.37,0.76,0.37c0.21,0,0.43-0.07,0.61-0.21
					c0.42-0.34,0.49-0.95,0.15-1.37C23.94,10.82,23.94,8.7,24.95,7.44z"/>
			</g>
		</g>
		<g>
			<g>
				<path class="st0" d="M19.1,7.44c1.59-1.98,1.59-5.09,0-7.07c-0.34-0.42-0.95-0.49-1.37-0.15c-0.42,0.34-0.49,0.95-0.15,1.37
					c1.01,1.25,1.01,3.38,0,4.64c-1.59,1.98-1.59,5.09,0,7.07c0.19,0.24,0.48,0.37,0.76,0.37c0.21,0,0.43-0.07,0.61-0.21
					c0.42-0.34,0.49-0.95,0.15-1.37C18.09,10.82,18.09,8.7,19.1,7.44z"/>
			</g>
		</g>
	</g>
	<g>
		<g>
			<g>
				<path d="M39.06,17.13H11.74c-1.61,0-2.93,1.31-2.93,2.93v1.95c0,6.96,3.85,13.28,10.04,16.48c0.48,0.25,1.07,0.06,1.32-0.42
					c0.25-0.48,0.06-1.07-0.42-1.32c-5.54-2.86-8.98-8.51-8.98-14.75v-1.95c0-0.54,0.44-0.98,0.98-0.98h27.32
					c0.54,0,0.98,0.44,0.98,0.98v1.95c0,6.23-3.44,11.88-8.98,14.74c-0.48,0.25-0.67,0.84-0.42,1.32c0.17,0.34,0.52,0.53,0.87,0.53
					c0.15,0,0.3-0.04,0.45-0.11c6.19-3.2,10.04-9.51,10.04-16.48v-1.95C41.99,18.44,40.68,17.13,39.06,17.13z"/>
			</g>
		</g>
		<g>
			<g>
				<path d="M47.77,37.25c-0.15-0.36-0.51-0.6-0.9-0.6H3.94c-0.39,0-0.75,0.24-0.9,0.6s-0.07,0.78,0.21,1.06l2.19,2.19
					c1.29,1.29,3.01,2,4.83,2h30.28c1.82,0,3.54-0.71,4.83-2l2.19-2.19C47.84,38.03,47.93,37.61,47.77,37.25z M43.99,39.12
					c-0.92,0.92-2.15,1.43-3.45,1.43H10.26c-1.3,0-2.53-0.51-3.45-1.43L6.29,38.6h38.23L43.99,39.12z"/>
			</g>
		</g>
		<g>
			<g>
				<path d="M47.91,21.74c-2.63-1.69-6.83,0.14-7.3,0.36c-0.49,0.22-0.71,0.8-0.48,1.29c0.22,0.49,0.8,0.71,1.29,0.48
					c0.94-0.43,3.96-1.44,5.43-0.49c0.67,0.43,0.99,1.26,0.99,2.53c0,3.91-7.88,6.27-10.92,6.85l-0.69,0.14
					c-0.53,0.1-0.87,0.62-0.77,1.15c0.09,0.46,0.5,0.79,0.96,0.79c0.06,0,0.12-0.01,0.19-0.02l0.69-0.13
					c0.51-0.1,12.5-2.45,12.5-8.76C49.8,23.95,49.16,22.54,47.91,21.74z"/>
			</g>
		</g>
		<g>
			<g>
				<path d="M33,8.96c1.59-1.98,1.59-5.09,0-7.07c-0.34-0.42-0.95-0.49-1.37-0.15c-0.42,0.34-0.49,0.95-0.15,1.37
					c1.01,1.25,1.01,3.38,0,4.64c-1.59,1.98-1.59,5.09,0,7.07c0.19,0.24,0.48,0.37,0.76,0.37c0.21,0,0.43-0.07,0.61-0.21
					c0.42-0.34,0.49-0.95,0.15-1.37C31.99,12.34,31.99,10.21,33,8.96z"/>
			</g>
		</g>
		<g>
			<g>
				<path d="M27.14,8.96c1.59-1.98,1.59-5.09,0-7.07c-0.34-0.42-0.95-0.49-1.37-0.15c-0.42,0.34-0.49,0.95-0.15,1.37
					c1.01,1.25,1.01,3.38,0,4.64c-1.59,1.98-1.59,5.09,0,7.07c0.19,0.24,0.48,0.37,0.76,0.37c0.21,0,0.43-0.07,0.61-0.21
					c0.42-0.34,0.49-0.95,0.15-1.37C26.13,12.34,26.13,10.21,27.14,8.96z"/>
			</g>
		</g>
		<g>
			<g>
				<path d="M21.29,8.96c1.59-1.98,1.59-5.09,0-7.07c-0.34-0.42-0.95-0.49-1.37-0.15c-0.42,0.34-0.49,0.95-0.15,1.37
					c1.01,1.25,1.01,3.38,0,4.64c-1.59,1.98-1.59,5.09,0,7.07c0.19,0.24,0.48,0.37,0.76,0.37c0.21,0,0.43-0.07,0.61-0.21
					c0.42-0.34,0.49-0.95,0.15-1.37C20.28,12.34,20.28,10.22,21.29,8.96z"/>
			</g>
		</g>
	</g>
</g>
</svg>
