<?xml version="1.0" encoding="utf-8"?>
<!-- Generator: Adobe Illustrator 24.0.0, SVG Export Plug-In . SVG Version: 6.00 Build 0)  -->
<svg version="1.1" id="Layer_1" xmlns="http://www.w3.org/2000/svg" xmlns:xlink="http://www.w3.org/1999/xlink" x="0px" y="0px"
	 viewBox="0 0 50 32" style="enable-background:new 0 0 50 32;" xml:space="preserve">
<style type="text/css">
	.st0{fill:#FFED00;}
</style>
<g>
	<text transform="matrix(1 0 0 1 294.5718 126.9785)"><tspan x="0" y="0" style="font-family:'Montserrat-Medium'; font-size:13.7445px;">Café e </tspan><tspan x="-18.29" y="16.49" style="font-family:'Montserrat-Medium'; font-size:13.7445px;">hidratación </tspan></text>
</g>
<g>
	<text transform="matrix(1 0 0 1 84.6162 127.4189)" style="font-family:'Montserrat-Medium'; font-size:13.7445px;">Café bar</text>
</g>
<g>
	<path class="st0" d="M46.29,23.12H46.1c0.5-0.69,0.73-1.48,0.65-2.29c-0.19-1.83-1.98-3.66-3.6-4.97c0-0.01,0.01-0.02,0.01-0.03
		c0.21-0.52,0.1-1.11-0.29-1.51c-0.02-0.03-0.05-0.05-0.08-0.08c-1.68-2.12-5.39-3.18-5.66-3.27c-0.04-0.49-0.35-0.94-0.81-1.15
		c-1-0.47-3.19-1.26-6.62-1.26c-1.15,0-2.16,0.09-3.04,0.23V6.56c0-1.84-1.5-3.34-3.34-3.34h-3.26V0.7c0-0.39-0.32-0.7-0.7-0.7H11.1
		H9.35H3C2.61,0,2.3,0.32,2.3,0.7v19.18c0,0.9,0.65,1.65,1.5,1.8v1.44H2.39c-1.17,0-2.11,0.95-2.11,2.11c0,1.17,0.95,2.11,2.11,2.11
		h0.66v0.23c0,1.32,1.08,2.4,2.4,2.4h37.79c1.32,0,2.4-1.08,2.4-2.4v-0.23h0.66c1.17,0,2.11-0.95,2.11-2.11
		C48.4,24.07,47.46,23.12,46.29,23.12z M45.34,20.98c0.08,0.78-0.39,1.56-1.29,2.15H39.2c1.4-1.86,2.59-4.21,3.36-5.91
		C44.23,18.61,45.23,19.96,45.34,20.98z M36.99,12.41c0.45,0.16,0.97,0.38,1.53,0.61c0.62,0.26,2.32,1.37,2.43,1.46
		c0.28,0.22,0.53,0.45,0.77,0.69c0.04,0.05,0.07,0.1,0.11,0.14c-0.06,0.14-0.12,0.3-0.2,0.49c-0.64,1.51-2.32,5.16-4.26,7.32h-2.32
		c0.34-0.83,0.72-2.26,1.14-4.8C36.55,16.18,36.83,13.93,36.99,12.41z M29.7,9.96c3.27,0.01,5.3,0.79,6.02,1.13l-0.03,0.31
		c-0.15,1.39-0.45,4.09-0.87,6.64c-0.7,4.19-1.24,4.96-1.34,5.08h-7.53c-0.11-0.12-0.65-0.9-1.34-5.08
		c-0.42-2.54-0.73-5.25-0.88-6.64l-0.01-0.05c0,0,0,0,0,0l-0.03-0.25C24.4,10.76,26.43,9.97,29.7,9.96z M20.08,4.64h3.24
		c1.06,0,1.93,0.86,1.93,1.93v2.5C24.7,9.2,24.23,9.36,23.84,9.5V6.94c0-0.49-0.4-0.89-0.89-0.89h-2.87V4.64z M20.06,7.46h2.37v2.98
		c-0.05,0.1-0.09,0.2-0.12,0.31h-2.25V7.46z M19.68,13.65c0.02-0.01,0.05-0.03,0.07-0.04c0,0,0.01,0,0.01-0.01
		c0.93-0.54,1.87-0.92,2.64-1.19c0.17,1.52,0.44,3.77,0.8,5.91c0.43,2.54,0.8,3.97,1.14,4.8h-2.32c-1.95-2.16-3.62-5.81-4.26-7.31
		c-0.08-0.2-0.16-0.37-0.21-0.52C18.19,14.63,18.93,14.09,19.68,13.65z M20.2,23.12h-4.89c-0.85-0.57-1.3-1.31-1.26-2.08
		c0-0.02,0-0.04,0.01-0.07c0.11-1.01,1.11-2.36,2.78-3.77C17.61,18.91,18.79,21.27,20.2,23.12z M3.71,19.88V1.41h5.64h1.75h7.56
		v11.22c-0.75,0.47-1.48,1.02-2.12,1.69c-0.39,0.4-0.5,1-0.29,1.51c0,0.01,0.01,0.02,0.01,0.03c-1.47,1.18-3.07,2.79-3.51,4.44H4.13
		C3.9,20.3,3.71,20.11,3.71,19.88z M13.29,23.12H5.21v-1.41h7.47C12.77,22.21,12.98,22.69,13.29,23.12z M46.29,25.94H9.31
		c-0.39,0-0.7,0.32-0.7,0.7c0,0.39,0.32,0.7,0.7,0.7h34.91v0.23c0,0.54-0.44,0.99-0.99,0.99H5.45c-0.54,0-0.99-0.44-0.99-0.99v-0.23
		h13.51c0.39,0,0.7-0.32,0.7-0.7c0-0.39-0.32-0.7-0.7-0.7H2.39c-0.39,0-0.7-0.32-0.7-0.7s0.32-0.7,0.7-0.7h43.9
		c0.39,0,0.7,0.32,0.7,0.7S46.68,25.94,46.29,25.94z"/>
	<path d="M47.89,24.23h-0.19c0.5-0.69,0.73-1.48,0.65-2.29c-0.19-1.83-1.98-3.66-3.6-4.97c0-0.01,0.01-0.02,0.01-0.03
		c0.21-0.52,0.1-1.11-0.29-1.51c-0.02-0.03-0.05-0.05-0.08-0.08c-1.68-2.12-5.39-3.18-5.66-3.27c-0.04-0.49-0.35-0.94-0.81-1.15
		c-1-0.47-3.19-1.26-6.62-1.26c-1.15,0-2.16,0.09-3.04,0.23V7.67c0-1.84-1.5-3.34-3.34-3.34h-3.26V1.81c0-0.39-0.32-0.7-0.7-0.7
		h-8.26h-1.75H4.6c-0.39,0-0.7,0.32-0.7,0.7v19.18c0,0.9,0.65,1.65,1.5,1.8v1.44H3.99c-1.17,0-2.11,0.95-2.11,2.11
		c0,1.17,0.95,2.11,2.11,2.11h0.66v0.23c0,1.32,1.08,2.4,2.4,2.4h37.79c1.32,0,2.4-1.08,2.4-2.4v-0.23h0.66
		c1.17,0,2.11-0.95,2.11-2.11C50,25.18,49.05,24.23,47.89,24.23z M46.94,22.08c0.08,0.78-0.39,1.56-1.29,2.15h-4.85
		c1.4-1.86,2.59-4.21,3.36-5.91C45.83,19.72,46.83,21.07,46.94,22.08z M38.59,13.52c0.45,0.16,0.97,0.38,1.53,0.61
		c0.62,0.26,2.32,1.37,2.43,1.46c0.28,0.22,0.53,0.45,0.77,0.69c0.04,0.05,0.07,0.1,0.11,0.14c-0.06,0.14-0.12,0.3-0.2,0.49
		c-0.64,1.51-2.32,5.16-4.26,7.32h-2.32c0.34-0.83,0.72-2.26,1.14-4.8C38.15,17.29,38.42,15.04,38.59,13.52z M31.29,11.07
		c3.27,0.01,5.3,0.79,6.02,1.13l-0.03,0.31c-0.15,1.39-0.45,4.09-0.87,6.64c-0.7,4.19-1.24,4.96-1.34,5.08h-7.53
		c-0.11-0.12-0.65-0.9-1.34-5.08c-0.42-2.54-0.73-5.25-0.88-6.64l-0.01-0.05c0,0,0,0,0,0l-0.03-0.25
		C26,11.86,28.02,11.08,31.29,11.07z M21.68,5.74h3.24c1.06,0,1.93,0.86,1.93,1.93v2.5c-0.55,0.14-1.02,0.29-1.41,0.43V8.05
		c0-0.49-0.4-0.89-0.89-0.89h-2.87V5.74z M21.66,8.56h2.37v2.98c-0.05,0.1-0.09,0.2-0.12,0.31h-2.25V8.56z M21.28,14.75
		c0.02-0.01,0.05-0.03,0.07-0.04c0,0,0.01,0,0.01-0.01c0.93-0.54,1.87-0.92,2.64-1.19c0.17,1.52,0.44,3.77,0.8,5.91
		c0.43,2.54,0.8,3.97,1.14,4.8h-2.32c-1.95-2.16-3.62-5.81-4.26-7.31c-0.08-0.2-0.16-0.37-0.21-0.52
		C19.78,15.74,20.53,15.2,21.28,14.75z M21.8,24.23h-4.89c-0.85-0.57-1.3-1.31-1.26-2.08c0-0.02,0-0.04,0.01-0.07
		c0.11-1.01,1.11-2.36,2.78-3.77C19.2,20.02,20.39,22.37,21.8,24.23z M5.31,20.99V2.52h5.64h1.75h7.56v11.22
		c-0.75,0.47-1.48,1.02-2.12,1.69c-0.39,0.4-0.5,1-0.29,1.51c0,0.01,0.01,0.02,0.01,0.03c-1.47,1.18-3.07,2.79-3.51,4.44H5.73
		C5.49,21.41,5.31,21.22,5.31,20.99z M14.89,24.23H6.81v-1.41h7.47C14.37,23.32,14.58,23.79,14.89,24.23z M47.89,27.05H10.91
		c-0.39,0-0.7,0.32-0.7,0.7c0,0.39,0.32,0.7,0.7,0.7h34.91v0.23c0,0.54-0.44,0.99-0.99,0.99H7.04c-0.54,0-0.99-0.44-0.99-0.99v-0.23
		h13.51c0.39,0,0.7-0.32,0.7-0.7c0-0.39-0.32-0.7-0.7-0.7H3.99c-0.39,0-0.7-0.32-0.7-0.7c0-0.39,0.32-0.7,0.7-0.7h43.9
		c0.39,0,0.7,0.32,0.7,0.7C48.59,26.73,48.27,27.05,47.89,27.05z"/>
</g>
<g>
	<g>
		<g>
			<g>
				<path class="st0" d="M327.39,81.46h-25.44c-1.5,0-2.73,1.22-2.73,2.73v1.82c0,6.48,3.58,12.36,9.35,15.35
					c0.45,0.23,0.99,0.06,1.22-0.39c0.23-0.45,0.06-0.99-0.39-1.22c-5.16-2.67-8.36-7.93-8.36-13.73v-1.82
					c0-0.5,0.41-0.91,0.91-0.91h25.44c0.5,0,0.91,0.41,0.91,0.91v1.82c0,5.8-3.21,11.06-8.36,13.73c-0.45,0.23-0.62,0.78-0.39,1.22
					c0.16,0.31,0.48,0.49,0.81,0.49c0.14,0,0.28-0.03,0.42-0.1c5.77-2.98,9.35-8.86,9.35-15.34v-1.82
					C330.11,82.69,328.89,81.46,327.39,81.46z"/>
			</g>
		</g>
		<g>
			<g>
				<path class="st0" d="M335.5,100.19c-0.14-0.34-0.47-0.56-0.84-0.56h-39.98c-0.37,0-0.7,0.22-0.84,0.56
					c-0.14,0.34-0.06,0.73,0.2,0.99l2.04,2.04c1.2,1.2,2.8,1.86,4.5,1.86h28.19c1.7,0,3.3-0.66,4.5-1.86l2.04-2.04
					C335.56,100.93,335.64,100.53,335.5,100.19z M331.98,101.94c-0.86,0.86-2,1.33-3.21,1.33h-28.19c-1.21,0-2.35-0.47-3.21-1.33
					l-0.49-0.49h35.59L331.98,101.94z"/>
			</g>
		</g>
		<g>
			<g>
				<path class="st0" d="M335.62,85.75c-2.45-1.57-6.36,0.13-6.8,0.33c-0.46,0.21-0.66,0.75-0.45,1.2c0.21,0.46,0.75,0.66,1.2,0.45
					c0.88-0.4,3.69-1.34,5.06-0.46c0.62,0.4,0.92,1.17,0.92,2.35c0,3.64-7.34,5.84-10.17,6.38l-0.64,0.13
					c-0.49,0.1-0.81,0.57-0.72,1.07c0.09,0.43,0.47,0.73,0.89,0.73c0.06,0,0.12-0.01,0.18-0.02l0.64-0.13
					c0.48-0.09,11.64-2.28,11.64-8.16C337.38,87.81,336.79,86.51,335.62,85.75z"/>
			</g>
		</g>
		<g>
			<g>
				<path class="st0" d="M321.74,73.85c1.48-1.85,1.48-4.74,0-6.58c-0.31-0.39-0.88-0.46-1.28-0.14c-0.39,0.31-0.46,0.88-0.14,1.28
					c0.94,1.17,0.94,3.14,0,4.32c-1.48,1.85-1.48,4.74,0,6.58c0.18,0.23,0.44,0.34,0.71,0.34c0.2,0,0.4-0.07,0.57-0.2
					c0.39-0.31,0.46-0.89,0.14-1.28C320.8,77,320.8,75.03,321.74,73.85z"/>
			</g>
		</g>
		<g>
			<g>
				<path class="st0" d="M316.28,73.85c1.48-1.85,1.48-4.74,0-6.58c-0.31-0.39-0.88-0.46-1.28-0.14s-0.46,0.89-0.14,1.28
					c0.94,1.17,0.94,3.14,0,4.32c-1.48,1.85-1.48,4.74,0,6.58c0.18,0.23,0.44,0.34,0.71,0.34c0.2,0,0.4-0.07,0.57-0.2
					c0.39-0.31,0.46-0.88,0.14-1.28C315.34,77,315.34,75.03,316.28,73.85z"/>
			</g>
		</g>
		<g>
			<g>
				<path class="st0" d="M310.84,73.86c1.48-1.85,1.48-4.74,0-6.58c-0.31-0.39-0.88-0.46-1.28-0.14c-0.39,0.31-0.45,0.88-0.14,1.28
					c0.94,1.17,0.94,3.14,0,4.32c-1.48,1.85-1.48,4.74,0,6.58c0.18,0.23,0.44,0.34,0.71,0.34c0.2,0,0.4-0.07,0.57-0.2
					c0.39-0.31,0.46-0.89,0.14-1.28C309.9,77,309.9,75.03,310.84,73.86z"/>
			</g>
		</g>
	</g>
	<g>
		<g>
			<g>
				<path d="M329.43,82.88h-25.44c-1.5,0-2.73,1.22-2.73,2.73v1.82c0,6.48,3.58,12.36,9.35,15.35c0.45,0.23,0.99,0.06,1.22-0.39
					c0.23-0.45,0.06-0.99-0.39-1.22c-5.16-2.67-8.36-7.93-8.36-13.73V85.6c0-0.5,0.41-0.91,0.91-0.91h25.44
					c0.5,0,0.91,0.41,0.91,0.91v1.82c0,5.8-3.21,11.06-8.36,13.73c-0.45,0.23-0.62,0.78-0.39,1.22c0.16,0.31,0.48,0.49,0.81,0.49
					c0.14,0,0.28-0.03,0.42-0.1c5.77-2.98,9.35-8.86,9.35-15.34V85.6C332.15,84.1,330.93,82.88,329.43,82.88z"/>
			</g>
		</g>
		<g>
			<g>
				<path d="M337.54,101.61c-0.14-0.34-0.47-0.56-0.84-0.56h-39.98c-0.37,0-0.7,0.22-0.84,0.56c-0.14,0.34-0.06,0.73,0.2,0.99
					l2.04,2.04c1.2,1.2,2.8,1.86,4.5,1.86h28.19c1.7,0,3.3-0.66,4.5-1.86l2.04-2.04C337.6,102.34,337.68,101.95,337.54,101.61z
					 M334.02,103.35c-0.86,0.86-2,1.33-3.21,1.33h-28.19c-1.21,0-2.35-0.47-3.21-1.33l-0.49-0.49h35.59L334.02,103.35z"/>
			</g>
		</g>
		<g>
			<g>
				<path d="M337.66,87.17c-2.45-1.57-6.36,0.13-6.8,0.33c-0.46,0.21-0.66,0.75-0.45,1.2c0.21,0.46,0.75,0.66,1.2,0.45
					c0.88-0.4,3.69-1.34,5.06-0.46c0.62,0.4,0.92,1.17,0.92,2.35c0,3.64-7.34,5.84-10.17,6.38l-0.64,0.13
					c-0.49,0.1-0.81,0.57-0.72,1.07c0.09,0.43,0.47,0.73,0.89,0.73c0.06,0,0.12-0.01,0.18-0.02l0.64-0.13
					c0.48-0.09,11.64-2.28,11.64-8.16C339.42,89.23,338.83,87.92,337.66,87.17z"/>
			</g>
		</g>
		<g>
			<g>
				<path d="M323.78,75.27c1.48-1.85,1.48-4.74,0-6.58c-0.31-0.39-0.88-0.46-1.28-0.14c-0.39,0.31-0.46,0.88-0.14,1.28
					c0.94,1.17,0.94,3.14,0,4.32c-1.48,1.85-1.48,4.74,0,6.58c0.18,0.23,0.44,0.34,0.71,0.34c0.2,0,0.4-0.07,0.57-0.2
					c0.39-0.31,0.46-0.89,0.14-1.28C322.84,78.41,322.84,76.44,323.78,75.27z"/>
			</g>
		</g>
		<g>
			<g>
				<path d="M318.32,75.27c1.48-1.85,1.48-4.74,0-6.58c-0.31-0.39-0.88-0.46-1.28-0.14c-0.39,0.31-0.46,0.89-0.14,1.28
					c0.94,1.17,0.94,3.14,0,4.32c-1.48,1.85-1.48,4.74,0,6.58c0.18,0.23,0.44,0.34,0.71,0.34c0.2,0,0.4-0.07,0.57-0.2
					c0.39-0.31,0.46-0.88,0.14-1.28C317.38,78.41,317.38,76.44,318.32,75.27z"/>
			</g>
		</g>
		<g>
			<g>
				<path d="M312.88,75.27c1.48-1.85,1.48-4.74,0-6.58c-0.31-0.39-0.88-0.46-1.28-0.14c-0.39,0.31-0.45,0.88-0.14,1.28
					c0.94,1.17,0.94,3.14,0,4.32c-1.48,1.85-1.48,4.74,0,6.58c0.18,0.23,0.44,0.34,0.71,0.34c0.2,0,0.4-0.07,0.57-0.2
					c0.39-0.31,0.46-0.89,0.14-1.28C311.94,78.41,311.94,76.44,312.88,75.27z"/>
			</g>
		</g>
	</g>
</g>
</svg>
