<?xml version="1.0" encoding="utf-8"?>
<!-- Generator: Adobe Illustrator 24.0.0, SVG Export Plug-In . SVG Version: 6.00 Build 0)  -->
<svg version="1.1" id="Layer_1" xmlns="http://www.w3.org/2000/svg" xmlns:xlink="http://www.w3.org/1999/xlink" x="0px" y="0px"
	 viewBox="0 0 41.28 41.28" style="enable-background:new 0 0 41.28 41.28;" xml:space="preserve">
<style type="text/css">
	.st0{fill:#FFED00;}
</style>
<g>
	<text transform="matrix(1 0 0 1 -338.0498 267.4473)"><tspan x="0" y="0" style="font-family:'Montserrat-Medium'; font-size:13.7445px;">Salas de </tspan><tspan x="-4.53" y="16.49" style="font-family:'Montserrat-Medium'; font-size:13.7445px;">reuniones</tspan></text>
</g>
<g>
	<text transform="matrix(1 0 0 1 -337.4844 400.8359)" style="font-family:'Montserrat-Medium'; font-size:13.7445px;">Pet friendly</text>
</g>
<g>
	<text transform="matrix(1 0 0 1 -132.0483 267.4473)"><tspan x="0" y="0" style="font-family:'Montserrat-Medium'; font-size:13.7445px;">Sala de </tspan><tspan x="-1.07" y="16.49" style="font-family:'Montserrat-Medium'; font-size:13.7445px;">chill out</tspan></text>
</g>
<g>
	<text transform="matrix(1 0 0 1 288.5718 400.9785)"><tspan x="0" y="0" style="font-family:'Montserrat-Medium'; font-size:13.7445px;">Café e </tspan><tspan x="-18.29" y="16.49" style="font-family:'Montserrat-Medium'; font-size:13.7445px;">hidratación </tspan></text>
</g>
<g>
	<text transform="matrix(1 0 0 1 240.9209 267.709)"><tspan x="0" y="0" style="font-family:'Montserrat-Medium'; font-size:13.7445px;">Estacionamiento </tspan><tspan x="34.49" y="16.49" style="font-family:'Montserrat-Medium'; font-size:13.7445px;">de bicis</tspan></text>
</g>
<g>
	<text transform="matrix(1 0 0 1 -121.9683 400.9961)" style="font-family:'Montserrat-Medium'; font-size:13.7445px;">Lockers</text>
</g>
<g>
	<text transform="matrix(1 0 0 1 78.6162 401.4189)" style="font-family:'Montserrat-Medium'; font-size:13.7445px;">Café bar</text>
</g>
<g>
	<path class="st0" d="M318.62,216.79c-1.99,0-3.89,0.4-5.62,1.13l-4.14-8.03h5.78c0.63,0,1.14,0.51,1.14,1.14
		c0,0.63-0.51,1.14-1.14,1.14h-1.23c-0.65,0-1.18,0.53-1.18,1.18c0,0.65,0.53,1.18,1.18,1.18h1.23c1.92,0,3.49-1.56,3.49-3.49
		c0-1.92-1.56-3.49-3.49-3.49h-7.71c-0.41,0-0.79,0.21-1,0.56c-0.21,0.35-0.23,0.79-0.04,1.15l2.06,3.99h-16.96l-1.71-3.35h2.71
		c0.65,0,1.18-0.53,1.18-1.18s-0.53-1.18-1.18-1.18h-7.71c-0.65,0-1.18,0.53-1.18,1.18s0.53,1.18,1.18,1.18h2.36l2.28,4.48
		l-2.68,4.16c-2.05-1.11-4.4-1.74-6.9-1.74c-8.04,0-14.59,6.54-14.59,14.59s6.54,14.59,14.59,14.59c7.65,0,13.94-5.92,14.54-13.41
		h3.45l-1.34,4.36h-0.77c-0.65,0-1.18,0.53-1.18,1.18s0.53,1.18,1.18,1.18h4.23c0.65,0,1.18-0.53,1.18-1.18s-0.53-1.18-1.18-1.18h-1
		l1.55-5.03l9.78-15.1l1.14,2.21c-4.13,2.58-6.88,7.17-6.88,12.38c0,8.04,6.54,14.59,14.59,14.59c8.04,0,14.59-6.54,14.59-14.59
		C333.21,223.33,326.66,216.79,318.62,216.79z M290.16,216.79L297,230.2h-3.12c-0.34-4.23-2.49-7.95-5.67-10.4L290.16,216.79z
		 M291.52,230.2H281.5l5.43-8.42C289.47,223.8,291.2,226.8,291.52,230.2z M279.34,243.62c-6.75,0-12.24-5.49-12.24-12.24
		c0-6.75,5.49-12.24,12.24-12.24c2.02,0,3.93,0.5,5.62,1.37l-6.6,10.23c-0.23,0.36-0.25,0.82-0.04,1.2c0.21,0.38,0.6,0.61,1.03,0.61
		h12.18C290.93,238.75,285.69,243.62,279.34,243.62z M299.04,229.03l-6.86-13.44h15.56L299.04,229.03z M318.62,243.62
		c-6.75,0-12.24-5.49-12.24-12.24c0-4.31,2.24-8.1,5.62-10.28l5.58,10.82c0.21,0.4,0.62,0.64,1.05,0.64c0.18,0,0.37-0.04,0.54-0.13
		c0.58-0.3,0.8-1.01,0.51-1.58l-5.58-10.83c1.4-0.56,2.93-0.87,4.53-0.87c6.75,0,12.24,5.49,12.24,12.24
		C330.86,238.13,325.37,243.62,318.62,243.62z"/>
	<path d="M320.66,218.2c-1.99,0-3.89,0.4-5.62,1.13l-4.14-8.03h5.78c0.63,0,1.14,0.51,1.14,1.14c0,0.63-0.51,1.14-1.14,1.14h-1.23
		c-0.65,0-1.18,0.53-1.18,1.18c0,0.65,0.53,1.18,1.18,1.18h1.23c1.92,0,3.49-1.56,3.49-3.49c0-1.92-1.56-3.49-3.49-3.49h-7.71
		c-0.41,0-0.79,0.21-1,0.56c-0.21,0.35-0.23,0.79-0.04,1.15l2.06,3.99h-16.96l-1.71-3.35h2.71c0.65,0,1.18-0.53,1.18-1.18
		s-0.53-1.18-1.18-1.18h-7.71c-0.65,0-1.18,0.53-1.18,1.18s0.53,1.18,1.18,1.18h2.36l2.28,4.48l-2.68,4.16
		c-2.05-1.11-4.4-1.74-6.9-1.74c-8.04,0-14.59,6.54-14.59,14.59s6.54,14.59,14.59,14.59c7.65,0,13.94-5.92,14.54-13.41h3.45
		l-1.34,4.36h-0.77c-0.65,0-1.18,0.53-1.18,1.18s0.53,1.18,1.18,1.18h4.23c0.65,0,1.18-0.53,1.18-1.18s-0.53-1.18-1.18-1.18h-1
		l1.55-5.03l9.78-15.1l1.14,2.21c-4.13,2.58-6.88,7.17-6.88,12.38c0,8.04,6.54,14.59,14.59,14.59c8.04,0,14.59-6.54,14.59-14.59
		C335.25,224.75,328.7,218.2,320.66,218.2z M292.2,218.2l6.84,13.42h-3.12c-0.34-4.23-2.49-7.95-5.67-10.4L292.2,218.2z
		 M293.56,231.62h-10.02l5.43-8.42C291.51,225.22,293.23,228.21,293.56,231.62z M281.38,245.03c-6.75,0-12.24-5.49-12.24-12.24
		c0-6.75,5.49-12.24,12.24-12.24c2.02,0,3.93,0.5,5.62,1.37l-6.6,10.23c-0.23,0.36-0.25,0.82-0.04,1.2c0.21,0.38,0.6,0.61,1.03,0.61
		h12.18C292.97,240.17,287.73,245.03,281.38,245.03z M301.08,230.44l-6.86-13.44h15.56L301.08,230.44z M320.66,245.03
		c-6.75,0-12.24-5.49-12.24-12.24c0-4.31,2.24-8.1,5.62-10.28l5.58,10.82c0.21,0.4,0.62,0.64,1.05,0.64c0.18,0,0.37-0.04,0.54-0.13
		c0.58-0.3,0.8-1.01,0.51-1.58l-5.58-10.83c1.4-0.56,2.93-0.87,4.53-0.87c6.75,0,12.24,5.49,12.24,12.24
		C332.9,239.54,327.41,245.03,320.66,245.03z"/>
</g>
<g>
	<g>
		<path class="st0" d="M-106.47,344.19h-5.82c-0.34,0-0.61,0.27-0.61,0.61c0,0.34,0.27,0.61,0.61,0.61h5.82
			c0.34,0,0.61-0.27,0.61-0.61C-105.86,344.47-106.13,344.19-106.47,344.19z"/>
		<path class="st0" d="M-106.47,346.63h-5.82c-0.34,0-0.61,0.27-0.61,0.61c0,0.34,0.27,0.61,0.61,0.61h5.82
			c0.34,0,0.61-0.27,0.61-0.61C-105.86,346.9-106.13,346.63-106.47,346.63z"/>
		<path class="st0" d="M-106.47,349.07h-5.82c-0.34,0-0.61,0.27-0.61,0.61c0,0.34,0.27,0.61,0.61,0.61h5.82
			c0.34,0,0.61-0.27,0.61-0.61C-105.86,349.34-106.13,349.07-106.47,349.07z"/>
		<path class="st0" d="M-106.47,367.33h-5.82c-0.34,0-0.61,0.27-0.61,0.61c0,0.34,0.27,0.61,0.61,0.61h5.82
			c0.34,0,0.61-0.27,0.61-0.61C-105.86,367.61-106.13,367.33-106.47,367.33z"/>
		<path class="st0" d="M-106.47,369.77h-5.82c-0.34,0-0.61,0.27-0.61,0.61c0,0.34,0.27,0.61,0.61,0.61h5.82
			c0.34,0,0.61-0.27,0.61-0.61C-105.86,370.04-106.13,369.77-106.47,369.77z"/>
		<path class="st0" d="M-106.47,372.2h-5.82c-0.34,0-0.61,0.27-0.61,0.61c0,0.34,0.27,0.61,0.61,0.61h5.82
			c0.34,0,0.61-0.27,0.61-0.61C-105.86,372.48-106.13,372.2-106.47,372.2z"/>
		<path class="st0" d="M-111.07,360.64c1.01,0,1.83-0.82,1.83-1.83c0-1.01-0.82-1.83-1.83-1.83s-1.83,0.82-1.83,1.83
			C-112.89,359.82-112.07,360.64-111.07,360.64z M-111.07,358.2c0.34,0,0.61,0.27,0.61,0.61c0,0.34-0.27,0.61-0.61,0.61
			s-0.61-0.27-0.61-0.61C-111.68,358.47-111.4,358.2-111.07,358.2z"/>
		<path class="st0" d="M-94.15,344.19h-5.82c-0.34,0-0.61,0.27-0.61,0.61c0,0.34,0.27,0.61,0.61,0.61h5.82
			c0.34,0,0.61-0.27,0.61-0.61C-93.54,344.47-93.82,344.19-94.15,344.19z"/>
		<path class="st0" d="M-94.15,346.63h-5.82c-0.34,0-0.61,0.27-0.61,0.61c0,0.34,0.27,0.61,0.61,0.61h5.82
			c0.34,0,0.61-0.27,0.61-0.61C-93.54,346.9-93.82,346.63-94.15,346.63z"/>
		<path class="st0" d="M-94.15,349.07h-5.82c-0.34,0-0.61,0.27-0.61,0.61c0,0.34,0.27,0.61,0.61,0.61h5.82
			c0.34,0,0.61-0.27,0.61-0.61C-93.54,349.34-93.82,349.07-94.15,349.07z"/>
		<path class="st0" d="M-94.15,367.33h-5.82c-0.34,0-0.61,0.27-0.61,0.61c0,0.34,0.27,0.61,0.61,0.61h5.82
			c0.34,0,0.61-0.27,0.61-0.61C-93.54,367.61-93.82,367.33-94.15,367.33z"/>
		<path class="st0" d="M-94.15,369.77h-5.82c-0.34,0-0.61,0.27-0.61,0.61c0,0.34,0.27,0.61,0.61,0.61h5.82
			c0.34,0,0.61-0.27,0.61-0.61C-93.54,370.04-93.82,369.77-94.15,369.77z"/>
		<path class="st0" d="M-94.15,372.2h-5.82c-0.34,0-0.61,0.27-0.61,0.61c0,0.34,0.27,0.61,0.61,0.61h5.82
			c0.34,0,0.61-0.27,0.61-0.61C-93.54,372.48-93.82,372.2-94.15,372.2z"/>
		<path class="st0" d="M-98.75,360.64c1.01,0,1.83-0.82,1.83-1.83c0-1.01-0.82-1.83-1.83-1.83s-1.83,0.82-1.83,1.83
			C-100.58,359.82-99.76,360.64-98.75,360.64z M-98.75,358.2c0.34,0,0.61,0.27,0.61,0.61c0,0.34-0.27,0.61-0.61,0.61
			s-0.61-0.27-0.61-0.61C-99.36,358.47-99.09,358.2-98.75,358.2z"/>
		<path class="st0" d="M-87.66,345.41h5.82c0.34,0,0.61-0.27,0.61-0.61c0-0.34-0.27-0.61-0.61-0.61h-5.82
			c-0.34,0-0.61,0.27-0.61,0.61C-88.27,345.14-87.99,345.41-87.66,345.41z"/>
		<path class="st0" d="M-81.84,346.63h-5.82c-0.34,0-0.61,0.27-0.61,0.61c0,0.34,0.27,0.61,0.61,0.61h5.82
			c0.34,0,0.61-0.27,0.61-0.61C-81.23,346.9-81.5,346.63-81.84,346.63z"/>
		<path class="st0" d="M-81.84,349.07h-5.82c-0.34,0-0.61,0.27-0.61,0.61c0,0.34,0.27,0.61,0.61,0.61h5.82
			c0.34,0,0.61-0.27,0.61-0.61C-81.23,349.34-81.5,349.07-81.84,349.07z"/>
		<path class="st0" d="M-81.84,367.33h-5.82c-0.34,0-0.61,0.27-0.61,0.61c0,0.34,0.27,0.61,0.61,0.61h5.82
			c0.34,0,0.61-0.27,0.61-0.61C-81.23,367.61-81.5,367.33-81.84,367.33z"/>
		<path class="st0" d="M-81.84,369.77h-5.82c-0.34,0-0.61,0.27-0.61,0.61c0,0.34,0.27,0.61,0.61,0.61h5.82
			c0.34,0,0.61-0.27,0.61-0.61C-81.23,370.04-81.5,369.77-81.84,369.77z"/>
		<path class="st0" d="M-81.84,372.2h-5.82c-0.34,0-0.61,0.27-0.61,0.61c0,0.34,0.27,0.61,0.61,0.61h5.82
			c0.34,0,0.61-0.27,0.61-0.61C-81.23,372.48-81.5,372.2-81.84,372.2z"/>
		<path class="st0" d="M-86.44,360.64c1.01,0,1.83-0.82,1.83-1.83c0-1.01-0.82-1.83-1.83-1.83c-1.01,0-1.83,0.82-1.83,1.83
			C-88.27,359.82-87.45,360.64-86.44,360.64z M-86.44,358.2c0.34,0,0.61,0.27,0.61,0.61c0,0.34-0.27,0.61-0.61,0.61
			s-0.61-0.27-0.61-0.61C-87.05,358.47-86.78,358.2-86.44,358.2z"/>
		<path class="st0" d="M-78.59,340.95h-36.94c-0.34,0-0.61,0.27-0.61,0.61v36.94c0,0.34,0.27,0.61,0.61,0.61s0.61-0.27,0.61-0.61
			v-1.83h11.1v1.83c0,0.34,0.27,0.61,0.61,0.61s0.61-0.27,0.61-0.61v-1.83h11.1v1.83c0,0.34,0.27,0.61,0.61,0.61
			c0.34,0,0.61-0.27,0.61-0.61v-1.83h11.1v1.83c0,0.34,0.27,0.61,0.61,0.61c0.34,0,0.61-0.27,0.61-0.61v-36.94
			C-77.98,341.22-78.25,340.95-78.59,340.95z M-90.3,375.45v-25.78c0-0.34-0.27-0.61-0.61-0.61c-0.34,0-0.61,0.27-0.61,0.61v25.78
			h-11.1v-7.51c0-0.34-0.27-0.61-0.61-0.61s-0.61,0.27-0.61,0.61v7.51h-11.1v-33.29h11.1v27.6c0,0.34,0.27,0.61,0.61,0.61
			s0.61-0.27,0.61-0.61v-27.6h11.1v9.8c0,0.34,0.27,0.61,0.61,0.61c0.34,0,0.61-0.27,0.61-0.61v-9.8h11.1v33.29H-90.3z"/>
	</g>
	<g>
		<path d="M-104.43,345.61h-5.82c-0.34,0-0.61,0.27-0.61,0.61c0,0.34,0.27,0.61,0.61,0.61h5.82c0.34,0,0.61-0.27,0.61-0.61
			C-103.82,345.88-104.09,345.61-104.43,345.61z"/>
		<path d="M-104.43,348.04h-5.82c-0.34,0-0.61,0.27-0.61,0.61c0,0.34,0.27,0.61,0.61,0.61h5.82c0.34,0,0.61-0.27,0.61-0.61
			C-103.82,348.32-104.09,348.04-104.43,348.04z"/>
		<path d="M-104.43,350.48h-5.82c-0.34,0-0.61,0.27-0.61,0.61c0,0.34,0.27,0.61,0.61,0.61h5.82c0.34,0,0.61-0.27,0.61-0.61
			C-103.82,350.75-104.09,350.48-104.43,350.48z"/>
		<path d="M-104.43,368.75h-5.82c-0.34,0-0.61,0.27-0.61,0.61c0,0.34,0.27,0.61,0.61,0.61h5.82c0.34,0,0.61-0.27,0.61-0.61
			C-103.82,369.02-104.09,368.75-104.43,368.75z"/>
		<path d="M-104.43,371.18h-5.82c-0.34,0-0.61,0.27-0.61,0.61c0,0.34,0.27,0.61,0.61,0.61h5.82c0.34,0,0.61-0.27,0.61-0.61
			C-103.82,371.45-104.09,371.18-104.43,371.18z"/>
		<path d="M-104.43,373.62h-5.82c-0.34,0-0.61,0.27-0.61,0.61c0,0.34,0.27,0.61,0.61,0.61h5.82c0.34,0,0.61-0.27,0.61-0.61
			C-103.82,373.89-104.09,373.62-104.43,373.62z"/>
		<path d="M-109.03,362.05c1.01,0,1.83-0.82,1.83-1.83c0-1.01-0.82-1.83-1.83-1.83c-1.01,0-1.83,0.82-1.83,1.83
			C-110.85,361.23-110.03,362.05-109.03,362.05z M-109.03,359.61c0.34,0,0.61,0.27,0.61,0.61c0,0.34-0.27,0.61-0.61,0.61
			s-0.61-0.27-0.61-0.61C-109.64,359.89-109.36,359.61-109.03,359.61z"/>
		<path d="M-92.11,345.61h-5.82c-0.34,0-0.61,0.27-0.61,0.61c0,0.34,0.27,0.61,0.61,0.61h5.82c0.34,0,0.61-0.27,0.61-0.61
			C-91.5,345.88-91.78,345.61-92.11,345.61z"/>
		<path d="M-92.11,348.04h-5.82c-0.34,0-0.61,0.27-0.61,0.61c0,0.34,0.27,0.61,0.61,0.61h5.82c0.34,0,0.61-0.27,0.61-0.61
			C-91.5,348.32-91.78,348.04-92.11,348.04z"/>
		<path d="M-92.11,350.48h-5.82c-0.34,0-0.61,0.27-0.61,0.61c0,0.34,0.27,0.61,0.61,0.61h5.82c0.34,0,0.61-0.27,0.61-0.61
			C-91.5,350.75-91.78,350.48-92.11,350.48z"/>
		<path d="M-92.11,368.75h-5.82c-0.34,0-0.61,0.27-0.61,0.61c0,0.34,0.27,0.61,0.61,0.61h5.82c0.34,0,0.61-0.27,0.61-0.61
			C-91.5,369.02-91.78,368.75-92.11,368.75z"/>
		<path d="M-92.11,371.18h-5.82c-0.34,0-0.61,0.27-0.61,0.61c0,0.34,0.27,0.61,0.61,0.61h5.82c0.34,0,0.61-0.27,0.61-0.61
			C-91.5,371.45-91.78,371.18-92.11,371.18z"/>
		<path d="M-92.11,373.62h-5.82c-0.34,0-0.61,0.27-0.61,0.61c0,0.34,0.27,0.61,0.61,0.61h5.82c0.34,0,0.61-0.27,0.61-0.61
			C-91.5,373.89-91.78,373.62-92.11,373.62z"/>
		<path d="M-96.71,362.05c1.01,0,1.83-0.82,1.83-1.83c0-1.01-0.82-1.83-1.83-1.83c-1.01,0-1.83,0.82-1.83,1.83
			C-98.54,361.23-97.72,362.05-96.71,362.05z M-96.71,359.61c0.34,0,0.61,0.27,0.61,0.61c0,0.34-0.27,0.61-0.61,0.61
			s-0.61-0.27-0.61-0.61C-97.32,359.89-97.05,359.61-96.71,359.61z"/>
		<path d="M-85.62,346.83h5.82c0.34,0,0.61-0.27,0.61-0.61c0-0.34-0.27-0.61-0.61-0.61h-5.82c-0.34,0-0.61,0.27-0.61,0.61
			C-86.23,346.55-85.95,346.83-85.62,346.83z"/>
		<path d="M-79.8,348.04h-5.82c-0.34,0-0.61,0.27-0.61,0.61c0,0.34,0.27,0.61,0.61,0.61h5.82c0.34,0,0.61-0.27,0.61-0.61
			C-79.19,348.32-79.46,348.04-79.8,348.04z"/>
		<path d="M-79.8,350.48h-5.82c-0.34,0-0.61,0.27-0.61,0.61c0,0.34,0.27,0.61,0.61,0.61h5.82c0.34,0,0.61-0.27,0.61-0.61
			C-79.19,350.75-79.46,350.48-79.8,350.48z"/>
		<path d="M-79.8,368.75h-5.82c-0.34,0-0.61,0.27-0.61,0.61c0,0.34,0.27,0.61,0.61,0.61h5.82c0.34,0,0.61-0.27,0.61-0.61
			C-79.19,369.02-79.46,368.75-79.8,368.75z"/>
		<path d="M-79.8,371.18h-5.82c-0.34,0-0.61,0.27-0.61,0.61c0,0.34,0.27,0.61,0.61,0.61h5.82c0.34,0,0.61-0.27,0.61-0.61
			C-79.19,371.45-79.46,371.18-79.8,371.18z"/>
		<path d="M-79.8,373.62h-5.82c-0.34,0-0.61,0.27-0.61,0.61c0,0.34,0.27,0.61,0.61,0.61h5.82c0.34,0,0.61-0.27,0.61-0.61
			C-79.19,373.89-79.46,373.62-79.8,373.62z"/>
		<path d="M-84.4,362.05c1.01,0,1.83-0.82,1.83-1.83c0-1.01-0.82-1.83-1.83-1.83c-1.01,0-1.83,0.82-1.83,1.83
			C-86.23,361.23-85.41,362.05-84.4,362.05z M-84.4,359.61c0.34,0,0.61,0.27,0.61,0.61c0,0.34-0.27,0.61-0.61,0.61
			c-0.34,0-0.61-0.27-0.61-0.61C-85.01,359.89-84.74,359.61-84.4,359.61z"/>
		<path d="M-76.55,342.36h-36.94c-0.34,0-0.61,0.27-0.61,0.61v36.94c0,0.34,0.27,0.61,0.61,0.61s0.61-0.27,0.61-0.61v-1.83h11.1
			v1.83c0,0.34,0.27,0.61,0.61,0.61c0.34,0,0.61-0.27,0.61-0.61v-1.83h11.1v1.83c0,0.34,0.27,0.61,0.61,0.61
			c0.34,0,0.61-0.27,0.61-0.61v-1.83h11.1v1.83c0,0.34,0.27,0.61,0.61,0.61c0.34,0,0.61-0.27,0.61-0.61v-36.94
			C-75.94,342.63-76.22,342.36-76.55,342.36z M-88.26,376.87v-25.78c0-0.34-0.27-0.61-0.61-0.61c-0.34,0-0.61,0.27-0.61,0.61v25.78
			h-11.1v-7.51c0-0.34-0.27-0.61-0.61-0.61c-0.34,0-0.61,0.27-0.61,0.61v7.51h-11.1v-33.29h11.1v27.6c0,0.34,0.27,0.61,0.61,0.61
			c0.34,0,0.61-0.27,0.61-0.61v-27.6h11.1v9.8c0,0.34,0.27,0.61,0.61,0.61c0.34,0,0.61-0.27,0.61-0.61v-9.8h11.1v33.29H-88.26z"/>
	</g>
</g>
<g>
	<path class="st0" d="M135.51,370.91h-0.25c0.64-0.88,0.93-1.89,0.83-2.93c-0.24-2.34-2.53-4.68-4.6-6.35
		c0.01-0.01,0.01-0.03,0.02-0.04c0.27-0.66,0.12-1.42-0.37-1.93c-0.03-0.03-0.07-0.07-0.1-0.1c-2.15-2.71-6.89-4.07-7.23-4.18
		c-0.06-0.63-0.44-1.2-1.03-1.47c-1.28-0.6-4.07-1.6-8.46-1.61c-1.47,0-2.76,0.12-3.88,0.29v-2.84c0-2.35-1.91-4.26-4.26-4.26H102
		v-3.22c0-0.5-0.4-0.9-0.9-0.9H90.54h-2.23h-8.11c-0.5,0-0.9,0.4-0.9,0.9v24.5c0,1.15,0.83,2.1,1.92,2.3v1.84h-1.8
		c-1.49,0-2.7,1.21-2.7,2.7s1.21,2.7,2.7,2.7h0.84v0.3c0,1.69,1.37,3.06,3.06,3.06h48.28c1.69,0,3.06-1.37,3.06-3.06v-0.3h0.84
		c1.49,0,2.7-1.21,2.7-2.7S137,370.91,135.51,370.91z M134.3,368.17c0.1,1-0.49,1.99-1.65,2.74h-6.2c1.79-2.37,3.31-5.38,4.29-7.56
		C132.88,365.15,134.16,366.87,134.3,368.17z M123.63,357.23c0.58,0.2,1.24,0.48,1.95,0.79c0.8,0.34,2.96,1.75,3.11,1.87
		c0.35,0.28,0.68,0.57,0.99,0.88c0.05,0.06,0.09,0.12,0.14,0.18c-0.07,0.17-0.16,0.38-0.26,0.62c-0.82,1.92-2.96,6.59-5.44,9.35
		h-2.97c0.43-1.07,0.92-2.89,1.46-6.14C123.07,362.05,123.42,359.17,123.63,357.23z M114.31,354.1c4.18,0.01,6.77,1.01,7.69,1.44
		l-0.04,0.4c-0.19,1.77-0.58,5.23-1.12,8.48c-0.89,5.35-1.58,6.34-1.72,6.49h-9.62c-0.14-0.15-0.83-1.15-1.72-6.49
		c-0.54-3.25-0.93-6.7-1.12-8.48l-0.01-0.07c0,0,0,0,0-0.01l-0.03-0.33C107.54,355.11,110.13,354.11,114.31,354.1z M102.02,347.29
		h4.14c1.36,0,2.46,1.1,2.46,2.46v3.2c-0.71,0.18-1.31,0.37-1.8,0.55v-3.27c0-0.63-0.51-1.14-1.14-1.14h-3.66V347.29z M102,350.9
		h3.02v3.81c-0.06,0.12-0.11,0.25-0.15,0.39H102V350.9z M101.52,358.81c0.03-0.02,0.06-0.03,0.09-0.05c0,0,0.01,0,0.01-0.01
		c1.19-0.69,2.39-1.18,3.37-1.52c0.22,1.94,0.57,4.82,1.02,7.55c0.54,3.25,1.03,5.07,1.46,6.14h-2.97
		c-2.49-2.76-4.62-7.42-5.44-9.34c-0.11-0.25-0.2-0.48-0.27-0.66C99.61,360.06,100.55,359.37,101.52,358.81z M102.18,370.91h-6.25
		c-1.08-0.72-1.67-1.68-1.61-2.65c0-0.03,0-0.06,0.01-0.09c0.14-1.3,1.42-3.02,3.55-4.81C98.87,365.53,100.38,368.54,102.18,370.91z
		 M81.11,366.77v-23.6h7.21h2.23h9.66v14.33c-0.95,0.6-1.89,1.31-2.7,2.16c-0.49,0.52-0.64,1.28-0.37,1.93
		c0.01,0.01,0.01,0.03,0.02,0.04c-1.88,1.51-3.92,3.57-4.48,5.67H81.65C81.35,367.31,81.11,367.07,81.11,366.77z M93.35,370.91
		H83.03v-1.8h9.55C92.69,369.74,92.95,370.35,93.35,370.91z M135.51,374.51H88.27c-0.5,0-0.9,0.4-0.9,0.9c0,0.5,0.4,0.9,0.9,0.9
		h44.6v0.3c0,0.7-0.57,1.26-1.26,1.26H83.33c-0.7,0-1.26-0.57-1.26-1.26v-0.3h17.26c0.5,0,0.9-0.4,0.9-0.9c0-0.5-0.4-0.9-0.9-0.9
		h-19.9c-0.5,0-0.9-0.4-0.9-0.9s0.4-0.9,0.9-0.9h56.08c0.5,0,0.9,0.4,0.9,0.9S136,374.51,135.51,374.51z"/>
	<path d="M137.55,372.32h-0.25c0.64-0.88,0.93-1.89,0.83-2.93c-0.24-2.34-2.53-4.68-4.6-6.35c0.01-0.01,0.01-0.03,0.02-0.04
		c0.27-0.66,0.12-1.42-0.37-1.93c-0.03-0.03-0.07-0.07-0.1-0.1c-2.15-2.71-6.89-4.07-7.23-4.18c-0.06-0.63-0.44-1.2-1.03-1.47
		c-1.28-0.6-4.07-1.6-8.46-1.61c-1.47,0-2.76,0.12-3.88,0.29v-2.84c0-2.35-1.91-4.26-4.26-4.26h-4.17v-3.22c0-0.5-0.4-0.9-0.9-0.9
		H92.58h-2.23h-8.11c-0.5,0-0.9,0.4-0.9,0.9v24.5c0,1.15,0.83,2.1,1.92,2.3v1.84h-1.8c-1.49,0-2.7,1.21-2.7,2.7s1.21,2.7,2.7,2.7
		h0.84v0.3c0,1.69,1.37,3.06,3.06,3.06h48.28c1.69,0,3.06-1.37,3.06-3.06v-0.3h0.84c1.49,0,2.7-1.21,2.7-2.7
		S139.04,372.32,137.55,372.32z M136.33,369.58c0.1,1-0.49,1.99-1.65,2.74h-6.2c1.79-2.37,3.31-5.38,4.29-7.56
		C134.92,366.56,136.2,368.29,136.33,369.58z M125.67,358.64c0.58,0.2,1.24,0.48,1.95,0.79c0.8,0.34,2.96,1.75,3.11,1.87
		c0.35,0.28,0.68,0.57,0.99,0.88c0.05,0.06,0.09,0.12,0.14,0.18c-0.07,0.17-0.16,0.38-0.26,0.62c-0.82,1.92-2.96,6.59-5.44,9.35
		h-2.97c0.43-1.07,0.92-2.89,1.46-6.14C125.1,363.46,125.46,360.58,125.67,358.64z M116.35,355.51c4.18,0.01,6.77,1.01,7.69,1.44
		l-0.04,0.4c-0.19,1.77-0.58,5.23-1.12,8.48c-0.89,5.35-1.58,6.34-1.72,6.49h-9.62c-0.14-0.15-0.83-1.15-1.72-6.49
		c-0.54-3.25-0.93-6.7-1.12-8.48l-0.01-0.07c0,0,0,0,0-0.01l-0.03-0.33C109.58,356.52,112.17,355.52,116.35,355.51z M104.06,348.71
		h4.14c1.36,0,2.46,1.1,2.46,2.46v3.2c-0.71,0.18-1.31,0.37-1.8,0.55v-3.27c0-0.63-0.51-1.14-1.14-1.14h-3.66V348.71z
		 M104.04,352.31h3.02v3.81c-0.06,0.12-0.11,0.25-0.15,0.39h-2.87V352.31z M103.55,360.22c0.03-0.02,0.06-0.03,0.09-0.05
		c0,0,0.01,0,0.01-0.01c1.19-0.69,2.39-1.18,3.37-1.52c0.22,1.94,0.57,4.82,1.02,7.55c0.54,3.25,1.03,5.07,1.46,6.14h-2.97
		c-2.49-2.76-4.62-7.42-5.44-9.34c-0.11-0.25-0.2-0.48-0.27-0.66C101.65,361.48,102.59,360.79,103.55,360.22z M104.22,372.32h-6.25
		c-1.08-0.72-1.67-1.68-1.61-2.65c0-0.03,0-0.06,0.01-0.09c0.14-1.3,1.42-3.02,3.55-4.81C100.9,366.95,102.42,369.95,104.22,372.32z
		 M83.15,368.18v-23.6h7.21h2.23h9.66v14.33c-0.95,0.6-1.89,1.31-2.7,2.16c-0.49,0.52-0.64,1.28-0.37,1.93
		c0.01,0.01,0.01,0.03,0.02,0.04c-1.88,1.51-3.92,3.57-4.48,5.67H83.69C83.39,368.72,83.15,368.48,83.15,368.18z M95.39,372.32
		H85.07v-1.8h9.55C94.73,371.16,94.99,371.77,95.39,372.32z M137.55,375.93H90.31c-0.5,0-0.9,0.4-0.9,0.9c0,0.5,0.4,0.9,0.9,0.9
		h44.6v0.3c0,0.7-0.57,1.26-1.26,1.26H85.37c-0.7,0-1.26-0.57-1.26-1.26v-0.3h17.26c0.5,0,0.9-0.4,0.9-0.9c0-0.5-0.4-0.9-0.9-0.9
		h-19.9c-0.5,0-0.9-0.4-0.9-0.9s0.4-0.9,0.9-0.9h56.08c0.5,0,0.9,0.4,0.9,0.9S138.04,375.93,137.55,375.93z"/>
</g>
<g>
	<text transform="matrix(1 0 0 1 66.8164 267.0068)"><tspan x="0" y="0" style="font-family:'Montserrat-Medium'; font-size:13.7445px;">Area de </tspan><tspan x="-15.94" y="16.49" style="font-family:'Montserrat-Medium'; font-size:13.7445px;">conferencias</tspan></text>
</g>
<g>
	<g>
		<g>
			<g>
				<path class="st0" d="M38.36,0.96C38.36,0.96,38.36,0.96,38.36,0.96H1.33c-0.35,0-0.64,0.29-0.64,0.64c0,0,0,0,0,0v13.49
					c0,0.35,0.29,0.64,0.64,0.64h0c0.35,0,0.64-0.29,0.64-0.64V2.23h35.75v14.05H13.61v1.28h24.74c0.35,0,0.64-0.29,0.64-0.64
					c0,0,0,0,0,0V1.6C39,1.24,38.71,0.96,38.36,0.96z"/>
			</g>
		</g>
		<g>
			<g>
				<rect x="21.76" y="4.15" class="st0" width="12.77" height="1.28"/>
			</g>
		</g>
		<g>
			<g>
				<rect x="23.67" y="7.98" class="st0" width="12.77" height="1.28"/>
			</g>
		</g>
		<g>
			<g>
				<rect x="21.12" y="11.81" class="st0" width="12.77" height="1.28"/>
			</g>
		</g>
		<g>
			<g>
				<path class="st0" d="M21.07,6.46c-0.44-1.05-1.64-1.55-2.69-1.11c-0.02,0.01-0.04,0.02-0.05,0.02l-5.18,2.69
					c0.2-0.42,0.31-0.89,0.31-1.36c0-1.76-1.43-3.19-3.19-3.19S7.07,4.94,7.07,6.7c0,0.69,0.23,1.37,0.65,1.92H7.7
					c-1.81,0.01-3.43,1.14-4.07,2.83l-1.7,5.87c-0.41,1.05,0.12,2.24,1.17,2.64c0.48,0.18,1.01,0.18,1.49-0.01
					c0.55-0.22,0.98-0.67,1.17-1.23l0.67-2.12v9.24c-0.55-0.42-1.22-0.65-1.92-0.65c-1.76,0-3.19,1.42-3.19,3.18
					c0,0.86,0.35,1.69,0.96,2.29c-0.98,0.5-1.6,1.51-1.6,2.61v5.35c0,0.35,0.29,0.64,0.64,0.64c0,0,0,0,0,0h6.38
					c0.35,0,0.64-0.29,0.64-0.64c0,0,0,0,0,0v-5.35c0-0.9-0.42-1.76-1.14-2.31h4.83c-0.72,0.55-1.14,1.41-1.14,2.31v5.35
					c0,0.35,0.29,0.64,0.64,0.64c0,0,0,0,0,0h6.38c0.35,0,0.64-0.29,0.64-0.64c0,0,0,0,0,0v-5.35c0-1.1-0.62-2.11-1.6-2.61
					c1.26-1.23,1.29-3.25,0.05-4.51c-0.76-0.78-1.86-1.11-2.92-0.9V12.2l5.86-3.04C21.01,8.72,21.51,7.51,21.07,6.46z M10.27,4.79
					c1.06,0,1.92,0.86,1.92,1.92s-0.86,1.92-1.92,1.92c-1.06,0-1.91-0.86-1.92-1.92C8.35,5.65,9.21,4.79,10.27,4.79z M4.52,26.47
					c1.06,0,1.92,0.86,1.92,1.92S5.58,30.3,4.52,30.3S2.6,29.45,2.6,28.39C2.61,27.33,3.46,26.47,4.52,26.47z M7.07,37.99H1.97
					v-4.71c0-0.92,0.75-1.67,1.67-1.67H5.4c0.92,0,1.67,0.75,1.67,1.67V37.99z M17.29,33.28v4.71h-5.11v-4.71
					c0-0.92,0.75-1.67,1.67-1.67h1.76C16.54,31.6,17.29,32.35,17.29,33.28z M14.73,26.47c1.06,0,1.91,0.86,1.92,1.92
					c0,1.06-0.86,1.92-1.92,1.92s-1.92-0.86-1.92-1.92S13.68,26.47,14.73,26.47z M19.9,7.53C19.81,7.75,19.64,7.92,19.42,8
					l-6.25,3.24c-0.21,0.11-0.34,0.33-0.34,0.57v14.04c-1.2,0.88-1.61,2.48-0.99,3.84H10.9V18.83H9.63v10.85h-2.2
					c0.18-0.4,0.28-0.84,0.28-1.28h0V12.45c0-0.35-0.29-0.64-0.64-0.64c-0.28,0-0.53,0.18-0.61,0.45l-1.91,6.07
					c-0.14,0.4-0.58,0.6-0.98,0.46c-0.03-0.01-0.06-0.02-0.08-0.04c-0.37-0.19-0.52-0.63-0.36-1.01l1.7-5.87
					C5.3,10.68,6.43,9.9,7.7,9.9h4.52c0.1,0,0.2-0.02,0.29-0.07l6.35-3.29c0.38-0.16,0.82,0,1,0.37C19.96,7.1,19.98,7.32,19.9,7.53z
					"/>
			</g>
		</g>
		<g>
			<g>
				<path class="st0" d="M27.18,30.67c1.26-1.23,1.29-3.25,0.06-4.51c-1.23-1.26-3.25-1.29-4.51-0.06
					c-1.26,1.23-1.29,3.25-0.06,4.51c0.02,0.02,0.04,0.04,0.06,0.06c-0.98,0.5-1.6,1.51-1.6,2.61v5.35c0,0.35,0.29,0.64,0.64,0.64
					c0,0,0,0,0,0h6.38c0.35,0,0.64-0.29,0.64-0.64c0,0,0,0,0,0v-5.35C28.78,32.18,28.16,31.17,27.18,30.67z M24.95,26.47
					c1.06,0,1.92,0.86,1.92,1.92s-0.86,1.92-1.92,1.92s-1.92-0.86-1.92-1.92C23.04,27.33,23.89,26.47,24.95,26.47z M27.5,37.99H22.4
					v-4.71c0-0.92,0.75-1.67,1.67-1.67h1.76c0.92,0,1.67,0.75,1.67,1.67V37.99z"/>
			</g>
		</g>
		<g>
			<g>
				<path class="st0" d="M37.39,30.67c1.26-1.23,1.29-3.25,0.06-4.51c-1.23-1.26-3.25-1.29-4.51-0.06
					c-1.26,1.23-1.29,3.25-0.06,4.51c0.02,0.02,0.04,0.04,0.06,0.06c-0.98,0.5-1.6,1.51-1.6,2.61v5.35c0,0.35,0.29,0.64,0.64,0.64
					c0,0,0,0,0,0h6.38c0.35,0,0.64-0.29,0.64-0.64c0,0,0,0,0,0v-5.35C38.99,32.18,38.37,31.17,37.39,30.67z M35.17,26.47
					c1.06,0,1.92,0.86,1.92,1.92s-0.86,1.92-1.92,1.92s-1.92-0.86-1.92-1.92C33.25,27.33,34.11,26.47,35.17,26.47z M37.72,37.99
					h-5.11v-4.71c0-0.92,0.75-1.67,1.67-1.67h1.76c0.92,0,1.67,0.75,1.67,1.67V37.99z"/>
			</g>
		</g>
	</g>
	<g>
		<g>
			<g>
				<path d="M40.4,2.37C40.4,2.37,40.4,2.37,40.4,2.37H3.37c-0.35,0-0.64,0.29-0.64,0.64c0,0,0,0,0,0V16.5
					c0,0.35,0.29,0.64,0.64,0.64h0C3.72,17.13,4,16.85,4,16.5V3.65h35.75v14.05H15.65v1.28H40.4c0.35,0,0.64-0.29,0.64-0.64
					c0,0,0,0,0,0V3.01C41.04,2.66,40.75,2.37,40.4,2.37z"/>
			</g>
		</g>
		<g>
			<g>
				<rect x="23.8" y="5.56" width="12.77" height="1.28"/>
			</g>
		</g>
		<g>
			<g>
				<rect x="25.71" y="9.39" width="12.77" height="1.28"/>
			</g>
		</g>
		<g>
			<g>
				<rect x="23.16" y="13.22" width="12.77" height="1.28"/>
			</g>
		</g>
		<g>
			<g>
				<path d="M23.11,7.87c-0.44-1.05-1.64-1.55-2.69-1.11c-0.02,0.01-0.04,0.02-0.05,0.02l-5.18,2.69c0.2-0.42,0.31-0.89,0.31-1.36
					c0-1.76-1.43-3.19-3.19-3.19S9.11,6.35,9.11,8.12c0,0.69,0.23,1.37,0.65,1.92H9.74c-1.81,0.01-3.43,1.14-4.07,2.83l-1.7,5.87
					c-0.41,1.05,0.12,2.24,1.17,2.64c0.48,0.18,1.01,0.18,1.49-0.01c0.55-0.22,0.98-0.67,1.17-1.23l0.67-2.12v9.24
					c-0.55-0.42-1.22-0.65-1.92-0.65c-1.76,0-3.19,1.42-3.19,3.18c0,0.86,0.35,1.69,0.96,2.29c-0.98,0.5-1.6,1.51-1.6,2.61v5.35
					c0,0.35,0.29,0.64,0.64,0.64c0,0,0,0,0,0h6.38c0.35,0,0.64-0.29,0.64-0.64c0,0,0,0,0,0v-5.35c0-0.9-0.42-1.76-1.14-2.31h4.83
					c-0.72,0.55-1.14,1.41-1.14,2.31v5.35c0,0.35,0.29,0.64,0.64,0.64c0,0,0,0,0,0h6.38c0.35,0,0.64-0.29,0.64-0.64c0,0,0,0,0,0
					v-5.35c0-1.1-0.62-2.11-1.6-2.61c1.26-1.23,1.29-3.25,0.05-4.51c-0.76-0.78-1.86-1.11-2.92-0.9V13.61L22,10.57
					C23.05,10.13,23.54,8.93,23.11,7.87z M12.3,6.2c1.06,0,1.92,0.86,1.92,1.92s-0.86,1.92-1.92,1.92c-1.06,0-1.91-0.86-1.92-1.92
					C10.39,7.06,11.25,6.2,12.3,6.2z M6.56,27.89c1.06,0,1.92,0.86,1.92,1.92s-0.86,1.92-1.92,1.92s-1.92-0.86-1.92-1.92
					C4.64,28.74,5.5,27.89,6.56,27.89z M9.11,39.4H4v-4.71c0-0.92,0.75-1.67,1.67-1.67h1.76c0.92,0,1.67,0.75,1.67,1.67V39.4z
					 M19.33,34.69v4.71h-5.11v-4.71c0-0.92,0.75-1.67,1.67-1.67h1.76C18.58,33.02,19.33,33.77,19.33,34.69z M16.77,27.89
					c1.06,0,1.91,0.86,1.92,1.92c0,1.06-0.86,1.92-1.92,1.92s-1.92-0.86-1.92-1.92S15.72,27.89,16.77,27.89z M21.94,8.94
					c-0.09,0.22-0.26,0.39-0.48,0.47l-6.25,3.24c-0.21,0.11-0.34,0.33-0.34,0.57v14.04c-1.2,0.88-1.61,2.48-0.99,3.84h-0.92V20.25
					h-1.28V31.1h-2.2c0.18-0.4,0.28-0.84,0.28-1.28h0V13.86c0-0.35-0.29-0.64-0.64-0.64c-0.28,0-0.53,0.18-0.61,0.45L6.6,19.74
					c-0.14,0.4-0.58,0.6-0.98,0.46c-0.03-0.01-0.06-0.02-0.08-0.04c-0.37-0.19-0.52-0.63-0.36-1.01l1.7-5.87
					c0.46-1.18,1.59-1.96,2.86-1.97h4.52c0.1,0,0.2-0.02,0.29-0.07l6.35-3.29c0.38-0.16,0.82,0,1,0.37
					C22,8.51,22.02,8.74,21.94,8.94z"/>
			</g>
		</g>
		<g>
			<g>
				<path d="M29.22,32.08c1.26-1.23,1.29-3.25,0.06-4.51c-1.23-1.26-3.25-1.29-4.51-0.06c-1.26,1.23-1.29,3.25-0.06,4.51
					c0.02,0.02,0.04,0.04,0.06,0.06c-0.98,0.5-1.6,1.51-1.6,2.61v5.35c0,0.35,0.29,0.64,0.64,0.64c0,0,0,0,0,0h6.38
					c0.35,0,0.64-0.29,0.64-0.64c0,0,0,0,0,0v-5.35C30.82,33.59,30.2,32.58,29.22,32.08z M26.99,27.89c1.06,0,1.92,0.86,1.92,1.92
					s-0.86,1.92-1.92,1.92s-1.92-0.86-1.92-1.92C25.08,28.74,25.93,27.89,26.99,27.89z M29.54,39.4h-5.11v-4.71
					c0-0.92,0.75-1.67,1.67-1.67h1.76c0.92,0,1.67,0.75,1.67,1.67V39.4z"/>
			</g>
		</g>
		<g>
			<g>
				<path d="M39.43,32.08c1.26-1.23,1.29-3.25,0.06-4.51c-1.23-1.26-3.25-1.29-4.51-0.06c-1.26,1.23-1.29,3.25-0.06,4.51
					c0.02,0.02,0.04,0.04,0.06,0.06c-0.98,0.5-1.6,1.51-1.6,2.61v5.35c0,0.35,0.29,0.64,0.64,0.64c0,0,0,0,0,0h6.38
					c0.35,0,0.64-0.29,0.64-0.64c0,0,0,0,0,0v-5.35C41.03,33.59,40.41,32.58,39.43,32.08z M37.21,27.89c1.06,0,1.92,0.86,1.92,1.92
					s-0.86,1.92-1.92,1.92s-1.92-0.86-1.92-1.92C35.29,28.74,36.15,27.89,37.21,27.89z M39.76,39.4h-5.11v-4.71
					c0-0.92,0.75-1.67,1.67-1.67h1.76c0.92,0,1.67,0.75,1.67,1.67V39.4z"/>
			</g>
		</g>
	</g>
</g>
<g>
	<g>
		<g>
			<g>
				<path class="st0" d="M321.39,355.46h-25.44c-1.5,0-2.73,1.22-2.73,2.73v1.82c0,6.48,3.58,12.36,9.35,15.35
					c0.45,0.23,0.99,0.06,1.22-0.39c0.23-0.45,0.06-0.99-0.39-1.22c-5.16-2.67-8.36-7.93-8.36-13.73v-1.82
					c0-0.5,0.41-0.91,0.91-0.91h25.44c0.5,0,0.91,0.41,0.91,0.91v1.82c0,5.8-3.21,11.06-8.36,13.73c-0.45,0.23-0.62,0.78-0.39,1.22
					c0.16,0.31,0.48,0.49,0.81,0.49c0.14,0,0.28-0.03,0.42-0.1c5.77-2.98,9.35-8.86,9.35-15.34v-1.82
					C324.11,356.69,322.89,355.46,321.39,355.46z"/>
			</g>
		</g>
		<g>
			<g>
				<path class="st0" d="M329.5,374.19c-0.14-0.34-0.47-0.56-0.84-0.56h-39.98c-0.37,0-0.7,0.22-0.84,0.56
					c-0.14,0.34-0.06,0.73,0.2,0.99l2.04,2.04c1.2,1.2,2.8,1.86,4.5,1.86h28.19c1.7,0,3.3-0.66,4.5-1.86l2.04-2.04
					C329.56,374.93,329.64,374.53,329.5,374.19z M325.98,375.94c-0.86,0.86-2,1.33-3.21,1.33h-28.19c-1.21,0-2.35-0.47-3.21-1.33
					l-0.49-0.49h35.59L325.98,375.94z"/>
			</g>
		</g>
		<g>
			<g>
				<path class="st0" d="M329.62,359.75c-2.45-1.57-6.36,0.13-6.8,0.33c-0.46,0.21-0.66,0.75-0.45,1.2c0.21,0.46,0.75,0.66,1.2,0.45
					c0.88-0.4,3.69-1.34,5.06-0.46c0.62,0.4,0.92,1.17,0.92,2.35c0,3.64-7.34,5.84-10.17,6.38l-0.64,0.13
					c-0.49,0.1-0.81,0.57-0.72,1.07c0.09,0.43,0.47,0.73,0.89,0.73c0.06,0,0.12-0.01,0.18-0.02l0.64-0.13
					c0.48-0.09,11.64-2.28,11.64-8.16C331.38,361.81,330.79,360.51,329.62,359.75z"/>
			</g>
		</g>
		<g>
			<g>
				<path class="st0" d="M315.74,347.85c1.48-1.85,1.48-4.74,0-6.58c-0.31-0.39-0.88-0.46-1.28-0.14c-0.39,0.31-0.46,0.88-0.14,1.28
					c0.94,1.17,0.94,3.14,0,4.32c-1.48,1.85-1.48,4.74,0,6.58c0.18,0.23,0.44,0.34,0.71,0.34c0.2,0,0.4-0.07,0.57-0.2
					c0.39-0.31,0.46-0.89,0.14-1.28C314.8,351,314.8,349.03,315.74,347.85z"/>
			</g>
		</g>
		<g>
			<g>
				<path class="st0" d="M310.28,347.85c1.48-1.85,1.48-4.74,0-6.58c-0.31-0.39-0.88-0.46-1.28-0.14c-0.39,0.31-0.46,0.89-0.14,1.28
					c0.94,1.17,0.94,3.14,0,4.32c-1.48,1.85-1.48,4.74,0,6.58c0.18,0.23,0.44,0.34,0.71,0.34c0.2,0,0.4-0.07,0.57-0.2
					c0.39-0.31,0.46-0.88,0.14-1.28C309.34,351,309.34,349.03,310.28,347.85z"/>
			</g>
		</g>
		<g>
			<g>
				<path class="st0" d="M304.84,347.86c1.48-1.85,1.48-4.74,0-6.58c-0.31-0.39-0.88-0.46-1.28-0.14c-0.39,0.31-0.45,0.88-0.14,1.28
					c0.94,1.17,0.94,3.14,0,4.32c-1.48,1.85-1.48,4.74,0,6.58c0.18,0.23,0.44,0.34,0.71,0.34c0.2,0,0.4-0.07,0.57-0.2
					c0.39-0.31,0.46-0.89,0.14-1.28C303.9,351,303.9,349.03,304.84,347.86z"/>
			</g>
		</g>
	</g>
	<g>
		<g>
			<g>
				<path d="M323.43,356.88h-25.44c-1.5,0-2.73,1.22-2.73,2.73v1.82c0,6.48,3.58,12.36,9.35,15.35c0.45,0.23,0.99,0.06,1.22-0.39
					c0.23-0.45,0.06-0.99-0.39-1.22c-5.16-2.67-8.36-7.93-8.36-13.73v-1.82c0-0.5,0.41-0.91,0.91-0.91h25.44
					c0.5,0,0.91,0.41,0.91,0.91v1.82c0,5.8-3.21,11.06-8.36,13.73c-0.45,0.23-0.62,0.78-0.39,1.22c0.16,0.31,0.48,0.49,0.81,0.49
					c0.14,0,0.28-0.03,0.42-0.1c5.77-2.98,9.35-8.86,9.35-15.34v-1.82C326.15,358.1,324.93,356.88,323.43,356.88z"/>
			</g>
		</g>
		<g>
			<g>
				<path d="M331.54,375.61c-0.14-0.34-0.47-0.56-0.84-0.56h-39.98c-0.37,0-0.7,0.22-0.84,0.56c-0.14,0.34-0.06,0.73,0.2,0.99
					l2.04,2.04c1.2,1.2,2.8,1.86,4.5,1.86h28.19c1.7,0,3.3-0.66,4.5-1.86l2.04-2.04C331.6,376.34,331.68,375.95,331.54,375.61z
					 M328.02,377.35c-0.86,0.86-2,1.33-3.21,1.33h-28.19c-1.21,0-2.35-0.47-3.21-1.33l-0.49-0.49h35.59L328.02,377.35z"/>
			</g>
		</g>
		<g>
			<g>
				<path d="M331.66,361.17c-2.45-1.57-6.36,0.13-6.8,0.33c-0.46,0.21-0.66,0.75-0.45,1.2c0.21,0.46,0.75,0.66,1.2,0.45
					c0.88-0.4,3.69-1.34,5.06-0.46c0.62,0.4,0.92,1.17,0.92,2.35c0,3.64-7.34,5.84-10.17,6.38l-0.64,0.13
					c-0.49,0.1-0.81,0.57-0.72,1.07c0.09,0.43,0.47,0.73,0.89,0.73c0.06,0,0.12-0.01,0.18-0.02l0.64-0.13
					c0.48-0.09,11.64-2.28,11.64-8.16C333.42,363.23,332.83,361.92,331.66,361.17z"/>
			</g>
		</g>
		<g>
			<g>
				<path d="M317.78,349.27c1.48-1.85,1.48-4.74,0-6.58c-0.31-0.39-0.88-0.46-1.28-0.14c-0.39,0.31-0.46,0.88-0.14,1.28
					c0.94,1.17,0.94,3.14,0,4.32c-1.48,1.85-1.48,4.74,0,6.58c0.18,0.23,0.44,0.34,0.71,0.34c0.2,0,0.4-0.07,0.57-0.2
					c0.39-0.31,0.46-0.89,0.14-1.28C316.84,352.41,316.84,350.44,317.78,349.27z"/>
			</g>
		</g>
		<g>
			<g>
				<path d="M312.32,349.27c1.48-1.85,1.48-4.74,0-6.58c-0.31-0.39-0.88-0.46-1.28-0.14c-0.39,0.31-0.46,0.89-0.14,1.28
					c0.94,1.17,0.94,3.14,0,4.32c-1.48,1.85-1.48,4.74,0,6.58c0.18,0.23,0.44,0.34,0.71,0.34c0.2,0,0.4-0.07,0.57-0.2
					c0.39-0.31,0.46-0.88,0.14-1.28C311.38,352.41,311.38,350.44,312.32,349.27z"/>
			</g>
		</g>
		<g>
			<g>
				<path d="M306.88,349.27c1.48-1.85,1.48-4.74,0-6.58c-0.31-0.39-0.88-0.46-1.28-0.14c-0.39,0.31-0.45,0.88-0.14,1.28
					c0.94,1.17,0.94,3.14,0,4.32c-1.48,1.85-1.48,4.74,0,6.58c0.18,0.23,0.44,0.34,0.71,0.34c0.2,0,0.4-0.07,0.57-0.2
					c0.39-0.31,0.46-0.89,0.14-1.28C305.94,352.41,305.94,350.44,306.88,349.27z"/>
			</g>
		</g>
	</g>
</g>
<g>
	<path class="st0" d="M-279.53,346.5c-3.21-5.5-10.26-7.35-15.76-4.15c-1.33,0.78-2.49,1.81-3.41,3.04l-0.53,0.71l-0.53-0.71
		c-2.18-2.89-5.59-4.6-9.22-4.61h-0.27c-3.94,0-7.6,2.01-9.72,5.34c-1.31,2.06-2.01,4.45-2.01,6.89v2.1
		c-0.01,6.24,3.13,12.06,8.36,15.47l1.24,0.81l5.08,3.33l6.67,4.37c0.24,0.16,0.56,0.16,0.8,0l13.06-8.65
		c5.18-3.42,8.29-9.21,8.28-15.42v-0.93C-277.48,351.42-278.18,348.8-279.53,346.5L-279.53,346.5z M-303.5,374.46l0.27,0.53
		l-5.83-3.82l-1.53-1l-0.42-0.27l3.68-5.52c0.08-0.12,0.12-0.26,0.12-0.4v-2.27c0-0.05,0-0.1,0-0.14c0.04-0.9,0.38-1.75,0.97-2.43
		l0.12-0.14l0.38,1.53c0.08,0.32,0.37,0.55,0.7,0.55h1.74c0.48,0,0.94,0.24,1.21,0.65c0.49,0.74,1.26,1.26,2.13,1.45v0.8
		c0,0.8-0.65,1.45-1.45,1.45c-0.4,0-0.72,0.32-0.72,0.72v2.64c0,0.5-0.15,0.99-0.43,1.41l-0.9,1.35c-0.08,0.12-0.12,0.26-0.12,0.4
		v2.17C-303.57,374.25-303.55,374.36-303.5,374.46L-303.5,374.46z M-300.67,376.67l-0.72-0.47v-0.61c0-0.11-0.03-0.22-0.08-0.32
		l-0.01-0.02l0.81-0.81V376.67z M-294.88,374.73l-1.45,0.96v-4.1l1.45-1.09V374.73z M-293.52,365.66c-0.05,1.05-0.45,2.06-1.13,2.87
		l-2.84,2.13c-0.18,0.14-0.29,0.35-0.29,0.58v5.42l-1.45,0.96v-4.93c0-0.4-0.32-0.72-0.72-0.72c-0.19,0-0.38,0.08-0.51,0.21
		l-1.66,1.66v-1.65l0.78-1.17c0.44-0.65,0.67-1.42,0.67-2.21v-2c1.28-0.33,2.17-1.49,2.17-2.81v-1.45c0-0.4-0.32-0.72-0.72-0.72
		c-0.66,0-1.28-0.33-1.65-0.88c-0.3-0.45-0.72-0.81-1.21-1.03l1.11-1.11l-0.02,0.05l2.52,1.26c1.31,0.65,2.74,0.99,4.2,0.99h0.31
		l0.37,2.75C-293.52,364.44-293.49,365.05-293.52,365.66L-293.52,365.66z M-298.5,353.84v2.36c0,0.3-0.24,0.54-0.54,0.54h-0.91
		v-1.29c0-1.77,0.7-3.46,1.95-4.7c0.34-0.34,0.79-0.53,1.27-0.53h1.57c0.46,0,0.89,0.18,1.21,0.5l1.46,1.46
		c0.14,0.14,0.32,0.21,0.51,0.21h1.45v1.09c0,0.6-0.49,1.09-1.09,1.09h-1.81c-0.4,0-0.72,0.32-0.72,0.72v4.35h-0.13
		c-1.23,0-2.45-0.29-3.55-0.84l-1.22-0.61h0.01c1.1,0,1.99-0.89,1.99-1.99v-2.36H-298.5z M-278.93,355.02
		c0.01,5.72-2.86,11.06-7.63,14.21l-6.87,4.55v-4.45c0.81-1.03,1.29-2.28,1.35-3.59c0.03-0.7,0.01-1.4-0.09-2.09l-0.54-4.05v-3.58
		h1.09c1.4,0,2.54-1.14,2.54-2.54v-1.81c0-0.4-0.32-0.72-0.72-0.72h-1.87l-1.25-1.25c-0.59-0.6-1.4-0.93-2.24-0.93h-1.57
		c-0.86,0-1.69,0.34-2.3,0.95c-1.52,1.52-2.38,3.58-2.37,5.73v1.72l-2.48,2.47h-0.58l-0.59-2.35c-0.1-0.39-0.49-0.62-0.88-0.53
		c-0.15,0.04-0.28,0.12-0.38,0.23l-1.03,1.21c-0.8,0.93-1.26,2.1-1.31,3.32c0,0.06,0,0.13,0,0.19v2.05l-3.56,5.34
		c-4.59-3.18-7.32-8.41-7.32-13.99v-2.1c0-2.16,0.62-4.28,1.78-6.11c1.85-2.91,5.05-4.66,8.5-4.66h0.27
		c3.17,0.01,6.15,1.5,8.06,4.03l1.11,1.48c0.24,0.32,0.69,0.39,1.01,0.14c0.05-0.04,0.1-0.09,0.14-0.14l1.11-1.48
		c3.34-4.45,9.65-5.35,14.1-2.01c1.08,0.81,1.98,1.82,2.66,2.98c1.21,2.08,1.85,4.44,1.85,6.85V355.02z"/>
	<path d="M-277.49,347.92c-3.21-5.5-10.26-7.35-15.76-4.15c-1.33,0.78-2.49,1.81-3.41,3.04l-0.53,0.71l-0.53-0.71
		c-2.18-2.89-5.59-4.6-9.22-4.61h-0.27c-3.94,0-7.6,2.01-9.72,5.34c-1.31,2.06-2.01,4.45-2.01,6.89v2.1
		c-0.01,6.24,3.13,12.06,8.36,15.47l1.24,0.81l5.08,3.33l6.67,4.37c0.24,0.16,0.56,0.16,0.8,0l13.06-8.65
		c5.18-3.42,8.29-9.21,8.28-15.42v-0.93C-275.44,352.83-276.15,350.22-277.49,347.92L-277.49,347.92z M-301.46,375.87l0.27,0.53
		l-5.83-3.82l-1.53-1l-0.42-0.27l3.68-5.52c0.08-0.12,0.12-0.26,0.12-0.4v-2.27c0-0.05,0-0.1,0-0.14c0.04-0.9,0.38-1.75,0.97-2.43
		l0.12-0.14l0.38,1.53c0.08,0.32,0.37,0.55,0.7,0.55h1.74c0.48,0,0.94,0.24,1.21,0.65c0.49,0.74,1.26,1.26,2.13,1.45v0.8
		c0,0.8-0.65,1.45-1.45,1.45c-0.4,0-0.72,0.32-0.72,0.72v2.64c0,0.5-0.15,0.99-0.43,1.41l-0.9,1.35c-0.08,0.12-0.12,0.26-0.12,0.4
		v2.17C-301.53,375.66-301.51,375.77-301.46,375.87L-301.46,375.87z M-298.64,378.08l-0.72-0.47V377c0-0.11-0.03-0.22-0.08-0.32
		l-0.01-0.02l0.81-0.81V378.08z M-292.84,376.15l-1.45,0.96v-4.1l1.45-1.09V376.15z M-291.48,367.07c-0.05,1.05-0.45,2.06-1.13,2.87
		l-2.84,2.13c-0.18,0.14-0.29,0.35-0.29,0.58v5.42l-1.45,0.96v-4.93c0-0.4-0.32-0.72-0.72-0.72c-0.19,0-0.38,0.08-0.51,0.21
		l-1.66,1.66v-1.65l0.78-1.17c0.44-0.65,0.67-1.42,0.67-2.21v-2c1.28-0.33,2.17-1.49,2.17-2.81v-1.45c0-0.4-0.32-0.72-0.72-0.72
		c-0.66,0-1.28-0.33-1.65-0.88c-0.3-0.45-0.72-0.81-1.21-1.03l1.11-1.11l-0.02,0.05l2.52,1.26c1.31,0.65,2.74,0.99,4.2,0.99h0.31
		l0.37,2.75C-291.48,365.85-291.45,366.46-291.48,367.07L-291.48,367.07z M-296.46,355.25v2.36c0,0.3-0.24,0.54-0.54,0.54h-0.91
		v-1.29c0-1.77,0.7-3.46,1.95-4.7c0.34-0.34,0.79-0.53,1.27-0.53h1.57c0.46,0,0.89,0.18,1.21,0.5l1.46,1.46
		c0.14,0.14,0.32,0.21,0.51,0.21h1.45v1.09c0,0.6-0.49,1.09-1.09,1.09h-1.81c-0.4,0-0.72,0.32-0.72,0.72v4.35h-0.13
		c-1.23,0-2.45-0.29-3.55-0.84l-1.22-0.61h0.01c1.1,0,1.99-0.89,1.99-1.99v-2.36H-296.46z M-276.89,356.43
		c0.01,5.72-2.86,11.06-7.63,14.21l-6.87,4.55v-4.45c0.81-1.03,1.29-2.28,1.35-3.59c0.03-0.7,0.01-1.4-0.09-2.09l-0.54-4.05v-3.58
		h1.09c1.4,0,2.54-1.14,2.54-2.54v-1.81c0-0.4-0.32-0.72-0.72-0.72h-1.87l-1.25-1.25c-0.59-0.6-1.4-0.93-2.24-0.93h-1.57
		c-0.86,0-1.69,0.34-2.3,0.95c-1.52,1.52-2.38,3.58-2.37,5.73v1.72l-2.48,2.47h-0.58l-0.59-2.35c-0.1-0.39-0.49-0.62-0.88-0.53
		c-0.15,0.04-0.28,0.12-0.38,0.23l-1.03,1.21c-0.8,0.93-1.26,2.1-1.31,3.32c0,0.06,0,0.13,0,0.19v2.05l-3.56,5.34
		c-4.59-3.18-7.32-8.41-7.32-13.99v-2.1c0-2.16,0.62-4.28,1.78-6.11c1.85-2.91,5.05-4.66,8.5-4.66h0.27
		c3.17,0.01,6.15,1.5,8.06,4.03l1.11,1.48c0.24,0.32,0.69,0.39,1.01,0.14c0.05-0.04,0.1-0.09,0.14-0.14l1.11-1.48
		c3.34-4.45,9.65-5.35,14.1-2.01c1.08,0.81,1.98,1.82,2.66,2.98c1.21,2.08,1.85,4.44,1.85,6.85V356.43z"/>
</g>
</svg>
