<?xml version="1.0" encoding="utf-8"?>
<!-- Generator: Adobe Illustrator 24.0.0, SVG Export Plug-In . SVG Version: 6.00 Build 0)  -->
<svg version="1.1" id="Layer_1" xmlns="http://www.w3.org/2000/svg" xmlns:xlink="http://www.w3.org/1999/xlink" x="0px" y="0px"
	 viewBox="0 0 150 128" style="enable-background:new 0 0 150 128;" xml:space="preserve">
<g>
	<path d="M133.76,0l-4.22,0.01L20.99,0.14l-2.78,0C8.2,0.16,0.09,7.12,0.1,15.69l0,2.38l0.1,78.11l0,2.38
		c0.01,8.27,7.85,14.97,17.52,14.96l98.02-0.12c9.34-0.01,16.9-6.5,16.89-14.5l-0.07-56.39c0-1.36-1.31-2.46-2.92-2.42
		c-1.56,0.04-2.76,1.21-2.76,2.54l0.07,54.99c0.01,6.02-5.69,10.91-12.73,10.92l-94.6,0.12c-7.59,0.01-13.74-5.25-13.75-11.74
		l0-0.85L5.78,16.5C5.77,10.16,11.77,5.01,19.17,5l110.5-0.14l2.87,0c6.43-0.01,11.65,4.45,11.65,9.95l0.12,96.94
		c0.01,6.41-6.05,11.61-13.54,11.62L3.07,123.53c-1.59,0-2.88,1.13-2.83,2.5c0.04,1.34,1.41,2.36,2.97,2.36l128.54-0.16
		c10.09-0.01,18.27-7.03,18.25-15.67l-0.12-98.8C149.87,6.15,142.65-0.01,133.76,0z"/>
</g>
</svg>
