<?xml version="1.0" encoding="utf-8"?>
<!-- Generator: Adobe Illustrator 24.0.0, SVG Export Plug-In . SVG Version: 6.00 Build 0)  -->
<svg version="1.1" id="Layer_1" xmlns="http://www.w3.org/2000/svg" xmlns:xlink="http://www.w3.org/1999/xlink" x="0px" y="0px"
	 viewBox="0 0 50 50" style="enable-background:new 0 0 50 50;" xml:space="preserve">
<g>
	<g>
		<path d="M145.63,126.17h-27.39c-10.22,0-18.53-8.31-18.53-18.53V80.26c0-10.22,8.31-18.53,18.53-18.53h27.39
			c10.22,0,18.53,8.31,18.53,18.53v27.39C164.15,117.86,155.84,126.17,145.63,126.17z M118.24,66.46c-7.61,0-13.8,6.19-13.8,13.8
			v27.39c0,7.61,6.19,13.8,13.8,13.8h27.39c7.61,0,13.8-6.19,13.8-13.8V80.26c0-7.61-6.19-13.8-13.8-13.8H118.24z"/>
	</g>
	<g>
		<path d="M131.93,109.14c-8.38,0-15.19-6.81-15.19-15.19s6.81-15.19,15.19-15.19s15.19,6.81,15.19,15.19
			S140.31,109.14,131.93,109.14z M131.93,83.49c-5.77,0-10.46,4.69-10.46,10.46c0,5.77,4.69,10.46,10.46,10.46
			c5.77,0,10.46-4.69,10.46-10.46C142.4,88.18,137.7,83.49,131.93,83.49z"/>
	</g>
	<g>
		<path d="M148.65,80.34c-2.03,0-3.69-1.65-3.69-3.69c0-2.03,1.65-3.69,3.69-3.69c2.03,0,3.69,1.65,3.69,3.69
			C152.34,78.68,150.68,80.34,148.65,80.34z M148.65,75.61c-0.57,0-1.04,0.47-1.04,1.04s0.47,1.04,1.04,1.04s1.04-0.47,1.04-1.04
			S149.22,75.61,148.65,75.61z"/>
	</g>
</g>
<g>
	<g>
		<path d="M40.48,50.17h-9.03c-1.52,0-2.76-1.24-2.76-2.76V32.97c0-1.52,1.24-2.76,2.76-2.76h4.36l0.74-4.46h-5.11
			c-1.52,0-2.76-1.24-2.76-2.76v-3.62c0-1.52,1.24-2.76,2.76-2.76h5.44v-4.46h-5.44c-3.98,0-7.22,3.24-7.22,7.22v3.62
			c0,1.52-1.24,2.76-2.76,2.76h-2.64v4.46h2.64c1.52,0,2.76,1.24,2.76,2.76v14.43c0,1.52-1.24,2.76-2.76,2.76H9.73
			c-5.25,0-9.52-4.27-9.52-9.52V9.9c0-5.25,4.27-9.52,9.52-9.52h31.68c4.73,0,8.58,3.85,8.58,8.58v31.68
			C50,45.9,45.73,50.17,40.48,50.17z M32.34,46.52h8.14c3.24,0,5.87-2.63,5.87-5.87V8.97c0-2.72-2.21-4.93-4.93-4.93H9.73
			c-3.24,0-5.87,2.63-5.87,5.87v30.75c0,3.24,2.63,5.87,5.87,5.87h10.84V33.86h-2.64c-1.52,0-2.76-1.24-2.76-2.76v-6.23
			c0-1.52,1.24-2.76,2.76-2.76h2.64v-2.73c0-6,4.88-10.87,10.87-10.87h6.32c1.52,0,2.76,1.24,2.76,2.76v6.23
			c0,1.52-1.24,2.76-2.76,2.76h-5.44v1.85h5.27c0.81,0,1.58,0.36,2.11,0.98c0.53,0.62,0.75,1.44,0.62,2.24l-1.04,6.23
			c-0.22,1.34-1.37,2.31-2.73,2.31h-4.23V46.52z"/>
	</g>
</g>
<g>
	<g>
		<path d="M258.64,90.29l-18.72-10.24c-1.08-0.59-2.35-0.57-3.4,0.06c-1.06,0.63-1.69,1.73-1.69,2.96v20.31
			c0,1.22,0.63,2.32,1.67,2.95c0.55,0.33,1.15,0.49,1.76,0.49c0.56,0,1.12-0.14,1.63-0.41l18.72-10.07c1.11-0.6,1.81-1.75,1.81-3.02
			C260.43,92.06,259.74,90.89,258.64,90.29z M239.79,100.82V85.64l13.99,7.66L239.79,100.82z"/>
	</g>
	<g>
		<path d="M287.34,77.14l0-0.04c-0.07-0.68-0.79-6.75-3.74-9.83c-3.41-3.63-7.27-4.07-9.13-4.28c-0.15-0.02-0.29-0.03-0.42-0.05
			l-0.15-0.02c-11.2-0.81-28.12-0.93-28.29-0.93l-0.01,0l-0.01,0c-0.17,0-17.09,0.11-28.39,0.93l-0.15,0.02
			c-0.12,0.02-0.25,0.03-0.4,0.05c-1.84,0.21-5.66,0.65-9.08,4.41c-2.81,3.05-3.62,8.99-3.7,9.66l-0.01,0.09
			c-0.03,0.28-0.62,7.04-0.62,13.82v6.34c0,6.78,0.6,13.54,0.62,13.82l0,0.04c0.07,0.67,0.79,6.63,3.72,9.71
			c3.21,3.51,7.26,3.97,9.44,4.22c0.34,0.04,0.64,0.07,0.84,0.11l0.2,0.03c6.47,0.62,26.75,0.92,27.61,0.93l0.03,0l0.03,0
			c0.17,0,17.09-0.11,28.29-0.93l0.15-0.02c0.14-0.02,0.3-0.04,0.48-0.05c1.83-0.19,5.63-0.6,9-4.31c2.81-3.05,3.62-8.99,3.7-9.66
			l0.01-0.09c0.03-0.28,0.62-7.04,0.62-13.82v-6.34C287.96,84.18,287.36,77.42,287.34,77.14z M283,97.3c0,6.28-0.55,12.74-0.6,13.34
			c-0.21,1.64-1.07,5.39-2.44,6.88c-2.11,2.32-4.28,2.55-5.86,2.72c-0.19,0.02-0.37,0.04-0.53,0.06
			c-10.84,0.78-27.12,0.9-27.87,0.91c-0.84-0.01-20.82-0.32-27.1-0.9c-0.32-0.05-0.67-0.09-1.03-0.13c-1.86-0.21-4.4-0.5-6.35-2.65
			l-0.05-0.05c-1.34-1.4-2.18-4.91-2.39-6.81c-0.04-0.45-0.6-6.99-0.6-13.36v-6.34c0-6.27,0.55-12.73,0.6-13.34
			c0.25-1.93,1.12-5.45,2.44-6.88c2.17-2.39,4.47-2.66,5.98-2.83c0.14-0.02,0.28-0.03,0.4-0.05c10.99-0.79,27.39-0.9,27.98-0.91
			c0.59,0,16.98,0.12,27.88,0.91c0.13,0.02,0.28,0.03,0.44,0.05c1.56,0.18,3.92,0.45,6.08,2.75l0.02,0.02
			c1.34,1.4,2.18,4.97,2.39,6.91c0.04,0.42,0.6,6.98,0.6,13.36V97.3z"/>
	</g>
</g>
</svg>
