<?xml version="1.0" encoding="utf-8"?>
<!-- Generator: Adobe Illustrator 24.0.0, SVG Export Plug-In . SVG Version: 6.00 Build 0)  -->
<svg version="1.1" id="Layer_1" xmlns="http://www.w3.org/2000/svg" xmlns:xlink="http://www.w3.org/1999/xlink" x="0px" y="0px"
	 viewBox="0 0 50 50" style="enable-background:new 0 0 50 50;" xml:space="preserve">
<g>
	<g>
		<path d="M35.83,50.17H14.88C7.07,50.17,0.71,43.81,0.71,36V15.05c0-7.81,6.36-14.17,14.17-14.17h20.95
			C43.64,0.88,50,7.24,50,15.05V36C50,43.81,43.64,50.17,35.83,50.17z M14.88,4.5C9.06,4.5,4.33,9.23,4.33,15.05V36
			c0,5.82,4.74,10.56,10.56,10.56h20.95c5.82,0,10.56-4.74,10.56-10.56V15.05c0-5.82-4.74-10.56-10.56-10.56H14.88z"/>
	</g>
	<g>
		<path d="M25.36,37.15c-6.41,0-11.62-5.21-11.62-11.62s5.21-11.62,11.62-11.62s11.62,5.21,11.62,11.62S31.76,37.15,25.36,37.15z
			 M25.36,17.52c-4.41,0-8,3.59-8,8s3.59,8,8,8s8-3.59,8-8S29.77,17.52,25.36,17.52z"/>
	</g>
	<g>
		<path d="M38.14,15.11c-1.55,0-2.82-1.26-2.82-2.82c0-1.55,1.26-2.82,2.82-2.82c1.55,0,2.82,1.26,2.82,2.82
			C40.96,13.85,39.7,15.11,38.14,15.11z M38.14,11.5c-0.44,0-0.79,0.36-0.79,0.79s0.36,0.79,0.79,0.79s0.79-0.36,0.79-0.79
			S38.58,11.5,38.14,11.5z"/>
	</g>
</g>
<g>
	<g>
		<path d="M258.64,90.29l-18.72-10.24c-1.08-0.59-2.35-0.57-3.4,0.06c-1.06,0.63-1.69,1.73-1.69,2.96v20.31
			c0,1.22,0.63,2.32,1.67,2.95c0.55,0.33,1.15,0.49,1.76,0.49c0.56,0,1.12-0.14,1.63-0.41l18.72-10.07c1.11-0.6,1.81-1.75,1.81-3.02
			C260.43,92.06,259.74,90.89,258.64,90.29z M239.79,100.82V85.64l13.99,7.66L239.79,100.82z"/>
	</g>
	<g>
		<path d="M287.34,77.14l0-0.04c-0.07-0.68-0.79-6.75-3.74-9.83c-3.41-3.63-7.27-4.07-9.13-4.28c-0.15-0.02-0.29-0.03-0.42-0.05
			l-0.15-0.02c-11.2-0.81-28.12-0.93-28.29-0.93l-0.01,0l-0.01,0c-0.17,0-17.09,0.11-28.39,0.93l-0.15,0.02
			c-0.12,0.02-0.25,0.03-0.4,0.05c-1.84,0.21-5.66,0.65-9.08,4.41c-2.81,3.05-3.62,8.99-3.7,9.66l-0.01,0.09
			c-0.03,0.28-0.62,7.04-0.62,13.82v6.34c0,6.78,0.6,13.54,0.62,13.82l0,0.04c0.07,0.67,0.79,6.63,3.72,9.71
			c3.21,3.51,7.26,3.97,9.44,4.22c0.34,0.04,0.64,0.07,0.84,0.11l0.2,0.03c6.47,0.62,26.75,0.92,27.61,0.93l0.03,0l0.03,0
			c0.17,0,17.09-0.11,28.29-0.93l0.15-0.02c0.14-0.02,0.3-0.04,0.48-0.05c1.83-0.19,5.63-0.6,9-4.31c2.81-3.05,3.62-8.99,3.7-9.66
			l0.01-0.09c0.03-0.28,0.62-7.04,0.62-13.82v-6.34C287.96,84.18,287.36,77.42,287.34,77.14z M283,97.3c0,6.28-0.55,12.74-0.6,13.34
			c-0.21,1.64-1.07,5.39-2.44,6.88c-2.11,2.32-4.28,2.55-5.86,2.72c-0.19,0.02-0.37,0.04-0.53,0.06
			c-10.84,0.78-27.12,0.9-27.87,0.91c-0.84-0.01-20.82-0.32-27.1-0.9c-0.32-0.05-0.67-0.09-1.03-0.13c-1.86-0.21-4.4-0.5-6.35-2.65
			l-0.05-0.05c-1.34-1.4-2.18-4.91-2.39-6.81c-0.04-0.45-0.6-6.99-0.6-13.36v-6.34c0-6.27,0.55-12.73,0.6-13.34
			c0.25-1.93,1.12-5.45,2.44-6.88c2.17-2.39,4.47-2.66,5.98-2.83c0.14-0.02,0.28-0.03,0.4-0.05c10.99-0.79,27.39-0.9,27.98-0.91
			c0.59,0,16.98,0.12,27.88,0.91c0.13,0.02,0.28,0.03,0.44,0.05c1.56,0.18,3.92,0.45,6.08,2.75l0.02,0.02
			c1.34,1.4,2.18,4.97,2.39,6.91c0.04,0.42,0.6,6.98,0.6,13.36V97.3z"/>
	</g>
</g>
</svg>
