<?xml version="1.0" encoding="utf-8"?>
<!-- Generator: Adobe Illustrator 24.0.0, SVG Export Plug-In . SVG Version: 6.00 Build 0)  -->
<svg version="1.1" id="Layer_1" xmlns="http://www.w3.org/2000/svg" xmlns:xlink="http://www.w3.org/1999/xlink" x="0px" y="0px"
	 viewBox="0 0 50 50" style="enable-background:new 0 0 50 50;" xml:space="preserve">
<style type="text/css">
	.st0{fill:#FFED00;}
</style>
<g>
	<text transform="matrix(1 0 0 1 294.5718 144.9785)"><tspan x="0" y="0" style="font-family:'Montserrat-Medium'; font-size:13.7445px;">Café e </tspan><tspan x="-18.29" y="16.49" style="font-family:'Montserrat-Medium'; font-size:13.7445px;">hidratación </tspan></text>
</g>
<g>
	<text transform="matrix(1 0 0 1 84.6162 145.4189)" style="font-family:'Montserrat-Medium'; font-size:13.7445px;">Café bar</text>
</g>
<g>
	<g>
		<path class="st0" d="M12.69,5.11H5.57c-0.41,0-0.74,0.33-0.74,0.74S5.16,6.6,5.57,6.6h7.11c0.41,0,0.74-0.33,0.74-0.74
			S13.1,5.11,12.69,5.11z"/>
		<path class="st0" d="M12.69,8.09H5.57c-0.41,0-0.74,0.33-0.74,0.74c0,0.41,0.33,0.74,0.74,0.74h7.11c0.41,0,0.74-0.33,0.74-0.74
			C13.43,8.42,13.1,8.09,12.69,8.09z"/>
		<path class="st0" d="M12.69,11.07H5.57c-0.41,0-0.74,0.33-0.74,0.74c0,0.41,0.33,0.74,0.74,0.74h7.11c0.41,0,0.74-0.33,0.74-0.74
			C13.43,11.4,13.1,11.07,12.69,11.07z"/>
		<path class="st0" d="M12.69,33.4H5.57c-0.41,0-0.74,0.33-0.74,0.74c0,0.41,0.33,0.74,0.74,0.74h7.11c0.41,0,0.74-0.33,0.74-0.74
			C13.43,33.73,13.1,33.4,12.69,33.4z"/>
		<path class="st0" d="M12.69,36.38H5.57c-0.41,0-0.74,0.33-0.74,0.74c0,0.41,0.33,0.74,0.74,0.74h7.11c0.41,0,0.74-0.33,0.74-0.74
			C13.43,36.71,13.1,36.38,12.69,36.38z"/>
		<path class="st0" d="M12.69,39.36H5.57c-0.41,0-0.74,0.33-0.74,0.74c0,0.41,0.33,0.74,0.74,0.74h7.11c0.41,0,0.74-0.33,0.74-0.74
			C13.43,39.69,13.1,39.36,12.69,39.36z"/>
		<path class="st0" d="M7.06,25.21c1.23,0,2.23-1,2.23-2.23c0-1.23-1-2.23-2.23-2.23s-2.23,1-2.23,2.23
			C4.83,24.21,5.83,25.21,7.06,25.21z M7.06,22.23c0.41,0,0.74,0.33,0.74,0.74s-0.33,0.74-0.74,0.74s-0.74-0.33-0.74-0.74
			S6.65,22.23,7.06,22.23z"/>
		<path class="st0" d="M27.74,5.11h-7.11c-0.41,0-0.74,0.33-0.74,0.74s0.33,0.74,0.74,0.74h7.11c0.41,0,0.74-0.33,0.74-0.74
			S28.15,5.11,27.74,5.11z"/>
		<path class="st0" d="M27.74,8.09h-7.11c-0.41,0-0.74,0.33-0.74,0.74c0,0.41,0.33,0.74,0.74,0.74h7.11c0.41,0,0.74-0.33,0.74-0.74
			C28.48,8.42,28.15,8.09,27.74,8.09z"/>
		<path class="st0" d="M27.74,11.07h-7.11c-0.41,0-0.74,0.33-0.74,0.74c0,0.41,0.33,0.74,0.74,0.74h7.11c0.41,0,0.74-0.33,0.74-0.74
			C28.48,11.4,28.15,11.07,27.74,11.07z"/>
		<path class="st0" d="M27.74,33.4h-7.11c-0.41,0-0.74,0.33-0.74,0.74c0,0.41,0.33,0.74,0.74,0.74h7.11c0.41,0,0.74-0.33,0.74-0.74
			C28.48,33.73,28.15,33.4,27.74,33.4z"/>
		<path class="st0" d="M27.74,36.38h-7.11c-0.41,0-0.74,0.33-0.74,0.74c0,0.41,0.33,0.74,0.74,0.74h7.11c0.41,0,0.74-0.33,0.74-0.74
			C28.48,36.71,28.15,36.38,27.74,36.38z"/>
		<path class="st0" d="M27.74,39.36h-7.11c-0.41,0-0.74,0.33-0.74,0.74c0,0.41,0.33,0.74,0.74,0.74h7.11c0.41,0,0.74-0.33,0.74-0.74
			C28.48,39.69,28.15,39.36,27.74,39.36z"/>
		<path class="st0" d="M22.12,25.21c1.23,0,2.23-1,2.23-2.23c0-1.23-1-2.23-2.23-2.23s-2.23,1-2.23,2.23
			C19.88,24.21,20.88,25.21,22.12,25.21z M22.12,22.23c0.41,0,0.74,0.33,0.74,0.74s-0.33,0.74-0.74,0.74s-0.74-0.33-0.74-0.74
			S21.7,22.23,22.12,22.23z"/>
		<path class="st0" d="M35.68,6.6h7.11c0.41,0,0.74-0.33,0.74-0.74s-0.33-0.74-0.74-0.74h-7.11c-0.41,0-0.74,0.33-0.74,0.74
			S35.27,6.6,35.68,6.6z"/>
		<path class="st0" d="M42.79,8.09h-7.11c-0.41,0-0.74,0.33-0.74,0.74c0,0.41,0.33,0.74,0.74,0.74h7.11c0.41,0,0.74-0.33,0.74-0.74
			C43.54,8.42,43.2,8.09,42.79,8.09z"/>
		<path class="st0" d="M42.79,11.07h-7.11c-0.41,0-0.74,0.33-0.74,0.74c0,0.41,0.33,0.74,0.74,0.74h7.11c0.41,0,0.74-0.33,0.74-0.74
			C43.54,11.4,43.2,11.07,42.79,11.07z"/>
		<path class="st0" d="M42.79,33.4h-7.11c-0.41,0-0.74,0.33-0.74,0.74c0,0.41,0.33,0.74,0.74,0.74h7.11c0.41,0,0.74-0.33,0.74-0.74
			C43.54,33.73,43.2,33.4,42.79,33.4z"/>
		<path class="st0" d="M42.79,36.38h-7.11c-0.41,0-0.74,0.33-0.74,0.74c0,0.41,0.33,0.74,0.74,0.74h7.11c0.41,0,0.74-0.33,0.74-0.74
			C43.54,36.71,43.2,36.38,42.79,36.38z"/>
		<path class="st0" d="M42.79,39.36h-7.11c-0.41,0-0.74,0.33-0.74,0.74c0,0.41,0.33,0.74,0.74,0.74h7.11c0.41,0,0.74-0.33,0.74-0.74
			C43.54,39.69,43.2,39.36,42.79,39.36z"/>
		<path class="st0" d="M37.17,25.21c1.23,0,2.23-1,2.23-2.23c0-1.23-1-2.23-2.23-2.23s-2.23,1-2.23,2.23
			C34.94,24.21,35.94,25.21,37.17,25.21z M37.17,22.23c0.41,0,0.74,0.33,0.74,0.74s-0.33,0.74-0.74,0.74s-0.74-0.33-0.74-0.74
			S36.76,22.23,37.17,22.23z"/>
		<path class="st0" d="M46.76,1.14H1.6c-0.41,0-0.74,0.33-0.74,0.74v45.16c0,0.41,0.33,0.74,0.74,0.74s0.74-0.33,0.74-0.74v-2.23
			h13.56v2.23c0,0.41,0.33,0.74,0.74,0.74s0.74-0.33,0.74-0.74v-2.23h13.56v2.23c0,0.41,0.33,0.74,0.74,0.74
			c0.41,0,0.74-0.33,0.74-0.74v-2.23h13.56v2.23c0,0.41,0.33,0.74,0.74,0.74s0.74-0.33,0.74-0.74V1.89
			C47.51,1.48,47.17,1.14,46.76,1.14z M32.45,43.33V11.81c0-0.41-0.33-0.74-0.74-0.74c-0.41,0-0.74,0.33-0.74,0.74v31.51H17.4v-9.18
			c0-0.41-0.33-0.74-0.74-0.74s-0.74,0.33-0.74,0.74v9.18H2.35V2.63h13.56v33.75c0,0.41,0.33,0.74,0.74,0.74s0.74-0.33,0.74-0.74
			V2.63h13.56v11.98c0,0.41,0.33,0.74,0.74,0.74c0.41,0,0.74-0.33,0.74-0.74V2.63h13.56v40.69H32.45z"/>
	</g>
	<g>
		<path d="M15.18,6.84H8.07c-0.41,0-0.74,0.33-0.74,0.74s0.33,0.74,0.74,0.74h7.11c0.41,0,0.74-0.33,0.74-0.74
			S15.59,6.84,15.18,6.84z"/>
		<path d="M15.18,9.82H8.07c-0.41,0-0.74,0.33-0.74,0.74c0,0.41,0.33,0.74,0.74,0.74h7.11c0.41,0,0.74-0.33,0.74-0.74
			C15.92,10.15,15.59,9.82,15.18,9.82z"/>
		<path d="M15.18,12.8H8.07c-0.41,0-0.74,0.33-0.74,0.74c0,0.41,0.33,0.74,0.74,0.74h7.11c0.41,0,0.74-0.33,0.74-0.74
			C15.92,13.13,15.59,12.8,15.18,12.8z"/>
		<path d="M15.18,35.13H8.07c-0.41,0-0.74,0.33-0.74,0.74c0,0.41,0.33,0.74,0.74,0.74h7.11c0.41,0,0.74-0.33,0.74-0.74
			C15.92,35.46,15.59,35.13,15.18,35.13z"/>
		<path d="M15.18,38.11H8.07c-0.41,0-0.74,0.33-0.74,0.74c0,0.41,0.33,0.74,0.74,0.74h7.11c0.41,0,0.74-0.33,0.74-0.74
			C15.92,38.44,15.59,38.11,15.18,38.11z"/>
		<path d="M15.18,41.08H8.07c-0.41,0-0.74,0.33-0.74,0.74c0,0.41,0.33,0.74,0.74,0.74h7.11c0.41,0,0.74-0.33,0.74-0.74
			C15.92,41.42,15.59,41.08,15.18,41.08z"/>
		<path d="M9.55,26.94c1.23,0,2.23-1,2.23-2.23c0-1.23-1-2.23-2.23-2.23s-2.23,1-2.23,2.23C7.32,25.94,8.32,26.94,9.55,26.94z
			 M9.55,23.96c0.41,0,0.74,0.33,0.74,0.74s-0.33,0.74-0.74,0.74c-0.41,0-0.74-0.33-0.74-0.74S9.14,23.96,9.55,23.96z"/>
		<path d="M30.23,6.84h-7.11c-0.41,0-0.74,0.33-0.74,0.74s0.33,0.74,0.74,0.74h7.11c0.41,0,0.74-0.33,0.74-0.74
			S30.64,6.84,30.23,6.84z"/>
		<path d="M30.23,9.82h-7.11c-0.41,0-0.74,0.33-0.74,0.74c0,0.41,0.33,0.74,0.74,0.74h7.11c0.41,0,0.74-0.33,0.74-0.74
			C30.98,10.15,30.64,9.82,30.23,9.82z"/>
		<path d="M30.23,12.8h-7.11c-0.41,0-0.74,0.33-0.74,0.74c0,0.41,0.33,0.74,0.74,0.74h7.11c0.41,0,0.74-0.33,0.74-0.74
			C30.98,13.13,30.64,12.8,30.23,12.8z"/>
		<path d="M30.23,35.13h-7.11c-0.41,0-0.74,0.33-0.74,0.74c0,0.41,0.33,0.74,0.74,0.74h7.11c0.41,0,0.74-0.33,0.74-0.74
			C30.98,35.46,30.64,35.13,30.23,35.13z"/>
		<path d="M30.23,38.11h-7.11c-0.41,0-0.74,0.33-0.74,0.74c0,0.41,0.33,0.74,0.74,0.74h7.11c0.41,0,0.74-0.33,0.74-0.74
			C30.98,38.44,30.64,38.11,30.23,38.11z"/>
		<path d="M30.23,41.08h-7.11c-0.41,0-0.74,0.33-0.74,0.74c0,0.41,0.33,0.74,0.74,0.74h7.11c0.41,0,0.74-0.33,0.74-0.74
			C30.98,41.42,30.64,41.08,30.23,41.08z"/>
		<path d="M24.61,26.94c1.23,0,2.23-1,2.23-2.23c0-1.23-1-2.23-2.23-2.23s-2.23,1-2.23,2.23C22.37,25.94,23.38,26.94,24.61,26.94z
			 M24.61,23.96c0.41,0,0.74,0.33,0.74,0.74s-0.33,0.74-0.74,0.74s-0.74-0.33-0.74-0.74S24.2,23.96,24.61,23.96z"/>
		<path d="M38.17,8.33h7.11c0.41,0,0.74-0.33,0.74-0.74s-0.33-0.74-0.74-0.74h-7.11c-0.41,0-0.74,0.33-0.74,0.74
			S37.76,8.33,38.17,8.33z"/>
		<path d="M45.29,9.82h-7.11c-0.41,0-0.74,0.33-0.74,0.74c0,0.41,0.33,0.74,0.74,0.74h7.11c0.41,0,0.74-0.33,0.74-0.74
			C46.03,10.15,45.7,9.82,45.29,9.82z"/>
		<path d="M45.29,12.8h-7.11c-0.41,0-0.74,0.33-0.74,0.74c0,0.41,0.33,0.74,0.74,0.74h7.11c0.41,0,0.74-0.33,0.74-0.74
			C46.03,13.13,45.7,12.8,45.29,12.8z"/>
		<path d="M45.29,35.13h-7.11c-0.41,0-0.74,0.33-0.74,0.74c0,0.41,0.33,0.74,0.74,0.74h7.11c0.41,0,0.74-0.33,0.74-0.74
			C46.03,35.46,45.7,35.13,45.29,35.13z"/>
		<path d="M45.29,38.11h-7.11c-0.41,0-0.74,0.33-0.74,0.74c0,0.41,0.33,0.74,0.74,0.74h7.11c0.41,0,0.74-0.33,0.74-0.74
			C46.03,38.44,45.7,38.11,45.29,38.11z"/>
		<path d="M45.29,41.08h-7.11c-0.41,0-0.74,0.33-0.74,0.74c0,0.41,0.33,0.74,0.74,0.74h7.11c0.41,0,0.74-0.33,0.74-0.74
			C46.03,41.42,45.7,41.08,45.29,41.08z"/>
		<path d="M39.66,26.94c1.23,0,2.23-1,2.23-2.23c0-1.23-1-2.23-2.23-2.23c-1.23,0-2.23,1-2.23,2.23
			C37.43,25.94,38.43,26.94,39.66,26.94z M39.66,23.96c0.41,0,0.74,0.33,0.74,0.74s-0.33,0.74-0.74,0.74
			c-0.41,0-0.74-0.33-0.74-0.74S39.25,23.96,39.66,23.96z"/>
		<path d="M49.26,2.87H4.1c-0.41,0-0.74,0.33-0.74,0.74v45.16c0,0.41,0.33,0.74,0.74,0.74c0.41,0,0.74-0.33,0.74-0.74v-2.23H18.4
			v2.23c0,0.41,0.33,0.74,0.74,0.74c0.41,0,0.74-0.33,0.74-0.74v-2.23h13.56v2.23c0,0.41,0.33,0.74,0.74,0.74s0.74-0.33,0.74-0.74
			v-2.23h13.56v2.23c0,0.41,0.33,0.74,0.74,0.74S50,49.19,50,48.77V3.62C50,3.2,49.67,2.87,49.26,2.87z M34.95,45.05V13.54
			c0-0.41-0.33-0.74-0.74-0.74s-0.74,0.33-0.74,0.74v31.51H19.89v-9.18c0-0.41-0.33-0.74-0.74-0.74c-0.41,0-0.74,0.33-0.74,0.74
			v9.18H4.84V4.36H18.4v33.75c0,0.41,0.33,0.74,0.74,0.74c0.41,0,0.74-0.33,0.74-0.74V4.36h13.56v11.98c0,0.41,0.33,0.74,0.74,0.74
			s0.74-0.33,0.74-0.74V4.36h13.56v40.69H34.95z"/>
	</g>
</g>
<g>
	<path class="st0" d="M141.51,114.91h-0.25c0.64-0.88,0.93-1.89,0.83-2.93c-0.24-2.34-2.53-4.68-4.6-6.35
		c0.01-0.01,0.01-0.03,0.02-0.04c0.27-0.66,0.12-1.42-0.37-1.93c-0.03-0.03-0.07-0.07-0.1-0.1c-2.15-2.71-6.89-4.07-7.23-4.18
		c-0.06-0.63-0.44-1.2-1.03-1.47c-1.28-0.6-4.07-1.6-8.46-1.61c-1.47,0-2.76,0.12-3.88,0.29v-2.84c0-2.35-1.91-4.26-4.26-4.26H108
		v-3.22c0-0.5-0.4-0.9-0.9-0.9H96.54h-2.23h-8.11c-0.5,0-0.9,0.4-0.9,0.9v24.5c0,1.15,0.83,2.1,1.92,2.3v1.84h-1.8
		c-1.49,0-2.7,1.21-2.7,2.7c0,1.49,1.21,2.7,2.7,2.7h0.84v0.3c0,1.69,1.37,3.06,3.06,3.06h48.28c1.69,0,3.06-1.37,3.06-3.06v-0.3
		h0.84c1.49,0,2.7-1.21,2.7-2.7C144.21,116.12,143,114.91,141.51,114.91z M140.3,112.17c0.1,1-0.49,1.99-1.65,2.74h-6.2
		c1.79-2.37,3.31-5.38,4.29-7.56C138.88,109.15,140.16,110.87,140.3,112.17z M129.63,101.23c0.58,0.2,1.24,0.48,1.95,0.79
		c0.8,0.34,2.96,1.75,3.11,1.87c0.35,0.28,0.68,0.57,0.99,0.88c0.05,0.06,0.09,0.12,0.14,0.18c-0.07,0.17-0.16,0.38-0.26,0.62
		c-0.82,1.92-2.96,6.59-5.44,9.35h-2.97c0.43-1.07,0.92-2.89,1.46-6.14C129.07,106.05,129.42,103.17,129.63,101.23z M120.31,98.1
		c4.18,0.01,6.77,1.01,7.69,1.44l-0.04,0.4c-0.19,1.77-0.58,5.23-1.12,8.48c-0.89,5.35-1.58,6.34-1.72,6.49h-9.62
		c-0.14-0.15-0.83-1.15-1.72-6.49c-0.54-3.25-0.93-6.7-1.12-8.48l-0.01-0.07c0,0,0,0,0-0.01l-0.03-0.33
		C113.54,99.11,116.13,98.11,120.31,98.1z M108.02,91.29h4.14c1.36,0,2.46,1.1,2.46,2.46v3.2c-0.71,0.18-1.31,0.37-1.8,0.55v-3.27
		c0-0.63-0.51-1.14-1.14-1.14h-3.66V91.29z M108,94.9h3.02v3.81c-0.06,0.12-0.11,0.25-0.15,0.39H108V94.9z M107.52,102.81
		c0.03-0.02,0.06-0.03,0.09-0.05c0,0,0.01,0,0.01-0.01c1.19-0.69,2.39-1.18,3.37-1.52c0.22,1.94,0.57,4.82,1.02,7.55
		c0.54,3.25,1.03,5.07,1.46,6.14h-2.97c-2.49-2.76-4.62-7.42-5.44-9.34c-0.11-0.25-0.2-0.48-0.27-0.66
		C105.61,104.06,106.55,103.37,107.52,102.81z M108.18,114.91h-6.25c-1.08-0.72-1.67-1.68-1.61-2.65c0-0.03,0-0.06,0.01-0.09
		c0.14-1.3,1.42-3.02,3.55-4.81C104.87,109.53,106.38,112.54,108.18,114.91z M87.11,110.77v-23.6h7.21h2.23h9.66v14.33
		c-0.95,0.6-1.89,1.31-2.7,2.16c-0.49,0.52-0.64,1.28-0.37,1.93c0.01,0.01,0.01,0.03,0.02,0.04c-1.88,1.51-3.92,3.57-4.48,5.67
		H87.65C87.35,111.31,87.11,111.07,87.11,110.77z M99.35,114.91H89.03v-1.8h9.55C98.69,113.74,98.95,114.35,99.35,114.91z
		 M141.51,118.51H94.27c-0.5,0-0.9,0.4-0.9,0.9c0,0.5,0.4,0.9,0.9,0.9h44.6v0.3c0,0.7-0.57,1.26-1.26,1.26H89.33
		c-0.7,0-1.26-0.57-1.26-1.26v-0.3h17.26c0.5,0,0.9-0.4,0.9-0.9c0-0.5-0.4-0.9-0.9-0.9h-19.9c-0.5,0-0.9-0.4-0.9-0.9
		s0.4-0.9,0.9-0.9h56.08c0.5,0,0.9,0.4,0.9,0.9S142,118.51,141.51,118.51z"/>
	<path d="M143.55,116.32h-0.25c0.64-0.88,0.93-1.89,0.83-2.93c-0.24-2.34-2.53-4.68-4.6-6.35c0.01-0.01,0.01-0.03,0.02-0.04
		c0.27-0.66,0.12-1.42-0.37-1.93c-0.03-0.03-0.07-0.07-0.1-0.1c-2.15-2.71-6.89-4.07-7.23-4.18c-0.06-0.63-0.44-1.2-1.03-1.47
		c-1.28-0.6-4.07-1.6-8.46-1.61c-1.47,0-2.76,0.12-3.88,0.29v-2.84c0-2.35-1.91-4.26-4.26-4.26h-4.17v-3.22c0-0.5-0.4-0.9-0.9-0.9
		H98.58h-2.23h-8.11c-0.5,0-0.9,0.4-0.9,0.9v24.5c0,1.15,0.83,2.1,1.92,2.3v1.84h-1.8c-1.49,0-2.7,1.21-2.7,2.7
		c0,1.49,1.21,2.7,2.7,2.7h0.84v0.3c0,1.69,1.37,3.06,3.06,3.06h48.28c1.69,0,3.06-1.37,3.06-3.06v-0.3h0.84
		c1.49,0,2.7-1.21,2.7-2.7C146.25,117.54,145.04,116.32,143.55,116.32z M142.33,113.58c0.1,1-0.49,1.99-1.65,2.74h-6.2
		c1.79-2.37,3.31-5.38,4.29-7.56C140.92,110.56,142.2,112.29,142.33,113.58z M131.67,102.64c0.58,0.2,1.24,0.48,1.95,0.79
		c0.8,0.34,2.96,1.75,3.11,1.87c0.35,0.28,0.68,0.57,0.99,0.88c0.05,0.06,0.09,0.12,0.14,0.18c-0.07,0.17-0.16,0.38-0.26,0.62
		c-0.82,1.92-2.96,6.59-5.44,9.35h-2.97c0.43-1.07,0.92-2.89,1.46-6.14C131.1,107.46,131.46,104.58,131.67,102.64z M122.35,99.51
		c4.18,0.01,6.77,1.01,7.69,1.44l-0.04,0.4c-0.19,1.77-0.58,5.23-1.12,8.48c-0.89,5.35-1.58,6.34-1.72,6.49h-9.62
		c-0.14-0.15-0.83-1.15-1.72-6.49c-0.54-3.25-0.93-6.7-1.12-8.48l-0.01-0.07c0,0,0,0,0-0.01l-0.03-0.33
		C115.58,100.52,118.17,99.52,122.35,99.51z M110.06,92.71h4.14c1.36,0,2.46,1.1,2.46,2.46v3.2c-0.71,0.18-1.31,0.37-1.8,0.55v-3.27
		c0-0.63-0.51-1.14-1.14-1.14h-3.66V92.71z M110.04,96.31h3.02v3.81c-0.06,0.12-0.11,0.25-0.15,0.39h-2.87V96.31z M109.55,104.22
		c0.03-0.02,0.06-0.03,0.09-0.05c0,0,0.01,0,0.01-0.01c1.19-0.69,2.39-1.18,3.37-1.52c0.22,1.94,0.57,4.82,1.02,7.55
		c0.54,3.25,1.03,5.07,1.46,6.14h-2.97c-2.49-2.76-4.62-7.42-5.44-9.34c-0.11-0.25-0.2-0.48-0.27-0.66
		C107.65,105.48,108.59,104.79,109.55,104.22z M110.22,116.32h-6.25c-1.08-0.72-1.67-1.68-1.61-2.65c0-0.03,0-0.06,0.01-0.09
		c0.14-1.3,1.42-3.02,3.55-4.81C106.9,110.95,108.42,113.95,110.22,116.32z M89.15,112.18v-23.6h7.21h2.23h9.66v14.33
		c-0.95,0.6-1.89,1.31-2.7,2.16c-0.49,0.52-0.64,1.28-0.37,1.93c0.01,0.01,0.01,0.03,0.02,0.04c-1.88,1.51-3.92,3.57-4.48,5.67
		H89.69C89.39,112.72,89.15,112.48,89.15,112.18z M101.39,116.32H91.07v-1.8h9.55C100.73,115.16,100.99,115.77,101.39,116.32z
		 M143.55,119.93H96.31c-0.5,0-0.9,0.4-0.9,0.9s0.4,0.9,0.9,0.9h44.6v0.3c0,0.7-0.57,1.26-1.26,1.26H91.37
		c-0.7,0-1.26-0.57-1.26-1.26v-0.3h17.26c0.5,0,0.9-0.4,0.9-0.9s-0.4-0.9-0.9-0.9h-19.9c-0.5,0-0.9-0.4-0.9-0.9
		c0-0.5,0.4-0.9,0.9-0.9h56.08c0.5,0,0.9,0.4,0.9,0.9C144.45,119.52,144.04,119.93,143.55,119.93z"/>
</g>
<g>
	<g>
		<g>
			<g>
				<path class="st0" d="M327.39,99.46h-25.44c-1.5,0-2.73,1.22-2.73,2.73v1.82c0,6.48,3.58,12.36,9.35,15.35
					c0.45,0.23,0.99,0.06,1.22-0.39c0.23-0.45,0.06-0.99-0.39-1.22c-5.16-2.67-8.36-7.93-8.36-13.73v-1.82
					c0-0.5,0.41-0.91,0.91-0.91h25.44c0.5,0,0.91,0.41,0.91,0.91v1.82c0,5.8-3.21,11.06-8.36,13.73c-0.45,0.23-0.62,0.78-0.39,1.22
					c0.16,0.31,0.48,0.49,0.81,0.49c0.14,0,0.28-0.03,0.42-0.1c5.77-2.98,9.35-8.86,9.35-15.34v-1.82
					C330.11,100.69,328.89,99.46,327.39,99.46z"/>
			</g>
		</g>
		<g>
			<g>
				<path class="st0" d="M335.5,118.19c-0.14-0.34-0.47-0.56-0.84-0.56h-39.98c-0.37,0-0.7,0.22-0.84,0.56
					c-0.14,0.34-0.06,0.73,0.2,0.99l2.04,2.04c1.2,1.2,2.8,1.86,4.5,1.86h28.19c1.7,0,3.3-0.66,4.5-1.86l2.04-2.04
					C335.56,118.93,335.64,118.53,335.5,118.19z M331.98,119.94c-0.86,0.86-2,1.33-3.21,1.33h-28.19c-1.21,0-2.35-0.47-3.21-1.33
					l-0.49-0.49h35.59L331.98,119.94z"/>
			</g>
		</g>
		<g>
			<g>
				<path class="st0" d="M335.62,103.75c-2.45-1.57-6.36,0.13-6.8,0.33c-0.46,0.21-0.66,0.75-0.45,1.2c0.21,0.46,0.75,0.66,1.2,0.45
					c0.88-0.4,3.69-1.34,5.06-0.46c0.62,0.4,0.92,1.17,0.92,2.35c0,3.64-7.34,5.84-10.17,6.38l-0.64,0.13
					c-0.49,0.1-0.81,0.57-0.72,1.07c0.09,0.43,0.47,0.73,0.89,0.73c0.06,0,0.12-0.01,0.18-0.02l0.64-0.13
					c0.48-0.09,11.64-2.28,11.64-8.16C337.38,105.81,336.79,104.51,335.62,103.75z"/>
			</g>
		</g>
		<g>
			<g>
				<path class="st0" d="M321.74,91.85c1.48-1.85,1.48-4.74,0-6.58c-0.31-0.39-0.88-0.46-1.28-0.14c-0.39,0.31-0.46,0.88-0.14,1.28
					c0.94,1.17,0.94,3.14,0,4.32c-1.48,1.85-1.48,4.74,0,6.58c0.18,0.23,0.44,0.34,0.71,0.34c0.2,0,0.4-0.07,0.57-0.2
					c0.39-0.31,0.46-0.89,0.14-1.28C320.8,95,320.8,93.03,321.74,91.85z"/>
			</g>
		</g>
		<g>
			<g>
				<path class="st0" d="M316.28,91.85c1.48-1.85,1.48-4.74,0-6.58c-0.31-0.39-0.88-0.46-1.28-0.14s-0.46,0.89-0.14,1.28
					c0.94,1.17,0.94,3.14,0,4.32c-1.48,1.85-1.48,4.74,0,6.58c0.18,0.23,0.44,0.34,0.71,0.34c0.2,0,0.4-0.07,0.57-0.2
					c0.39-0.31,0.46-0.88,0.14-1.28C315.34,95,315.34,93.03,316.28,91.85z"/>
			</g>
		</g>
		<g>
			<g>
				<path class="st0" d="M310.84,91.86c1.48-1.85,1.48-4.74,0-6.58c-0.31-0.39-0.88-0.46-1.28-0.14c-0.39,0.31-0.45,0.88-0.14,1.28
					c0.94,1.17,0.94,3.14,0,4.32c-1.48,1.85-1.48,4.74,0,6.58c0.18,0.23,0.44,0.34,0.71,0.34c0.2,0,0.4-0.07,0.57-0.2
					c0.39-0.31,0.46-0.89,0.14-1.28C309.9,95,309.9,93.03,310.84,91.86z"/>
			</g>
		</g>
	</g>
	<g>
		<g>
			<g>
				<path d="M329.43,100.88h-25.44c-1.5,0-2.73,1.22-2.73,2.73v1.82c0,6.48,3.58,12.36,9.35,15.35c0.45,0.23,0.99,0.06,1.22-0.39
					c0.23-0.45,0.06-0.99-0.39-1.22c-5.16-2.67-8.36-7.93-8.36-13.73v-1.82c0-0.5,0.41-0.91,0.91-0.91h25.44
					c0.5,0,0.91,0.41,0.91,0.91v1.82c0,5.8-3.21,11.06-8.36,13.73c-0.45,0.23-0.62,0.78-0.39,1.22c0.16,0.31,0.48,0.49,0.81,0.49
					c0.14,0,0.28-0.03,0.42-0.1c5.77-2.98,9.35-8.86,9.35-15.34v-1.82C332.15,102.1,330.93,100.88,329.43,100.88z"/>
			</g>
		</g>
		<g>
			<g>
				<path d="M337.54,119.61c-0.14-0.34-0.47-0.56-0.84-0.56h-39.98c-0.37,0-0.7,0.22-0.84,0.56c-0.14,0.34-0.06,0.73,0.2,0.99
					l2.04,2.04c1.2,1.2,2.8,1.86,4.5,1.86h28.19c1.7,0,3.3-0.66,4.5-1.86l2.04-2.04C337.6,120.34,337.68,119.95,337.54,119.61z
					 M334.02,121.35c-0.86,0.86-2,1.33-3.21,1.33h-28.19c-1.21,0-2.35-0.47-3.21-1.33l-0.49-0.49h35.59L334.02,121.35z"/>
			</g>
		</g>
		<g>
			<g>
				<path d="M337.66,105.17c-2.45-1.57-6.36,0.13-6.8,0.33c-0.46,0.21-0.66,0.75-0.45,1.2c0.21,0.46,0.75,0.66,1.2,0.45
					c0.88-0.4,3.69-1.34,5.06-0.46c0.62,0.4,0.92,1.17,0.92,2.35c0,3.64-7.34,5.84-10.17,6.38l-0.64,0.13
					c-0.49,0.1-0.81,0.57-0.72,1.07c0.09,0.43,0.47,0.73,0.89,0.73c0.06,0,0.12-0.01,0.18-0.02l0.64-0.13
					c0.48-0.09,11.64-2.28,11.64-8.16C339.42,107.23,338.83,105.92,337.66,105.17z"/>
			</g>
		</g>
		<g>
			<g>
				<path d="M323.78,93.27c1.48-1.85,1.48-4.74,0-6.58c-0.31-0.39-0.88-0.46-1.28-0.14c-0.39,0.31-0.46,0.88-0.14,1.28
					c0.94,1.17,0.94,3.14,0,4.32c-1.48,1.85-1.48,4.74,0,6.58c0.18,0.23,0.44,0.34,0.71,0.34c0.2,0,0.4-0.07,0.57-0.2
					c0.39-0.31,0.46-0.89,0.14-1.28C322.84,96.41,322.84,94.44,323.78,93.27z"/>
			</g>
		</g>
		<g>
			<g>
				<path d="M318.32,93.27c1.48-1.85,1.48-4.74,0-6.58c-0.31-0.39-0.88-0.46-1.28-0.14c-0.39,0.31-0.46,0.89-0.14,1.28
					c0.94,1.17,0.94,3.14,0,4.32c-1.48,1.85-1.48,4.74,0,6.58c0.18,0.23,0.44,0.34,0.71,0.34c0.2,0,0.4-0.07,0.57-0.2
					c0.39-0.31,0.46-0.88,0.14-1.28C317.38,96.41,317.38,94.44,318.32,93.27z"/>
			</g>
		</g>
		<g>
			<g>
				<path d="M312.88,93.27c1.48-1.85,1.48-4.74,0-6.58c-0.31-0.39-0.88-0.46-1.28-0.14c-0.39,0.31-0.45,0.88-0.14,1.28
					c0.94,1.17,0.94,3.14,0,4.32c-1.48,1.85-1.48,4.74,0,6.58c0.18,0.23,0.44,0.34,0.71,0.34c0.2,0,0.4-0.07,0.57-0.2
					c0.39-0.31,0.46-0.89,0.14-1.28C311.94,96.41,311.94,94.44,312.88,93.27z"/>
			</g>
		</g>
	</g>
</g>
</svg>
