<?xml version="1.0" encoding="utf-8"?>
<!-- Generator: Adobe Illustrator 24.0.0, SVG Export Plug-In . SVG Version: 6.00 Build 0)  -->
<svg version="1.1" id="Layer_1" xmlns="http://www.w3.org/2000/svg" xmlns:xlink="http://www.w3.org/1999/xlink" x="0px" y="0px"
	 viewBox="0 0 150 85" style="enable-background:new 0 0 150 85;" xml:space="preserve">
<g>
	<g>
		<g>
			<path d="M41.56,70.03h2.97L39.46,85h-2.97l-3.42-11.36L29.58,85h-2.93L21.6,70.03h3.08l3.53,11.87l3.51-11.87h2.82l3.53,11.91
				L41.56,70.03z"/>
			<path d="M62.12,70.85c1.22,0.67,2.18,1.59,2.88,2.76c0.7,1.17,1.05,2.47,1.05,3.89s-0.35,2.73-1.05,3.9
				c-0.7,1.18-1.66,2.11-2.88,2.79c-1.22,0.68-2.57,1.03-4.05,1.03c-1.48,0-2.83-0.34-4.05-1.03c-1.22-0.68-2.18-1.61-2.88-2.79
				c-0.7-1.18-1.05-2.48-1.05-3.9s0.35-2.72,1.05-3.89c0.7-1.17,1.66-2.09,2.88-2.76c1.22-0.67,2.57-1.01,4.05-1.01
				C59.55,69.84,60.9,70.18,62.12,70.85z M55.56,73.08c-0.78,0.45-1.4,1.06-1.86,1.84c-0.46,0.78-0.68,1.64-0.68,2.58
				c0,0.94,0.23,1.8,0.7,2.59c0.46,0.78,1.08,1.4,1.86,1.86c0.78,0.46,1.62,0.68,2.53,0.68c0.9,0,1.73-0.23,2.5-0.68
				c0.77-0.46,1.38-1.08,1.83-1.86c0.45-0.78,0.67-1.65,0.67-2.59c0-0.94-0.22-1.8-0.67-2.58c-0.45-0.78-1.06-1.39-1.83-1.84
				s-1.6-0.67-2.5-0.67C57.2,72.41,56.35,72.63,55.56,73.08z"/>
			<path d="M82.64,85l-2.59-4.43c-0.11,0.01-0.29,0.02-0.53,0.02h-3.38V85h-2.87V70.03h6.24c1.94,0,3.44,0.45,4.49,1.35
				c1.06,0.9,1.58,2.17,1.58,3.81c0,1.17-0.25,2.17-0.76,2.99c-0.51,0.83-1.24,1.45-2.21,1.86L85.91,85H82.64z M76.14,78.07h3.38
				c1.08,0,1.91-0.24,2.48-0.71c0.57-0.47,0.86-1.17,0.86-2.1c0-0.91-0.29-1.6-0.86-2.05c-0.57-0.46-1.4-0.68-2.48-0.68h-3.38V78.07
				z"/>
			<path d="M108.94,85h-3.44l-4.7-6.42l-2.35,2.59V85h-2.87V70.03h2.87v7.46l6.76-7.46h3.38l-5.75,6.33L108.94,85z"/>
			<path d="M124.99,72.79c-0.81-0.26-1.52-0.38-2.13-0.38c-0.68,0-1.23,0.13-1.63,0.38c-0.4,0.26-0.6,0.61-0.6,1.07
				c0,0.41,0.14,0.76,0.42,1.04c0.28,0.28,0.63,0.51,1.05,0.68c0.42,0.18,0.99,0.37,1.72,0.59c1.01,0.3,1.84,0.6,2.49,0.9
				c0.65,0.3,1.2,0.74,1.66,1.33c0.46,0.58,0.68,1.35,0.68,2.31c0,0.91-0.25,1.71-0.74,2.38c-0.49,0.68-1.17,1.19-2.03,1.55
				c-0.86,0.36-1.85,0.53-2.96,0.53c-1.17,0-2.31-0.22-3.42-0.65c-1.11-0.43-2.08-1.02-2.91-1.74l1.2-2.44
				c0.76,0.7,1.6,1.25,2.55,1.65c0.94,0.4,1.82,0.6,2.63,0.6c0.8,0,1.43-0.15,1.88-0.46c0.46-0.31,0.68-0.72,0.68-1.25
				c0-0.43-0.14-0.78-0.42-1.06c-0.28-0.28-0.63-0.5-1.06-0.67c-0.43-0.17-1.01-0.36-1.75-0.58c-1.01-0.3-1.84-0.59-2.48-0.88
				c-0.64-0.29-1.19-0.72-1.65-1.29c-0.46-0.58-0.68-1.34-0.68-2.28c0-0.87,0.23-1.63,0.7-2.28c0.46-0.65,1.12-1.15,1.97-1.51
				c0.85-0.36,1.83-0.53,2.94-0.53c0.97,0,1.93,0.14,2.88,0.43c0.95,0.29,1.79,0.67,2.53,1.15l-1.15,2.5
				C126.59,73.41,125.8,73.05,124.99,72.79z"/>
		</g>
	</g>
	<g>
		<g>
			<path d="M148.63,18.71c-0.76,0-1.37,0.61-1.37,1.37l0,30.54c0,2.84-2.31,5.15-5.15,5.15H8.14C5.31,55.76,3,53.46,3,50.62V7.88
				c0-2.84,2.31-5.15,5.15-5.15H135.1c2.84,0,5.15,2.31,5.15,5.15V40.7v4.09c0,2.84-2.31,5.15-5.15,5.15h-31.08
				c-2.84,0-5.15-2.31-5.15-5.15v-4.66V17.08v-3.37c0-4.35-3.54-7.88-7.88-7.88H59.91c-4.35,0-7.88,3.54-7.88,7.88v3.59v24.01v3.48
				c0,2.84-2.31,5.15-5.15,5.15H15.8c-2.84,0-5.15-2.31-5.15-5.15V17.28c0-0.76-0.61-1.37-1.37-1.37c-0.76,0-1.37,0.61-1.37,1.37
				v27.51c0,4.35,3.54,7.88,7.88,7.88h31.08c4.35,0,7.88-3.54,7.88-7.88v-3.48V17.3v-3.59c0-2.84,2.31-5.15,5.15-5.15h31.08
				c2.84,0,5.15,2.31,5.15,5.15v3.37v23.05v4.66c0,4.35,3.54,7.88,7.88,7.88h31.08c4.35,0,7.88-3.54,7.88-7.88V40.7V7.88V7.19
				c0-0.18-0.04-0.35-0.1-0.51C142.3,2.91,139.04,0,135.1,0H8.14C3.8,0,0.26,3.54,0.26,7.88v42.74c0,4.35,3.54,7.88,7.88,7.88
				h133.97c4.35,0,7.88-3.54,7.88-7.88l0-30.54C150,19.32,149.39,18.71,148.63,18.71z"/>
			<polygon points="23.84,19.91 23.84,37.46 27.2,37.46 27.2,32.97 29.96,29.94 35.47,37.46 39.51,37.46 32.34,27.33 39.08,19.91 
				35.12,19.91 27.2,28.66 27.2,19.91 			"/>
			<polygon points="120.51,37.46 120.51,31.72 126.9,19.91 123.52,19.91 118.8,28.16 114.01,19.91 110.6,19.91 117.15,31.84 
				117.15,37.46 			"/>
			<polygon points="81.95,22.84 81.95,19.9 69.09,19.9 69.09,37.46 82.25,37.46 82.25,34.52 72.45,34.52 72.45,30.11 80.98,30.11 
				80.98,27.18 72.45,27.18 72.45,22.84 			"/>
		</g>
	</g>
</g>
</svg>
