<?xml version="1.0" encoding="utf-8"?>
<!-- Generator: Adobe Illustrator 24.0.0, SVG Export Plug-In . SVG Version: 6.00 Build 0)  -->
<svg version="1.1" id="Layer_1" xmlns="http://www.w3.org/2000/svg" xmlns:xlink="http://www.w3.org/1999/xlink" x="0px" y="0px"
	 viewBox="0 0 50 31" style="enable-background:new 0 0 50 31;" xml:space="preserve">
<g>
	<path d="M24.68,19.53L3.25,0.71C2.97,0.46,3.14,0,3.51,0h42.87c0.37,0,0.55,0.46,0.27,0.71L25.22,19.53
		C25.06,19.67,24.84,19.67,24.68,19.53z M24.95,19.77"/>
	<path d="M15.64,15.79L0.88,28.75c-0.26,0.23-0.67,0.04-0.67-0.3V2.52c0-0.35,0.41-0.53,0.67-0.3l14.76,12.96
		C15.82,15.34,15.82,15.63,15.64,15.79z M15.98,15.48"/>
	<path d="M18.29,17.51l6.39,5.61c0.15,0.13,0.38,0.13,0.53,0l6.39-5.61c0.15-0.13,0.38-0.13,0.53,0l14.53,12.76
		c0.28,0.25,0.11,0.71-0.27,0.71H3.5c-0.37,0-0.55-0.46-0.27-0.71l14.53-12.76C17.91,17.38,18.14,17.38,18.29,17.51z M18.03,17.28"
		/>
	<path d="M34.26,15.18L49.02,2.22c0.26-0.23,0.67-0.04,0.67,0.3v25.92c0,0.35-0.41,0.53-0.67,0.3L34.26,15.79
		C34.08,15.63,34.08,15.34,34.26,15.18z M33.92,15.49"/>
</g>
<g>
	<g>
		<path d="M251.63,325.17h-27.39c-10.22,0-18.53-8.31-18.53-18.53v-27.39c0-10.22,8.31-18.53,18.53-18.53h27.39
			c10.22,0,18.53,8.31,18.53,18.53v27.39C270.15,316.86,261.84,325.17,251.63,325.17z M224.24,265.46c-7.61,0-13.8,6.19-13.8,13.8
			v27.39c0,7.61,6.19,13.8,13.8,13.8h27.39c7.61,0,13.8-6.19,13.8-13.8v-27.39c0-7.61-6.19-13.8-13.8-13.8H224.24z"/>
	</g>
	<g>
		<path d="M237.93,308.14c-8.38,0-15.19-6.81-15.19-15.19s6.81-15.19,15.19-15.19s15.19,6.81,15.19,15.19
			S246.31,308.14,237.93,308.14z M237.93,282.49c-5.77,0-10.46,4.69-10.46,10.46c0,5.77,4.69,10.46,10.46,10.46
			c5.77,0,10.46-4.69,10.46-10.46C248.4,287.18,243.7,282.49,237.93,282.49z"/>
	</g>
	<g>
		<path d="M254.65,279.34c-2.03,0-3.69-1.65-3.69-3.69c0-2.03,1.65-3.69,3.69-3.69c2.03,0,3.69,1.65,3.69,3.69
			C258.34,277.68,256.68,279.34,254.65,279.34z M254.65,274.61c-0.57,0-1.04,0.47-1.04,1.04c0,0.57,0.47,1.04,1.04,1.04
			s1.04-0.47,1.04-1.04C255.69,275.08,255.22,274.61,254.65,274.61z"/>
	</g>
</g>
<g>
	<g>
		<path d="M153.32,325.17h-11.68c-1.97,0-3.58-1.6-3.58-3.58v-18.68c0-1.97,1.6-3.58,3.58-3.58h5.65l0.96-5.77h-6.61
			c-1.97,0-3.58-1.6-3.58-3.58v-4.69c0-1.97,1.6-3.58,3.58-3.58h7.04v-5.77h-7.04c-5.15,0-9.35,4.19-9.35,9.35v4.69
			c0,1.97-1.6,3.58-3.58,3.58h-3.42v5.77h3.42c1.97,0,3.58,1.6,3.58,3.58v18.68c0,1.97-1.6,3.58-3.58,3.58h-15.18
			c-6.8,0-12.32-5.53-12.32-12.32v-39.79c0-6.8,5.53-12.32,12.32-12.32h41.01c6.13,0,11.11,4.98,11.11,11.11v41.01
			C165.65,319.64,160.12,325.17,153.32,325.17z M142.79,320.45h10.54c4.19,0,7.6-3.41,7.6-7.6v-41.01c0-3.52-2.86-6.39-6.38-6.39
			h-41.01c-4.19,0-7.6,3.41-7.6,7.6v39.79c0,4.19,3.41,7.6,7.6,7.6h14.03v-16.39h-3.42c-1.97,0-3.58-1.6-3.58-3.58v-8.07
			c0-1.97,1.6-3.58,3.58-3.58h3.42v-3.54c0-7.76,6.31-14.07,14.07-14.07h8.18c1.97,0,3.58,1.6,3.58,3.58v8.07
			c0,1.97-1.6,3.58-3.58,3.58h-7.04v2.39h6.82c1.05,0,2.05,0.46,2.73,1.26c0.68,0.8,0.97,1.86,0.8,2.9l-1.34,8.07
			c-0.29,1.73-1.77,2.99-3.53,2.99h-5.47V320.45z"/>
	</g>
</g>
<g>
	<g>
		<path d="M364.64,289.29l-18.72-10.24c-1.08-0.59-2.35-0.57-3.4,0.06c-1.06,0.63-1.69,1.73-1.69,2.96v20.31
			c0,1.22,0.63,2.32,1.67,2.95c0.55,0.33,1.15,0.49,1.76,0.49c0.56,0,1.12-0.14,1.63-0.41l18.72-10.07c1.11-0.6,1.81-1.75,1.81-3.02
			C366.43,291.06,365.74,289.89,364.64,289.29z M345.79,299.82v-15.18l13.99,7.66L345.79,299.82z"/>
	</g>
	<g>
		<path d="M393.34,276.14l0-0.04c-0.07-0.68-0.79-6.75-3.74-9.83c-3.41-3.63-7.27-4.07-9.13-4.28c-0.15-0.02-0.29-0.03-0.42-0.05
			l-0.15-0.02c-11.2-0.81-28.12-0.93-28.29-0.93l-0.01,0l-0.01,0c-0.17,0-17.09,0.11-28.39,0.93l-0.15,0.02
			c-0.12,0.02-0.25,0.03-0.4,0.05c-1.84,0.21-5.66,0.65-9.08,4.41c-2.81,3.05-3.62,8.99-3.7,9.66l-0.01,0.09
			c-0.03,0.28-0.62,7.04-0.62,13.82v6.34c0,6.78,0.6,13.54,0.62,13.82l0,0.04c0.07,0.67,0.79,6.63,3.72,9.71
			c3.21,3.51,7.26,3.97,9.44,4.22c0.34,0.04,0.64,0.07,0.84,0.11l0.2,0.03c6.47,0.62,26.75,0.92,27.61,0.93l0.03,0l0.03,0
			c0.17,0,17.09-0.11,28.29-0.93l0.15-0.02c0.14-0.02,0.3-0.04,0.48-0.05c1.83-0.19,5.63-0.6,9-4.31c2.81-3.05,3.62-8.99,3.7-9.66
			l0.01-0.09c0.03-0.28,0.62-7.04,0.62-13.82v-6.34C393.96,283.18,393.36,276.42,393.34,276.14z M389,296.3
			c0,6.28-0.55,12.74-0.6,13.34c-0.21,1.64-1.07,5.39-2.44,6.88c-2.11,2.32-4.28,2.55-5.86,2.72c-0.19,0.02-0.37,0.04-0.53,0.06
			c-10.84,0.78-27.12,0.9-27.87,0.91c-0.84-0.01-20.82-0.32-27.1-0.9c-0.32-0.05-0.67-0.09-1.03-0.13c-1.86-0.21-4.4-0.5-6.35-2.65
			l-0.05-0.05c-1.34-1.4-2.18-4.91-2.39-6.81c-0.04-0.45-0.6-6.99-0.6-13.36v-6.34c0-6.27,0.55-12.73,0.6-13.34
			c0.25-1.93,1.12-5.45,2.44-6.88c2.17-2.39,4.47-2.66,5.98-2.83c0.14-0.02,0.28-0.03,0.4-0.05c10.99-0.79,27.39-0.9,27.98-0.91
			c0.59,0,16.98,0.12,27.88,0.91c0.13,0.02,0.28,0.03,0.44,0.05c1.56,0.18,3.92,0.45,6.08,2.75l0.02,0.02
			c1.34,1.4,2.18,4.97,2.39,6.91c0.04,0.42,0.6,6.98,0.6,13.36V296.3z"/>
	</g>
</g>
</svg>
