<?xml version="1.0" encoding="utf-8"?>
<!-- Generator: Adobe Illustrator 24.0.0, SVG Export Plug-In . SVG Version: 6.00 Build 0)  -->
<svg version="1.1" id="Layer_1" xmlns="http://www.w3.org/2000/svg" xmlns:xlink="http://www.w3.org/1999/xlink" x="0px" y="0px"
	 viewBox="0 0 50 36" style="enable-background:new 0 0 50 36;" xml:space="preserve">
<style type="text/css">
	.st0{fill:#FFED00;}
</style>
<g>
	<text transform="matrix(1 0 0 1 -338.0498 253.4473)"><tspan x="0" y="0" style="font-family:'Montserrat-Medium'; font-size:13.7445px;">Salas de </tspan><tspan x="-4.53" y="16.49" style="font-family:'Montserrat-Medium'; font-size:13.7445px;">reuniones</tspan></text>
</g>
<g>
	<text transform="matrix(1 0 0 1 -337.4844 386.8359)" style="font-family:'Montserrat-Medium'; font-size:13.7445px;">Pet friendly</text>
</g>
<g>
	<text transform="matrix(1 0 0 1 -132.0483 253.4473)"><tspan x="0" y="0" style="font-family:'Montserrat-Medium'; font-size:13.7445px;">Sala de </tspan><tspan x="-1.07" y="16.49" style="font-family:'Montserrat-Medium'; font-size:13.7445px;">chill out</tspan></text>
</g>
<g>
	<text transform="matrix(1 0 0 1 288.5718 386.9785)"><tspan x="0" y="0" style="font-family:'Montserrat-Medium'; font-size:13.7445px;">Café e </tspan><tspan x="-18.29" y="16.49" style="font-family:'Montserrat-Medium'; font-size:13.7445px;">hidratación </tspan></text>
</g>
<g>
	<text transform="matrix(1 0 0 1 240.9209 253.709)"><tspan x="0" y="0" style="font-family:'Montserrat-Medium'; font-size:13.7445px;">Estacionamiento </tspan><tspan x="34.49" y="16.49" style="font-family:'Montserrat-Medium'; font-size:13.7445px;">de bicis</tspan></text>
</g>
<g>
	<text transform="matrix(1 0 0 1 -121.9683 386.9961)" style="font-family:'Montserrat-Medium'; font-size:13.7445px;">Lockers</text>
</g>
<g>
	<text transform="matrix(1 0 0 1 -337.3315 134.9521)"><tspan x="0" y="0" style="font-family:'Montserrat-Medium'; font-size:13.7445px;">Internet de</tspan><tspan x="-9.33" y="16.49" style="font-family:'Montserrat-Medium'; font-size:13.7445px;">alta velocidad</tspan></text>
</g>
<g>
	<text transform="matrix(1 0 0 1 78.6162 387.4189)" style="font-family:'Montserrat-Medium'; font-size:13.7445px;">Café bar</text>
</g>
<g>
	<path class="st0" d="M318.62,202.79c-1.99,0-3.89,0.4-5.62,1.13l-4.14-8.03h5.78c0.63,0,1.14,0.51,1.14,1.14
		c0,0.63-0.51,1.14-1.14,1.14h-1.23c-0.65,0-1.18,0.53-1.18,1.18c0,0.65,0.53,1.18,1.18,1.18h1.23c1.92,0,3.49-1.56,3.49-3.49
		c0-1.92-1.56-3.49-3.49-3.49h-7.71c-0.41,0-0.79,0.21-1,0.56c-0.21,0.35-0.23,0.79-0.04,1.15l2.06,3.99h-16.96l-1.71-3.35h2.71
		c0.65,0,1.18-0.53,1.18-1.18s-0.53-1.18-1.18-1.18h-7.71c-0.65,0-1.18,0.53-1.18,1.18s0.53,1.18,1.18,1.18h2.36l2.28,4.48
		l-2.68,4.16c-2.05-1.11-4.4-1.74-6.9-1.74c-8.04,0-14.59,6.54-14.59,14.59s6.54,14.59,14.59,14.59c7.65,0,13.94-5.92,14.54-13.41
		h3.45l-1.34,4.36h-0.77c-0.65,0-1.18,0.53-1.18,1.18s0.53,1.18,1.18,1.18h4.23c0.65,0,1.18-0.53,1.18-1.18s-0.53-1.18-1.18-1.18h-1
		l1.55-5.03l9.78-15.1l1.14,2.21c-4.13,2.58-6.88,7.17-6.88,12.38c0,8.04,6.54,14.59,14.59,14.59c8.04,0,14.59-6.54,14.59-14.59
		C333.21,209.33,326.66,202.79,318.62,202.79z M290.16,202.79L297,216.2h-3.12c-0.34-4.23-2.49-7.95-5.67-10.4L290.16,202.79z
		 M291.52,216.2H281.5l5.43-8.42C289.47,209.8,291.2,212.8,291.52,216.2z M279.34,229.62c-6.75,0-12.24-5.49-12.24-12.24
		c0-6.75,5.49-12.24,12.24-12.24c2.02,0,3.93,0.5,5.62,1.37l-6.6,10.23c-0.23,0.36-0.25,0.82-0.04,1.2c0.21,0.38,0.6,0.61,1.03,0.61
		h12.18C290.93,224.75,285.69,229.62,279.34,229.62z M299.04,215.03l-6.86-13.44h15.56L299.04,215.03z M318.62,229.62
		c-6.75,0-12.24-5.49-12.24-12.24c0-4.31,2.24-8.1,5.62-10.28l5.58,10.82c0.21,0.4,0.62,0.64,1.05,0.64c0.18,0,0.37-0.04,0.54-0.13
		c0.58-0.3,0.8-1.01,0.51-1.58l-5.58-10.83c1.4-0.56,2.93-0.87,4.53-0.87c6.75,0,12.24,5.49,12.24,12.24
		C330.86,224.13,325.37,229.62,318.62,229.62z"/>
	<path d="M320.66,204.2c-1.99,0-3.89,0.4-5.62,1.13l-4.14-8.03h5.78c0.63,0,1.14,0.51,1.14,1.14c0,0.63-0.51,1.14-1.14,1.14h-1.23
		c-0.65,0-1.18,0.53-1.18,1.18c0,0.65,0.53,1.18,1.18,1.18h1.23c1.92,0,3.49-1.56,3.49-3.49c0-1.92-1.56-3.49-3.49-3.49h-7.71
		c-0.41,0-0.79,0.21-1,0.56c-0.21,0.35-0.23,0.79-0.04,1.15l2.06,3.99h-16.96l-1.71-3.35h2.71c0.65,0,1.18-0.53,1.18-1.18
		s-0.53-1.18-1.18-1.18h-7.71c-0.65,0-1.18,0.53-1.18,1.18s0.53,1.18,1.18,1.18h2.36l2.28,4.48l-2.68,4.16
		c-2.05-1.11-4.4-1.74-6.9-1.74c-8.04,0-14.59,6.54-14.59,14.59s6.54,14.59,14.59,14.59c7.65,0,13.94-5.92,14.54-13.41h3.45
		l-1.34,4.36h-0.77c-0.65,0-1.18,0.53-1.18,1.18s0.53,1.18,1.18,1.18h4.23c0.65,0,1.18-0.53,1.18-1.18s-0.53-1.18-1.18-1.18h-1
		l1.55-5.03l9.78-15.1l1.14,2.21c-4.13,2.58-6.88,7.17-6.88,12.38c0,8.04,6.54,14.59,14.59,14.59c8.04,0,14.59-6.54,14.59-14.59
		C335.25,210.75,328.7,204.2,320.66,204.2z M292.2,204.2l6.84,13.42h-3.12c-0.34-4.23-2.49-7.95-5.67-10.4L292.2,204.2z
		 M293.56,217.62h-10.02l5.43-8.42C291.51,211.22,293.23,214.21,293.56,217.62z M281.38,231.03c-6.75,0-12.24-5.49-12.24-12.24
		c0-6.75,5.49-12.24,12.24-12.24c2.02,0,3.93,0.5,5.62,1.37l-6.6,10.23c-0.23,0.36-0.25,0.82-0.04,1.2c0.21,0.38,0.6,0.61,1.03,0.61
		h12.18C292.97,226.17,287.73,231.03,281.38,231.03z M301.08,216.44l-6.86-13.44h15.56L301.08,216.44z M320.66,231.03
		c-6.75,0-12.24-5.49-12.24-12.24c0-4.31,2.24-8.1,5.62-10.28l5.58,10.82c0.21,0.4,0.62,0.64,1.05,0.64c0.18,0,0.37-0.04,0.54-0.13
		c0.58-0.3,0.8-1.01,0.51-1.58l-5.58-10.83c1.4-0.56,2.93-0.87,4.53-0.87c6.75,0,12.24,5.49,12.24,12.24
		C332.9,225.54,327.41,231.03,320.66,231.03z"/>
</g>
<g>
	<g>
		<path class="st0" d="M47.78,9.84c-6.32-6.32-14.72-9.8-23.65-9.8S6.8,3.52,0.49,9.84c-0.51,0.51-0.51,1.33,0,1.84
			c0.51,0.51,1.33,0.51,1.84,0C8.15,5.85,15.9,2.64,24.13,2.64s15.99,3.21,21.81,9.04c0.25,0.25,0.59,0.38,0.92,0.38
			c0.33,0,0.66-0.13,0.92-0.38C48.29,11.17,48.29,10.34,47.78,9.84z"/>
		<path class="st0" d="M24.13,7.26c-7.01,0-13.59,2.73-18.55,7.68c-0.51,0.51-0.51,1.33,0,1.84c0.25,0.25,0.59,0.38,0.92,0.38
			c0.33,0,0.66-0.13,0.92-0.38c4.46-4.46,10.4-6.92,16.71-6.92c6.31,0,12.25,2.46,16.71,6.92c0.51,0.51,1.33,0.51,1.84,0
			c0.51-0.51,0.51-1.33,0-1.84C37.73,9.99,31.14,7.26,24.13,7.26z"/>
		<path class="st0" d="M24.13,14.33c-5.12,0-9.93,1.99-13.55,5.61c-0.51,0.51-0.51,1.33,0,1.84c0.51,0.51,1.33,0.51,1.84,0
			c3.13-3.13,7.29-4.85,11.71-4.85s8.58,1.72,11.71,4.85c0.25,0.25,0.59,0.38,0.92,0.38c0.33,0,0.66-0.13,0.92-0.38
			c0.51-0.51,0.51-1.33,0-1.84C34.06,16.32,29.25,14.33,24.13,14.33z"/>
		<path class="st0" d="M24.13,21.47c-3.21,0-6.23,1.25-8.49,3.52c-0.51,0.51-0.51,1.33,0,1.84c0.51,0.51,1.33,0.51,1.84,0
			c1.78-1.78,4.14-2.76,6.66-2.76c2.52,0,4.88,0.98,6.66,2.76c0.25,0.25,0.59,0.38,0.92,0.38c0.33,0,0.66-0.13,0.92-0.38
			c0.51-0.51,0.51-1.33,0-1.84C30.36,22.72,27.34,21.47,24.13,21.47z"/>
		<path class="st0" d="M24.13,29.16c-0.66,0-1.33,0.25-1.84,0.76c-1.01,1.01-1.01,2.66,0,3.67c0.51,0.51,1.17,0.76,1.84,0.76
			c0.66,0,1.33-0.25,1.84-0.76c1.01-1.01,1.01-2.66,0-3.67C25.46,29.41,24.8,29.16,24.13,29.16z"/>
	</g>
	<g>
		<path d="M49.62,11.11c-6.32-6.32-14.72-9.8-23.65-9.8S8.64,4.79,2.32,11.11c-0.51,0.51-0.51,1.33,0,1.84
			c0.51,0.51,1.33,0.51,1.84,0c5.83-5.83,13.57-9.04,21.81-9.04s15.99,3.21,21.81,9.04c0.25,0.25,0.59,0.38,0.92,0.38
			c0.33,0,0.66-0.13,0.92-0.38C50.13,12.44,50.13,11.62,49.62,11.11z"/>
		<path d="M25.97,8.53c-7.01,0-13.59,2.73-18.55,7.68c-0.51,0.51-0.51,1.33,0,1.84c0.25,0.25,0.59,0.38,0.92,0.38
			c0.33,0,0.66-0.13,0.92-0.38c4.46-4.46,10.4-6.92,16.71-6.92c6.31,0,12.25,2.46,16.71,6.92c0.51,0.51,1.33,0.51,1.84,0
			c0.51-0.51,0.51-1.33,0-1.84C39.56,11.26,32.98,8.53,25.97,8.53z"/>
		<path d="M25.97,15.6c-5.12,0-9.93,1.99-13.55,5.61c-0.51,0.51-0.51,1.33,0,1.84c0.51,0.51,1.33,0.51,1.84,0
			c3.13-3.13,7.29-4.85,11.71-4.85s8.58,1.72,11.71,4.85c0.25,0.25,0.59,0.38,0.92,0.38c0.33,0,0.66-0.13,0.92-0.38
			c0.51-0.51,0.51-1.33,0-1.84C35.9,17.59,31.09,15.6,25.97,15.6z"/>
		<path d="M25.97,22.75c-3.21,0-6.23,1.25-8.49,3.52c-0.51,0.51-0.51,1.33,0,1.84c0.51,0.51,1.33,0.51,1.84,0
			c1.78-1.78,4.14-2.76,6.66-2.76c2.52,0,4.88,0.98,6.66,2.76c0.25,0.25,0.59,0.38,0.92,0.38c0.33,0,0.66-0.13,0.92-0.38
			c0.51-0.51,0.51-1.33,0-1.84C32.2,24,29.18,22.75,25.97,22.75z"/>
		<path d="M25.97,30.43c-0.66,0-1.33,0.25-1.84,0.76c-1.01,1.01-1.01,2.66,0,3.67c0.51,0.51,1.17,0.76,1.84,0.76
			s1.33-0.25,1.84-0.76c1.01-1.01,1.01-2.66,0-3.67C27.3,30.68,26.64,30.43,25.97,30.43z"/>
	</g>
</g>
<g>
	<path class="st0" d="M-76.02,203.86h-1.36v-5.05c0-2.98-2.43-5.41-5.41-5.41h-19.61c-1.82,0-3.43,0.9-4.41,2.28
		c-0.98-1.38-2.59-2.28-4.41-2.28h-11.36h-0.96h-4.01h-0.89h-2.4c-2.98,0-5.41,2.43-5.41,5.41v5.05h-1.36
		c-1.87,0-3.39,1.52-3.39,3.39v10.46c0,3.89,3.17,7.06,7.06,7.06h0.5c0,0-1.1,2.95-1.1,2.95c-0.69,1.86,0.73,3.9,2.71,3.9h1.61
		c0.9,0,1.77-0.43,2.31-1.15l4.32-5.71h33.54l4.32,5.71c0.54,0.72,1.41,1.15,2.31,1.15c0,0,1.61,0,1.61,0c1.98,0,3.41-2.04,2.71-3.9
		l-1.1-2.95h0.5c3.89,0,7.06-3.17,7.06-7.06v-10.46C-72.63,205.38-74.15,203.86-76.02,203.86z M-105.82,198.81
		c0-1.88,1.53-3.41,3.41-3.41h19.61c1.88,0,3.41,1.53,3.41,3.41v5.05c0,0-1.89,0-1.89,0c-1.33,0-2.61,0.85-3.13,2.08
		c-0.14,0.34-0.23,0.71-0.26,1.08c0,0-16.68,0-16.68,0c-1.65,0-3.29,0.66-4.48,1.8V198.81z M-105.82,213.51
		c0-2.47,2.01-4.48,4.48-4.48h16.67v5.91l-21.16,0V213.51z M-134.25,198.81c0-1.88,1.53-3.41,3.41-3.41h19.61
		c1.88,0,3.41,1.53,3.41,3.41v10.02c-0.02-0.02-0.04-0.04-0.06-0.06c-1.19-1.11-2.8-1.74-4.42-1.74h-16.68
		c-0.09-1.34-1.01-2.53-2.27-2.98c-0.36-0.13-0.73-0.19-1.11-0.19h-1.89V198.81z M-107.82,213.51v1.42h-21.16v-5.91h16.67
		C-109.83,209.03-107.82,211.04-107.82,213.51z M-129.5,229.26c-0.17,0.22-0.43,0.35-0.71,0.35c0,0-1.61,0-1.61,0
		c-0.61,0-1.05-0.63-0.84-1.2l1.36-3.65h5.21L-129.5,229.26z M-81.81,229.61h-1.61c-0.28,0-0.54-0.13-0.71-0.35l-3.4-4.5h5.21
		c0,0,1.35,3.64,1.36,3.65C-80.76,228.99-81.2,229.61-81.81,229.61z M-79.69,222.76h-54.26c-2.79,0-5.05-2.27-5.05-5.05v-10.46
		c0-0.76,0.62-1.39,1.39-1.39h5.25c0.76,0,1.39,0.62,1.39,1.39v8.69c0,0.55,0.45,1,1,1l46.32,0c0.55,0,1-0.45,1-1v-8.69
		c0-0.76,0.62-1.39,1.39-1.39h5.25c0.76,0,1.39,0.62,1.39,1.39v10.46h0C-74.64,220.49-76.9,222.76-79.69,222.76z"/>
	<path d="M-73.98,205.27h-1.36v-5.05c0-2.98-2.43-5.41-5.41-5.41h-19.61c-1.82,0-3.43,0.9-4.41,2.28c-0.98-1.38-2.59-2.28-4.41-2.28
		h-11.36h-0.96h-4.01h-0.89h-2.4c-2.98,0-5.41,2.43-5.41,5.41v5.05h-1.36c-1.87,0-3.39,1.52-3.39,3.39v10.46
		c0,3.89,3.17,7.06,7.06,7.06h0.5c0,0-1.1,2.95-1.1,2.95c-0.69,1.86,0.73,3.9,2.71,3.9h1.61c0.9,0,1.77-0.43,2.31-1.15l4.32-5.71
		h33.54l4.32,5.71c0.54,0.72,1.41,1.15,2.31,1.15c0,0,1.61,0,1.61,0c1.98,0,3.41-2.04,2.71-3.9l-1.1-2.95h0.5
		c3.89,0,7.06-3.17,7.06-7.06v-10.46C-70.59,206.79-72.11,205.27-73.98,205.27z M-103.78,200.22c0-1.88,1.53-3.41,3.41-3.41h19.61
		c1.88,0,3.41,1.53,3.41,3.41v5.05c0,0-1.89,0-1.89,0c-1.33,0-2.61,0.85-3.13,2.08c-0.14,0.34-0.23,0.71-0.26,1.08
		c0,0-16.68,0-16.68,0c-1.65,0-3.29,0.66-4.48,1.8V200.22z M-103.78,214.92c0-2.47,2.01-4.48,4.48-4.48h16.67v5.91l-21.16,0V214.92z
		 M-132.21,200.22c0-1.88,1.53-3.41,3.41-3.41h19.61c1.88,0,3.41,1.53,3.41,3.41v10.02c-0.02-0.02-0.04-0.04-0.06-0.06
		c-1.19-1.11-2.8-1.74-4.42-1.74h-16.68c-0.09-1.34-1.01-2.53-2.27-2.98c-0.36-0.13-0.73-0.19-1.11-0.19h-1.89V200.22z
		 M-105.78,214.92v1.42h-21.16v-5.91h16.67C-107.79,210.44-105.78,212.45-105.78,214.92z M-127.46,230.67
		c-0.17,0.22-0.43,0.35-0.71,0.35c0,0-1.61,0-1.61,0c-0.61,0-1.05-0.63-0.84-1.2l1.36-3.65h5.21L-127.46,230.67z M-79.77,231.03
		h-1.61c-0.28,0-0.54-0.13-0.71-0.35l-3.4-4.5h5.21c0,0,1.35,3.64,1.36,3.65C-78.72,230.4-79.16,231.03-79.77,231.03z
		 M-77.65,224.17h-54.26c-2.79,0-5.05-2.27-5.05-5.05v-10.46c0-0.76,0.62-1.39,1.39-1.39h5.25c0.76,0,1.39,0.62,1.39,1.39v8.69
		c0,0.55,0.45,1,1,1l46.32,0c0.55,0,1-0.45,1-1v-8.69c0-0.76,0.62-1.39,1.39-1.39h5.25c0.76,0,1.39,0.62,1.39,1.39v10.46h0
		C-72.6,221.9-74.86,224.17-77.65,224.17z"/>
</g>
<g>
	<g>
		<g>
			<g>
				<path class="st0" d="M-293.76,205.46c0.56-0.57,0.91-1.35,0.91-2.21v-0.6c0-1.73-1.41-3.14-3.14-3.14s-3.14,1.41-3.14,3.14v0.6
					c0,0.86,0.35,1.64,0.91,2.21c-1.23,0.67-2.12,1.88-2.35,3.31h-3.42c-1.23,0-2.24,1-2.24,2.24c0,0.26,0.05,0.51,0.13,0.75h-8.77
					c0.08-0.23,0.13-0.48,0.13-0.75c0-1.23-1-2.24-2.24-2.24h-3.42c-0.23-1.43-1.12-2.64-2.35-3.31c0.57-0.57,0.91-1.35,0.91-2.21
					v-0.6c0-1.73-1.41-3.14-3.14-3.14c-1.73,0-3.14,1.41-3.14,3.14v0.6c0,0.86,0.35,1.64,0.91,2.21c-1.43,0.79-2.41,2.31-2.41,4.06
					v7.47v0.91c0,2.34,1.9,4.24,4.24,4.24h5.91v7.13c0,0.3,0.06,0.59,0.16,0.86h-2.95c-0.41,0-0.75,0.33-0.75,0.75
					c0,0.41,0.33,0.75,0.75,0.75h26.7c0.41,0,0.75-0.33,0.75-0.75c0-0.41-0.33-0.75-0.75-0.75h-6.16c0.1-0.27,0.16-0.56,0.16-0.86
					v-0.86c0-0.41-0.33-0.75-0.75-0.75S-303,228-303,228.41v0.86c0,0.47-0.39,0.86-0.86,0.86s-0.86-0.39-0.86-0.86v-9.43
					c0-1.16,0.95-2.11,2.11-2.11h2.74h0.6h6.42v0.16c0,1.52-1.23,2.75-2.75,2.75h-6.66c-0.41,0-0.75,0.33-0.75,0.75v7.81
					c0,0.41,0.33,0.75,0.75,0.75s0.75-0.33,0.75-0.75v-7.07h5.91c2.34,0,4.24-1.9,4.24-4.24v-0.91v-7.47
					C-291.35,207.78-292.33,206.25-293.76,205.46z M-297.62,202.65c0-0.91,0.74-1.64,1.64-1.64c0.91,0,1.64,0.74,1.64,1.64v0.6
					c0,0.91-0.74,1.64-1.64,1.64c-0.91,0-1.64-0.74-1.64-1.64V202.65z M-326.59,202.65c0-0.91,0.74-1.64,1.64-1.64
					c0.91,0,1.64,0.74,1.64,1.64v0.6c0,0.91-0.74,1.64-1.64,1.64c-0.91,0-1.64-0.74-1.64-1.64V202.65z M-328.08,209.52
					c0-1.73,1.41-3.14,3.14-3.14c1.73,0,3.14,1.41,3.14,3.14c0,0.41,0.33,0.75,0.75,0.75h4.11c0.41,0,0.75,0.33,0.75,0.75
					c0,0.41-0.33,0.75-0.75,0.75h-4.35c-1.19,0-2.27-0.65-2.83-1.7c-0.19-0.36-0.65-0.5-1.01-0.31c-0.36,0.19-0.5,0.65-0.31,1.01
					c0.75,1.4,2.13,2.31,3.69,2.46c-0.03,0.08-0.04,0.16-0.04,0.25v2.76h-6.27V209.52z M-318.87,216.24h-1.45v-2.76
					c0-0.08-0.01-0.15-0.03-0.22h1.48c-0.25,0.44-0.4,0.95-0.4,1.49C-319.27,215.29-319.13,215.8-318.87,216.24z M-316.21,229.27
					c0,0.47-0.39,0.86-0.86,0.86s-0.86-0.39-0.86-0.86v-7.88c0-0.41-0.33-0.75-0.75-0.75h-6.66c-1.52,0-2.75-1.23-2.75-2.75v-0.16
					h6.42h0.6h2.74c1.16,0,2.11,0.95,2.11,2.11V229.27z M-312.7,230.13h-2.18c0.1-0.27,0.16-0.56,0.16-0.86v-9.43
					c0-0.79-0.25-1.52-0.68-2.11h2.7V230.13z M-309.72,230.13h-1.49v-12.39h1.49V230.13z M-306.05,230.13h-2.18v-12.39h2.7
					c-0.43,0.59-0.68,1.32-0.68,2.11v9.43C-306.21,229.57-306.15,229.86-306.05,230.13z M-304.64,216.24h-11.65
					c-0.82,0-1.49-0.67-1.49-1.49s0.67-1.49,1.49-1.49h11.65c0.82,0,1.49,0.67,1.49,1.49S-303.82,216.24-304.64,216.24z
					 M-300.61,213.48v2.76h-1.45c0.25-0.44,0.4-0.95,0.4-1.49c0-0.54-0.15-1.05-0.4-1.49h1.48
					C-300.6,213.33-300.61,213.4-300.61,213.48z M-292.85,216.24h-6.27v-2.76c0-0.09-0.01-0.17-0.04-0.25
					c1.55-0.15,2.94-1.07,3.69-2.46c0.19-0.36,0.06-0.82-0.31-1.01c-0.36-0.19-0.82-0.06-1.01,0.31c-0.56,1.05-1.65,1.7-2.83,1.7
					h-4.35c-0.41,0-0.75-0.33-0.75-0.75c0-0.41,0.33-0.75,0.75-0.75h4.11c0.41,0,0.75-0.33,0.75-0.75c0-1.73,1.41-3.14,3.14-3.14
					s3.14,1.41,3.14,3.14V216.24z"/>
			</g>
		</g>
		<g>
			<g>
				<path class="st0" d="M-305.09,193.4h-10.75c-1.23,0-2.24,1-2.24,2.24v7.32c0,1.23,1,2.24,2.24,2.24h2.6l2.24,2.24
					c0.15,0.15,0.34,0.22,0.53,0.22c0.19,0,0.38-0.07,0.53-0.22l2.24-2.24h2.6c1.23,0,2.24-1,2.24-2.24v-7.32
					C-302.85,194.4-303.86,193.4-305.09,193.4z M-304.34,202.95c0,0.41-0.33,0.75-0.75,0.75H-308c-0.2,0-0.39,0.08-0.53,0.22
					l-1.94,1.94l-1.94-1.94c-0.14-0.14-0.33-0.22-0.53-0.22h-2.91c-0.41,0-0.75-0.33-0.75-0.75v-7.32c0-0.41,0.33-0.75,0.75-0.75
					h10.75c0.41,0,0.75,0.33,0.75,0.75V202.95z"/>
			</g>
		</g>
		<g>
			<g>
				<path class="st0" d="M-313.45,198.48c-0.14-0.14-0.33-0.22-0.53-0.22s-0.39,0.08-0.53,0.22c-0.14,0.14-0.22,0.33-0.22,0.53
					s0.08,0.39,0.22,0.53c0.14,0.14,0.33,0.22,0.53,0.22s0.39-0.08,0.53-0.22c0.14-0.14,0.22-0.33,0.22-0.53
					S-313.31,198.62-313.45,198.48z"/>
			</g>
		</g>
		<g>
			<g>
				<path class="st0" d="M-309.94,198.48c-0.14-0.14-0.33-0.22-0.53-0.22c-0.2,0-0.39,0.08-0.53,0.22s-0.22,0.33-0.22,0.53
					s0.08,0.39,0.22,0.53c0.14,0.14,0.33,0.22,0.53,0.22c0.2,0,0.39-0.08,0.53-0.22c0.14-0.14,0.22-0.33,0.22-0.53
					S-309.8,198.62-309.94,198.48z"/>
			</g>
		</g>
		<g>
			<g>
				<path class="st0" d="M-306.43,198.48c-0.14-0.14-0.33-0.22-0.53-0.22s-0.39,0.08-0.53,0.22c-0.14,0.14-0.22,0.33-0.22,0.53
					s0.08,0.39,0.22,0.53c0.14,0.14,0.33,0.22,0.53,0.22s0.39-0.08,0.53-0.22c0.14-0.14,0.22-0.33,0.22-0.53
					S-306.29,198.62-306.43,198.48z"/>
			</g>
		</g>
	</g>
	<g>
		<g>
			<g>
				<path d="M-291.72,206.88c0.56-0.57,0.91-1.35,0.91-2.21v-0.6c0-1.73-1.41-3.14-3.14-3.14c-1.73,0-3.14,1.41-3.14,3.14v0.6
					c0,0.86,0.35,1.64,0.91,2.21c-1.23,0.67-2.12,1.88-2.35,3.31h-3.42c-1.23,0-2.24,1-2.24,2.24c0,0.26,0.05,0.51,0.13,0.75h-8.77
					c0.08-0.23,0.13-0.48,0.13-0.75c0-1.23-1-2.24-2.24-2.24h-3.42c-0.23-1.43-1.12-2.64-2.35-3.31c0.57-0.57,0.91-1.35,0.91-2.21
					v-0.6c0-1.73-1.41-3.14-3.14-3.14s-3.14,1.41-3.14,3.14v0.6c0,0.86,0.35,1.64,0.91,2.21c-1.43,0.79-2.41,2.31-2.41,4.06v7.47
					v0.91c0,2.34,1.9,4.24,4.24,4.24h5.91v7.13c0,0.3,0.06,0.59,0.16,0.86h-2.95c-0.41,0-0.75,0.33-0.75,0.75
					c0,0.41,0.33,0.75,0.75,0.75h26.7c0.41,0,0.75-0.33,0.75-0.75c0-0.41-0.33-0.75-0.75-0.75h-6.16c0.1-0.27,0.16-0.56,0.16-0.86
					v-0.86c0-0.41-0.33-0.75-0.75-0.75s-0.75,0.33-0.75,0.75v0.86c0,0.47-0.39,0.86-0.86,0.86s-0.86-0.39-0.86-0.86v-9.43
					c0-1.16,0.95-2.11,2.11-2.11h2.74h0.6h6.42v0.16c0,1.52-1.23,2.75-2.75,2.75h-6.66c-0.41,0-0.75,0.33-0.75,0.75v7.81
					c0,0.41,0.33,0.75,0.75,0.75s0.75-0.33,0.75-0.75v-7.07h5.91c2.34,0,4.24-1.9,4.24-4.24v-0.91v-7.47
					C-289.31,209.19-290.29,207.66-291.72,206.88z M-295.59,204.07c0-0.91,0.74-1.64,1.64-1.64c0.91,0,1.64,0.74,1.64,1.64v0.6
					c0,0.91-0.74,1.64-1.64,1.64c-0.91,0-1.64-0.74-1.64-1.64V204.07z M-324.55,204.07c0-0.91,0.74-1.64,1.64-1.64
					c0.91,0,1.64,0.74,1.64,1.64v0.6c0,0.91-0.74,1.64-1.64,1.64c-0.91,0-1.64-0.74-1.64-1.64V204.07z M-326.04,210.94
					c0-1.73,1.41-3.14,3.14-3.14s3.14,1.41,3.14,3.14c0,0.41,0.33,0.75,0.75,0.75h4.11c0.41,0,0.75,0.33,0.75,0.75
					c0,0.41-0.33,0.75-0.75,0.75h-4.35c-1.19,0-2.27-0.65-2.83-1.7c-0.19-0.36-0.65-0.5-1.01-0.31c-0.36,0.19-0.5,0.65-0.31,1.01
					c0.75,1.4,2.13,2.31,3.69,2.46c-0.03,0.08-0.04,0.16-0.04,0.25v2.76h-6.27V210.94z M-316.83,217.66h-1.45v-2.76
					c0-0.08-0.01-0.15-0.03-0.22h1.48c-0.25,0.44-0.4,0.95-0.4,1.49C-317.24,216.71-317.09,217.22-316.83,217.66z M-314.17,230.68
					c0,0.47-0.39,0.86-0.86,0.86s-0.86-0.39-0.86-0.86v-7.88c0-0.41-0.33-0.75-0.75-0.75h-6.66c-1.52,0-2.75-1.23-2.75-2.75v-0.16
					h6.42h0.6h2.74c1.16,0,2.11,0.95,2.11,2.11V230.68z M-310.67,231.54h-2.18c0.1-0.27,0.16-0.56,0.16-0.86v-9.43
					c0-0.79-0.25-1.52-0.68-2.11h2.7V231.54z M-307.68,231.54h-1.49v-12.39h1.49V231.54z M-304.01,231.54h-2.18v-12.39h2.7
					c-0.43,0.59-0.68,1.32-0.68,2.11v9.43C-304.17,230.99-304.11,231.27-304.01,231.54z M-302.6,217.66h-11.65
					c-0.82,0-1.49-0.67-1.49-1.49s0.67-1.49,1.49-1.49h11.65c0.82,0,1.49,0.67,1.49,1.49S-301.78,217.66-302.6,217.66z
					 M-298.57,214.89v2.76h-1.45c0.25-0.44,0.4-0.95,0.4-1.49c0-0.54-0.15-1.05-0.4-1.49h1.48
					C-298.56,214.74-298.57,214.81-298.57,214.89z M-290.81,217.66h-6.27v-2.76c0-0.09-0.01-0.17-0.04-0.25
					c1.55-0.15,2.94-1.07,3.69-2.46c0.19-0.36,0.06-0.82-0.31-1.01c-0.36-0.19-0.82-0.06-1.01,0.31c-0.56,1.05-1.65,1.7-2.83,1.7
					h-4.35c-0.41,0-0.75-0.33-0.75-0.75c0-0.41,0.33-0.75,0.75-0.75h4.11c0.41,0,0.75-0.33,0.75-0.75c0-1.73,1.41-3.14,3.14-3.14
					c1.73,0,3.14,1.41,3.14,3.14V217.66z"/>
			</g>
		</g>
		<g>
			<g>
				<path d="M-303.05,194.81h-10.75c-1.23,0-2.24,1-2.24,2.24v7.32c0,1.23,1,2.24,2.24,2.24h2.6l2.24,2.24
					c0.15,0.15,0.34,0.22,0.53,0.22c0.19,0,0.38-0.07,0.53-0.22l2.24-2.24h2.6c1.23,0,2.24-1,2.24-2.24v-7.32
					C-300.81,195.82-301.82,194.81-303.05,194.81z M-302.3,204.37c0,0.41-0.33,0.75-0.75,0.75h-2.91c-0.2,0-0.39,0.08-0.53,0.22
					l-1.94,1.94l-1.94-1.94c-0.14-0.14-0.33-0.22-0.53-0.22h-2.91c-0.41,0-0.75-0.33-0.75-0.75v-7.32c0-0.41,0.33-0.75,0.75-0.75
					h10.75c0.41,0,0.75,0.33,0.75,0.75V204.37z"/>
			</g>
		</g>
		<g>
			<g>
				<path d="M-311.41,199.89c-0.14-0.14-0.33-0.22-0.53-0.22s-0.39,0.08-0.53,0.22c-0.14,0.14-0.22,0.33-0.22,0.53
					s0.08,0.39,0.22,0.53c0.14,0.14,0.33,0.22,0.53,0.22s0.39-0.08,0.53-0.22c0.14-0.14,0.22-0.33,0.22-0.53
					S-311.27,200.03-311.41,199.89z"/>
			</g>
		</g>
		<g>
			<g>
				<path d="M-307.9,199.89c-0.14-0.14-0.33-0.22-0.53-0.22c-0.2,0-0.39,0.08-0.53,0.22s-0.22,0.33-0.22,0.53s0.08,0.39,0.22,0.53
					c0.14,0.14,0.33,0.22,0.53,0.22c0.2,0,0.39-0.08,0.53-0.22c0.14-0.14,0.22-0.33,0.22-0.53S-307.76,200.03-307.9,199.89z"/>
			</g>
		</g>
		<g>
			<g>
				<path d="M-304.39,199.89c-0.14-0.14-0.33-0.22-0.53-0.22s-0.39,0.08-0.53,0.22c-0.14,0.14-0.22,0.33-0.22,0.53
					s0.08,0.39,0.22,0.53c0.14,0.14,0.33,0.22,0.53,0.22s0.39-0.08,0.53-0.22c0.14-0.14,0.22-0.33,0.22-0.53
					S-304.25,200.03-304.39,199.89z"/>
			</g>
		</g>
	</g>
</g>
<g>
	<g>
		<path class="st0" d="M-106.47,330.19h-5.82c-0.34,0-0.61,0.27-0.61,0.61c0,0.34,0.27,0.61,0.61,0.61h5.82
			c0.34,0,0.61-0.27,0.61-0.61C-105.86,330.47-106.13,330.19-106.47,330.19z"/>
		<path class="st0" d="M-106.47,332.63h-5.82c-0.34,0-0.61,0.27-0.61,0.61c0,0.34,0.27,0.61,0.61,0.61h5.82
			c0.34,0,0.61-0.27,0.61-0.61C-105.86,332.9-106.13,332.63-106.47,332.63z"/>
		<path class="st0" d="M-106.47,335.07h-5.82c-0.34,0-0.61,0.27-0.61,0.61c0,0.34,0.27,0.61,0.61,0.61h5.82
			c0.34,0,0.61-0.27,0.61-0.61C-105.86,335.34-106.13,335.07-106.47,335.07z"/>
		<path class="st0" d="M-106.47,353.33h-5.82c-0.34,0-0.61,0.27-0.61,0.61c0,0.34,0.27,0.61,0.61,0.61h5.82
			c0.34,0,0.61-0.27,0.61-0.61C-105.86,353.61-106.13,353.33-106.47,353.33z"/>
		<path class="st0" d="M-106.47,355.77h-5.82c-0.34,0-0.61,0.27-0.61,0.61c0,0.34,0.27,0.61,0.61,0.61h5.82
			c0.34,0,0.61-0.27,0.61-0.61C-105.86,356.04-106.13,355.77-106.47,355.77z"/>
		<path class="st0" d="M-106.47,358.2h-5.82c-0.34,0-0.61,0.27-0.61,0.61c0,0.34,0.27,0.61,0.61,0.61h5.82
			c0.34,0,0.61-0.27,0.61-0.61C-105.86,358.48-106.13,358.2-106.47,358.2z"/>
		<path class="st0" d="M-111.07,346.64c1.01,0,1.83-0.82,1.83-1.83c0-1.01-0.82-1.83-1.83-1.83s-1.83,0.82-1.83,1.83
			C-112.89,345.82-112.07,346.64-111.07,346.64z M-111.07,344.2c0.34,0,0.61,0.27,0.61,0.61c0,0.34-0.27,0.61-0.61,0.61
			s-0.61-0.27-0.61-0.61C-111.68,344.47-111.4,344.2-111.07,344.2z"/>
		<path class="st0" d="M-94.15,330.19h-5.82c-0.34,0-0.61,0.27-0.61,0.61c0,0.34,0.27,0.61,0.61,0.61h5.82
			c0.34,0,0.61-0.27,0.61-0.61C-93.54,330.47-93.82,330.19-94.15,330.19z"/>
		<path class="st0" d="M-94.15,332.63h-5.82c-0.34,0-0.61,0.27-0.61,0.61c0,0.34,0.27,0.61,0.61,0.61h5.82
			c0.34,0,0.61-0.27,0.61-0.61C-93.54,332.9-93.82,332.63-94.15,332.63z"/>
		<path class="st0" d="M-94.15,335.07h-5.82c-0.34,0-0.61,0.27-0.61,0.61c0,0.34,0.27,0.61,0.61,0.61h5.82
			c0.34,0,0.61-0.27,0.61-0.61C-93.54,335.34-93.82,335.07-94.15,335.07z"/>
		<path class="st0" d="M-94.15,353.33h-5.82c-0.34,0-0.61,0.27-0.61,0.61c0,0.34,0.27,0.61,0.61,0.61h5.82
			c0.34,0,0.61-0.27,0.61-0.61C-93.54,353.61-93.82,353.33-94.15,353.33z"/>
		<path class="st0" d="M-94.15,355.77h-5.82c-0.34,0-0.61,0.27-0.61,0.61c0,0.34,0.27,0.61,0.61,0.61h5.82
			c0.34,0,0.61-0.27,0.61-0.61C-93.54,356.04-93.82,355.77-94.15,355.77z"/>
		<path class="st0" d="M-94.15,358.2h-5.82c-0.34,0-0.61,0.27-0.61,0.61c0,0.34,0.27,0.61,0.61,0.61h5.82
			c0.34,0,0.61-0.27,0.61-0.61C-93.54,358.48-93.82,358.2-94.15,358.2z"/>
		<path class="st0" d="M-98.75,346.64c1.01,0,1.83-0.82,1.83-1.83c0-1.01-0.82-1.83-1.83-1.83s-1.83,0.82-1.83,1.83
			C-100.58,345.82-99.76,346.64-98.75,346.64z M-98.75,344.2c0.34,0,0.61,0.27,0.61,0.61c0,0.34-0.27,0.61-0.61,0.61
			s-0.61-0.27-0.61-0.61C-99.36,344.47-99.09,344.2-98.75,344.2z"/>
		<path class="st0" d="M-87.66,331.41h5.82c0.34,0,0.61-0.27,0.61-0.61c0-0.34-0.27-0.61-0.61-0.61h-5.82
			c-0.34,0-0.61,0.27-0.61,0.61C-88.27,331.14-87.99,331.41-87.66,331.41z"/>
		<path class="st0" d="M-81.84,332.63h-5.82c-0.34,0-0.61,0.27-0.61,0.61c0,0.34,0.27,0.61,0.61,0.61h5.82
			c0.34,0,0.61-0.27,0.61-0.61C-81.23,332.9-81.5,332.63-81.84,332.63z"/>
		<path class="st0" d="M-81.84,335.07h-5.82c-0.34,0-0.61,0.27-0.61,0.61c0,0.34,0.27,0.61,0.61,0.61h5.82
			c0.34,0,0.61-0.27,0.61-0.61C-81.23,335.34-81.5,335.07-81.84,335.07z"/>
		<path class="st0" d="M-81.84,353.33h-5.82c-0.34,0-0.61,0.27-0.61,0.61c0,0.34,0.27,0.61,0.61,0.61h5.82
			c0.34,0,0.61-0.27,0.61-0.61C-81.23,353.61-81.5,353.33-81.84,353.33z"/>
		<path class="st0" d="M-81.84,355.77h-5.82c-0.34,0-0.61,0.27-0.61,0.61c0,0.34,0.27,0.61,0.61,0.61h5.82
			c0.34,0,0.61-0.27,0.61-0.61C-81.23,356.04-81.5,355.77-81.84,355.77z"/>
		<path class="st0" d="M-81.84,358.2h-5.82c-0.34,0-0.61,0.27-0.61,0.61c0,0.34,0.27,0.61,0.61,0.61h5.82
			c0.34,0,0.61-0.27,0.61-0.61C-81.23,358.48-81.5,358.2-81.84,358.2z"/>
		<path class="st0" d="M-86.44,346.64c1.01,0,1.83-0.82,1.83-1.83c0-1.01-0.82-1.83-1.83-1.83c-1.01,0-1.83,0.82-1.83,1.83
			C-88.27,345.82-87.45,346.64-86.44,346.64z M-86.44,344.2c0.34,0,0.61,0.27,0.61,0.61c0,0.34-0.27,0.61-0.61,0.61
			s-0.61-0.27-0.61-0.61C-87.05,344.47-86.78,344.2-86.44,344.2z"/>
		<path class="st0" d="M-78.59,326.95h-36.94c-0.34,0-0.61,0.27-0.61,0.61v36.94c0,0.34,0.27,0.61,0.61,0.61s0.61-0.27,0.61-0.61
			v-1.83h11.1v1.83c0,0.34,0.27,0.61,0.61,0.61s0.61-0.27,0.61-0.61v-1.83h11.1v1.83c0,0.34,0.27,0.61,0.61,0.61
			c0.34,0,0.61-0.27,0.61-0.61v-1.83h11.1v1.83c0,0.34,0.27,0.61,0.61,0.61c0.34,0,0.61-0.27,0.61-0.61v-36.94
			C-77.98,327.22-78.25,326.95-78.59,326.95z M-90.3,361.45v-25.78c0-0.34-0.27-0.61-0.61-0.61c-0.34,0-0.61,0.27-0.61,0.61v25.78
			h-11.1v-7.51c0-0.34-0.27-0.61-0.61-0.61s-0.61,0.27-0.61,0.61v7.51h-11.1v-33.29h11.1v27.6c0,0.34,0.27,0.61,0.61,0.61
			s0.61-0.27,0.61-0.61v-27.6h11.1v9.8c0,0.34,0.27,0.61,0.61,0.61c0.34,0,0.61-0.27,0.61-0.61v-9.8h11.1v33.29H-90.3z"/>
	</g>
	<g>
		<path d="M-104.43,331.61h-5.82c-0.34,0-0.61,0.27-0.61,0.61c0,0.34,0.27,0.61,0.61,0.61h5.82c0.34,0,0.61-0.27,0.61-0.61
			C-103.82,331.88-104.09,331.61-104.43,331.61z"/>
		<path d="M-104.43,334.04h-5.82c-0.34,0-0.61,0.27-0.61,0.61c0,0.34,0.27,0.61,0.61,0.61h5.82c0.34,0,0.61-0.27,0.61-0.61
			C-103.82,334.32-104.09,334.04-104.43,334.04z"/>
		<path d="M-104.43,336.48h-5.82c-0.34,0-0.61,0.27-0.61,0.61c0,0.34,0.27,0.61,0.61,0.61h5.82c0.34,0,0.61-0.27,0.61-0.61
			C-103.82,336.75-104.09,336.48-104.43,336.48z"/>
		<path d="M-104.43,354.75h-5.82c-0.34,0-0.61,0.27-0.61,0.61c0,0.34,0.27,0.61,0.61,0.61h5.82c0.34,0,0.61-0.27,0.61-0.61
			C-103.82,355.02-104.09,354.75-104.43,354.75z"/>
		<path d="M-104.43,357.18h-5.82c-0.34,0-0.61,0.27-0.61,0.61c0,0.34,0.27,0.61,0.61,0.61h5.82c0.34,0,0.61-0.27,0.61-0.61
			C-103.82,357.45-104.09,357.18-104.43,357.18z"/>
		<path d="M-104.43,359.62h-5.82c-0.34,0-0.61,0.27-0.61,0.61c0,0.34,0.27,0.61,0.61,0.61h5.82c0.34,0,0.61-0.27,0.61-0.61
			C-103.82,359.89-104.09,359.62-104.43,359.62z"/>
		<path d="M-109.03,348.05c1.01,0,1.83-0.82,1.83-1.83c0-1.01-0.82-1.83-1.83-1.83c-1.01,0-1.83,0.82-1.83,1.83
			C-110.85,347.23-110.03,348.05-109.03,348.05z M-109.03,345.61c0.34,0,0.61,0.27,0.61,0.61c0,0.34-0.27,0.61-0.61,0.61
			s-0.61-0.27-0.61-0.61C-109.64,345.89-109.36,345.61-109.03,345.61z"/>
		<path d="M-92.11,331.61h-5.82c-0.34,0-0.61,0.27-0.61,0.61c0,0.34,0.27,0.61,0.61,0.61h5.82c0.34,0,0.61-0.27,0.61-0.61
			C-91.5,331.88-91.78,331.61-92.11,331.61z"/>
		<path d="M-92.11,334.04h-5.82c-0.34,0-0.61,0.27-0.61,0.61c0,0.34,0.27,0.61,0.61,0.61h5.82c0.34,0,0.61-0.27,0.61-0.61
			C-91.5,334.32-91.78,334.04-92.11,334.04z"/>
		<path d="M-92.11,336.48h-5.82c-0.34,0-0.61,0.27-0.61,0.61c0,0.34,0.27,0.61,0.61,0.61h5.82c0.34,0,0.61-0.27,0.61-0.61
			C-91.5,336.75-91.78,336.48-92.11,336.48z"/>
		<path d="M-92.11,354.75h-5.82c-0.34,0-0.61,0.27-0.61,0.61c0,0.34,0.27,0.61,0.61,0.61h5.82c0.34,0,0.61-0.27,0.61-0.61
			C-91.5,355.02-91.78,354.75-92.11,354.75z"/>
		<path d="M-92.11,357.18h-5.82c-0.34,0-0.61,0.27-0.61,0.61c0,0.34,0.27,0.61,0.61,0.61h5.82c0.34,0,0.61-0.27,0.61-0.61
			C-91.5,357.45-91.78,357.18-92.11,357.18z"/>
		<path d="M-92.11,359.62h-5.82c-0.34,0-0.61,0.27-0.61,0.61c0,0.34,0.27,0.61,0.61,0.61h5.82c0.34,0,0.61-0.27,0.61-0.61
			C-91.5,359.89-91.78,359.62-92.11,359.62z"/>
		<path d="M-96.71,348.05c1.01,0,1.83-0.82,1.83-1.83c0-1.01-0.82-1.83-1.83-1.83c-1.01,0-1.83,0.82-1.83,1.83
			C-98.54,347.23-97.72,348.05-96.71,348.05z M-96.71,345.61c0.34,0,0.61,0.27,0.61,0.61c0,0.34-0.27,0.61-0.61,0.61
			s-0.61-0.27-0.61-0.61C-97.32,345.89-97.05,345.61-96.71,345.61z"/>
		<path d="M-85.62,332.83h5.82c0.34,0,0.61-0.27,0.61-0.61c0-0.34-0.27-0.61-0.61-0.61h-5.82c-0.34,0-0.61,0.27-0.61,0.61
			C-86.23,332.55-85.95,332.83-85.62,332.83z"/>
		<path d="M-79.8,334.04h-5.82c-0.34,0-0.61,0.27-0.61,0.61c0,0.34,0.27,0.61,0.61,0.61h5.82c0.34,0,0.61-0.27,0.61-0.61
			C-79.19,334.32-79.46,334.04-79.8,334.04z"/>
		<path d="M-79.8,336.48h-5.82c-0.34,0-0.61,0.27-0.61,0.61c0,0.34,0.27,0.61,0.61,0.61h5.82c0.34,0,0.61-0.27,0.61-0.61
			C-79.19,336.75-79.46,336.48-79.8,336.48z"/>
		<path d="M-79.8,354.75h-5.82c-0.34,0-0.61,0.27-0.61,0.61c0,0.34,0.27,0.61,0.61,0.61h5.82c0.34,0,0.61-0.27,0.61-0.61
			C-79.19,355.02-79.46,354.75-79.8,354.75z"/>
		<path d="M-79.8,357.18h-5.82c-0.34,0-0.61,0.27-0.61,0.61c0,0.34,0.27,0.61,0.61,0.61h5.82c0.34,0,0.61-0.27,0.61-0.61
			C-79.19,357.45-79.46,357.18-79.8,357.18z"/>
		<path d="M-79.8,359.62h-5.82c-0.34,0-0.61,0.27-0.61,0.61c0,0.34,0.27,0.61,0.61,0.61h5.82c0.34,0,0.61-0.27,0.61-0.61
			C-79.19,359.89-79.46,359.62-79.8,359.62z"/>
		<path d="M-84.4,348.05c1.01,0,1.83-0.82,1.83-1.83c0-1.01-0.82-1.83-1.83-1.83c-1.01,0-1.83,0.82-1.83,1.83
			C-86.23,347.23-85.41,348.05-84.4,348.05z M-84.4,345.61c0.34,0,0.61,0.27,0.61,0.61c0,0.34-0.27,0.61-0.61,0.61
			c-0.34,0-0.61-0.27-0.61-0.61C-85.01,345.89-84.74,345.61-84.4,345.61z"/>
		<path d="M-76.55,328.36h-36.94c-0.34,0-0.61,0.27-0.61,0.61v36.94c0,0.34,0.27,0.61,0.61,0.61s0.61-0.27,0.61-0.61v-1.83h11.1
			v1.83c0,0.34,0.27,0.61,0.61,0.61c0.34,0,0.61-0.27,0.61-0.61v-1.83h11.1v1.83c0,0.34,0.27,0.61,0.61,0.61
			c0.34,0,0.61-0.27,0.61-0.61v-1.83h11.1v1.83c0,0.34,0.27,0.61,0.61,0.61c0.34,0,0.61-0.27,0.61-0.61v-36.94
			C-75.94,328.63-76.22,328.36-76.55,328.36z M-88.26,362.87v-25.78c0-0.34-0.27-0.61-0.61-0.61c-0.34,0-0.61,0.27-0.61,0.61v25.78
			h-11.1v-7.51c0-0.34-0.27-0.61-0.61-0.61c-0.34,0-0.61,0.27-0.61,0.61v7.51h-11.1v-33.29h11.1v27.6c0,0.34,0.27,0.61,0.61,0.61
			c0.34,0,0.61-0.27,0.61-0.61v-27.6h11.1v9.8c0,0.34,0.27,0.61,0.61,0.61c0.34,0,0.61-0.27,0.61-0.61v-9.8h11.1v33.29H-88.26z"/>
	</g>
</g>
<g>
	<path class="st0" d="M135.51,356.91h-0.25c0.64-0.88,0.93-1.89,0.83-2.93c-0.24-2.34-2.53-4.68-4.6-6.35
		c0.01-0.01,0.01-0.03,0.02-0.04c0.27-0.66,0.12-1.42-0.37-1.93c-0.03-0.03-0.07-0.07-0.1-0.1c-2.15-2.71-6.89-4.07-7.23-4.18
		c-0.06-0.63-0.44-1.2-1.03-1.47c-1.28-0.6-4.07-1.6-8.46-1.61c-1.47,0-2.76,0.12-3.88,0.29v-2.84c0-2.35-1.91-4.26-4.26-4.26H102
		v-3.22c0-0.5-0.4-0.9-0.9-0.9H90.54h-2.23h-8.11c-0.5,0-0.9,0.4-0.9,0.9v24.5c0,1.15,0.83,2.1,1.92,2.3v1.84h-1.8
		c-1.49,0-2.7,1.21-2.7,2.7s1.21,2.7,2.7,2.7h0.84v0.3c0,1.69,1.37,3.06,3.06,3.06h48.28c1.69,0,3.06-1.37,3.06-3.06v-0.3h0.84
		c1.49,0,2.7-1.21,2.7-2.7S137,356.91,135.51,356.91z M134.3,354.17c0.1,1-0.49,1.99-1.65,2.74h-6.2c1.79-2.37,3.31-5.38,4.29-7.56
		C132.88,351.15,134.16,352.87,134.3,354.17z M123.63,343.23c0.58,0.2,1.24,0.48,1.95,0.79c0.8,0.34,2.96,1.75,3.11,1.87
		c0.35,0.28,0.68,0.57,0.99,0.88c0.05,0.06,0.09,0.12,0.14,0.18c-0.07,0.17-0.16,0.38-0.26,0.62c-0.82,1.92-2.96,6.59-5.44,9.35
		h-2.97c0.43-1.07,0.92-2.89,1.46-6.14C123.07,348.05,123.42,345.17,123.63,343.23z M114.31,340.1c4.18,0.01,6.77,1.01,7.69,1.44
		l-0.04,0.4c-0.19,1.77-0.58,5.23-1.12,8.48c-0.89,5.35-1.58,6.34-1.72,6.49h-9.62c-0.14-0.15-0.83-1.15-1.72-6.49
		c-0.54-3.25-0.93-6.7-1.12-8.48l-0.01-0.07c0,0,0,0,0-0.01l-0.03-0.33C107.54,341.11,110.13,340.11,114.31,340.1z M102.02,333.29
		h4.14c1.36,0,2.46,1.1,2.46,2.46v3.2c-0.71,0.18-1.31,0.37-1.8,0.55v-3.27c0-0.63-0.51-1.14-1.14-1.14h-3.66V333.29z M102,336.9
		h3.02v3.81c-0.06,0.12-0.11,0.25-0.15,0.39H102V336.9z M101.52,344.81c0.03-0.02,0.06-0.03,0.09-0.05c0,0,0.01,0,0.01-0.01
		c1.19-0.69,2.39-1.18,3.37-1.52c0.22,1.94,0.57,4.82,1.02,7.55c0.54,3.25,1.03,5.07,1.46,6.14h-2.97
		c-2.49-2.76-4.62-7.42-5.44-9.34c-0.11-0.25-0.2-0.48-0.27-0.66C99.61,346.06,100.55,345.37,101.52,344.81z M102.18,356.91h-6.25
		c-1.08-0.72-1.67-1.68-1.61-2.65c0-0.03,0-0.06,0.01-0.09c0.14-1.3,1.42-3.02,3.55-4.81C98.87,351.53,100.38,354.54,102.18,356.91z
		 M81.11,352.77v-23.6h7.21h2.23h9.66v14.33c-0.95,0.6-1.89,1.31-2.7,2.16c-0.49,0.52-0.64,1.28-0.37,1.93
		c0.01,0.01,0.01,0.03,0.02,0.04c-1.88,1.51-3.92,3.57-4.48,5.67H81.65C81.35,353.31,81.11,353.07,81.11,352.77z M93.35,356.91
		H83.03v-1.8h9.55C92.69,355.74,92.95,356.35,93.35,356.91z M135.51,360.51H88.27c-0.5,0-0.9,0.4-0.9,0.9c0,0.5,0.4,0.9,0.9,0.9
		h44.6v0.3c0,0.7-0.57,1.26-1.26,1.26H83.33c-0.7,0-1.26-0.57-1.26-1.26v-0.3h17.26c0.5,0,0.9-0.4,0.9-0.9c0-0.5-0.4-0.9-0.9-0.9
		h-19.9c-0.5,0-0.9-0.4-0.9-0.9s0.4-0.9,0.9-0.9h56.08c0.5,0,0.9,0.4,0.9,0.9S136,360.51,135.51,360.51z"/>
	<path d="M137.55,358.32h-0.25c0.64-0.88,0.93-1.89,0.83-2.93c-0.24-2.34-2.53-4.68-4.6-6.35c0.01-0.01,0.01-0.03,0.02-0.04
		c0.27-0.66,0.12-1.42-0.37-1.93c-0.03-0.03-0.07-0.07-0.1-0.1c-2.15-2.71-6.89-4.07-7.23-4.18c-0.06-0.63-0.44-1.2-1.03-1.47
		c-1.28-0.6-4.07-1.6-8.46-1.61c-1.47,0-2.76,0.12-3.88,0.29v-2.84c0-2.35-1.91-4.26-4.26-4.26h-4.17v-3.22c0-0.5-0.4-0.9-0.9-0.9
		H92.58h-2.23h-8.11c-0.5,0-0.9,0.4-0.9,0.9v24.5c0,1.15,0.83,2.1,1.92,2.3v1.84h-1.8c-1.49,0-2.7,1.21-2.7,2.7s1.21,2.7,2.7,2.7
		h0.84v0.3c0,1.69,1.37,3.06,3.06,3.06h48.28c1.69,0,3.06-1.37,3.06-3.06v-0.3h0.84c1.49,0,2.7-1.21,2.7-2.7
		S139.04,358.32,137.55,358.32z M136.33,355.58c0.1,1-0.49,1.99-1.65,2.74h-6.2c1.79-2.37,3.31-5.38,4.29-7.56
		C134.92,352.56,136.2,354.29,136.33,355.58z M125.67,344.64c0.58,0.2,1.24,0.48,1.95,0.79c0.8,0.34,2.96,1.75,3.11,1.87
		c0.35,0.28,0.68,0.57,0.99,0.88c0.05,0.06,0.09,0.12,0.14,0.18c-0.07,0.17-0.16,0.38-0.26,0.62c-0.82,1.92-2.96,6.59-5.44,9.35
		h-2.97c0.43-1.07,0.92-2.89,1.46-6.14C125.1,349.46,125.46,346.58,125.67,344.64z M116.35,341.51c4.18,0.01,6.77,1.01,7.69,1.44
		l-0.04,0.4c-0.19,1.77-0.58,5.23-1.12,8.48c-0.89,5.35-1.58,6.34-1.72,6.49h-9.62c-0.14-0.15-0.83-1.15-1.72-6.49
		c-0.54-3.25-0.93-6.7-1.12-8.48l-0.01-0.07c0,0,0,0,0-0.01l-0.03-0.33C109.58,342.52,112.17,341.52,116.35,341.51z M104.06,334.71
		h4.14c1.36,0,2.46,1.1,2.46,2.46v3.2c-0.71,0.18-1.31,0.37-1.8,0.55v-3.27c0-0.63-0.51-1.14-1.14-1.14h-3.66V334.71z
		 M104.04,338.31h3.02v3.81c-0.06,0.12-0.11,0.25-0.15,0.39h-2.87V338.31z M103.55,346.22c0.03-0.02,0.06-0.03,0.09-0.05
		c0,0,0.01,0,0.01-0.01c1.19-0.69,2.39-1.18,3.37-1.52c0.22,1.94,0.57,4.82,1.02,7.55c0.54,3.25,1.03,5.07,1.46,6.14h-2.97
		c-2.49-2.76-4.62-7.42-5.44-9.34c-0.11-0.25-0.2-0.48-0.27-0.66C101.65,347.48,102.59,346.79,103.55,346.22z M104.22,358.32h-6.25
		c-1.08-0.72-1.67-1.68-1.61-2.65c0-0.03,0-0.06,0.01-0.09c0.14-1.3,1.42-3.02,3.55-4.81C100.9,352.95,102.42,355.95,104.22,358.32z
		 M83.15,354.18v-23.6h7.21h2.23h9.66v14.33c-0.95,0.6-1.89,1.31-2.7,2.16c-0.49,0.52-0.64,1.28-0.37,1.93
		c0.01,0.01,0.01,0.03,0.02,0.04c-1.88,1.51-3.92,3.57-4.48,5.67H83.69C83.39,354.72,83.15,354.48,83.15,354.18z M95.39,358.32
		H85.07v-1.8h9.55C94.73,357.16,94.99,357.77,95.39,358.32z M137.55,361.93H90.31c-0.5,0-0.9,0.4-0.9,0.9c0,0.5,0.4,0.9,0.9,0.9
		h44.6v0.3c0,0.7-0.57,1.26-1.26,1.26H85.37c-0.7,0-1.26-0.57-1.26-1.26v-0.3h17.26c0.5,0,0.9-0.4,0.9-0.9c0-0.5-0.4-0.9-0.9-0.9
		h-19.9c-0.5,0-0.9-0.4-0.9-0.9s0.4-0.9,0.9-0.9h56.08c0.5,0,0.9,0.4,0.9,0.9S138.04,361.93,137.55,361.93z"/>
</g>
<g>
	<text transform="matrix(1 0 0 1 66.8164 253.0068)"><tspan x="0" y="0" style="font-family:'Montserrat-Medium'; font-size:13.7445px;">Area de </tspan><tspan x="-15.94" y="16.49" style="font-family:'Montserrat-Medium'; font-size:13.7445px;">conferencias</tspan></text>
</g>
<g>
	<g>
		<g>
			<g>
				<path class="st0" d="M111.36,192.96C111.36,192.96,111.36,192.96,111.36,192.96H74.33c-0.35,0-0.64,0.29-0.64,0.64c0,0,0,0,0,0
					v13.49c0,0.35,0.29,0.64,0.64,0.64h0c0.35,0,0.64-0.29,0.64-0.64v-12.85h35.75v14.05H86.61v1.28h24.74
					c0.35,0,0.64-0.29,0.64-0.64c0,0,0,0,0,0V193.6C112,193.24,111.71,192.96,111.36,192.96z"/>
			</g>
		</g>
		<g>
			<g>
				<rect x="94.76" y="196.15" class="st0" width="12.77" height="1.28"/>
			</g>
		</g>
		<g>
			<g>
				<rect x="96.67" y="199.98" class="st0" width="12.77" height="1.28"/>
			</g>
		</g>
		<g>
			<g>
				<rect x="94.12" y="203.81" class="st0" width="12.77" height="1.28"/>
			</g>
		</g>
		<g>
			<g>
				<path class="st0" d="M94.07,198.46c-0.44-1.05-1.64-1.55-2.69-1.11c-0.02,0.01-0.04,0.02-0.05,0.02l-5.18,2.69
					c0.2-0.42,0.31-0.89,0.31-1.36c0-1.76-1.43-3.19-3.19-3.19c-1.76,0-3.19,1.43-3.19,3.19c0,0.69,0.23,1.37,0.65,1.92H80.7
					c-1.81,0.01-3.43,1.14-4.07,2.83l-1.7,5.87c-0.41,1.05,0.12,2.24,1.17,2.64c0.48,0.18,1.01,0.18,1.49-0.01
					c0.55-0.22,0.98-0.67,1.17-1.23l0.67-2.12v9.24c-0.55-0.42-1.22-0.65-1.92-0.65c-1.76,0-3.19,1.42-3.19,3.18
					c0,0.86,0.35,1.69,0.96,2.29c-0.98,0.5-1.6,1.51-1.6,2.61v5.35c0,0.35,0.29,0.64,0.64,0.64c0,0,0,0,0,0h6.38
					c0.35,0,0.64-0.29,0.64-0.64c0,0,0,0,0,0v-5.35c0-0.9-0.42-1.76-1.14-2.31h4.83c-0.72,0.55-1.14,1.41-1.14,2.31v5.35
					c0,0.35,0.29,0.64,0.64,0.64c0,0,0,0,0,0h6.38c0.35,0,0.64-0.29,0.64-0.64c0,0,0,0,0,0v-5.35c0-1.1-0.62-2.11-1.6-2.61
					c1.26-1.23,1.29-3.25,0.05-4.51c-0.76-0.78-1.86-1.11-2.92-0.9V204.2l5.86-3.04C94.01,200.72,94.51,199.51,94.07,198.46z
					 M83.27,196.79c1.06,0,1.92,0.86,1.92,1.92s-0.86,1.92-1.92,1.92c-1.06,0-1.91-0.86-1.92-1.92
					C81.35,197.65,82.21,196.79,83.27,196.79z M77.52,218.47c1.06,0,1.92,0.86,1.92,1.92s-0.86,1.92-1.92,1.92s-1.92-0.86-1.92-1.92
					C75.61,219.33,76.46,218.47,77.52,218.47z M80.07,229.99h-5.11v-4.71c0-0.92,0.75-1.67,1.67-1.67h1.76
					c0.92,0,1.67,0.75,1.67,1.67V229.99z M90.29,225.28v4.71h-5.11v-4.71c0-0.92,0.75-1.67,1.67-1.67h1.76
					C89.54,223.6,90.29,224.35,90.29,225.28z M87.73,218.47c1.06,0,1.91,0.86,1.92,1.92c0,1.06-0.86,1.92-1.92,1.92
					s-1.92-0.86-1.92-1.92S86.68,218.47,87.73,218.47z M92.9,199.53c-0.09,0.22-0.26,0.39-0.48,0.47l-6.25,3.24
					c-0.21,0.11-0.34,0.33-0.34,0.57v14.04c-1.2,0.88-1.61,2.48-0.99,3.84H83.9v-10.85h-1.28v10.85h-2.2
					c0.18-0.4,0.28-0.84,0.28-1.28h0v-15.96c0-0.35-0.29-0.64-0.64-0.64c-0.28,0-0.53,0.18-0.61,0.45l-1.91,6.07
					c-0.14,0.4-0.58,0.6-0.98,0.46c-0.03-0.01-0.06-0.02-0.08-0.04c-0.37-0.19-0.52-0.63-0.36-1.01l1.7-5.87
					c0.46-1.18,1.59-1.96,2.86-1.97h4.52c0.1,0,0.2-0.02,0.29-0.07l6.35-3.29c0.38-0.16,0.82,0,1,0.37
					C92.96,199.1,92.98,199.32,92.9,199.53z"/>
			</g>
		</g>
		<g>
			<g>
				<path class="st0" d="M100.18,222.67c1.26-1.23,1.29-3.25,0.06-4.51c-1.23-1.26-3.25-1.29-4.51-0.06
					c-1.26,1.23-1.29,3.25-0.06,4.51c0.02,0.02,0.04,0.04,0.06,0.06c-0.98,0.5-1.6,1.51-1.6,2.61v5.35c0,0.35,0.29,0.64,0.64,0.64
					c0,0,0,0,0,0h6.38c0.35,0,0.64-0.29,0.64-0.64c0,0,0,0,0,0v-5.35C101.78,224.18,101.16,223.17,100.18,222.67z M97.95,218.47
					c1.06,0,1.92,0.86,1.92,1.92s-0.86,1.92-1.92,1.92s-1.92-0.86-1.92-1.92C96.04,219.33,96.89,218.47,97.95,218.47z M100.5,229.99
					H95.4v-4.71c0-0.92,0.75-1.67,1.67-1.67h1.76c0.92,0,1.67,0.75,1.67,1.67V229.99z"/>
			</g>
		</g>
		<g>
			<g>
				<path class="st0" d="M110.39,222.67c1.26-1.23,1.29-3.25,0.06-4.51c-1.23-1.26-3.25-1.29-4.51-0.06s-1.29,3.25-0.06,4.51
					c0.02,0.02,0.04,0.04,0.06,0.06c-0.98,0.5-1.6,1.51-1.6,2.61v5.35c0,0.35,0.29,0.64,0.64,0.64c0,0,0,0,0,0h6.38
					c0.35,0,0.64-0.29,0.64-0.64c0,0,0,0,0,0v-5.35C111.99,224.18,111.37,223.17,110.39,222.67z M108.17,218.47
					c1.06,0,1.92,0.86,1.92,1.92s-0.86,1.92-1.92,1.92s-1.92-0.86-1.92-1.92C106.25,219.33,107.11,218.47,108.17,218.47z
					 M110.72,229.99h-5.11v-4.71c0-0.92,0.75-1.67,1.67-1.67h1.76c0.92,0,1.67,0.75,1.67,1.67V229.99z"/>
			</g>
		</g>
	</g>
	<g>
		<g>
			<g>
				<path d="M113.4,194.37C113.4,194.37,113.4,194.37,113.4,194.37H76.37c-0.35,0-0.64,0.29-0.64,0.64c0,0,0,0,0,0v13.49
					c0,0.35,0.29,0.64,0.64,0.64l0,0c0.35,0,0.64-0.29,0.64-0.64v-12.85h35.75v14.05H88.65v1.28h24.74c0.35,0,0.64-0.29,0.64-0.64
					c0,0,0,0,0,0v-15.32C114.04,194.66,113.75,194.37,113.4,194.37z"/>
			</g>
		</g>
		<g>
			<g>
				<rect x="96.8" y="197.56" width="12.77" height="1.28"/>
			</g>
		</g>
		<g>
			<g>
				<rect x="98.71" y="201.39" width="12.77" height="1.28"/>
			</g>
		</g>
		<g>
			<g>
				<rect x="96.16" y="205.22" width="12.77" height="1.28"/>
			</g>
		</g>
		<g>
			<g>
				<path d="M96.11,199.87c-0.44-1.05-1.64-1.55-2.69-1.11c-0.02,0.01-0.04,0.02-0.05,0.02l-5.18,2.69c0.2-0.42,0.31-0.89,0.31-1.36
					c0-1.76-1.43-3.19-3.19-3.19s-3.19,1.43-3.19,3.19c0,0.69,0.23,1.37,0.65,1.92h-0.03c-1.81,0.01-3.43,1.14-4.07,2.83l-1.7,5.87
					c-0.41,1.05,0.12,2.24,1.17,2.64c0.48,0.18,1.01,0.18,1.49-0.01c0.55-0.22,0.98-0.67,1.17-1.23l0.67-2.12v9.24
					c-0.55-0.42-1.22-0.65-1.92-0.65c-1.76,0-3.19,1.42-3.19,3.18c0,0.86,0.35,1.69,0.96,2.29c-0.98,0.5-1.6,1.51-1.6,2.61v5.35
					c0,0.35,0.29,0.64,0.64,0.64c0,0,0,0,0,0h6.38c0.35,0,0.64-0.29,0.64-0.64c0,0,0,0,0,0v-5.35c0-0.9-0.42-1.76-1.14-2.31h4.83
					c-0.72,0.55-1.14,1.41-1.14,2.31v5.35c0,0.35,0.29,0.64,0.64,0.64c0,0,0,0,0,0h6.38c0.35,0,0.64-0.29,0.64-0.64c0,0,0,0,0,0
					v-5.35c0-1.1-0.62-2.11-1.6-2.61c1.26-1.23,1.29-3.25,0.05-4.51c-0.76-0.78-1.86-1.11-2.92-0.9v-13.06l5.86-3.04
					C96.05,202.13,96.54,200.93,96.11,199.87z M85.3,198.2c1.06,0,1.92,0.86,1.92,1.92s-0.86,1.92-1.92,1.92
					c-1.06,0-1.91-0.86-1.92-1.92C83.39,199.06,84.25,198.2,85.3,198.2z M79.56,219.89c1.06,0,1.92,0.86,1.92,1.92
					s-0.86,1.92-1.92,1.92s-1.92-0.86-1.92-1.92C77.64,220.74,78.5,219.89,79.56,219.89z M82.11,231.4H77v-4.71
					c0-0.92,0.75-1.67,1.67-1.67h1.76c0.92,0,1.67,0.75,1.67,1.67V231.4z M92.33,226.69v4.71h-5.11v-4.71
					c0-0.92,0.75-1.67,1.67-1.67h1.76C91.58,225.02,92.33,225.77,92.33,226.69z M89.77,219.89c1.06,0,1.91,0.86,1.92,1.92
					c0,1.06-0.86,1.92-1.92,1.92s-1.92-0.86-1.92-1.92S88.72,219.89,89.77,219.89z M94.94,200.94c-0.09,0.22-0.26,0.39-0.48,0.47
					l-6.25,3.24c-0.21,0.11-0.34,0.33-0.34,0.57v14.04c-1.2,0.88-1.61,2.48-0.99,3.84h-0.92v-10.85h-1.28v10.85h-2.2
					c0.18-0.4,0.28-0.84,0.28-1.28h0v-15.96c0-0.35-0.29-0.64-0.64-0.64c-0.28,0-0.53,0.18-0.61,0.45l-1.91,6.07
					c-0.14,0.4-0.58,0.6-0.98,0.46c-0.03-0.01-0.06-0.02-0.08-0.04c-0.37-0.19-0.52-0.63-0.36-1.01l1.7-5.87
					c0.46-1.18,1.59-1.96,2.86-1.97h4.52c0.1,0,0.2-0.02,0.29-0.07l6.35-3.29c0.38-0.16,0.82,0,1,0.37
					C95,200.51,95.02,200.74,94.94,200.94z"/>
			</g>
		</g>
		<g>
			<g>
				<path d="M102.22,224.08c1.26-1.23,1.29-3.25,0.06-4.51c-1.23-1.26-3.25-1.29-4.51-0.06s-1.29,3.25-0.06,4.51
					c0.02,0.02,0.04,0.04,0.06,0.06c-0.98,0.5-1.6,1.51-1.6,2.61v5.35c0,0.35,0.29,0.64,0.64,0.64c0,0,0,0,0,0h6.38
					c0.35,0,0.64-0.29,0.64-0.64c0,0,0,0,0,0v-5.35C103.82,225.59,103.2,224.58,102.22,224.08z M99.99,219.89
					c1.06,0,1.92,0.86,1.92,1.92s-0.86,1.92-1.92,1.92s-1.92-0.86-1.92-1.92C98.08,220.74,98.93,219.89,99.99,219.89z M102.54,231.4
					h-5.11v-4.71c0-0.92,0.75-1.67,1.67-1.67h1.76c0.92,0,1.67,0.75,1.67,1.67V231.4z"/>
			</g>
		</g>
		<g>
			<g>
				<path d="M112.43,224.08c1.26-1.23,1.29-3.25,0.06-4.51c-1.23-1.26-3.25-1.29-4.51-0.06c-1.26,1.23-1.29,3.25-0.06,4.51
					c0.02,0.02,0.04,0.04,0.06,0.06c-0.98,0.5-1.6,1.51-1.6,2.61v5.35c0,0.35,0.29,0.64,0.64,0.64c0,0,0,0,0,0h6.38
					c0.35,0,0.64-0.29,0.64-0.64c0,0,0,0,0,0v-5.35C114.03,225.59,113.41,224.58,112.43,224.08z M110.21,219.89
					c1.06,0,1.92,0.86,1.92,1.92s-0.86,1.92-1.92,1.92s-1.92-0.86-1.92-1.92C108.29,220.74,109.15,219.89,110.21,219.89z
					 M112.76,231.4h-5.11v-4.71c0-0.92,0.75-1.67,1.67-1.67h1.76c0.92,0,1.67,0.75,1.67,1.67V231.4z"/>
			</g>
		</g>
	</g>
</g>
<g>
	<text transform="matrix(1 0 0 1 -134.2578 134.6895)"><tspan x="0" y="0" style="font-family:'Montserrat-Medium'; font-size:13.7445px;">Estabilidad</tspan><tspan x="-7.86" y="16.49" style="font-family:'Montserrat-Medium'; font-size:13.7445px;">eléctrica 24/7</tspan></text>
</g>
<g>
	<text transform="matrix(1 0 0 1 258.7568 134.9521)" style="font-family:'Montserrat-Medium'; font-size:13.7445px;">Seguridad 24/7</text>
</g>
<g>
	<g>
		<text transform="matrix(1 0 0 1 79.3203 134.2495)"><tspan x="0" y="0" style="font-family:'Montserrat-Medium'; font-size:13.7445px;">Horario</tspan><tspan x="-9.42" y="16.49" style="font-family:'Montserrat-Medium'; font-size:13.7445px;">extendido</tspan></text>
	</g>
</g>
<g>
	<g>
		<g>
			<g>
				<path class="st0" d="M321.39,341.46h-25.44c-1.5,0-2.73,1.22-2.73,2.73v1.82c0,6.48,3.58,12.36,9.35,15.35
					c0.45,0.23,0.99,0.06,1.22-0.39c0.23-0.45,0.06-0.99-0.39-1.22c-5.16-2.67-8.36-7.93-8.36-13.73v-1.82
					c0-0.5,0.41-0.91,0.91-0.91h25.44c0.5,0,0.91,0.41,0.91,0.91v1.82c0,5.8-3.21,11.06-8.36,13.73c-0.45,0.23-0.62,0.78-0.39,1.22
					c0.16,0.31,0.48,0.49,0.81,0.49c0.14,0,0.28-0.03,0.42-0.1c5.77-2.98,9.35-8.86,9.35-15.34v-1.82
					C324.11,342.69,322.89,341.46,321.39,341.46z"/>
			</g>
		</g>
		<g>
			<g>
				<path class="st0" d="M329.5,360.19c-0.14-0.34-0.47-0.56-0.84-0.56h-39.98c-0.37,0-0.7,0.22-0.84,0.56
					c-0.14,0.34-0.06,0.73,0.2,0.99l2.04,2.04c1.2,1.2,2.8,1.86,4.5,1.86h28.19c1.7,0,3.3-0.66,4.5-1.86l2.04-2.04
					C329.56,360.93,329.64,360.53,329.5,360.19z M325.98,361.94c-0.86,0.86-2,1.33-3.21,1.33h-28.19c-1.21,0-2.35-0.47-3.21-1.33
					l-0.49-0.49h35.59L325.98,361.94z"/>
			</g>
		</g>
		<g>
			<g>
				<path class="st0" d="M329.62,345.75c-2.45-1.57-6.36,0.13-6.8,0.33c-0.46,0.21-0.66,0.75-0.45,1.2c0.21,0.46,0.75,0.66,1.2,0.45
					c0.88-0.4,3.69-1.34,5.06-0.46c0.62,0.4,0.92,1.17,0.92,2.35c0,3.64-7.34,5.84-10.17,6.38l-0.64,0.13
					c-0.49,0.1-0.81,0.57-0.72,1.07c0.09,0.43,0.47,0.73,0.89,0.73c0.06,0,0.12-0.01,0.18-0.02l0.64-0.13
					c0.48-0.09,11.64-2.28,11.64-8.16C331.38,347.81,330.79,346.51,329.62,345.75z"/>
			</g>
		</g>
		<g>
			<g>
				<path class="st0" d="M315.74,333.85c1.48-1.85,1.48-4.74,0-6.58c-0.31-0.39-0.88-0.46-1.28-0.14c-0.39,0.31-0.46,0.88-0.14,1.28
					c0.94,1.17,0.94,3.14,0,4.32c-1.48,1.85-1.48,4.74,0,6.58c0.18,0.23,0.44,0.34,0.71,0.34c0.2,0,0.4-0.07,0.57-0.2
					c0.39-0.31,0.46-0.89,0.14-1.28C314.8,337,314.8,335.03,315.74,333.85z"/>
			</g>
		</g>
		<g>
			<g>
				<path class="st0" d="M310.28,333.85c1.48-1.85,1.48-4.74,0-6.58c-0.31-0.39-0.88-0.46-1.28-0.14c-0.39,0.31-0.46,0.89-0.14,1.28
					c0.94,1.17,0.94,3.14,0,4.32c-1.48,1.85-1.48,4.74,0,6.58c0.18,0.23,0.44,0.34,0.71,0.34c0.2,0,0.4-0.07,0.57-0.2
					c0.39-0.31,0.46-0.88,0.14-1.28C309.34,337,309.34,335.03,310.28,333.85z"/>
			</g>
		</g>
		<g>
			<g>
				<path class="st0" d="M304.84,333.86c1.48-1.85,1.48-4.74,0-6.58c-0.31-0.39-0.88-0.46-1.28-0.14c-0.39,0.31-0.45,0.88-0.14,1.28
					c0.94,1.17,0.94,3.14,0,4.32c-1.48,1.85-1.48,4.74,0,6.58c0.18,0.23,0.44,0.34,0.71,0.34c0.2,0,0.4-0.07,0.57-0.2
					c0.39-0.31,0.46-0.89,0.14-1.28C303.9,337,303.9,335.03,304.84,333.86z"/>
			</g>
		</g>
	</g>
	<g>
		<g>
			<g>
				<path d="M323.43,342.88h-25.44c-1.5,0-2.73,1.22-2.73,2.73v1.82c0,6.48,3.58,12.36,9.35,15.35c0.45,0.23,0.99,0.06,1.22-0.39
					c0.23-0.45,0.06-0.99-0.39-1.22c-5.16-2.67-8.36-7.93-8.36-13.73v-1.82c0-0.5,0.41-0.91,0.91-0.91h25.44
					c0.5,0,0.91,0.41,0.91,0.91v1.82c0,5.8-3.21,11.06-8.36,13.73c-0.45,0.23-0.62,0.78-0.39,1.22c0.16,0.31,0.48,0.49,0.81,0.49
					c0.14,0,0.28-0.03,0.42-0.1c5.77-2.98,9.35-8.86,9.35-15.34v-1.82C326.15,344.1,324.93,342.88,323.43,342.88z"/>
			</g>
		</g>
		<g>
			<g>
				<path d="M331.54,361.61c-0.14-0.34-0.47-0.56-0.84-0.56h-39.98c-0.37,0-0.7,0.22-0.84,0.56c-0.14,0.34-0.06,0.73,0.2,0.99
					l2.04,2.04c1.2,1.2,2.8,1.86,4.5,1.86h28.19c1.7,0,3.3-0.66,4.5-1.86l2.04-2.04C331.6,362.34,331.68,361.95,331.54,361.61z
					 M328.02,363.35c-0.86,0.86-2,1.33-3.21,1.33h-28.19c-1.21,0-2.35-0.47-3.21-1.33l-0.49-0.49h35.59L328.02,363.35z"/>
			</g>
		</g>
		<g>
			<g>
				<path d="M331.66,347.17c-2.45-1.57-6.36,0.13-6.8,0.33c-0.46,0.21-0.66,0.75-0.45,1.2c0.21,0.46,0.75,0.66,1.2,0.45
					c0.88-0.4,3.69-1.34,5.06-0.46c0.62,0.4,0.92,1.17,0.92,2.35c0,3.64-7.34,5.84-10.17,6.38l-0.64,0.13
					c-0.49,0.1-0.81,0.57-0.72,1.07c0.09,0.43,0.47,0.73,0.89,0.73c0.06,0,0.12-0.01,0.18-0.02l0.64-0.13
					c0.48-0.09,11.64-2.28,11.64-8.16C333.42,349.23,332.83,347.92,331.66,347.17z"/>
			</g>
		</g>
		<g>
			<g>
				<path d="M317.78,335.27c1.48-1.85,1.48-4.74,0-6.58c-0.31-0.39-0.88-0.46-1.28-0.14c-0.39,0.31-0.46,0.88-0.14,1.28
					c0.94,1.17,0.94,3.14,0,4.32c-1.48,1.85-1.48,4.74,0,6.58c0.18,0.23,0.44,0.34,0.71,0.34c0.2,0,0.4-0.07,0.57-0.2
					c0.39-0.31,0.46-0.89,0.14-1.28C316.84,338.41,316.84,336.44,317.78,335.27z"/>
			</g>
		</g>
		<g>
			<g>
				<path d="M312.32,335.27c1.48-1.85,1.48-4.74,0-6.58c-0.31-0.39-0.88-0.46-1.28-0.14c-0.39,0.31-0.46,0.89-0.14,1.28
					c0.94,1.17,0.94,3.14,0,4.32c-1.48,1.85-1.48,4.74,0,6.58c0.18,0.23,0.44,0.34,0.71,0.34c0.2,0,0.4-0.07,0.57-0.2
					c0.39-0.31,0.46-0.88,0.14-1.28C311.38,338.41,311.38,336.44,312.32,335.27z"/>
			</g>
		</g>
		<g>
			<g>
				<path d="M306.88,335.27c1.48-1.85,1.48-4.74,0-6.58c-0.31-0.39-0.88-0.46-1.28-0.14c-0.39,0.31-0.45,0.88-0.14,1.28
					c0.94,1.17,0.94,3.14,0,4.32c-1.48,1.85-1.48,4.74,0,6.58c0.18,0.23,0.44,0.34,0.71,0.34c0.2,0,0.4-0.07,0.57-0.2
					c0.39-0.31,0.46-0.89,0.14-1.28C305.94,338.41,305.94,336.44,306.88,335.27z"/>
			</g>
		</g>
	</g>
</g>
<g>
	<path class="st0" d="M-279.53,332.5c-3.21-5.5-10.26-7.35-15.76-4.15c-1.33,0.78-2.49,1.81-3.41,3.04l-0.53,0.71l-0.53-0.71
		c-2.18-2.89-5.59-4.6-9.22-4.61h-0.27c-3.94,0-7.6,2.01-9.72,5.34c-1.31,2.06-2.01,4.45-2.01,6.89v2.1
		c-0.01,6.24,3.13,12.06,8.36,15.47l1.24,0.81l5.08,3.33l6.67,4.37c0.24,0.16,0.56,0.16,0.8,0l13.06-8.65
		c5.18-3.42,8.29-9.21,8.28-15.42v-0.93C-277.48,337.42-278.18,334.8-279.53,332.5L-279.53,332.5z M-303.5,360.46l0.27,0.53
		l-5.83-3.82l-1.53-1l-0.42-0.27l3.68-5.52c0.08-0.12,0.12-0.26,0.12-0.4v-2.27c0-0.05,0-0.1,0-0.14c0.04-0.9,0.38-1.75,0.97-2.43
		l0.12-0.14l0.38,1.53c0.08,0.32,0.37,0.55,0.7,0.55h1.74c0.48,0,0.94,0.24,1.21,0.65c0.49,0.74,1.26,1.26,2.13,1.45v0.8
		c0,0.8-0.65,1.45-1.45,1.45c-0.4,0-0.72,0.32-0.72,0.72v2.64c0,0.5-0.15,0.99-0.43,1.41l-0.9,1.35c-0.08,0.12-0.12,0.26-0.12,0.4
		v2.17C-303.57,360.25-303.55,360.36-303.5,360.46L-303.5,360.46z M-300.67,362.67l-0.72-0.47v-0.61c0-0.11-0.03-0.22-0.08-0.32
		l-0.01-0.02l0.81-0.81V362.67z M-294.88,360.73l-1.45,0.96v-4.1l1.45-1.09V360.73z M-293.52,351.66c-0.05,1.05-0.45,2.06-1.13,2.87
		l-2.84,2.13c-0.18,0.14-0.29,0.35-0.29,0.58v5.42l-1.45,0.96v-4.93c0-0.4-0.32-0.72-0.72-0.72c-0.19,0-0.38,0.08-0.51,0.21
		l-1.66,1.66v-1.65l0.78-1.17c0.44-0.65,0.67-1.42,0.67-2.21v-2c1.28-0.33,2.17-1.49,2.17-2.81v-1.45c0-0.4-0.32-0.72-0.72-0.72
		c-0.66,0-1.28-0.33-1.65-0.88c-0.3-0.45-0.72-0.81-1.21-1.03l1.11-1.11l-0.02,0.05l2.52,1.26c1.31,0.65,2.74,0.99,4.2,0.99h0.31
		l0.37,2.75C-293.52,350.44-293.49,351.05-293.52,351.66L-293.52,351.66z M-298.5,339.84v2.36c0,0.3-0.24,0.54-0.54,0.54h-0.91
		v-1.29c0-1.77,0.7-3.46,1.95-4.7c0.34-0.34,0.79-0.53,1.27-0.53h1.57c0.46,0,0.89,0.18,1.21,0.5l1.46,1.46
		c0.14,0.14,0.32,0.21,0.51,0.21h1.45v1.09c0,0.6-0.49,1.09-1.09,1.09h-1.81c-0.4,0-0.72,0.32-0.72,0.72v4.35h-0.13
		c-1.23,0-2.45-0.29-3.55-0.84l-1.22-0.61h0.01c1.1,0,1.99-0.89,1.99-1.99v-2.36H-298.5z M-278.93,341.02
		c0.01,5.72-2.86,11.06-7.63,14.21l-6.87,4.55v-4.45c0.81-1.03,1.29-2.28,1.35-3.59c0.03-0.7,0.01-1.4-0.09-2.09l-0.54-4.05v-3.58
		h1.09c1.4,0,2.54-1.14,2.54-2.54v-1.81c0-0.4-0.32-0.72-0.72-0.72h-1.87l-1.25-1.25c-0.59-0.6-1.4-0.93-2.24-0.93h-1.57
		c-0.86,0-1.69,0.34-2.3,0.95c-1.52,1.52-2.38,3.58-2.37,5.73v1.72l-2.48,2.47h-0.58l-0.59-2.35c-0.1-0.39-0.49-0.62-0.88-0.53
		c-0.15,0.04-0.28,0.12-0.38,0.23l-1.03,1.21c-0.8,0.93-1.26,2.1-1.31,3.32c0,0.06,0,0.13,0,0.19v2.05l-3.56,5.34
		c-4.59-3.18-7.32-8.41-7.32-13.99v-2.1c0-2.16,0.62-4.28,1.78-6.11c1.85-2.91,5.05-4.66,8.5-4.66h0.27
		c3.17,0.01,6.15,1.5,8.06,4.03l1.11,1.48c0.24,0.32,0.69,0.39,1.01,0.14c0.05-0.04,0.1-0.09,0.14-0.14l1.11-1.48
		c3.34-4.45,9.65-5.35,14.1-2.01c1.08,0.81,1.98,1.82,2.66,2.98c1.21,2.08,1.85,4.44,1.85,6.85V341.02z"/>
	<path d="M-277.49,333.92c-3.21-5.5-10.26-7.35-15.76-4.15c-1.33,0.78-2.49,1.81-3.41,3.04l-0.53,0.71l-0.53-0.71
		c-2.18-2.89-5.59-4.6-9.22-4.61h-0.27c-3.94,0-7.6,2.01-9.72,5.34c-1.31,2.06-2.01,4.45-2.01,6.89v2.1
		c-0.01,6.24,3.13,12.06,8.36,15.47l1.24,0.81l5.08,3.33l6.67,4.37c0.24,0.16,0.56,0.16,0.8,0l13.06-8.65
		c5.18-3.42,8.29-9.21,8.28-15.42v-0.93C-275.44,338.83-276.15,336.22-277.49,333.92L-277.49,333.92z M-301.46,361.87l0.27,0.53
		l-5.83-3.82l-1.53-1l-0.42-0.27l3.68-5.52c0.08-0.12,0.12-0.26,0.12-0.4v-2.27c0-0.05,0-0.1,0-0.14c0.04-0.9,0.38-1.75,0.97-2.43
		l0.12-0.14l0.38,1.53c0.08,0.32,0.37,0.55,0.7,0.55h1.74c0.48,0,0.94,0.24,1.21,0.65c0.49,0.74,1.26,1.26,2.13,1.45v0.8
		c0,0.8-0.65,1.45-1.45,1.45c-0.4,0-0.72,0.32-0.72,0.72v2.64c0,0.5-0.15,0.99-0.43,1.41l-0.9,1.35c-0.08,0.12-0.12,0.26-0.12,0.4
		v2.17C-301.53,361.66-301.51,361.77-301.46,361.87L-301.46,361.87z M-298.64,364.08l-0.72-0.47V363c0-0.11-0.03-0.22-0.08-0.32
		l-0.01-0.02l0.81-0.81V364.08z M-292.84,362.15l-1.45,0.96v-4.1l1.45-1.09V362.15z M-291.48,353.07c-0.05,1.05-0.45,2.06-1.13,2.87
		l-2.84,2.13c-0.18,0.14-0.29,0.35-0.29,0.58v5.42l-1.45,0.96v-4.93c0-0.4-0.32-0.72-0.72-0.72c-0.19,0-0.38,0.08-0.51,0.21
		l-1.66,1.66v-1.65l0.78-1.17c0.44-0.65,0.67-1.42,0.67-2.21v-2c1.28-0.33,2.17-1.49,2.17-2.81v-1.45c0-0.4-0.32-0.72-0.72-0.72
		c-0.66,0-1.28-0.33-1.65-0.88c-0.3-0.45-0.72-0.81-1.21-1.03l1.11-1.11l-0.02,0.05l2.52,1.26c1.31,0.65,2.74,0.99,4.2,0.99h0.31
		l0.37,2.75C-291.48,351.85-291.45,352.46-291.48,353.07L-291.48,353.07z M-296.46,341.25v2.36c0,0.3-0.24,0.54-0.54,0.54h-0.91
		v-1.29c0-1.77,0.7-3.46,1.95-4.7c0.34-0.34,0.79-0.53,1.27-0.53h1.57c0.46,0,0.89,0.18,1.21,0.5l1.46,1.46
		c0.14,0.14,0.32,0.21,0.51,0.21h1.45v1.09c0,0.6-0.49,1.09-1.09,1.09h-1.81c-0.4,0-0.72,0.32-0.72,0.72v4.35h-0.13
		c-1.23,0-2.45-0.29-3.55-0.84l-1.22-0.61h0.01c1.1,0,1.99-0.89,1.99-1.99v-2.36H-296.46z M-276.89,342.43
		c0.01,5.72-2.86,11.06-7.63,14.21l-6.87,4.55v-4.45c0.81-1.03,1.29-2.28,1.35-3.59c0.03-0.7,0.01-1.4-0.09-2.09l-0.54-4.05v-3.58
		h1.09c1.4,0,2.54-1.14,2.54-2.54v-1.81c0-0.4-0.32-0.72-0.72-0.72h-1.87l-1.25-1.25c-0.59-0.6-1.4-0.93-2.24-0.93h-1.57
		c-0.86,0-1.69,0.34-2.3,0.95c-1.52,1.52-2.38,3.58-2.37,5.73v1.72l-2.48,2.47h-0.58l-0.59-2.35c-0.1-0.39-0.49-0.62-0.88-0.53
		c-0.15,0.04-0.28,0.12-0.38,0.23l-1.03,1.21c-0.8,0.93-1.26,2.1-1.31,3.32c0,0.06,0,0.13,0,0.19v2.05l-3.56,5.34
		c-4.59-3.18-7.32-8.41-7.32-13.99v-2.1c0-2.16,0.62-4.28,1.78-6.11c1.85-2.91,5.05-4.66,8.5-4.66h0.27
		c3.17,0.01,6.15,1.5,8.06,4.03l1.11,1.48c0.24,0.32,0.69,0.39,1.01,0.14c0.05-0.04,0.1-0.09,0.14-0.14l1.11-1.48
		c3.34-4.45,9.65-5.35,14.1-2.01c1.08,0.81,1.98,1.82,2.66,2.98c1.21,2.08,1.85,4.44,1.85,6.85V342.43z"/>
</g>
<g>
	<g>
		<g>
			<g>
				<path class="st0" d="M335.08,91.42L305.85,74.7c-2.25-1.29-5.34-0.6-6.83,1.53l-5.66,8.09c-0.56,0.8-0.85,1.73-0.85,2.7
					c0,1.68,0.9,3.24,2.35,4.07l6.16,3.56l-1.11,1.49c-0.6,0.8-0.93,1.8-0.93,2.81c0,1.03,0.38,2.01,0.99,2.81l-1.64,2.47h-7.97
					v-3.24c0-0.6-0.48-1.07-1.08-1.07h-4.31c-0.6,0-1.08,0.47-1.08,1.07v10.79c0,0.6,0.48,1.08,1.08,1.08h4.31
					c0.6,0,1.08-0.48,1.08-1.08v-1.08h7.97c2.17,0,4.18-1.08,5.38-2.88l1.77-2.65c0.34,0.07,0.68,0.14,1.03,0.14
					c1.72,0,3.33-0.91,4.21-2.39l1.18-1.98l9.17,5.3c0.17,0.1,0.35,0.14,0.54,0.14c0.1,0,0.21-0.01,0.31-0.05
					c0.28-0.09,0.52-0.29,0.65-0.55l0.8-1.6c0.13,0.01,0.26,0.04,0.39,0.04c4.16,0,7.54-3.39,7.54-7.55c0-0.46-0.07-0.93-0.17-1.41
					l3.88-1.94c0.36-0.18,0.58-0.54,0.6-0.94C335.63,91.99,335.42,91.62,335.08,91.42z M288.2,110.7h-2.16v-8.62h2.16L288.2,110.7
					L288.2,110.7z M301.91,106.63c-0.8,1.2-2.14,1.92-3.59,1.92h-7.97v-2.16h7.97c0.72,0,1.39-0.36,1.79-0.96l1.49-2.24l1.85,1.11
					L301.91,106.63z M308.87,101.82c-0.75,1.25-2.53,1.7-3.78,0.95l-2.73-1.64c-0.75-0.45-1.22-1.28-1.22-2.16
					c0-0.54,0.18-1.08,0.5-1.51l1.27-1.69l7.13,4.11L308.87,101.82z M321.16,103.81l-25.22-14.55c-0.78-0.45-1.27-1.3-1.27-2.2
					c0-0.53,0.16-1.03,0.46-1.46l2.71-3.86l26.67,15.39L321.16,103.81z M324.47,102.01l2.26-4.52l2.39-1.2
					c0.01,0.13,0.04,0.27,0.04,0.4C329.16,99.42,327.11,101.66,324.47,102.01z M325.96,95.46l-26.89-15.51l1.72-2.45
					c0.57-0.81,1.5-1.29,2.49-1.29c0.53,0,1.05,0.14,1.51,0.4l27.48,15.7L325.96,95.46z"/>
				<circle class="st0" cx="319.46" cy="98.84" r="1.08"/>
			</g>
		</g>
	</g>
	<g>
		<g>
			<g>
				<path d="M337.12,92.83l-29.23-16.72c-2.25-1.29-5.34-0.6-6.83,1.53l-5.66,8.09c-0.56,0.8-0.85,1.73-0.85,2.7
					c0,1.68,0.9,3.24,2.35,4.07l6.16,3.56l-1.11,1.49c-0.6,0.8-0.93,1.8-0.93,2.81c0,1.03,0.38,2.01,0.99,2.81l-1.64,2.47h-7.97
					v-3.24c0-0.6-0.48-1.07-1.08-1.07h-4.31c-0.6,0-1.08,0.47-1.08,1.07v10.79c0,0.6,0.48,1.08,1.08,1.08h4.31
					c0.6,0,1.08-0.48,1.08-1.08v-1.08h7.97c2.17,0,4.18-1.08,5.38-2.88l1.77-2.65c0.34,0.07,0.68,0.14,1.03,0.14
					c1.72,0,3.33-0.91,4.21-2.39l1.18-1.98l9.17,5.3c0.17,0.1,0.35,0.14,0.54,0.14c0.1,0,0.21-0.01,0.31-0.05
					c0.28-0.09,0.52-0.29,0.65-0.55l0.8-1.6c0.13,0.01,0.26,0.04,0.39,0.04c4.16,0,7.54-3.39,7.54-7.55c0-0.46-0.07-0.93-0.17-1.41
					l3.88-1.94c0.36-0.18,0.58-0.54,0.6-0.94C337.67,93.4,337.46,93.03,337.12,92.83z M290.24,112.11h-2.16v-8.62h2.16
					L290.24,112.11L290.24,112.11z M303.95,108.04c-0.8,1.2-2.14,1.92-3.59,1.92h-7.97v-2.16h7.97c0.72,0,1.39-0.36,1.79-0.96
					l1.49-2.24l1.85,1.11L303.95,108.04z M310.91,103.23c-0.75,1.25-2.53,1.7-3.78,0.95l-2.73-1.64c-0.75-0.45-1.22-1.28-1.22-2.16
					c0-0.54,0.18-1.08,0.5-1.51l1.27-1.69l7.13,4.11L310.91,103.23z M323.2,105.22l-25.22-14.55c-0.78-0.45-1.27-1.3-1.27-2.2
					c0-0.53,0.16-1.03,0.46-1.46l2.71-3.86l26.67,15.39L323.2,105.22z M326.51,103.42l2.26-4.52l2.39-1.2
					c0.01,0.13,0.04,0.27,0.04,0.4C331.19,100.83,329.15,103.07,326.51,103.42z M328,96.88l-26.89-15.51l1.72-2.45
					c0.57-0.81,1.5-1.29,2.49-1.29c0.53,0,1.05,0.14,1.51,0.4l27.48,15.7L328,96.88z"/>
				<circle cx="321.5" cy="100.26" r="1.08"/>
			</g>
		</g>
	</g>
</g>
<g>
	<g>
		<path class="st0" d="M106.86,82.82c-0.47,0-0.85,0.38-0.85,0.85v9.58c0,0.23,0.09,0.44,0.25,0.6l3.7,3.7
			c0.17,0.17,0.38,0.25,0.6,0.25c0.22,0,0.43-0.08,0.6-0.25c0.33-0.33,0.33-0.87,0-1.2l-3.45-3.45v-9.23
			C107.71,83.2,107.33,82.82,106.86,82.82z"/>
		<g>
			<path class="st0" d="M106.98,107.6c-8.04,0-14.58-6.54-14.58-14.58s6.54-14.58,14.58-14.58s14.58,6.54,14.58,14.58
				S115.02,107.6,106.98,107.6z M106.98,79.71c-7.34,0-13.31,5.97-13.31,13.31s5.97,13.31,13.31,13.31
				c7.34,0,13.31-5.97,13.31-13.31S114.32,79.71,106.98,79.71z"/>
		</g>
		<g>
			<path class="st0" d="M106.98,112.04c-10.49,0-19.02-8.53-19.02-19.02S96.5,74,106.98,74S126,82.53,126,93.02
				S117.47,112.04,106.98,112.04z M106.98,75.65c-9.57,0-17.36,7.79-17.36,17.36s7.79,17.36,17.36,17.36s17.36-7.79,17.36-17.36
				S116.56,75.65,106.98,75.65z"/>
		</g>
	</g>
	<g>
		<path d="M108.9,84.23c-0.47,0-0.85,0.38-0.85,0.85v9.58c0,0.23,0.09,0.44,0.25,0.6l3.7,3.7c0.17,0.17,0.38,0.25,0.6,0.25
			s0.43-0.08,0.6-0.25c0.33-0.33,0.33-0.87,0-1.2l-3.45-3.45v-9.23C109.74,84.61,109.36,84.23,108.9,84.23z"/>
		<g>
			<path d="M109.02,109.01c-8.04,0-14.58-6.54-14.58-14.58s6.54-14.58,14.58-14.58s14.58,6.54,14.58,14.58
				S117.06,109.01,109.02,109.01z M109.02,81.12c-7.34,0-13.31,5.97-13.31,13.31s5.97,13.31,13.31,13.31s13.31-5.97,13.31-13.31
				S116.36,81.12,109.02,81.12z"/>
		</g>
		<g>
			<path d="M109.02,113.45c-10.49,0-19.02-8.53-19.02-19.02s8.53-19.02,19.02-19.02s19.02,8.53,19.02,19.02
				S119.51,113.45,109.02,113.45z M109.02,77.07c-9.57,0-17.36,7.79-17.36,17.36s7.79,17.36,17.36,17.36s17.36-7.79,17.36-17.36
				S118.6,77.07,109.02,77.07z"/>
		</g>
	</g>
</g>
<g>
	<g>
		<g>
			<path class="st0" d="M-86.65,87.8c-0.13-0.26-0.32-0.38-0.58-0.38h-7.56l7.5-11.85c0.13-0.19,0.13-0.45,0-0.64
				c-0.13-0.19-0.32-0.32-0.58-0.32h-10.25c-0.26,0-0.45,0.13-0.58,0.32l-9.61,19.22c-0.13,0.19-0.13,0.45,0,0.64
				c0.13,0.19,0.38,0.32,0.58,0.32h6.6l-7.18,17.11c-0.13,0.26,0,0.58,0.26,0.77c0.06,0.06,0.19,0.06,0.32,0.06
				c0.19,0,0.38-0.06,0.51-0.19l20.51-24.35C-86.58,88.32-86.52,88.06-86.65,87.8z M-105.49,108.76l5.9-14.1
				c0.06-0.19,0.06-0.38-0.06-0.58c-0.13-0.13-0.32-0.26-0.51-0.26h-6.54l8.97-17.94h8.71l-7.56,11.85c-0.13,0.19-0.13,0.45,0,0.64
				c0.13,0.19,0.32,0.32,0.58,0.32h7.43L-105.49,108.76z"/>
		</g>
	</g>
	<g>
		<g>
			<path d="M-84.61,89.22c-0.13-0.26-0.32-0.38-0.58-0.38h-7.56l7.5-11.85c0.13-0.19,0.13-0.45,0-0.64
				c-0.13-0.19-0.32-0.32-0.58-0.32h-10.25c-0.26,0-0.45,0.13-0.58,0.32l-9.61,19.22c-0.13,0.19-0.13,0.45,0,0.64
				c0.13,0.19,0.38,0.32,0.58,0.32h6.6l-7.18,17.11c-0.13,0.26,0,0.58,0.26,0.77c0.06,0.06,0.19,0.06,0.32,0.06
				c0.19,0,0.38-0.06,0.51-0.19l20.51-24.35C-84.54,89.73-84.48,89.47-84.61,89.22z M-103.45,110.17l5.9-14.1
				c0.06-0.19,0.06-0.38-0.06-0.58c-0.13-0.13-0.32-0.26-0.51-0.26h-6.54l8.97-17.94h8.71l-7.56,11.85c-0.13,0.19-0.13,0.45,0,0.64
				c0.13,0.19,0.32,0.32,0.58,0.32h7.43L-103.45,110.17z"/>
		</g>
	</g>
</g>
</svg>
