<?xml version="1.0" encoding="utf-8"?>
<!-- Generator: Adobe Illustrator 24.0.0, SVG Export Plug-In . SVG Version: 6.00 Build 0)  -->
<svg version="1.1" id="Layer_1" xmlns="http://www.w3.org/2000/svg" xmlns:xlink="http://www.w3.org/1999/xlink" x="0px" y="0px"
	 viewBox="0 0 50 38" style="enable-background:new 0 0 50 38;" xml:space="preserve">
<g>
	<g>
		<path d="M32.77,17.09l-11-6.02c-0.63-0.35-1.38-0.33-2,0.03c-0.62,0.37-0.99,1.02-0.99,1.74v11.93c0,0.72,0.37,1.37,0.98,1.73
			c0.32,0.19,0.68,0.29,1.04,0.29c0.33,0,0.66-0.08,0.96-0.24l11-5.91c0.65-0.35,1.06-1.03,1.06-1.77
			C33.83,18.13,33.42,17.45,32.77,17.09z M21.7,23.28v-8.92l8.22,4.5L21.7,23.28z"/>
	</g>
	<g>
		<path d="M49.63,9.37l0-0.02c-0.04-0.4-0.46-3.96-2.19-5.78c-2-2.13-4.27-2.39-5.36-2.52c-0.09-0.01-0.17-0.02-0.25-0.03
			l-0.09-0.01c-6.58-0.48-16.52-0.54-16.62-0.54l-0.01,0l-0.01,0c-0.1,0-10.04,0.07-16.68,0.54L8.34,1.02
			C8.27,1.03,8.19,1.04,8.1,1.05C7.02,1.18,4.78,1.44,2.77,3.64C1.12,5.44,0.64,8.92,0.59,9.32L0.59,9.37
			c-0.01,0.17-0.37,4.14-0.37,8.12v3.72c0,3.98,0.35,7.95,0.37,8.12l0,0.03c0.04,0.39,0.46,3.89,2.19,5.71
			c1.88,2.06,4.26,2.33,5.54,2.48c0.2,0.02,0.38,0.04,0.5,0.06l0.12,0.02c3.8,0.36,15.71,0.54,16.22,0.55l0.02,0l0.02,0
			c0.1,0,10.04-0.07,16.62-0.54l0.09-0.01c0.08-0.01,0.18-0.02,0.28-0.03c1.07-0.11,3.31-0.35,5.29-2.53
			c1.65-1.79,2.13-5.28,2.18-5.67l0.01-0.05C49.65,29.17,50,25.2,50,21.21v-3.72C50,13.5,49.65,9.53,49.63,9.37z M47.08,21.21
			c0,3.69-0.32,7.49-0.35,7.83c-0.12,0.96-0.63,3.17-1.43,4.04c-1.24,1.36-2.51,1.5-3.44,1.6c-0.11,0.01-0.22,0.02-0.31,0.03
			c-6.36,0.46-15.93,0.53-16.37,0.53c-0.49-0.01-12.23-0.19-15.92-0.53c-0.19-0.03-0.39-0.05-0.61-0.08
			c-1.09-0.12-2.58-0.3-3.73-1.56L4.9,33.06c-0.79-0.82-1.28-2.89-1.4-4c-0.02-0.26-0.35-4.11-0.35-7.85v-3.72
			c0-3.68,0.32-7.48,0.35-7.83c0.15-1.13,0.66-3.2,1.43-4.04C6.2,4.21,7.55,4.05,8.44,3.95C8.52,3.94,8.6,3.93,8.68,3.92
			c6.46-0.46,16.09-0.53,16.43-0.53c0.35,0,9.97,0.07,16.37,0.53c0.08,0.01,0.16,0.02,0.26,0.03c0.92,0.1,2.3,0.26,3.57,1.62
			l0.01,0.01c0.79,0.82,1.28,2.92,1.4,4.06c0.02,0.25,0.35,4.1,0.35,7.85V21.21z"/>
	</g>
</g>
</svg>
